<?xml version="1.0" encoding="UTF-8" standalone="no"?>
<!-- Created with Inkscape (http://www.inkscape.org/) -->

<svg
   width="256"
   height="256"
   viewBox="0 0 67.733332 67.733333"
   version="1.1"
   id="svg1"
   xml:space="preserve"
   inkscape:version="1.4.2 (f4327f4, 2025-05-13)"
   sodipodi:docname="aproxximation-difference.svg"
   xmlns:inkscape="http://www.inkscape.org/namespaces/inkscape"
   xmlns:sodipodi="http://sodipodi.sourceforge.net/DTD/sodipodi-0.dtd"
   xmlns="http://www.w3.org/2000/svg"
   xmlns:svg="http://www.w3.org/2000/svg"><sodipodi:namedview
     id="namedview1"
     pagecolor="#ffffff"
     bordercolor="#000000"
     borderopacity="0.25"
     inkscape:showpageshadow="2"
     inkscape:pageopacity="0.0"
     inkscape:pagecheckerboard="0"
     inkscape:deskcolor="#d1d1d1"
     inkscape:document-units="mm"
     inkscape:zoom="2.1647727"
     inkscape:cx="192.16798"
     inkscape:cy="153.13386"
     inkscape:window-width="2560"
     inkscape:window-height="1417"
     inkscape:window-x="-8"
     inkscape:window-y="-8"
     inkscape:window-maximized="1"
     inkscape:current-layer="layer1" /><defs
     id="defs1"><clipPath
       id="nTxLtNlDOpDI"><path
         fill="none"
         stroke="none"
         d="M 0,0 H 2164 V 1291 H 0 Z"
         id="path1" /></clipPath><clipPath
       clipPathUnits="userSpaceOnUse"
       id="clipPath2"><rect
         style="font-variation-settings:'wght' 700;fill:#3d5562;stroke:#3d5562;stroke-width:24.7033;stroke-linecap:round;stroke-opacity:0"
         id="rect3"
         width="404.67795"
         height="404.59106"
         x="873.82196"
         y="657.909" /></clipPath></defs><g
     inkscape:label="Layer 1"
     inkscape:groupmode="layer"
     id="layer1"><g
       id="g12"
       clip-path="url(#clipPath2)"
       transform="matrix(0.16737591,0,0,0.16737591,-146.25675,-110.10358)"><rect
         fill="#ffffff"
         stroke="none"
         x="0"
         y="0"
         width="2164"
         height="1291"
         fill-opacity="1"
         id="rect1" /><path
         fill="none"
         stroke="#c0c0c0"
         paint-order="fill stroke markers"
         d="m 13.5,0.5 v 1291 m 0,-1291 v 1291 m 51,-1291 v 1291 m 50,-1291 v 1291 m 51,-1291 v 1291 m 51,-1291 v 1291 m 50,-1291 v 1291 m 51,-1291 v 1291 m 50,-1291 v 1291 m 51,-1291 v 1291 m 51,-1291 v 1291 m 50,-1291 v 1291 m 51,-1291 v 1291 m 50,-1291 v 1291 m 51,-1291 v 1291 m 51,-1291 v 1291 m 50,-1291 v 1291 m 51,-1291 v 1291 m 50,-1291 v 1291 m 51,-1291 v 1291 m 51,-1291 v 1291 m 50,-1291 v 1291 m 101,-1291 v 1291 m 51,-1291 v 1291 m 51,-1291 v 1291 m 50,-1291 v 1291 m 51,-1291 v 1291 m 50,-1291 v 1291 m 51,-1291 v 1291 m 51,-1291 v 1291 m 50,-1291 v 1291 m 51,-1291 v 1291 m 50,-1291 v 1291 m 51,-1291 v 1291 m 51,-1291 v 1291 m 50,-1291 v 1291 m 51,-1291 v 1291 m 50,-1291 v 1291 m 51,-1291 v 1291 m 51,-1291 v 1291 m 50,-1291 v 1291 m 51,-1291 v 1291 m 51,-1291 v 1291"
         stroke-opacity="1"
         stroke-linecap="round"
         stroke-linejoin="round"
         stroke-miterlimit="10"
         id="path2" /><path
         fill="none"
         stroke="#c0c0c0"
         paint-order="fill stroke markers"
         d="m 3.5,0.5 v 1291 m 20,-1291 v 1291 m 10,-1291 v 1291 m 11,-1291 v 1291 m 10,-1291 v 1291 m 20,-1291 v 1291 m 10,-1291 v 1291 m 10,-1291 v 1291 m 10,-1291 v 1291 m 20,-1291 v 1291 m 11,-1291 v 1291 m 10,-1291 v 1291 m 10,-1291 v 1291 m 20,-1291 v 1291 m 10,-1291 v 1291 m 10,-1291 v 1291 m 10,-1291 v 1291 m 21,-1291 v 1291 m 10,-1291 v 1291 m 10,-1291 v 1291 m 10,-1291 v 1291 m 20,-1291 v 1291 m 10,-1291 v 1291 m 11,-1291 v 1291 m 10,-1291 v 1291 m 20,-1291 v 1291 m 10,-1291 v 1291 m 10,-1291 v 1291 m 10,-1291 v 1291 m 20,-1291 v 1291 m 11,-1291 v 1291 m 10,-1291 v 1291 m 10,-1291 v 1291 m 20,-1291 v 1291 m 10,-1291 v 1291 m 10,-1291 v 1291 m 10,-1291 v 1291 m 21,-1291 v 1291 m 10,-1291 v 1291 m 10,-1291 v 1291 m 10,-1291 v 1291 m 20,-1291 v 1291 m 10,-1291 v 1291 m 11,-1291 v 1291 m 10,-1291 v 1291 m 20,-1291 v 1291 m 10,-1291 v 1291 m 10,-1291 v 1291 m 10,-1291 v 1291 m 21,-1291 v 1291 m 10,-1291 v 1291 m 10,-1291 v 1291 m 10,-1291 v 1291 m 20,-1291 v 1291 m 10,-1291 v 1291 m 10,-1291 v 1291 m 10,-1291 v 1291 m 21,-1291 v 1291 m 10,-1291 v 1291 m 10,-1291 v 1291 m 10,-1291 v 1291 m 20,-1291 v 1291 m 10,-1291 v 1291 m 11,-1291 v 1291 m 10,-1291 v 1291 m 20,-1291 v 1291 m 10,-1291 v 1291 m 10,-1291 v 1291 m 10,-1291 v 1291 m 21,-1291 v 1291 m 10,-1291 v 1291 m 10,-1291 v 1291 m 10,-1291 v 1291 m 20,-1291 v 1291 m 10,-1291 v 1291 m 10,-1291 v 1291 m 10,-1291 v 1291 m 21,-1291 v 1291 m 10,-1291 v 1291 m 10,-1291 v 1291 m 10,-1291 v 1291 m 20,-1291 v 1291 m 10,-1291 v 1291 m 11,-1291 v 1291 m 10,-1291 v 1291 m 20,-1291 v 1291 m 10,-1291 v 1291 m 10,-1291 v 1291 m 10,-1291 v 1291 m 21,-1291 v 1291 m 10,-1291 v 1291 m 10,-1291 v 1291 m 10,-1291 v 1291 m 20,-1291 v 1291 m 10,-1291 v 1291 m 10,-1291 v 1291 m 11,-1291 v 1291 m 20,-1291 v 1291 m 10,-1291 v 1291 m 10,-1291 v 1291 m 10,-1291 v 1291 m 20,-1291 v 1291 m 10,-1291 v 1291 m 11,-1291 v 1291 m 10,-1291 v 1291 m 20,-1291 v 1291 m 10,-1291 v 1291 m 10,-1291 v 1291 m 10,-1291 v 1291 m 21,-1291 v 1291 m 10,-1291 v 1291 m 10,-1291 v 1291 m 10,-1291 v 1291 m 20,-1291 v 1291 m 10,-1291 v 1291 m 10,-1291 v 1291 m 11,-1291 v 1291 m 20,-1291 v 1291 m 10,-1291 v 1291 m 10,-1291 v 1291 m 10,-1291 v 1291 m 20,-1291 v 1291 m 10,-1291 v 1291 m 11,-1291 v 1291 m 10,-1291 v 1291 m 20,-1291 v 1291 m 10,-1291 v 1291 m 10,-1291 v 1291 m 10,-1291 v 1291 m 21,-1291 v 1291 m 10,-1291 v 1291 m 10,-1291 v 1291 m 10,-1291 v 1291 m 20,-1291 v 1291 m 10,-1291 v 1291 m 10,-1291 v 1291 m 11,-1291 v 1291 m 20,-1291 v 1291 m 10,-1291 v 1291 m 10,-1291 v 1291 m 10,-1291 v 1291 m 20,-1291 v 1291 m 11,-1291 v 1291 m 10,-1291 v 1291 m 10,-1291 v 1291 m 20,-1291 v 1291 m 10,-1291 v 1291 m 10,-1291 v 1291 m 10,-1291 v 1291 m 21,-1291 v 1291 m 10,-1291 v 1291 m 10,-1291 v 1291 m 10,-1291 v 1291 m 20,-1291 v 1291 m 10,-1291 v 1291 m 10,-1291 v 1291 m 11,-1291 v 1291 m 20,-1291 v 1291 m 10,-1291 v 1291 m 10,-1291 v 1291 m 10,-1291 v 1291 m 20,-1291 v 1291 m 11,-1291 v 1291 m 10,-1291 v 1291 m 10,-1291 v 1291 m 20,-1291 v 1291 m 10,-1291 v 1291 m 10,-1291 v 1291 m 10,-1291 v 1291 m 21,-1291 v 1291 m 10,-1291 v 1291"
         stroke-opacity="0.235294"
         stroke-linecap="round"
         stroke-linejoin="round"
         stroke-miterlimit="10"
         id="path3" /><path
         fill="none"
         stroke="#c0c0c0"
         paint-order="fill stroke markers"
         d="m 0.5,50.5 h 2164 m -2164,0 h 2164 m -2164,51 h 2164 m -2164,50 h 2164 m -2164,51 h 2164 m -2164,50 h 2164 m -2164,51 h 2164 m -2164,51 h 2164 m -2164,50 h 2164 m -2164,51 h 2164 m -2164,50 h 2164 m -2164,51 h 2164 m -2164,51 h 2164 m -2164,50 h 2164 m -2164,51 h 2164 m -2164,50 h 2164 m -2164,51 h 2164 m -2164,101 h 2164 m -2164,51 h 2164 m -2164,50 h 2164 m -2164,51 h 2164 m -2164,51 h 2164 m -2164,50 h 2164 m -2164,51 h 2164 m -2164,50 h 2164"
         stroke-opacity="1"
         stroke-linecap="round"
         stroke-linejoin="round"
         stroke-miterlimit="10"
         id="path4" /><path
         fill="none"
         stroke="#c0c0c0"
         paint-order="fill stroke markers"
         d="m 0.5,9.5 h 2164 m -2164,11 h 2164 m -2164,10 h 2164 m -2164,10 h 2164 m -2164,20 h 2164 m -2164,10 h 2164 m -2164,10 h 2164 m -2164,10 h 2164 m -2164,21 h 2164 m -2164,10 h 2164 m -2164,10 h 2164 m -2164,10 h 2164 m -2164,20 h 2164 m -2164,10 h 2164 m -2164,10 h 2164 m -2164,11 h 2164 m -2164,20 h 2164 m -2164,10 h 2164 m -2164,10 h 2164 m -2164,10 h 2164 m -2164,20 h 2164 m -2164,11 h 2164 m -2164,10 h 2164 m -2164,10 h 2164 m -2164,20 h 2164 m -2164,10 h 2164 m -2164,10 h 2164 m -2164,10 h 2164 m -2164,21 h 2164 m -2164,10 h 2164 m -2164,10 h 2164 m -2164,10 h 2164 m -2164,20 h 2164 m -2164,10 h 2164 m -2164,10 h 2164 m -2164,11 h 2164 m -2164,20 h 2164 m -2164,10 h 2164 m -2164,10 h 2164 m -2164,10 h 2164 m -2164,20 h 2164 m -2164,11 h 2164 m -2164,10 h 2164 m -2164,10 h 2164 m -2164,20 h 2164 m -2164,10 h 2164 m -2164,10 h 2164 m -2164,10 h 2164 m -2164,21 h 2164 m -2164,10 h 2164 m -2164,10 h 2164 m -2164,10 h 2164 m -2164,20 h 2164 m -2164,10 h 2164 m -2164,11 h 2164 m -2164,10 h 2164 m -2164,20 h 2164 m -2164,10 h 2164 m -2164,10 h 2164 m -2164,10 h 2164 m -2164,20 h 2164 m -2164,11 h 2164 m -2164,10 h 2164 m -2164,10 h 2164 m -2164,20 h 2164 m -2164,10 h 2164 m -2164,10 h 2164 m -2164,10 h 2164 m -2164,21 h 2164 m -2164,10 h 2164 m -2164,10 h 2164 m -2164,10 h 2164 m -2164,20 h 2164 m -2164,10 h 2164 m -2164,11 h 2164 m -2164,10 h 2164 m -2164,20 h 2164 m -2164,10 h 2164 m -2164,10 h 2164 m -2164,10 h 2164 m -2164,20 h 2164 m -2164,11 h 2164 m -2164,10 h 2164 m -2164,10 h 2164 m -2164,20 h 2164 m -2164,10 h 2164 m -2164,10 h 2164 m -2164,10 h 2164 m -2164,21 h 2164 m -2164,10 h 2164 m -2164,10 h 2164 m -2164,10 h 2164 m -2164,20 h 2164 m -2164,10 h 2164 m -2164,11 h 2164 m -2164,10 h 2164 m -2164,20 h 2164 m -2164,10 h 2164 m -2164,10 h 2164 m -2164,10 h 2164 m -2164,21 h 2164 m -2164,10 h 2164"
         stroke-opacity="0.235294"
         stroke-linecap="round"
         stroke-linejoin="round"
         stroke-miterlimit="10"
         id="path5" /><path
         fill="none"
         stroke="#252525"
         paint-order="fill stroke markers"
         d="m 1076.5,2.5 v 1289"
         stroke-opacity="1"
         stroke-miterlimit="10"
         id="path6" /><path
         fill="none"
         stroke="#252525"
         paint-order="fill stroke markers"
         d="m 1076.5,1.5 -4,4"
         stroke-opacity="1"
         stroke-miterlimit="10"
         id="path7" /><path
         fill="none"
         stroke="#252525"
         paint-order="fill stroke markers"
         d="m 1076.5,1.5 4,4"
         stroke-opacity="1"
         stroke-miterlimit="10"
         id="path8" /><path
         fill="none"
         stroke="#252525"
         paint-order="fill stroke markers"
         d="m 0.5,860.5 h 2162"
         stroke-opacity="1"
         stroke-miterlimit="10"
         id="path9" /><path
         fill="none"
         stroke="#252525"
         paint-order="fill stroke markers"
         d="m 2163.5,860.5 -4,-4"
         stroke-opacity="1"
         stroke-miterlimit="10"
         id="path10" /><path
         fill="none"
         stroke="#252525"
         paint-order="fill stroke markers"
         d="m 2163.5,860.5 -4,4"
         stroke-opacity="1"
         stroke-miterlimit="10"
         id="path11" /><path
         fill="none"
         stroke="#6557d2"
         paint-order="fill stroke markers"
         d="M 1192.6227,-10 H 773.88848 l 0.6291,5.2145815 1.05664,8.7144103 1.05664,8.6702832 1.05664,8.626157 1.05664,8.58203 1.05664,8.537904 1.05664,8.493776 1.05664,8.44965 1.05664,8.405523 1.05664,8.361396 1.05664,8.31727 1.05664,8.273143 1.05665,8.229016 1.05664,8.18489 1.05664,8.14076 1.05664,8.09664 1.05664,8.05251 1.05664,8.00838 1.05664,7.96425 1.05664,7.92013 1.05664,7.876 1.05664,7.83188 1.05664,7.78775 1.05664,7.74362 1.05664,7.6995 1.05664,7.65536 1.05664,7.61124 1.05664,7.56712 1.05665,7.52299 1.05664,7.47886 1.05664,7.43473 1.05664,7.39061 1.05664,7.34648 1.05664,7.30236 1.05664,7.25822 1.05664,7.2141 1.05664,7.16998 1.05664,7.12585 1.05664,7.08172 1.05664,7.03759 1.05664,6.99347 1.05664,6.94934 1.05664,6.90521 1.05664,6.86109 1.05665,6.81696 1.05664,6.77283 1.05664,6.72871 1.05664,6.68457 1.05664,6.64046 1.05664,6.59632 1.05664,6.5522 1.05664,6.50808 1.05664,6.46394 1.05664,6.41982 1.05664,6.37569 1.05664,6.33157 1.05664,6.28744 1.05664,6.24331 1.05664,6.19918 1.05664,6.15506 1.05665,6.11093 1.05664,6.06681 1.05664,6.02268 1.05664,5.97855 1.05664,5.93442 1.05664,5.8903 1.05664,5.84617 1.05664,5.80205 1.05664,5.75792 1.05664,5.71379 1.05664,5.66966 1.05664,5.62554 1.05664,5.58141 1.05664,5.53728 1.05664,5.49316 1.05665,5.44903 1.05664,5.4049 1.05664,5.36078 1.05664,5.31665 1.05664,5.27253 1.05664,5.22839 1.05664,5.18427 1.05664,5.14014 1.05664,5.09602 1.05664,5.05189 1.05664,5.00776 2.11328,9.88315 2.11328,9.70664 2.11328,9.53013 2.11329,9.35362 2.11328,9.17712 2.11328,9.00061 2.11328,8.8241 2.11328,8.6476 2.11328,8.47109 2.11328,8.29458 2.11328,8.11808 2.11329,7.94157 2.11328,7.76506 2.11328,7.58855 2.11328,7.41205 2.11328,7.23554 2.11328,7.05903 2.11328,6.88253 2.11328,6.70602 2.11329,6.52951 2.11328,6.35301 2.11328,6.17649 2.11328,5.99999 2.11328,5.82349 2.11328,5.64698 2.11328,5.47047 2.11328,5.29396 2.11329,5.11745 2.11328,4.94095 4.22656,9.35238 4.22656,8.64635 4.22657,7.94032 4.22656,7.23429 4.22656,6.52827 4.22656,5.82223 4.22656,5.11621 4.22657,4.41018 4.22656,3.70415 4.22656,2.99813 4.22656,2.29209 4.22657,1.58607 4.22656,0.88004 4.22656,0.17401 4.22656,-0.53201 4.22657,-1.23805 4.22656,-1.94407 4.22655,-2.6501 4.2266,-3.35613 4.2265,-4.06216 4.2266,-4.76818 4.2266,-5.47422 4.2265,-6.18024 4.2266,-6.88627 4.2266,-7.59229 4.2265,-8.29833 4.2266,-9.00435 4.2265,-9.71038 2.1133,-5.11996 2.1133,-5.29645 2.1133,-5.47297 2.1133,-5.64947 2.1132,-5.82598 2.1133,-6.00249 2.1133,-6.17899 2.1133,-6.3555 2.1133,-6.53201 2.1133,-6.70851 2.1132,-6.88503 2.1133,-7.06152 2.1133,-7.23804 2.1133,-7.41454 2.1133,-7.59105 2.1132,-7.76756 2.1133,-7.94406 2.1133,-8.12057 2.1133,-8.29708 2.1133,-8.47359 2.1132,-8.65009 2.1133,-8.8266 2.1133,-9.0031 2.1133,-9.17961 2.1133,-9.35612 2.1133,-9.53263 2.1132,-9.70913 2.1133,-9.88565 1.0567,-5.00901 1.0566,-5.05313 1.0566,-5.09727 1.0567,-5.14139 1.0566,-5.18552 1.0567,-5.22964 1.0566,-5.27377 1.0566,-5.3179 1.0567,-5.36202 1.0566,-5.40616 1.0567,-5.45027 1.0566,-5.49441 1.0566,-5.53853 1.0567,-5.58266 1.0566,-5.62678 1.0567,-5.67092 1.0566,-5.71503 1.0566,-5.75917 1.0567,-5.80329 1.0566,-5.84742 1.0567,-5.89155 1.0566,-5.93567 1.0566,-5.9798 1.0567,-6.02392 1.0566,-6.06806 1.0567,-6.11218 1.0566,-6.1563 1.0567,-6.20044 1.0566,-6.24456 1.0566,-6.28868 1.0567,-6.33281 1.0566,-6.37694 1.0567,-6.42107 1.0566,-6.4652 1.0566,-6.50932 1.0567,-6.55344 1.0566,-6.59758 1.0567,-6.6417 1.0566,-6.68582 1.0566,-6.72996 1.0567,-6.77408 1.0566,-6.81821 1.0567,-6.86233 1.0566,-6.90646 1.0566,-6.95059 1.0567,-6.99471 1.0566,-7.03885 1.0567,-7.08296 1.0566,-7.1271 1.0566,-7.17122 1.0567,-7.21535 1.0566,-7.25947 1.0567,-7.30361 1.0566,-7.34772 1.0566,-7.39186 1.0567,-7.43598 1.0566,-7.48011 1.0567,-7.52424 1.0566,-7.56836 1.0567,-7.61249 1.0566,-7.65661 1.0566,-7.70075 1.0567,-7.74487 1.0566,-7.78899 1.0567,-7.83312 1.0566,-7.87725 1.0566,-7.92138 1.0567,-7.9655 1.0566,-8.00963 1.0567,-8.05376 1.0566,-8.09788 1.0566,-8.14201 1.0567,-8.186141 1.0566,-8.230264 1.0567,-8.274391 1.0566,-8.318517 1.0566,-8.362644 1.0567,-8.406771 1.0566,-8.450897 1.0567,-8.495024 1.0566,-8.539151 1.0566,-8.583278 1.0567,-8.627405 1.0566,-8.671531 1.0567,-8.715658"
         stroke-opacity="0.8"
         stroke-linecap="round"
         stroke-linejoin="round"
         stroke-miterlimit="10"
         stroke-width="2.5"
         id="path12" /><text
         fill="#6557d2"
         stroke="none"
         font-family="geogebra-sans-serif, sans-serif"
         font-size="16px"
         font-style="normal"
         font-weight="normal"
         text-decoration="normal"
         x="775"
         y="24"
         text-anchor="start"
         dominant-baseline="alphabetic"
         fill-opacity="1"
         id="text12">s</text></g></g></svg>
