<?xml version="1.0" encoding="UTF-8" standalone="no"?>
<!-- Created with Inkscape (http://www.inkscape.org/) -->

<svg
   width="190"
   height="43"
   viewBox="0 0 50.270833 11.377083"
   version="1.1"
   id="svg1"
   xml:space="preserve"
   inkscape:version="1.4.2 (f4327f4, 2025-05-13)"
   sodipodi:docname="expression-thumbnail.svg"
   xmlns:inkscape="http://www.inkscape.org/namespaces/inkscape"
   xmlns:sodipodi="http://sodipodi.sourceforge.net/DTD/sodipodi-0.dtd"
   xmlns="http://www.w3.org/2000/svg"
   xmlns:svg="http://www.w3.org/2000/svg"><sodipodi:namedview
     id="namedview1"
     pagecolor="#ffffff"
     bordercolor="#000000"
     borderopacity="0.25"
     inkscape:showpageshadow="2"
     inkscape:pageopacity="0.0"
     inkscape:pagecheckerboard="0"
     inkscape:deskcolor="#d1d1d1"
     inkscape:document-units="mm"
     inkscape:zoom="3.1168846"
     inkscape:cx="30.479152"
     inkscape:cy="27.75207"
     inkscape:window-width="2560"
     inkscape:window-height="1417"
     inkscape:window-x="-8"
     inkscape:window-y="-8"
     inkscape:window-maximized="1"
     inkscape:current-layer="layer1" /><defs
     id="defs1"><clipPath
       id="tqARUucrftBk"><path
         fill="none"
         stroke="none"
         d=" M 0 0 L 256 0 L 256 58 L 0 58 L 0 0 Z"
         id="path1" /></clipPath><clipPath
       id="rWCzMEeLdHTt"><path
         fill="none"
         stroke="none"
         d=" M 0 0 L 198 0 L 198 58 L 0 58 L 0 0 Z"
         id="path1-4" /></clipPath><clipPath
       id="SBQWPXROwApp"><path
         fill="none"
         stroke="none"
         d=" M 0 0 L 238 0 L 238 58 L 0 58 L 0 0 Z"
         id="path1-8" /></clipPath><clipPath
       clipPathUnits="userSpaceOnUse"
       id="clipPath1"><rect
         style="font-variation-settings:'wght' 700;fill:#3d5562;stroke:#3d5562;stroke-width:3.28441;stroke-linecap:round"
         id="rect2"
         width="393.98312"
         height="119.99161"
         x="-445.36383"
         y="127.18334" /></clipPath></defs><g
     inkscape:label="Layer 1"
     inkscape:groupmode="layer"
     id="layer1"><g
       transform="matrix(0.22160953,0,0,0.22160953,82.179864,-31.940757)"
       id="g21"
       clip-path="url(#clipPath1)"><path
         fill="none"
         stroke="#ffffff"
         paint-order="fill stroke markers"
         d="M 4.44,13.76 9.75,19.07 21.99,6.83"
         stroke-opacity="1"
         stroke-linecap="square"
         stroke-miterlimit="10"
         stroke-width="2.6"
         id="path3" /><g
         transform="translate(-448,-115)"
         id="g20"><text
           fill="#000000"
           stroke="none"
           font-family="geogebra-sans-serif, sans-serif"
           font-size="32px"
           font-style="normal"
           font-weight="normal"
           text-decoration="normal"
           x="483"
           y="140"
           text-anchor="start"
           dominant-baseline="alphabetic"
           fill-opacity="1"
           id="text3">Serif</text><g
           transform="scale(35)"
           id="g14"><g
             transform="translate(2.2857143,8.4071429)"
             id="g4"><path
               fill="#000000"
               stroke="none"
               paint-order="stroke fill markers"
               d="m 0.294,-0.64 v 0.561 q 0,0.03 0.012,0.038 0.017,0.01 0.081,0.01 H 0.419 V 0 Q 0.384,-0.003 0.257,-0.003 0.13,-0.003 0.095,0 v -0.031 h 0.032 q 0.077,0 0.088,-0.018 L 0.216,-0.05 Q 0.22,-0.058 0.22,-0.079 v -0.518 q -0.052,0.026 -0.131,0.026 v -0.031 q 0.12,0 0.182,-0.064 0.019,0 0.022,0.007 v 0 0.001 q 0.001,0.003 0.001,0.018 z"
               id="path4" /></g><g
             transform="translate(2.7857143,8.4071429)"
             id="g5"><path
               fill="#000000"
               stroke="none"
               paint-order="stroke fill markers"
               d="m 0.449,-0.201 v 0 q 0,0.103 -0.077,0.17 Q 0.31,0.022 0.231,0.022 0.139,0.022 0.085,-0.055 0.05,-0.104 0.05,-0.161 q 0,-0.046 0.041,-0.052 0.004,-0.001 0.008,-0.001 0.037,0 0.048,0.033 0.002,0.008 0.002,0.016 0,0.032 -0.028,0.044 -0.01,0.005 -0.022,0.005 -0.011,0 -0.017,-0.002 0.018,0.063 0.077,0.094 0.033,0.018 0.07,0.018 0.067,0 0.107,-0.065 0.024,-0.042 0.024,-0.137 0,-0.084 -0.018,-0.126 -0.028,-0.064 -0.085,-0.064 -0.081,0 -0.129,0.07 -0.006,0.009 -0.013,0.009 -0.013,0 -0.014,-0.014 v -0.012 -0.296 q 0,-0.023 0.01,-0.024 0.004,0 0.012,0.003 0.063,0.028 0.133,0.028 0.072,0 0.136,-0.029 0.005,-0.003 0.008,-0.003 0.01,0 0.01,0.011 0,0.013 -0.032,0.042 -0.068,0.062 -0.161,0.062 -0.042,0 -0.085,-0.013 v 0.195 q 0.052,-0.051 0.127,-0.051 0.088,0 0.145,0.077 0.045,0.061 0.045,0.142 z"
               id="path5" /></g><g
             transform="translate(3.2857143,8.4071429)"
             id="g6"><path
               fill="#000000"
               stroke="none"
               paint-order="stroke fill markers"
               d="M 0.439,-0.712 0.097,0.226 Q 0.089,0.247 0.081,0.249 L 0.08,0.25 H 0.075 Q 0.059,0.25 0.056,0.235 0.055,0.232 0.055,0.23 0.055,0.225 0.06,0.212 l 0.347,-0.953 q 0.005,-0.009 0.017,-0.009 0.016,0 0.019,0.015 0.001,0.003 0.001,0.005 0,0.005 -0.005,0.018 z"
               id="path6" /></g><g
             transform="translate(3.7857143,8.4071429)"
             id="g7"><path
               fill="#000000"
               stroke="none"
               paint-order="stroke fill markers"
               d="m 0.331,0.24 v 0 q 0,0.01 -0.01,0.01 Q 0.309,0.25 0.268,0.209 0.206,0.147 0.165,0.062 0.099,-0.074 0.099,-0.25 q 0,-0.169 0.063,-0.305 0.052,-0.111 0.132,-0.178 0.021,-0.017 0.027,-0.017 0.01,0 0.01,0.01 0,0.005 -0.013,0.017 -0.161,0.164 -0.161,0.473 0,0.308 0.157,0.468 0.017,0.017 0.017,0.022 z"
               id="path7" /></g><g
             transform="translate(4.1747143,8.4071429)"
             id="g8"><path
               fill="#000000"
               stroke="none"
               paint-order="stroke fill markers"
               d="m 0.449,-0.174 v 0 L 0.421,0 H 0.05 q 0,-0.025 0.006,-0.032 l 0.005,-0.005 0.192,-0.214 q 0.105,-0.118 0.105,-0.221 0,-0.089 -0.054,-0.135 L 0.303,-0.608 H 0.302 Q 0.27,-0.635 0.224,-0.635 q -0.072,0 -0.115,0.062 -0.012,0.018 -0.02,0.04 0.003,-0.001 0.013,-0.001 0.04,0 0.051,0.036 v 0.001 q 0.002,0.007 0.002,0.015 0,0.04 -0.038,0.051 -0.008,0.002 -0.014,0.002 -0.037,0 -0.049,-0.031 -0.004,-0.011 -0.004,-0.025 0,-0.077 0.059,-0.132 0.053,-0.049 0.128,-0.049 0.11,0 0.171,0.074 0.035,0.043 0.04,0.102 0.001,0.009 0.001,0.018 0,0.073 -0.055,0.139 -0.029,0.034 -0.09,0.09 l -0.061,0.054 -0.01,0.009 -0.106,0.103 h 0.18 q 0.088,0 0.095,-0.008 0.01,-0.014 0.022,-0.089 z"
               id="path8" /></g><g
             transform="translate(4.8969365,8.4071429)"
             id="g9"><path
               fill="#000000"
               stroke="none"
               paint-order="stroke fill markers"
               d="m 0.409,-0.23 v 0.28 q 0,0.032 -0.02,0.033 -0.02,0 -0.02,-0.033 v -0.28 h -0.28 q -0.032,0 -0.033,-0.02 0,-0.02 0.033,-0.02 h 0.28 v -0.28 q 0,-0.032 0.02,-0.033 0.02,0 0.02,0.033 v 0.28 h 0.279 q 0.032,0 0.033,0.02 0,0.02 -0.033,0.02 z"
               id="path9" /></g><g
             transform="translate(5.8971587,8.4071429)"
             id="g10"><path
               fill="#000000"
               stroke="none"
               paint-order="stroke fill markers"
               d="m 0.476,-0.609 -0.135,0.19 q -0.043,0.06 -0.062,0.171 -0.011,0.074 -0.011,0.164 v 0.051 q 0,0.055 -0.046,0.055 -0.046,0 -0.046,-0.055 0,-0.167 0.097,-0.335 L 0.299,-0.409 0.411,-0.567 H 0.204 q -0.091,0 -0.098,0.006 -0.01,0.009 -0.025,0.091 H 0.056 l 0.033,-0.206 h 0.025 q 0.004,0.017 0.018,0.023 h 0.001 v 0 q 0.026,0.009 0.109,0.009 h 0.243 q 0,0.023 -0.009,0.035 z"
               id="path10" /></g><g
             transform="translate(6.3971587,8.4071429)"
             id="g11"><path
               fill="#000000"
               stroke="none"
               paint-order="stroke fill markers"
               d="m 0.289,-0.25 v 0 q 0,0.169 -0.063,0.305 Q 0.174,0.166 0.094,0.233 0.073,0.25 0.067,0.25 q -0.01,0 -0.01,-0.01 0,-0.005 0.013,-0.017 0.161,-0.164 0.161,-0.473 0,-0.305 -0.15,-0.462 L 0.076,-0.717 Q 0.057,-0.735 0.057,-0.74 q 0,-0.01 0.01,-0.01 0.012,0 0.053,0.041 0.062,0.062 0.103,0.147 0.066,0.136 0.066,0.312 z"
               id="path11" /></g><g
             transform="translate(6.9528254,8.4071429)"
             id="g12"><path
               fill="#000000"
               stroke="none"
               paint-order="stroke fill markers"
               d="m 0.409,-0.23 v 0.28 q 0,0.032 -0.02,0.033 -0.02,0 -0.02,-0.033 v -0.28 h -0.28 q -0.032,0 -0.033,-0.02 0,-0.02 0.033,-0.02 h 0.28 v -0.28 q 0,-0.032 0.02,-0.033 0.02,0 0.02,0.033 v 0.28 h 0.279 q 0.032,0 0.033,0.02 0,0.02 -0.033,0.02 z"
               id="path12" /></g><g
             transform="translate(7.9530476,8.4071429)"
             id="g13"><path
               fill="#000000"
               stroke="none"
               paint-order="stroke fill markers"
               d="m 0.163,-0.457 0.124,0.08 q 0.099,-0.058 0.099,-0.14 0,-0.066 -0.06,-0.103 -0.035,-0.021 -0.077,-0.021 -0.072,0 -0.113,0.045 v 0 l -0.001,0.001 q -0.022,0.026 -0.022,0.057 0,0.048 0.05,0.081 m 0.146,0.095 v 0 q 0.077,0.048 0.094,0.066 0.003,0.002 0.005,0.005 0.049,0.054 0.049,0.123 0,0.089 -0.074,0.145 -0.058,0.045 -0.134,0.045 -0.095,0 -0.157,-0.059 -0.05,-0.048 -0.05,-0.114 0,-0.112 0.144,-0.184 -0.062,-0.042 -0.073,-0.054 -0.044,-0.049 -0.044,-0.11 0,-0.08 0.067,-0.13 0.05,-0.037 0.114,-0.037 0.087,0 0.141,0.055 0.039,0.04 0.039,0.094 0,0.093 -0.121,0.155 m -0.1,0.042 v 0 q -0.112,0.07 -0.117,0.169 0,0.073 0.063,0.116 0.042,0.029 0.095,0.029 0.078,0 0.125,-0.049 0.032,-0.034 0.032,-0.077 0,-0.058 -0.064,-0.103 -0.002,-0.001 -0.011,-0.007 z"
               id="path13" /></g></g><path
           fill="#ffffff"
           stroke="none"
           paint-order="stroke fill markers"
           d="m 37.5,109 h 129 c 1.933,0 3.5,1.567 3.5,3.5 v 28 c 0,1.933 -1.567,3.5 -3.5,3.5 h -129 c -1.932997,0 -3.5,-1.567 -3.5,-3.5 v -28 c 0,-1.933 1.567003,-3.5 3.5,-3.5 z"
           fill-opacity="1"
           id="path14" /><path
           fill="none"
           stroke="#b3b3b3"
           paint-order="fill stroke markers"
           d="m 37.5,109 h 129 c 1.933,0 3.5,1.567 3.5,3.5 v 28 c 0,1.933 -1.567,3.5 -3.5,3.5 h -129 c -1.932997,0 -3.5,-1.567 -3.5,-3.5 v -28 c 0,-1.933 1.567003,-3.5 3.5,-3.5 z"
           stroke-opacity="1"
           stroke-linecap="round"
           stroke-linejoin="round"
           stroke-miterlimit="10"
           id="path15" /><text
           fill="#000000"
           stroke="none"
           font-family="geogebra-sans-serif, sans-serif"
           font-size="24px"
           font-style="normal"
           font-weight="normal"
           text-decoration="normal"
           x="44"
           y="136"
           text-anchor="start"
           dominant-baseline="alphabetic"
           fill-opacity="1"
           id="text15">Show SVG</text><path
           fill="#ffffff"
           stroke="none"
           paint-order="stroke fill markers"
           d="m 204.5,106 h 176 c 1.933,0 3.5,1.567 3.5,3.5 v 28 c 0,1.933 -1.567,3.5 -3.5,3.5 h -176 c -1.933,0 -3.5,-1.567 -3.5,-3.5 v -28 c 0,-1.933 1.567,-3.5 3.5,-3.5 z"
           fill-opacity="1"
           id="path16" /><path
           fill="none"
           stroke="#b3b3b3"
           paint-order="fill stroke markers"
           d="m 204.5,106 h 176 c 1.933,0 3.5,1.567 3.5,3.5 v 28 c 0,1.933 -1.567,3.5 -3.5,3.5 h -176 c -1.933,0 -3.5,-1.567 -3.5,-3.5 v -28 c 0,-1.933 1.567,-3.5 3.5,-3.5 z"
           stroke-opacity="1"
           stroke-linecap="round"
           stroke-linejoin="round"
           stroke-miterlimit="10"
           id="path17" /><text
           fill="#000000"
           stroke="none"
           font-family="geogebra-sans-serif, sans-serif"
           font-size="24px"
           font-style="normal"
           font-weight="normal"
           text-decoration="normal"
           x="211"
           y="133"
           text-anchor="start"
           dominant-baseline="alphabetic"
           fill-opacity="1"
           id="text17">Download SVG</text><path
           fill="#ffffff"
           stroke="none"
           paint-order="stroke fill markers"
           fill-rule="evenodd"
           d="m 212,30 h 510 c 2.20914,0 4,1.790861 4,4 v 41 c 0,2.209139 -1.79086,4 -4,4 H 212 c -2.20914,0 -4,-1.790861 -4,-4 V 34 c 0,-2.209139 1.79086,-4 4,-4 z"
           fill-opacity="1"
           id="path18" /><path
           fill="none"
           stroke="#b4b3ba"
           paint-order="fill stroke markers"
           d="m 212,30 h 510 c 2.20914,0 4,1.790861 4,4 v 41 c 0,2.209139 -1.79086,4 -4,4 H 212 c -2.20914,0 -4,-1.790861 -4,-4 V 34 c 0,-2.209139 1.79086,-4 4,-4 z"
           stroke-opacity="1"
           stroke-linecap="round"
           stroke-linejoin="round"
           stroke-miterlimit="10"
           id="path19" /><text
           fill="#000000"
           stroke="none"
           font-family="geogebra-sans-serif, sans-serif"
           font-size="32px"
           font-style="normal"
           font-weight="normal"
           text-decoration="normal"
           x="210"
           y="66"
           text-anchor="start"
           dominant-baseline="alphabetic"
           fill-opacity="1"
           id="text19">15/(2 + 7) + 8</text><text
           fill="#000000"
           stroke="none"
           font-family="geogebra-sans-serif, sans-serif"
           font-size="32px"
           font-style="normal"
           font-weight="normal"
           text-decoration="normal"
           x="30"
           y="66"
           text-anchor="start"
           dominant-baseline="alphabetic"
           fill-opacity="1"
           id="text20">Enter LaTeX</text></g></g></g></svg>
