<?xml version="1.0" encoding="UTF-8" standalone="no"?>
<svg
   version="1.1"
   width="256"
   height="256"
   id="svg14"
   sodipodi:docname="first-two-neuron-cumulative-effect.svg"
   inkscape:version="1.4.2 (f4327f4, 2025-05-13)"
   xmlns:inkscape="http://www.inkscape.org/namespaces/inkscape"
   xmlns:sodipodi="http://sodipodi.sourceforge.net/DTD/sodipodi-0.dtd"
   xmlns="http://www.w3.org/2000/svg"
   xmlns:svg="http://www.w3.org/2000/svg">
  <sodipodi:namedview
     id="namedview14"
     pagecolor="#ffffff"
     bordercolor="#000000"
     borderopacity="0.25"
     inkscape:showpageshadow="2"
     inkscape:pageopacity="0.0"
     inkscape:pagecheckerboard="0"
     inkscape:deskcolor="#d1d1d1"
     inkscape:zoom="2.6100967"
     inkscape:cx="29.883951"
     inkscape:cy="84.096502"
     inkscape:window-width="2560"
     inkscape:window-height="1417"
     inkscape:window-x="-8"
     inkscape:window-y="-8"
     inkscape:window-maximized="1"
     inkscape:current-layer="svg14" />
  <defs
     id="defs1">
    <clipPath
       id="CpCxcLhJqeBw">
      <path
         fill="none"
         stroke="none"
         d="M 0,0 H 1524 V 931 H 0 Z"
         id="path1" />
    </clipPath>
    <clipPath
       clipPathUnits="userSpaceOnUse"
       id="clipPath2">
      <rect
         style="font-variation-settings:'wght' 700;fill:#3d5562;stroke:#3d5562;stroke-width:3.06334;stroke-linecap:round;stroke-opacity:0;-inkscape-stroke:none"
         id="rect2"
         width="406.7312"
         height="407.50421"
         x="272.16611"
         y="266.27841" />
    </clipPath>
  </defs>
  <g
     transform="matrix(0.62821435,0,0,0.62821435,-170.49303,-167.27992)"
     clip-path="url(#clipPath2)"
     id="g14">
    <g
       id="g13">
      <rect
         fill="#ffffff"
         stroke="none"
         x="0"
         y="0"
         width="1524"
         height="931"
         fill-opacity="1"
         id="rect1" />
      <path
         fill="none"
         stroke="#c0c0c0"
         paint-order="fill stroke markers"
         d="m 18.5,0.5 v 931 m 0,-931 v 931 m 51,-931 v 931 m 51,-931 v 931 m 51,-931 v 931 m 50,-931 v 931 m 51,-931 v 931 m 51,-931 v 931 m 51,-931 v 931 m 50,-931 v 931 m 102,-931 v 931 m 51,-931 v 931 m 50,-931 v 931 m 51,-931 v 931 m 51,-931 v 931 m 51,-931 v 931 m 50,-931 v 931 m 51,-931 v 931 m 51,-931 v 931 m 51,-931 v 931 m 50,-931 v 931 m 51,-931 v 931 m 51,-931 v 931 m 51,-931 v 931 m 50,-931 v 931 m 51,-931 v 931 m 51,-931 v 931 m 51,-931 v 931 m 50,-931 v 931 m 51,-931 v 931"
         stroke-opacity="1"
         stroke-linecap="round"
         stroke-linejoin="round"
         stroke-miterlimit="10"
         id="path2" />
      <path
         fill="none"
         stroke="#c0c0c0"
         paint-order="fill stroke markers"
         d="m 8.5,0.5 v 931 m 20,-931 v 931 m 11,-931 v 931 m 10,-931 v 931 m 10,-931 v 931 m 20,-931 v 931 m 10,-931 v 931 m 10,-931 v 931 m 11,-931 v 931 m 20,-931 v 931 m 10,-931 v 931 m 10,-931 v 931 m 10,-931 v 931 m 21,-931 v 931 m 10,-931 v 931 m 10,-931 v 931 m 10,-931 v 931 m 20,-931 v 931 m 11,-931 v 931 m 10,-931 v 931 m 10,-931 v 931 m 20,-931 v 931 m 10,-931 v 931 m 11,-931 v 931 m 10,-931 v 931 m 20,-931 v 931 m 10,-931 v 931 m 10,-931 v 931 m 10,-931 v 931 m 21,-931 v 931 m 10,-931 v 931 m 10,-931 v 931 m 10,-931 v 931 m 20,-931 v 931 m 11,-931 v 931 m 10,-931 v 931 m 10,-931 v 931 m 20,-931 v 931 m 10,-931 v 931 m 11,-931 v 931 m 10,-931 v 931 m 20,-931 v 931 m 10,-931 v 931 m 10,-931 v 931 m 10,-931 v 931 m 21,-931 v 931 m 10,-931 v 931 m 10,-931 v 931 m 10,-931 v 931 m 21,-931 v 931 m 10,-931 v 931 m 10,-931 v 931 m 10,-931 v 931 m 20,-931 v 931 m 10,-931 v 931 m 11,-931 v 931 m 10,-931 v 931 m 20,-931 v 931 m 10,-931 v 931 m 10,-931 v 931 m 10,-931 v 931 m 21,-931 v 931 m 10,-931 v 931 m 10,-931 v 931 m 10,-931 v 931 m 21,-931 v 931 m 10,-931 v 931 m 10,-931 v 931 m 10,-931 v 931 m 20,-931 v 931 m 10,-931 v 931 m 11,-931 v 931 m 10,-931 v 931 m 20,-931 v 931 m 10,-931 v 931 m 10,-931 v 931 m 11,-931 v 931 m 20,-931 v 931 m 10,-931 v 931 m 10,-931 v 931 m 10,-931 v 931 m 21,-931 v 931 m 10,-931 v 931 m 10,-931 v 931 m 10,-931 v 931 m 20,-931 v 931 m 10,-931 v 931 m 11,-931 v 931 m 10,-931 v 931 m 20,-931 v 931 m 10,-931 v 931 m 10,-931 v 931 m 11,-931 v 931 m 20,-931 v 931 m 10,-931 v 931 m 10,-931 v 931 m 10,-931 v 931 m 21,-931 v 931 m 10,-931 v 931 m 10,-931 v 931 m 10,-931 v 931 m 20,-931 v 931 m 10,-931 v 931 m 11,-931 v 931 m 10,-931 v 931 m 20,-931 v 931 m 10,-931 v 931 m 10,-931 v 931 m 11,-931 v 931 m 20,-931 v 931 m 10,-931 v 931 m 10,-931 v 931 m 10,-931 v 931 m 21,-931 v 931 m 10,-931 v 931 m 10,-931 v 931 m 10,-931 v 931 m 20,-931 v 931 m 11,-931 v 931 m 10,-931 v 931"
         stroke-opacity="0.235294"
         stroke-linecap="round"
         stroke-linejoin="round"
         stroke-miterlimit="10"
         id="path3" />
      <path
         fill="none"
         stroke="#c0c0c0"
         paint-order="fill stroke markers"
         d="m 0.5,13.5 h 1524 m -1524,0 h 1524 m -1524,51 h 1524 m -1524,50 h 1524 m -1524,51 h 1524 m -1524,51 h 1524 m -1524,51 h 1524 m -1524,51 h 1524 m -1524,50 h 1524 m -1524,51 h 1524 m -1524,102 h 1524 m -1524,50 h 1524 m -1524,51 h 1524 m -1524,51 h 1524 m -1524,51 h 1524 m -1524,50 h 1524 m -1524,51 h 1524 m -1524,51 h 1524 m -1524,51 h 1524"
         stroke-opacity="1"
         stroke-linecap="round"
         stroke-linejoin="round"
         stroke-miterlimit="10"
         id="path4" />
      <path
         fill="none"
         stroke="#c0c0c0"
         paint-order="fill stroke markers"
         d="m 0.5,3.5 h 1524 m -1524,0 h 1524 m -1524,20 h 1524 m -1524,10 h 1524 m -1524,10 h 1524 m -1524,11 h 1524 m -1524,20 h 1524 m -1524,10 h 1524 m -1524,10 h 1524 m -1524,10 h 1524 m -1524,21 h 1524 m -1524,10 h 1524 m -1524,10 h 1524 m -1524,10 h 1524 m -1524,20 h 1524 m -1524,11 h 1524 m -1524,10 h 1524 m -1524,10 h 1524 m -1524,20 h 1524 m -1524,10 h 1524 m -1524,10 h 1524 m -1524,11 h 1524 m -1524,20 h 1524 m -1524,10 h 1524 m -1524,10 h 1524 m -1524,10 h 1524 m -1524,21 h 1524 m -1524,10 h 1524 m -1524,10 h 1524 m -1524,10 h 1524 m -1524,20 h 1524 m -1524,11 h 1524 m -1524,10 h 1524 m -1524,10 h 1524 m -1524,20 h 1524 m -1524,10 h 1524 m -1524,10 h 1524 m -1524,11 h 1524 m -1524,20 h 1524 m -1524,10 h 1524 m -1524,10 h 1524 m -1524,10 h 1524 m -1524,21 h 1524 m -1524,10 h 1524 m -1524,10 h 1524 m -1524,10 h 1524 m -1524,20 h 1524 m -1524,11 h 1524 m -1524,10 h 1524 m -1524,10 h 1524 m -1524,20 h 1524 m -1524,10 h 1524 m -1524,11 h 1524 m -1524,10 h 1524 m -1524,20 h 1524 m -1524,10 h 1524 m -1524,10 h 1524 m -1524,10 h 1524 m -1524,21 h 1524 m -1524,10 h 1524 m -1524,10 h 1524 m -1524,10 h 1524 m -1524,20 h 1524 m -1524,11 h 1524 m -1524,10 h 1524 m -1524,10 h 1524 m -1524,20 h 1524 m -1524,10 h 1524 m -1524,11 h 1524 m -1524,10 h 1524 m -1524,20 h 1524 m -1524,10 h 1524 m -1524,10 h 1524 m -1524,10 h 1524"
         stroke-opacity="0.235294"
         stroke-linecap="round"
         stroke-linejoin="round"
         stroke-miterlimit="10"
         id="path5" />
      <path
         fill="none"
         stroke="#252525"
         paint-order="fill stroke markers"
         d="m 475.5,2.5 v 929"
         stroke-opacity="1"
         stroke-miterlimit="10"
         id="path6" />
      <path
         fill="none"
         stroke="#252525"
         paint-order="fill stroke markers"
         d="m 475.5,1.5 -4,4"
         stroke-opacity="1"
         stroke-miterlimit="10"
         id="path7" />
      <path
         fill="none"
         stroke="#252525"
         paint-order="fill stroke markers"
         d="m 475.5,1.5 4,4"
         stroke-opacity="1"
         stroke-miterlimit="10"
         id="path8" />
      <path
         fill="none"
         stroke="#252525"
         paint-order="fill stroke markers"
         d="m 0.5,470.5 h 1522"
         stroke-opacity="1"
         stroke-miterlimit="10"
         id="path9" />
      <path
         fill="none"
         stroke="#252525"
         paint-order="fill stroke markers"
         d="m 1523.5,470.5 -4,-4"
         stroke-opacity="1"
         stroke-miterlimit="10"
         id="path10" />
      <path
         fill="none"
         stroke="#252525"
         paint-order="fill stroke markers"
         d="m 1523.5,470.5 -4,4"
         stroke-opacity="1"
         stroke-miterlimit="10"
         id="path11" />
      <path
         fill="none"
         stroke="#006758"
         paint-order="fill stroke markers"
         d="m 1,1376.6495 v 4.6801 -4.6801 l 1,-4.6702 v 0 l 1,-4.6604 v 0 l 1,-4.6506 v 0 l 1,-4.6406 v 0 l 1,-4.6309 v 0 l 1,-4.621 v 0 l 1,-4.6111 v 0 l 1,-4.6013 v 0 l 1,-4.5914 v 0 l 1,-4.5816 v 0 l 1,-4.5717 v 0 l 1,-4.5619 v 0 l 1,-4.552 v 0 l 1,-4.5422 v 0 l 1,-4.5323 v 0 l 1,-4.5225 v 0 l 1,-4.5126 v 0 l 1,-4.5027 v 0 l 1,-4.493 v 0 l 1,-4.483 v 0 l 1,-4.4732 v 0 l 1,-4.4634 v 0 l 1,-4.4535 v 0 l 1,-4.4437 v 0 l 1,-4.4338 v 0 l 1,-4.424 v 0 l 1,-4.4141 v 0 l 1,-4.4042 v 0 l 1,-4.3944 v 0 l 1,-4.3846 v 0 l 1,-4.3747 v 0 l 1,-4.3648 v 0 l 1,-4.3551 v 0 l 1,-4.3451 v 0 l 1,-4.3353 v 0 l 1,-4.3255 v 0 l 1,-4.3156 v 0 l 1,-4.3057 v 0 l 1,-4.2959 v 0 l 1,-4.2861 v 0 l 1,-4.2761 v 0 l 1,-4.2664 v 0 l 1,-4.2565 v 0 l 1,-4.2466 v 0 l 1,-4.2368 v 0 l 1,-4.227 v 0 l 1,-4.2171 v 0 l 1,-4.2072 v 0 l 1,-4.1974 v 0 l 1,-4.1875 v 0 l 1,-4.1777 v 0 l 1,-4.1678 v 0 l 1,-4.158 v 0 l 1,-4.1482 v 0 l 1,-4.1382 v 0 l 1,-4.1285 v 0 l 1,-4.1186 v 0 l 1,-4.1087 v 0 l 1,-4.0989 v 0 l 1,-4.089 v 0 l 1,-4.0792 v 0 l 1,-4.0693 v 0 l 1,-4.0595 v 0 l 1,-4.0496 v 0 l 1,-4.0398 v 0 l 1,-4.0299 v 0 l 1,-4.0201 v 0 l 1,-4.0102 v 0 l 1,-4.0004 v 0 l 1,-3.9905 v 0 l 1,-3.9806 v 0 l 1,-3.9709 v 0 l 1,-3.9609 v 0 l 1,-3.9511 v 0 l 1,-3.9413 v 0 l 1,-3.9314 v 0 l 1,-3.9216 v 0 l 1,-3.9117 v 0 l 1,-3.9018 v 0 l 1,-3.8921 v 0 l 1,-3.8821 v 0 l 1,-3.8723 v 0 l 1,-3.8625 v 0 l 1,-3.8526 v 0 l 1,-3.8427 v 0 l 1,-3.8329 v 0 l 1,-3.8231 v 0 l 1,-3.8132 v 0 l 1,-3.80334 v 0 l 1,-3.7935 v 0 l 1,-3.78365 v 0 l 1,-3.7738 v 0 l 1,-3.76394 v 0 l 1,-3.7541 v 0 l 1,-3.74424 v 0 l 1,-3.73439 v 0 l 1,-3.72455 v 0 l 1,-3.71469 v 0 l 1,-3.70484 v 0 l 1,-3.69499 v 0 l 1,-3.68514 v 0 l 1,-3.67528 v 0 l 1,-3.66544 v 0 l 1,-3.65559 v 0 l 1,-3.64573 v 0 l 1,-3.63589 v 0 l 1,-3.62603 v 0 l 1,-3.61618 v 0 l 1,-3.60633 v 0 l 1,-3.59648 v 0 l 1,-3.58663 v 0 l 1,-3.57678 v 0 l 1,-3.56692 v 0 l 1,-3.55708 v 0 l 1,-3.54722 v 0 l 1,-3.53738 v 0 l 1,-3.52752 v 0 l 1,-3.51767 v 0 l 1,-3.50782 v 0 l 1,-3.49798 v 0 l 1,-3.48811 v 0 l 1,-3.47827 v 0 l 1,-3.46842 v 0 l 1,-3.45857 v 0 l 1,-3.44871 v 0 l 1,-3.43887 v 0 l 1,-3.42901 v 0 l 1,-3.41916 v 0 l 1,-3.40931 v 0 l 1,-3.39946 v 0 l 1,-3.38961 v 0 l 1,-3.37976 v 0 l 1,-3.36991 v 0 l 1,-3.36006 v 0 l 1,-3.3502 v 0 l 1,-3.34036 v 0 l 1,-3.3305 v 0 l 1,-3.32065 v 0 l 1,-3.3108 v 0 l 1,-3.30096 v 0 l 1,-3.2911 v 0 l 1,-3.28124 v 0 l 1,-3.2714 v 0 l 1,-3.26155 v 0 l 1,-3.2517 v 0 l 1,-3.24184 v 0 l 1,-3.23199 v 0 l 1,-3.22215 v 0 l 1,-3.21229 v 0 l 1,-3.20244 v 0 l 1,-3.19259 v 0 l 1,-3.18274 v 0 l 1,-3.17289 v 0 l 1,-3.16304 v 0 l 1,-3.15318 v 0 l 1,-3.14334 v 0 l 1,-3.13348 v 0 l 1,-3.12364 v 0 l 1,-3.11378 v 0 l 1,-3.10393 v 0 l 1,-3.09408 v 0 l 1,-3.08423 v 0 l 1,-3.07438 v 0 l 1,-3.06453 v 0 l 1,-3.05467 v 0 l 1,-3.04483 v 0 l 1,-3.03497 v 0 l 1,-3.02513 v 0 l 1,-3.01527 v 0 l 1,-3.00542 v 0 l 1,-2.99557 v 0 l 1,-2.98572 v 0 l 1,-2.97587 v 0 l 1,-2.96602 v 0 l 1,-2.95617 v 0 l 1,-2.94631 v 0 l 1,-2.93647 v 0 l 1,-2.92661 v 0 l 1,-2.91677 v 0 l 1,-2.90691 v 0 l 1,-2.89706 v 0 l 1,-2.88721 v 0 l 1,-2.87736 v 0 l 1,-2.86751 v 0 l 1,-2.85766 v 0 l 1,-2.8478 v 0 l 1,-2.83796 v 0 l 1,-2.8281 v 0 l 1,-2.81826 v 0 l 1,-2.8084 v 0 l 1,-2.79855 v 0 l 1,-2.7887 v 0 l 1,-2.77885 v 0 l 1,-2.769 v 0 l 1,-2.75915 v 0 l 1,-2.74929 v 0 l 1,-2.73945 v 0 l 1,-2.72959 v 0 l 1,-2.71975 v 0 l 1,-2.70989 v 0 l 1,-2.70004 v 0 l 1,-2.69019 v 0 l 1,-2.68034 v 0 l 1,-2.67049 v 0 l 1,-2.66064 v 0 l 1,-2.65079 v 0 l 1,-2.64093 v 0 l 1,-2.63109 v 0 l 1,-2.62123 v 0 l 1,-2.61139 v 0 l 1,-2.60153 v 0 l 1,-2.59168 v 0 l 1,-2.58183 v 0 l 1,-2.57198 v 0 l 1,-2.56213 v 0 l 1,-2.55228 v 0 l 1,-2.54242 v 0 l 1,-2.53258 v 0 l 1,-2.52272 v 0 l 1,-2.51288 v 0 l 1,-2.50302 v 0 l 1,-2.49317 v 0 l 1,-2.48332 v 0 l 1,-2.47347 v 0 l 1,-2.46362 v 0 l 1,-2.45377 v 0 l 1,-2.44392 v 0 l 1,-2.43406 v 0 l 1,-2.42422 v 0 l 1,-2.41436 v 0 l 1,-2.40451 v 0 l 1,-2.39467 v 0 l 1,-2.38481 v 0 l 1,-2.37496 v 0 l 1,-2.36511 v 0 l 1,-2.35525 v 0 l 1,-2.34541 v 0 l 1,-2.33556 v 0 l 1,-2.3257 v 0 l 1,-2.31586 v 0 l 1,-2.306 v 0 l 1,-2.29615 v 0 l 1,-2.28631 v 0 l 1,-2.27645 v 0 l 1,-2.2666 v 0 l 1,-2.25674 v 0 l 1,-2.2469 v 0 l 1,-2.23705 v 0 l 1,-2.22719 v 0 l 1,-2.21735 v 0 l 1,-2.20749 v 0 l 1,-2.19764 v 0 l 1,-2.1878 v 0 l 1,-2.17794 v 0 l 1,-2.16809 v 0 l 1,-2.15824 v 0 l 1,-2.14838 v 0 l 1,-2.13854 v 0 l 1,-2.12869 v 0 l 1,-2.11883 v 0 l 1,-2.10899 v 0 l 1,-2.09913 v 0 l 1,-2.08928 v 0 l 1,-2.07943 v 0 l 1,-2.06958 v 0 l 1,-2.05973 v 0 l 1,-2.04988 v 0 l 1,-2.04003 v 0 l 1,-2.03017 v 0 l 1,-2.02033 v 0 l 1,-2.01047 v 0 l 1,-2.00063 v 0 l 1,-1.99077 v 0 l 1,-1.98092 v 0 l 1,-1.97107 v 0 l 1,-1.96122 v 0 l 1,-1.95137 v 0 l 1,-1.94152 v 0 l 1,-1.93167 v 0 l 1,-1.92181 v 0 l 1,-1.91197 v 0 l 1,-1.90211 v 0 l 1,-1.89226 v 0 l 1,-1.88241 v 0 l 1,-1.87257 v 0 l 1,-1.86271 v 0 l 1,-1.85285 v 0 l 1,-1.84301 v 0 l 1,-1.83316 v 0 l 1,-1.82331 v 0 l 1,-1.81345 v 0 l 1,-1.8036 v 0 l 1,-1.79376 v 0 l 1,-1.7839 v 0 l 1,-1.77405 v 0 l 1,-1.7642 v 0 l 1,-1.75435 v 0 l 1,-1.7445 v 0 l 1,-1.73465 v 0 l 1,-1.72479 v 0 l 1,-1.71495 v 0 l 1,-1.70509 v 0 l 1,-1.69525 v 0 l 1,-1.68539 v 0 l 1,-1.67554 v 0 l 1,-1.66569 v 0 l 1,-1.65584 v 0 l 1,-1.64599 v 0 l 1,-1.63614 v 0 l 1,-1.62628 v 0 l 1,-1.61644 v 0 l 1,-1.60659 v 0 l 1,-1.59673 v 0 l 1,-1.58688 v 0 l 1,-1.57703 v 0 l 1,-1.56719 v 0 l 1,-1.55733 v 0 l 1,-1.54747 v 0 l 1,-1.53763 v 0 l 1,-1.52778 v 0 l 1,-1.51793 v 0 l 1,-1.50807 v 0 l 1,-1.49823 v 0 l 1,-1.48837 v 0 l 1,-1.47852 v 0 l 1,-1.46867 v 0 l 1,-1.45882 v 0 l 1,-1.44897 v 0 l 1,-1.43912 v 0 l 1,-1.42927 v 0 l 1,-1.41941 v 0 l 1,-1.40957 v 0 l 1,-1.39971 v 0 l 1,-1.38987 v 0 l 1,-1.38001 v 0 l 1,-1.37016 v 0 l 1,-1.36031 v 0 l 1,-1.35046 v 0 l 1,-1.34061 v 0 l 1,-1.33076 v 0 l 1,-1.32091 v 0 l 1,-1.31105 v 0 l 1,-1.30121 v 0 l 1,-1.29135 v 0 l 1,-1.2815 v 0 l 1,-1.27166 v 0 l 1,-1.2618 v 0 l 1,-1.25195 v 0 l 1,-1.2421 v 0 l 1,-1.23225 v 0 l 1,-1.22239 v 0 l 1,-1.21255 v 0 l 1,-1.20269 v 0 l 1,-1.19285 v 0 l 1,-1.18299 v 0 l 1,-1.17314 v 0 l 1,-1.1633 v 0 l 1,-1.15344 v 0 l 1,-1.14359 v 0 l 1,-1.13373 v 0 l 1,-1.12389 v 0 l 1,-1.11404 v 0 l 1,-1.10418 v 0 l 1,-1.09434 v 0 l 1,-1.08448 v 0 l 1,-1.07464 v 0 l 1,-1.06478 v 0 l 1,-1.05493 v 0 l 1,-1.04508 v 0 l 1,-1.03523 v 0 l 1,-1.02538 v 0 l 1,-1.01552 v 0 l 1,-1.00568 v 0 l 1,-0.99582 v 0 l 1,-0.98598 v 0 l 1,-0.97612 v 0 l 1,-0.96627 v 0 l 1,-0.95642 v 0 l 1,-0.94657 v 0 l 1,-0.93672 v 0 l 1,-0.92687 v 0 l 1,-0.91702 v 0 l 1,-0.90717 v 0 l 1,-0.89731 v 0 l 1,-0.88746 v 0 l 1,-0.87762 v 0 l 1,-0.86776 v 0 l 1,-0.85791 v 0 l 1,-0.84806 v 0 l 1,-0.83821 v 0 l 1,-0.82836 v 0 l 1,-0.81851 v 0 l 1,-0.80866 v 0 l 1,-0.7988 v 0 l 1,-0.78896 v 0 l 1,-0.7791 v 0 l 1,-0.76925 v 0 l 1,-0.7594 v 0 l 1,-0.74956 v 0 l 1,-0.7397 v 0 l 1,-0.72984 v 0 l 1,-0.72 v 0 l 1,-0.71015 v 0 l 1,-0.7003 v 0 l 1,-0.69044 v 0 l 1,-0.6806 v 0 l 1,-0.67074 v 0 l 1,-0.66089 v 0 l 1,-0.65104 v 0 l 1,-0.64119 v 0 l 1,-0.63134 v 0 l 1,-0.62149 v 0 l 1,-0.61164 v 0 l 1,-0.60178 v 0 l 1,-0.59194 v 0 l 1,-0.58208 v 0 l 1,-0.57224 v 0 l 1,-0.56238 v 0 l 1,-0.55253 v 0 l 1,-0.54268 v 0 l 1,-0.53283 v 0 l 1,-0.52298 v 0 l 1,-0.51313 v 0 l 1,-0.50328 v 0 l 1,-0.49342 v 0 l 1,-0.48358 v 0 l 1,-0.47372 v 0 l 1,-0.46387 v 0 l 1,-0.45402 v 0 l 1,-0.44418 v 0 l 1,-0.43432 v 0 l 1,-0.42446 v 0 l 1,-0.41462 v 0 l 1,-0.40477 v 0 l 1,-0.39492 v 0 l 1,-0.38506 v 0 l 1,-0.37522 v 0 l 1,-0.36536 v 0 l 1,-0.35551 v 0 l 1,-0.34566 v 0 l 1,-0.33581 v 0 l 1,-0.32596 v 0 l 1,-0.31611 v 0 l 1,-0.30626 v 0 l 1,-0.2964 v 0 l 1,-0.28656 v 0 l 1,-0.27671 v 0 l 1,-0.26685 v 0 l 1,-0.257 v 0 l 1,-0.24715 v 0 l 1,-0.2373 v 0 l 1,-0.22745 v 0 l 1,-0.2176 v 0 l 1,-0.20775 v 0 l 1,-0.1979 v 0 l 1,-0.18804 v 0 l 1,-0.1782 v 0 l 1,-0.16834 v 0 l 1,-0.15849 v 0 l 1,-0.14865 v 0 l 1,-0.13879 v 0 l 1,-0.12894 v 0 l 1,-0.11909 v 0 l 1,-0.10924 v 0 l 1,-0.0994 v 0 l 1,-0.0895 v 0 l 1,-0.0797 v 0 l 1,-0.0698 v 0 l 1,-0.06 v 0 l 1,-0.0501 v 0 l 1,-0.0403 v 0 l 1,-0.0304 v 0 l 1,-0.0206 v 0 l 1,-0.0107 v 0 l 1,-0.002 v 8.3e-4 l 1,0.009 v 0 l 1,0.0188 v 0 l 1,0.0287 v 0 l 1,0.0385 v 0 l 1,0.0484 v 0 l 1,0.0582 v 0 l 1,0.0681 v 0 l 1,0.0779 v 0 l 1,0.0878 v 0 l 1,0.0976 v 0 l 1,0.10748 v 0 l 1,0.11733 v 0 l 1,0.12719 v 0 l 1,0.13703 v 0 l 1,0.14689 v 0 l 1,0.15674 v 0 l 1,0.16659 v 0 l 1,0.17644 v 0 l 1,0.18629 v 0 l 1,0.19614 v 0 l 1,0.20599 v 0 l 1,0.21585 v 0 l 1,0.22569 v 0 l 1,0.23555 v 0 l 1,0.24539 v 0 l 1,0.25525 v 0 l 1,0.2651 v 0 l 1,0.27495 v 0 l 1,0.2848 v 0 l 1,0.29465 v 0 l 1,0.3045 v 0 l 1,0.31435 v 0 l 1,0.32421 v 0 l 1,0.33405 v 0 l 1,0.34391 v 0 l 1,0.35376 v 0 l 1,0.36361 v 0 l 1,0.37345 v 0 l 1,0.38331 v 0 l 1,0.39317 v 0 l 1,0.40301 v 0 l 1,0.41286 v 0 l 1,0.42271 v 0 l 1,0.43257 v 0 l 1,0.44242 v 0 l 1,0.45226 v 0 l 1,0.46212 v 0 l 1,0.47197 v 0 l 1,0.48182 v 0 l 1,0.49167 v 0 l 1,0.50152 v 0 l 1,0.51137 v 0 l 1,0.52123 v 0 l 1,0.53107 v 0 l 1,0.54093 v 0 l 1,0.55077 v 0 l 1,0.56063 v 0 l 1,0.57048 v 0 l 1,0.58033 v 0 l 1,0.59018 v 0 l 1,0.60003 v 0 l 1,0.60988 v 0 l 1,0.61974 v 0 l 1,0.62958 v 0 l 1,0.63944 v 0 l 1,0.64928 v 0 l 1,0.65914 v 0 l 1,0.66899 v 0 l 1,0.67884 v 0 l 1,0.68869 v 0 l 1,0.69854 v 0 l 1,0.70839 v 0 l 1,0.71824 v 0 l 1,0.72809 v 0 l 1,0.73795 v 0 l 1,0.7478 v 0 l 1,0.75764 v 0 l 1,0.7675 v 0 l 1,0.77735 v 0 l 1,0.7872 v 0 l 1,0.79705 v 0 l 1,0.8069 v 0 l 1,0.81675 v 0 l 1,0.82661 v 0 l 1,0.83645 v 0 l 1,0.84631 v 0 l 1,0.85615 v 0 l 1,0.86601 v 0 l 1,0.87586 v 0 l 1,0.88571 v 0 l 1,0.89556 v 0 l 1,0.90541 v 0 l 1,0.91526 v 0 l 1,0.92511 v 0 l 1,0.93497 v 0 l 1,0.94481 v 0 l 1,0.95467 v 0 l 1,0.96452 v 0 l 1,0.97436 v 0 l 1,0.98422 v 0 l 1,0.99407 v 0 l 1,1.00392 v 0 l 1,1.01378 v 0 l 1,1.02362 v 0 l 1,1.03347 v 0 l 1,1.04333 v 0 l 1,1.05317 v 0 l 1,1.06303 v 0 l 1,1.07288 v 0 l 1,1.08273 v 0 l 1,1.09257 v 0 l 1,1.10244 v 0 l 1,1.11228 v 0 l 1,1.12213 v 0 l 1,1.13198 v 0 l 1,1.14184 v 0 l 1,1.15168 v 0 l 1,1.16154 v 0 l 1,1.17139 v 0 l 1,1.18123 v 0 l 1,1.19109 v 0 l 1,1.20094 v 0 l 1,1.21079 v 0 l 1,1.22065 v 0 l 1,1.23049 v 0 l 1,1.24034 v 0 l 1,1.2502 v 0 l 1,1.26004 v 0 l 1,1.2699 v 0 l 1,1.27975 v 0 l 1,1.2896 v 0 l 1,1.29945 v 0 l 1,1.3093 v 0 l 1,1.31915 v 0 l 1,1.329 v 0 l 1,1.33886 v 0 l 1,1.3487 v 0 l 1,1.35856 v 0 l 1,1.3684 v 0 l 1,1.37826 v 0 l 1,1.38811 v 0 l 1,1.39796 v 0 l 1,1.40781 v 0 l 1,1.41766 v 0 l 1,1.42751 v 0 l 1,1.43737 v 0 l 1,1.44721 v 0 l 1,1.45707 v 0 l 1,1.46691 v 0 l 1,1.47677 v 0 l 1,1.48662 v 0 l 1,1.49647 v 0 l 1,1.50632 v 0 l 1,1.51617 v 0 l 1,1.52602 v 0 l 1,1.53587 v 0 l 1,1.54573 v 0 l 1,1.55557 v 0 l 1,1.56543 v 0 l 1,1.57527 v 0 l 1,1.58513 v 0 l 1,1.59498 v 0 l 1,1.60483 v 0 l 1,1.61468 v 0 l 1,1.62453 v 0 l 1,1.63439 v 0 l 1,1.64423 v 0 l 1,1.65408 v 0 l 1,1.66394 v 0 l 1,1.67379 v 0 l 1,1.68363 v 0 l 1,1.69349 v 0 l 1,1.70334 v 0 l 1,1.71319 v 0 l 1,1.72304 v 0 l 1,1.73289 v 0 l 1,1.74275 v 0 l 1,1.75259 v 0 l 1,1.76245 v 0 l 1,1.77229 v 0 l 1,1.78215 v 0 l 1,1.792 v 0 l 1,1.80185 v 0 l 1,1.8117 v 0 l 1,1.82155 v 0 l 1,1.8314 v 0 l 1,1.84125 v 0 l 1,1.85111 v 0 l 1,1.86095 v 0 l 1,1.87081 v 0 l 1,1.88065 v 0 l 1,1.89051 v 0 l 1,1.90036 v 0 l 1,1.91021 v 0 l 1,1.92006 v 0 l 1,1.92991 v 0 l 1,1.93976 v 0 l 1,1.94962 v 0 l 1,1.95946 v 0 l 1,1.96932 v 0 l 1,1.97916 v 0 l 1,1.98902 v 0 l 1,1.99887 v 0 l 1,2.00872 v 0 l 1,2.01857 v 0 l 1,2.02842 v 0 l 1,2.03827 v 0 l 1,2.04813 v 0 l 1,2.05797 v 0 l 1,2.06783 v 0 l 1,2.07767 v 0 l 1,2.08753 v 0 l 1,2.09738 v 0 l 1,2.10723 v 0 l 1,2.11708 v 0 l 1,2.12693 v 0 l 1,2.13678 v 0 l 1,2.14663 v 0 l 1,2.15648 v 0 l 1,2.16634 v 0 l 1,2.17618 v 0 l 1,2.18604 v 0 l 1,2.19589 v 0 l 1,2.20574 v 0 l 1,2.21559 v 0 l 1,2.22544 v 0 l 1,2.23529 v 0 l 1,2.24514 v 0 l 1,2.25499 v 0 l 1,2.26485 v 0 l 1,2.27469 v 0 l 1,2.28455 v 0 l 1,2.2944 v 0 l 1,2.30425 v 0 l 1,2.3141 v 0 l 1,2.32395 v 0 l 1,2.3338 v 0 l 1,2.34365 v 0 l 1,2.3535 v 0 l 1,2.36336 v 0 l 1,2.3732 v 0 l 1,2.38306 v 0 l 1,2.3929 v 0 l 1,2.40276 v 0 l 1,2.41261 v 0 l 1,2.42246 v 0 l 1,2.43231 v 0 l 1,2.44216 v 0 l 1,2.45202 v 0 l 1,2.46186 v 0 l 1,2.47171 v 0 l 1,2.48157 v 0 l 1,2.49142 v 0 l 1,2.50126 v 0 l 1,2.51112 v 0 l 1,2.52097 v 0 l 1,2.53082 v 0 l 1,2.54067 v 0 l 1,2.55053 v 0 l 1,2.56037 v 0 l 1,2.57022 v 0 l 1,2.58008 v 0 l 1,2.58992 v 0 l 1,2.59978 v 0 l 1,2.60963 v 0 l 1,2.61948 v 0 l 1,2.62933 v 0 l 1,2.63918 v 0 l 1,2.64903 v 0 l 1,2.65889 v 0 l 1,2.66873 v 0 l 1,2.67858 v 0 l 1,2.68844 v 0 l 1,2.69829 v 0 l 1,2.70813 v 0 l 1,2.71799 v 0 l 1,2.72784 v 0 l 1,2.73769 v 0 l 1,2.74755 v 0 l 1,2.75739 v 0 l 1,2.76724 v 0 l 1,2.7771 v 0 l 1,2.78694 v 0 l 1,2.7968 v 0 l 1,2.80665 v 0 l 1,2.81649 v 0 l 1,2.82635 v 0 l 1,2.8362 v 0 l 1,2.84606 v 0 l 1,2.8559 v 0 l 1,2.86575 v 0 l 1,2.8756 v 0 l 1,2.88546 v 0 l 1,2.89531 v 0 l 1,2.90515 v 0 l 1,2.91501 v 0 l 1,2.92486 v 0 l 1,2.93471 v 0 l 1,2.94456 v 0 l 1,2.95441 v 0 l 1,2.96427 v 0 l 1,2.97411 v 0 l 1,2.98396 v 0 l 1,2.99382 v 0 l 1,3.00367 v 0 l 1,3.01351 v 0 l 1,3.02337 v 0 l 1,3.03322 v 0 l 1,3.04307 v 0 l 1,3.05293 v 0 l 1,3.06277 v 0 l 1,3.07262 v 0 l 1,3.08248 v 0 l 1,3.09232 v 0 l 1,3.10218 v 0 l 1,3.11203 v 0 l 1,3.12187 v 0 l 1,3.13173 v 0 l 1,3.14158 v 0 l 1,3.15143 v 0 l 1,3.16129 v 0 l 1,3.17113 v 0 l 1,3.18098 v 0 l 1,3.19084 v 0 l 1,3.20068 v 0 l 1,3.21054 v 0 l 1,3.22039 v 0 l 1,3.23024 v 0 l 1,3.24009 v 0 l 1,3.24994 v 0 l 1,3.25979 v 0 l 1,3.26964 v 0 l 1,3.2795 v 0 l 1,3.28934 v 0 l 1,3.2992 v 0 l 1,3.30904 v 0 l 1,3.3189 v 0 l 1,3.32875 v 0 l 1,3.3386 v 0 l 1,3.34845 v 0 l 1,3.3583 v 0 l 1,3.36816 v 0 l 1,3.378 v 0 l 1,3.38785 v 0 l 1,3.39771 v 0 l 1,3.40755 v 0 l 1,3.41741 v 0 l 1,3.42726 v 0 l 1,3.43711 v 0 l 1,3.44696 v 0 l 1,3.45681 v 0 l 1,3.46666 v 0 l 1,3.47652 v 0 l 1,3.48636 v 0 l 1,3.49621 v 0 l 1,3.50607 v 0 l 1,3.51592 v 0 l 1,3.52577 v 0 l 1,3.53561 v 0 l 1,3.54547 v 0 l 1,3.55532 v 0 l 1,3.56518 v 0 l 1,3.57502 v 0 l 1,3.58487 v 0 l 1,3.59473 v 0 l 1,3.60457 v 0 l 1,3.61443 v 0 l 1,3.62428 v 0 l 1,3.63413 v 0 l 1,3.64398 v 0 l 1,3.65383 v 0 l 1,3.66368 v 0 l 1,3.67353 v 0 l 1,3.68338 v 0 l 1,3.69324 v 0 l 1,3.70308 v 0 l 1,3.71294 v 0 l 1,3.72279 v 0 l 1,3.73263 v 0 l 1,3.74249 v 0 l 1,3.75234 v 0 l 1,3.76219 v 0 l 1,3.77205 v 0 l 1,3.78189 v 0 l 1,3.79174 v 0 l 1,3.80151 v 0 l 1,3.8115 v 0 l 1,3.8213 v 0 l 1,3.8311 v 0 l 1,3.841 v 0 l 1,3.8509 v 0 l 1,3.8608 v 0 l 1,3.8705 v 0 l 1,3.8804 v 0 l 1,3.8903 v 0 l 1,3.9001 v 0 l 1,3.9099 v 0 l 1,3.9199 v 0 l 1,3.9296 v 0 l 1,3.9395 v 0 l 1,3.9494 v 0 l 1,3.9592 v 0 l 1,3.969 v 0 l 1,3.979 v 0 l 1,3.9887 v 0 l 1,3.9986 v 0 l 1,4.0085 v 0 l 1,4.0183 v 0 l 1,4.0282 v 0 l 1,4.038 v 0 l 1,4.0479 v 0 l 1,4.0577 v 0 l 1,4.0676 v 0 l 1,4.0774 v 0 l 1,4.0873 v 0 l 1,4.0971 v 0 l 1,4.107 v 0 l 1,4.1168 v 0 l 1,4.1267 v 0 l 1,4.1365 v 0 l 1,4.1464 v 0 l 1,4.1562 v 0 l 1,4.1661 v 0 l 1,4.1759 v 0 l 1,4.1858 v 0 l 1,4.1956 v 0 l 1,4.2055 v 0 l 1,4.2153 v 0 l 1,4.2252 v 0 l 1,4.2351 v 0 l 1,4.2449 v 0 l 1,4.2547 v 0 l 1,4.2646 v 0 l 1,4.2744 v 0 l 1,4.2843 v 0 l 1,4.2942 v 0 l 1,4.304 v 0 l 1,4.3138 v 0 l 1,4.3237 v 0 l 1,4.3335 v 0 l 1,4.3434 v 0 l 1,4.3533 v 0 l 1,4.3631 v 0 l 1,4.3729 v 0 l 1,4.3828 v 0 l 1,4.3927 v 0 l 1,4.4025 v 0 l 1,4.4124 v 0 l 1,4.4222 v 0 l 1,4.432 v 0 l 1,4.4419 v 0 l 1,4.4518 v 0 l 1,4.4616 v 0 l 1,4.4715 v 0 l 1,4.4813 v 0 l 1,4.4911 v 0 l 1,4.501 v 0 l 1,4.5109 v 0 l 1,4.5207 v 0 l 1,4.5306 v 0 l 1,4.5404 v 0 l 1,4.5503 v 0 l 1,4.5601 v 0 l 1,4.57 v 0 l 1,4.5798 v 0 l 1,4.5897 v 0 l 1,4.5995 v 0 l 1,4.6094 v 0 l 1,4.6192 v 0 l 1,4.6291 v 0 l 1,4.6389 v 0 l 1,4.6488 v 0 l 1,4.6586 v 0 l 1,4.6685 v 0 l 1,4.6783 v 0 l 1,4.6882 v 0 l 1,4.698 v 0 l 1,4.7079 v 0 l 1,4.7177 v 0 l 1,4.7276 v 0 l 1,4.7375 v 0 l 1,4.7472 v 0 l 1,4.7572 v 0 l 1,4.767 v 0 l 1,4.7768 v 0 l 1,4.7867 v 0 l 1,4.7965 v 0 l 1,4.8064 v 0 l 1,4.8163 v 0 l 1,4.8261 v 0 l 1,4.8359 v 0 l 1,4.8458 v 0 l 1,4.8557 v 0 l 1,4.8655 v 0 l 1,4.8753 v 0 l 1,4.8852 v 0 l 1,4.8951 v 0 l 1,4.9049 v 0 l 1,4.9147 v 0 l 1,4.9246 v 0 l 1,4.9345 v 0 l 1,4.9443 v 0 l 1,4.9542 v 0 l 1,4.964 v 0 l 1,4.9738 v 0 l 1,4.9837 v 0 l 1,4.9936 v 0 l 1,5.0034 v 0 l 1,5.0133 v 0 l 1,5.0231 v 0 l 1,5.033 v 0 l 1,5.0428 v 0 l 1,5.0526 v 0 l 1,5.0626 v 0 l 1,5.0723 v 0 l 1,5.0822 v 0 l 1,5.0921 v 0 l 1,5.1019 v 0 l 1,5.1118 v 0 l 1,5.1216 v 0 l 1,5.1315 v 0 l 1,5.1413 v 0 l 1,5.1512 v 0 l 1,5.161 v 0 l 1,5.1709 v 0 l 1,5.1807 v 0 l 1,5.1906 v 0 l 1,5.2005 v 0 l 1,5.2102 v 0 l 1,5.2202 v 0 l 1,5.23 v 0 l 1,5.2398 v 0 l 1,5.2497 v 0 l 1,5.2595 v 0 l 1,5.2694 v 0 l 1,5.2793 v 0 l 1,5.289 v 0 l 1,5.299 v 0 l 1,5.3088 v 0 l 1,5.3186 v 0 l 1,5.3285 v 0 l 1,5.3384 v 0 l 1,5.3482 v 0 l 1,5.358 v 0 l 1,5.3679 v 0 l 1,5.3778 v 0 l 1,5.3876 v 0 l 1,5.3974 v 0 l 1,5.4073 v 0 l 1,5.4172 v 0 l 1,5.427 v 0 l 1,5.4368 v 0 l 1,5.4467 v 0 l 1,5.4566 v 0 l 1,5.4664 v 0 l 1,5.4762 v 0 l 1,5.4862 v 0 l 1,5.4959 v 0 l 1,5.5058 v 0 l 1,5.5157 v 0 l 1,5.5255 v 0 l 1,5.5354 v 0 l 1,5.5452 v 0 l 1,5.5551 v 0 l 1,5.5649 v 0 l 1,5.5747 v 0 l 1,5.5847 v 0 l 1,5.5944 v 0 l 1,5.6044 v 0 l 1,5.6141 v 0 l 1,5.624 v 0 l 1,5.6339 v 0 l 1,5.6437 v 0 l 1,5.6536 v 0 l 1,5.6635 v 0 l 1,5.6732 v 0 l 1,5.6832 v 0 l 1,5.6929 v 0 l 1,5.7029 v 0 l 1,5.7127 v 0 l 1,5.7225 v 0 l 1,5.7324 v 0 l 1,5.7422 v 0 l 1,5.7521 v 0 l 1,5.7619 v 0 l 1,5.7718 v 0 l 1,5.7817 v 0 l 1,5.7914 v 0 l 1,5.8014 v 0 l 1,5.8112 v 0 l 1,5.821 v 0 l 1,5.8309 v 0 l 1,5.8408 v 0 l 1,5.8506 v 0 l 1,5.8604 v 0 l 1,5.8703 v 0 l 1,5.8801 v 0 l 1,5.89 v 0 l 1,5.8999 v 0 l 1,5.9097 v 0 l 1,5.9196 v 0 l 1,5.9294 v 0 l 1,5.9392 v 0 l 1,5.9491 v 0 l 1,5.959 v 0 l 1,5.9688 v 0 l 1,5.9786 v 0 l 1,5.9885 v 0 l 1,5.9984 v 0 l 1,6.0082 v 0 l 1,6.0181 v 0 l 1,6.0279 v 0 l 1,6.0378 v 0 l 1,6.0476 v 0 l 1,6.0574 v 0 l 1,6.0674 v 0 l 1,6.0771 v 0 l 1,6.087 v 0 l 1,6.0969 v 0 l 1,6.1066 v 0 l 1,6.1166 v 0 l 1,6.1264 v 0 l 1,6.1364 v 0 l 1,6.146 v 0 l 1,6.156 v 0 l 1,6.1659 v 0 l 1,6.1756 v 0 l 1,6.1855 v 0 l 1,6.1954 v 0 l 1,6.2052 v 0 l 1,6.2151 v 0 l 1,6.225 v 0 l 1,6.2347 v 0 l 1,6.2447 v 0 l 1,6.2545 v 0 l 1,6.2643 v 0 l 1,6.2742 v 0 l 1,6.284 v 0 l 1,6.2939 v 0 l 1,6.3037 v 0 l 1,6.3136 v 0 l 1,6.3235 v 0 l 1,6.3333 v 0 l 1,6.3431 v 0 l 1,6.353 v 0 l 1,6.3629 v 0 l 1,6.3727 v 0 l 1,6.3825 v 0 l 1,6.3924 v 0 l 1,6.4022 v 0 l 1,6.4123 v 0 l 1,6.4218 v 0 l 1,6.4318 v 0 l 1,6.4417 v 0 l 1,6.4515 v 0 l 1,6.4613 v 0 l 1,6.4712 v 0 l 1,6.4811 v 0 l 1,6.4909 v 0 l 1,6.5007 v 0 l 1,6.5107 v 0 l 1,6.5204 v 0 l 1,6.5303 v 0 l 1,6.5402 v 0 l 1,6.55 v 0 l 1,6.5599 v 0 l 1,6.5697 v 0 l 1,6.5796 v 0 l 1,6.5894 v 0 l 1,6.5992 v 0 l 1,6.6092 v 0 l 1,6.6189 v 0 l 1,6.6289 v 0 l 1,6.6386 v 0 l 1,6.6486 v 0 l 1,6.6583 v 0 l 1,6.6683 v 0 l 1,6.678 v 0 l 1,6.688 v 0 l 1,6.6977 v 0 l 1,6.7077 v 0 l 1,6.7174 v 0 l 1,6.7274 v 0 l 1,6.7372 v 0 l 1,6.747 v 0 l 1,6.7569 v 0 l 1,6.7667 v 0 l 1,6.7766 v 0 l 1,6.7864 v 0 l 1,6.7963 v 0 l 1,6.8062 v 0 l 1,6.816 v 0 l 1,6.8258 v 0 l 1,6.8357 v 0 l 1,6.8455 v 0 l 1,6.8554 v 0 l 1,6.8653 v 0 l 1,6.8751 v 0 l 1,6.8849 v 0 l 1,6.8948 v 0 l 1,6.9047 v 0 l 1,6.9145 v 0 l 1,6.9243 v 0 l 1,6.9342 v 0 l 1,6.9441 v 0 l 1,6.9539 v 0 l 1,6.9637 v 0 l 1,6.9736 v 0 l 1,6.9835 v 0 l 1,6.9933 v 0 l 1,7.0032 v 0 l 1,7.013 v 0 l 1,7.0228 v 0 l 1,7.0327 v 0 l 1,7.0426 v 0 l 1,7.0524 v 0 l 1,7.0624 v 0 l 1,7.072 v 0 l 1,7.082 v 0 l 1,7.0918 v 0 l 1,7.1016 v 0 l 1,7.1117 v 0 l 1,7.1212 v 0 l 1,7.1313 v 0 l 1,7.141 v 0 l 1,7.151 v 0 l 1,7.1608 v 0 l 1,7.1706 v 0 l 1,7.1805 v 0 l 1,7.1903 v 0 l 1,7.2002 v 0 l 1,7.2101 v 0 l 1,7.2198 v 0 l 1,7.2298 v 0 l 1,7.2395 v 0 l 1,7.2495 v 0 l 1,7.2593 v 0 l 1,7.2691 v 0 l 1,7.279 v 0 l 1,7.2888 v 0 l 1,7.2986 v 0 l 1,7.3086 v 0 l 1,7.3184 v 0 l 1,7.3283 v 0 l 1,7.3381 v 0 l 1,7.3479 v 0 l 1,7.3578 v 0 l 1,7.3676 v 0 l 1,7.3775 v 0 l 1,7.3874 v 0 l 1,7.3972 v 0 l 1,7.407 v 0 l 1,7.4169 v 0 l 1,7.4268 v 0 l 1,7.4366 v 0 l 1,7.4464 v 0 l 1,7.4563 v 0 l 1,7.4662 v 0 l 1,7.476 v 0 l 1,7.4859 v 0 l 1,7.4957 v 0 l 1,7.5055 v 0 l 1,7.5154 v 0 l 1,7.5253 v 0 l 1,7.5351 v 0 l 1,7.545 v 0 l 1,7.5548 v 0 l 1,7.5646 v 0 l 1,7.5745 v 0 l 1,7.5844 v 0 l 1,7.5942 v 0 l 1,7.6041 v 0 l 1,7.6139 v 0 l 1,7.6238 v 0 l 1,7.6336 v 0 l 1,7.6435 v 0 l 1,7.6533 v 0 l 1,7.6632 v 0 l 1,7.673 v 0 l 1,7.6829 v 0 l 1,7.6927 v 0 l 1,7.7026 v 0 l 1,7.7124 v 0 l 1,7.7223 v 0 l 1,7.7321 v 0 l 1,7.742 v 0 l 1,7.7518 v 0 l 1,7.7617 v 0 l 1,7.7715 v 0 l 1,7.7814 v 0 l 1,7.7913 v 0 l 1,7.801 v 0 l 1,7.811 v 0 l 1,7.8208 v 0 l 1,7.8306 v 0 l 1,7.8405 v 0 l 1,7.8503 v 0 l 1,7.8602 v 0 l 1,7.8701 v 0 l 1,7.8799 v 0 l 1,7.8897 v 0 l 1,7.8996 v 0 l 1,7.9095 v 0 l 1,7.9193 v 0 l 1,7.9291 v 0 l 1,7.939 v 0 l 1,7.9489 v 0 l 1,7.9587 v 0 l 1,7.9685 v 0 l 1,7.9784 v 0 l 1,7.9883 v 0 l 1,7.9981 v 0 l 1,8.0079 v 0 l 1,8.0179 v 0 l 1,8.0275 v 0 l 1,8.0375 v 0 l 1,8.0474 v 0 l 1,8.0572 v 0 l 1,8.0672 v 0 l 1,8.0769 v 0 l 1,8.0867 v 0 l 1,8.0965 v 0 l 1,8.1065 v 0 l 1,8.1163 v 0 l 1,8.1263 v 0 l 1,8.136 v 0 l 1,8.1459 v 0 l 1,8.1556 v 0 l 1,8.1656 v 0 l 1,8.1754 v 0 l 1,8.1853 v 0 l 1,8.1951 v 0 l 1,8.205 v 0 l 1,8.2148 v 0 l 1,8.2248 v 0 l 1,8.2345 v 0 l 1,8.2444 v 0 l 1,8.2541 v 0 l 1,8.2641 v 0 l 1,8.2739 v 0 l 1,8.2839 v 0 l 1,8.2937 v 0 l 1,8.3035 v 0 l 1,8.3133 v 0 l 1,8.3231 v 0 l 1,8.333 v 0 l 1,8.343 v 0 l 1,8.3527 v 0 l 1,8.3625 v 0 l 1,8.3725 v 0 l 1,8.3824 v 0 l 1,8.3921 v 0 l 1,8.402 v 0 l 1,8.4119 v 0 l 1,8.4217 v 0 l 1,8.4315 v 0 l 1,8.4414 v 0 l 1,8.4513 v 0 l 1,8.4611 v 0 l 1,8.4709 v 0 l 1,8.4808 v 0 l 1,8.4907 v 0 l 1,8.5005 v 0 l 1,8.5103 v 0 l 1,8.5201 v 0 l 1,8.5301 v 0 l 1,8.54 v 0 l 1,8.5497 v 0 l 1,8.5596 v 0 l 1,8.5694 v 0 l 1,8.5793 v 0 l 1,8.5892 v 0 l 1,8.599 v 0 l 1,8.6089 v 0 l 1,8.6187 v 0 l 1,8.6286 v 0 l 1,8.6384 v 0 l 1,8.6483 v 0 l 1,8.6581 v 0 l 1,8.668 v 0 l 1,8.6778 v 0 l 1,8.6877 v 0 l 1,8.6975 v 0 l 1,8.7075 v 0 l 1,8.7172 v 0 l 1,8.7271 v 0 l 1,8.7369 v 0 l 1,8.7468 v 0 l 1,8.7565 v 0 l 1,8.7665 v 0 l 1,8.7763 v 0 l 1,8.7862 v 0 l 1,8.796 v 0 l 1,8.806 v 0 l 1,8.8157 v 0 l 1,8.8256 v 0 l 1,8.8355 v 0 l 1,8.8453 v 0 l 1,8.8551 v 0 l 1,8.8649 v 0 l 1,8.8748 v 0 l 1,8.8847 v 0 l 1,8.8946 v 0 l 1,8.9044 v 0 l 1,8.9142 v 0 l 1,8.9241 v 0 l 1,8.934 v 0 l 1,8.9438 v 0 l 1,8.9536 v 0 l 1,8.9635 v 0 l 1,8.9734 v 0 l 1,8.9832 v 0 l 1,8.993 v 0 l 1,9.0029 v 0 l 1,9.0129 v 0 l 1,9.0226 v 0 l 1,9.0324 v 0 l 1,9.0423 v 0 l 1,9.0522 v 0 l 1,9.062 v 0 l 1,9.0719 v 0 l 1,9.0817 v 0 l 1,9.0915 v 0 l 1,9.1014 v 0 l 1,9.1112 v 0 l 1,9.1211 v 0 l 1,9.1311 v 0 l 1,9.1408 v 0 l 1,9.1507 v 0 l 1,9.1605 v 0 l 1,9.1704 v 0 l 1,9.1802 v 0 l 1,9.19 v 0 l 1,9.1999 v 0 l 1,9.2098 v 0 l 1,9.2196 v 0 l 1,9.2295 v 0 l 1,9.2394 v 0 l 1,9.2492 v 0 l 1,9.259 v 0 l 1,9.2689 v 0 l 1,9.2787 v 0 l 1,9.2886 v 0 l 1,9.2983 v 0 l 1,9.3083 v 0 l 1,9.3182 v 0 l 1,9.328 v 0 l 1,9.3378 v 0 l 1,9.3478 v 0 l 1,9.3575 v 0 l 1,9.3674 v 0 l 1,9.3773 v 0 l 1,9.387 v 0 l 1,9.397 v 0 l 1,9.4067 v 0 l 1,9.4166 v 0 l 1,9.4265 v 0 l 1,9.4364 v 0 l 1,9.4462 v 0 l 1,9.456 v 0 l 1,9.4659 v 0 l 1,9.4758 v 0 l 1,9.4856 v 0 l 1,9.4954 v 0 l 1,9.5053 v 0 l 1,9.5152 v 0 l 1,9.525 v 0 l 1,9.5348 v 0 l 1,9.5447 v 0 l 1,9.5546 v 0 l 1,9.5644 v 0 l 1,9.5743 v 0 l 1,9.5841 v 0 l 1,9.5939 v 0 l 1,9.6039 v 0 l 1,9.6136 v 0 l 1,9.6235 v 0 l 1,9.6334 v 0 l 1,9.6432 v 0 l 1,9.6531 v 0 l 1,9.663 v 0 l 1,9.6728 v 0 l 1,9.6826 v 0 l 1,9.6925 v 0 l 1,9.7023 v 0 l 1,9.7122 v 0 l 1,9.722 v 0 l 1,9.7318 v 0 l 1,9.7417 v 0 l 1,9.7516 v 0 l 1,9.7614 v 0 l 1,9.7713 v 0 l 1,9.7811 v 0 l 1,9.7911 v 0 l 1,9.8008 v 0 l 1,9.8107 v 0 l 1,9.8204 v 0 l 1,9.8304 v 0 l 1,9.8403 v 0 l 1,9.8501 v 0 l 1,9.8599 v 0 l 1,9.8698 v 0 l 1,9.8797 v 0 l 1,9.8895 v 0 l 1,9.8994 v 0 l 1,9.9092 v 0 l 1,9.919 v 0 l 1,9.9289 v 0 l 1,9.9387 v 0 l 1,9.9485 v 0 l 1,9.9585 v 0 l 1,9.9684 v 0 l 1,9.9781 v 0 l 1,9.988 v 0 l 1,9.9979 v 0 l 1,10.0077 v 0 l 1,10.0175 v 0 l 1,10.0274 v 0 l 1,10.0373 v 0 l 1,10.0471 v 0 l 1,10.057 v 0 l 1,10.0667 v 0 l 1,10.0767 v 0 l 1,10.0865 v 0 l 1,10.0964 v 0 l 1,10.1062 v 0 l 1,10.1161 v 0 l 1,10.1259 v 0 l 1,10.1358 v 0 l 1,10.1456 v 0 l 1,10.1554 v 0 l 1,10.1654 v 0 l 1,10.1751 v 0 l 1,10.1851 v 0 l 1,10.1948 v 0 l 1,10.2047 v 0 l 1,10.2146 v 0 l 1,10.2244 v 0 l 1,10.2343 v 0 l 1,10.2441 v 0 l 1,10.254 v 0 l 1,10.2639 v 0 l 1,10.2736 v 0 l 1,10.2836 v 0 l 1,10.2933 v 0 l 1,10.3033 v 0 l 1,10.3131 v 0 l 1,10.3229 v 0 l 1,10.3328"
         stroke-opacity="0.8"
         stroke-linecap="round"
         stroke-linejoin="round"
         stroke-miterlimit="10"
         stroke-width="2.5"
         id="path12" />
      <text
         fill="#006758"
         stroke="none"
         font-family="geogebra-sans-serif, sans-serif"
         font-size="16px"
         font-style="normal"
         font-weight="normal"
         text-decoration="normal"
         x="111"
         y="921"
         text-anchor="start"
         dominant-baseline="alphabetic"
         fill-opacity="1"
         id="text12">f</text>
      <path
         fill="none"
         stroke="#c75000"
         paint-order="fill stroke markers"
         d="m 0,368.77232 h 5.953125 5.953125 5.953125 5.953125 5.953125 5.953125 5.953125 5.953125 5.953125 5.953125 5.953125 5.953125 5.953125 5.953125 5.953125 5.953125 5.95313 5.95312 5.95313 5.95312 5.95313 5.95312 5.95312 5.95313 5.95312 5.95313 5.95312 5.95313 5.95312 5.95313 5.95312 5.95313 5.95312 5.95313 5.95312 5.95313 5.95313 5.95312 5.95313 5.95312 5.95313 5.95312 5.95313 5.95312 5.95312 5.95313 5.95312 5.95313 5.95312 5.95313 5.95312 5.95313 5.95312 5.95313 5.95312 5.95313 5.95312 5.95313 5.95312 5.95313 5.95312 5.95313 2.97656 1.48828 m 0.55811,-101.51289 h 0.093 0.83715 5.95313 5.95312 5.95313 5.95312 5.95313 5.95312 5.95313 5.95313 5.95312 5.95312 5.95313 5.95313 5.95312 5.95312 5.95313 5.95313 5.95312 5.95312 5.95313 5.95313 5.95312 5.95312 5.95313 5.95313 5.95312 5.95312 5.95313 5.95312 5.95313 5.95312 5.95313 5.95312 5.95313 2.97656 1.48828 0.74414 m 0.46509,101.51289 h 0.093 6.13916 5.95312 5.95313 5.95312 5.95313 5.95312 5.95313 5.95312 5.95313 5.95312 5.95313 5.95312 5.95313 5.95312 5.95313 5.95312 5.95313 5.95312 5.95313 5.95312 5.95313 5.95312 5.95313 5.95312 5.95313 5.95312 5.95313 5.95312 5.95313 5.95312 5.95313 5.95312 5.95313 5.95312 5.95313 5.95312 5.95313 5.95312 5.95313 5.95312 5.95313 5.95312 5.95313 5.95312 5.95313 5.95312 5.95313 5.95312 5.95313 5.95312 5.95313 5.95312 5.95313 5.95312 5.95313 5.95312 5.95313 5.95312 5.95313 5.95312 5.95313 5.95312 5.95313 5.95312 5.95313 5.95312 5.95313 5.95312 5.95313 5.95312 5.95317 5.9531 5.9531 5.9532 5.9531 5.9531 5.9532 5.9531 5.9531 5.9531 5.9532 5.9531 5.9531 5.9531 5.9532 5.9531 5.9531 5.9531 5.9532 5.9531 5.9531 5.9531 5.9532 5.9531 5.9531 5.9531 5.9532 5.9531 5.9531 5.9531 5.9532 5.9531 5.9531 5.9531 5.9532 5.9531 5.9531 5.9531 5.9532 5.9531 5.9531 5.9531 5.9532 5.9531 5.9531 5.9531 5.9532 5.9531 5.9531 5.9531 5.9532 5.9531 5.9531 5.9531 5.9532 5.9531 5.9531 5.9531 5.9532 5.9531 5.9531 5.9531 5.9532 5.9531 5.9531 5.9531 5.9532 5.9531 5.9531 5.9531 5.9532 5.9531 5.9531 5.9531 5.9532 5.9531 5.9531 5.9531 5.9532 5.9531 5.9531 5.9531 5.9532 5.9531 5.9531 5.9531 5.9532 5.9531 5.9531"
         stroke-opacity="0.8"
         stroke-linecap="round"
         stroke-linejoin="round"
         stroke-miterlimit="10"
         stroke-width="2.5"
         id="path13" />
      <text
         fill="#c75000"
         stroke="none"
         font-family="geogebra-sans-serif, sans-serif"
         font-size="16px"
         font-style="normal"
         font-weight="normal"
         text-decoration="normal"
         x="24"
         y="368"
         text-anchor="start"
         dominant-baseline="alphabetic"
         fill-opacity="1"
         id="text13">p</text>
    </g>
  </g>
</svg>
