<?xml version="1.0" encoding="UTF-8" standalone="no"?>
<svg
   version="1.1"
   width="256"
   height="256"
   id="svg13"
   xmlns="http://www.w3.org/2000/svg"
   xmlns:svg="http://www.w3.org/2000/svg">
  <defs
     id="defs1">
    <clipPath
       id="CTLmluHbkaMi">
      <path
         fill="none"
         stroke="none"
         d="M 0,0 H 1524 V 931 H 0 Z"
         id="path1" />
    </clipPath>
    <clipPath
       clipPathUnits="userSpaceOnUse"
       id="clipPath13">
      <rect
         style="font-variation-settings:'wght' 700;fill:#3d5562;stroke:#3d5562;stroke-width:3.05945;stroke-linecap:round;stroke-opacity:0;-inkscape-stroke:none"
         id="rect14"
         width="748"
         height="748.59161"
         x="201.5"
         y="114.1284" />
    </clipPath>
  </defs>
  <g
     transform="matrix(0.34197551,0,0,0.34197551,-68.705748,-39.029119)"
     clip-path="url(#clipPath13)"
     id="g13">
    <g
       id="g12">
      <rect
         fill="#ffffff"
         stroke="none"
         x="0"
         y="0"
         width="1524"
         height="931"
         fill-opacity="1"
         id="rect1" />
      <path
         fill="none"
         stroke="#c0c0c0"
         paint-order="fill stroke markers"
         d="m 14.5,0.5 v 931 m 0,-931 v 931 m 93,-931 v 931 m 94,-931 v 931 m 93,-931 v 931 m 94,-931 v 931 m 93,-931 v 931 m 187,-931 v 931 m 94,-931 v 931 m 93,-931 v 931 m 94,-931 v 931 m 94,-931 v 931 m 93,-931 v 931 m 94,-931 v 931 m 93,-931 v 931 m 94,-931 v 931 m 93,-931 v 931"
         stroke-opacity="1"
         stroke-linecap="round"
         stroke-linejoin="round"
         stroke-miterlimit="10"
         id="path2" />
      <path
         fill="none"
         stroke="#c0c0c0"
         paint-order="fill stroke markers"
         d="m 32.5,0.5 v 931 m 19,-931 v 931 m 19,-931 v 931 m 18,-931 v 931 m 38,-931 v 931 m 19,-931 v 931 m 18,-931 v 931 m 19,-931 v 931 m 37,-931 v 931 m 19,-931 v 931 m 19,-931 v 931 m 19,-931 v 931 m 37,-931 v 931 m 19,-931 v 931 m 18,-931 v 931 m 19,-931 v 931 m 37,-931 v 931 m 19,-931 v 931 m 19,-931 v 931 m 19,-931 v 931 m 37,-931 v 931 m 19,-931 v 931 m 18,-931 v 931 m 19,-931 v 931 m 38,-931 v 931 m 18,-931 v 931 m 19,-931 v 931 m 19,-931 v 931 m 37,-931 v 931 m 19,-931 v 931 m 18,-931 v 931 m 19,-931 v 931 m 38,-931 v 931 m 18,-931 v 931 m 19,-931 v 931 m 19,-931 v 931 m 37,-931 v 931 m 19,-931 v 931 m 19,-931 v 931 m 18,-931 v 931 m 38,-931 v 931 m 18,-931 v 931 m 19,-931 v 931 m 19,-931 v 931 m 37,-931 v 931 m 19,-931 v 931 m 19,-931 v 931 m 18,-931 v 931 m 38,-931 v 931 m 18,-931 v 931 m 19,-931 v 931 m 19,-931 v 931 m 37,-931 v 931 m 19,-931 v 931 m 19,-931 v 931 m 18,-931 v 931 m 38,-931 v 931 m 19,-931 v 931 m 18,-931 v 931 m 19,-931 v 931 m 37,-931 v 931 m 19,-931 v 931 m 19,-931 v 931 m 18,-931 v 931"
         stroke-opacity="0.235294"
         stroke-linecap="round"
         stroke-linejoin="round"
         stroke-miterlimit="10"
         id="path3" />
      <path
         fill="none"
         stroke="#c0c0c0"
         paint-order="fill stroke markers"
         d="m 0.5,20.5 h 1524 m -1524,0 h 1524 m -1524,94 h 1524 m -1524,93 h 1524 m -1524,94 h 1524 m -1524,93 h 1524 m -1524,187 h 1524 m -1524,94 h 1524 m -1524,93 h 1524 m -1524,94 h 1524"
         stroke-opacity="1"
         stroke-linecap="round"
         stroke-linejoin="round"
         stroke-miterlimit="10"
         id="path4" />
      <path
         fill="none"
         stroke="#c0c0c0"
         paint-order="fill stroke markers"
         d="m 0.5,1.5 h 1524 m -1524,0 h 1524 m -1524,38 h 1524 m -1524,18 h 1524 m -1524,19 h 1524 m -1524,19 h 1524 m -1524,37 h 1524 m -1524,19 h 1524 m -1524,19 h 1524 m -1524,18 h 1524 m -1524,38 h 1524 m -1524,19 h 1524 m -1524,18 h 1524 m -1524,19 h 1524 m -1524,37 h 1524 m -1524,19 h 1524 m -1524,19 h 1524 m -1524,19 h 1524 m -1524,37 h 1524 m -1524,19 h 1524 m -1524,18 h 1524 m -1524,19 h 1524 m -1524,37 h 1524 m -1524,19 h 1524 m -1524,19 h 1524 m -1524,19 h 1524 m -1524,37 h 1524 m -1524,19 h 1524 m -1524,18 h 1524 m -1524,19 h 1524 m -1524,38 h 1524 m -1524,18 h 1524 m -1524,19 h 1524 m -1524,19 h 1524 m -1524,37 h 1524 m -1524,19 h 1524 m -1524,18 h 1524 m -1524,19 h 1524 m -1524,38 h 1524 m -1524,18 h 1524 m -1524,19 h 1524"
         stroke-opacity="0.235294"
         stroke-linecap="round"
         stroke-linejoin="round"
         stroke-miterlimit="10"
         id="path5" />
      <path
         fill="none"
         stroke="#252525"
         paint-order="fill stroke markers"
         d="m 575.5,2.5 v 929"
         stroke-opacity="1"
         stroke-miterlimit="10"
         id="path6" />
      <path
         fill="none"
         stroke="#252525"
         paint-order="fill stroke markers"
         d="m 575.5,1.5 -4,4"
         stroke-opacity="1"
         stroke-miterlimit="10"
         id="path7" />
      <path
         fill="none"
         stroke="#252525"
         paint-order="fill stroke markers"
         d="m 575.5,1.5 4,4"
         stroke-opacity="1"
         stroke-miterlimit="10"
         id="path8" />
      <path
         fill="none"
         stroke="#252525"
         paint-order="fill stroke markers"
         d="m 0.5,488.5 h 1522"
         stroke-opacity="1"
         stroke-miterlimit="10"
         id="path9" />
      <path
         fill="none"
         stroke="#252525"
         paint-order="fill stroke markers"
         d="m 1523.5,488.5 -4,-4"
         stroke-opacity="1"
         stroke-miterlimit="10"
         id="path10" />
      <path
         fill="none"
         stroke="#252525"
         paint-order="fill stroke markers"
         d="m 1523.5,488.5 -4,4"
         stroke-opacity="1"
         stroke-miterlimit="10"
         id="path11" />
      <path
         fill="none"
         stroke="#006758"
         paint-order="fill stroke markers"
         d="m 17.859375,944.75657 2.976563,-8.84661 2.976562,-8.79924 2.976562,-8.75189 2.976563,-8.70452 2.976562,-8.65716 2.976563,-8.6098 2.976562,-8.56244 2.976563,-8.51507 2.976562,-8.46771 2.976563,-8.42036 2.976562,-8.37298 2.976563,-8.32563 2.976562,-8.27827 2.976563,-8.2309 2.976563,-8.18354 2.976562,-8.13618 2.976562,-8.08882 2.976563,-8.04145 2.976563,-7.9941 2.976562,-7.94673 2.976562,-7.89937 2.976563,-7.85201 2.976563,-7.80464 2.976562,-7.75729 2.976563,-7.70992 2.976562,-7.66256 2.976562,-7.6152 2.976568,-7.56783 2.97656,-7.52048 2.97656,-7.47311 2.97656,-7.42575 2.97657,-7.37839 2.97656,-7.33103 2.97656,-7.28366 2.97656,-7.23631 2.97657,-7.18894 2.97656,-7.14158 2.97656,-7.09421 2.97656,-7.04686 2.97656,-6.99949 2.97657,-6.95213 2.97656,-6.90477 2.97656,-6.85741 2.97656,-6.81005 2.97657,-6.76268 2.97656,-6.71532 2.97656,-6.66796 2.97657,-6.6206 2.97656,-6.57324 2.97656,-6.52587 2.97656,-6.47851 2.97657,-6.43115 2.97656,-6.38379 2.97656,-6.33643 2.97656,-6.28906 2.97657,-6.2417 2.97656,-6.19434 2.97656,-6.14698 2.97656,-6.09962 2.97656,-6.05225 2.97657,-6.0049 2.97656,-5.95753 2.97656,-5.91017 2.97656,-5.8628 2.97657,-5.81545 2.97656,-5.76808 2.97656,-5.72072 2.97657,-5.67336 2.97656,-5.626 2.97656,-5.57864 2.97656,-5.53127 2.97656,-5.48391 2.97657,-5.43655 2.97656,-5.38919 2.97656,-5.34183 2.97656,-5.29446 2.97657,-5.2471 2.97656,-5.19974 2.97656,-5.15238 2.97657,-5.10502 2.97656,-5.05765 2.97656,-5.0103 5.95312,-9.8785 5.95313,-9.68905 5.95312,-9.4996 5.95313,-9.31016 5.95313,-9.12071 5.95312,-8.93126 5.95313,-8.74181 5.95312,-8.55237 5.95312,-8.36291 5.95313,-8.17347 5.95313,-7.98403 5.95312,-7.79457 5.95312,-7.60513 5.95313,-7.41568 5.95312,-7.22623 5.95313,-7.03678 5.95313,-6.84734 5.95312,-6.65789 5.95312,-6.46844 5.95313,-6.27899 5.95313,-6.08955 5.95312,-5.9001 5.95313,-5.71065 5.95312,-5.5212 5.95312,-5.33175 5.95313,-5.14231 5.95312,-4.95286 5.95313,-4.76341 5.95312,-4.57397 5.95313,-4.38451 5.95312,-4.19507 5.95313,-4.00562 5.95313,-3.81618 5.95312,-3.62672 5.95313,-3.43728 5.95312,-3.24783 5.95313,-3.05838 5.95312,-2.86894 5.95312,-2.67948 5.95313,-2.49004 5.95312,-2.3006 5.95313,-2.11114 5.95312,-1.9217 5.95313,-1.73224 5.95312,-1.54281 5.95313,-1.35335 5.95313,-1.1639 5.95312,-0.97446 5.95312,-0.78501 5.95313,-0.59557 5.95312,-0.40611 5.95313,-0.21667 5.95312,-0.0272 5.95313,0.16223 5.95312,0.35168 5.95313,0.54112 5.95312,0.73057 5.95313,0.92002 5.95313,1.10947 5.95312,1.29891 5.95312,1.48836 5.95313,1.67781 5.95312,1.86726 5.95313,2.05671 5.95312,2.24615 5.95313,2.4356 5.95312,2.62505 5.95313,2.81449 5.95312,3.00395 5.95313,3.19339 5.95312,3.38284 5.95313,3.57228 5.95313,3.76174 5.95312,3.95118 5.95312,4.14063 5.95313,4.33008 5.95312,4.51952 5.95313,4.70897 5.95312,4.89842 5.95313,5.08787 5.95312,5.27732 5.95313,5.46676 5.95312,5.65621 5.95313,5.84566 5.95313,6.03511 5.95312,6.22455 5.95312,6.414 5.95313,6.60345 5.95312,6.7929 5.95313,6.98235 5.95313,7.17179 5.95312,7.36124 5.95312,7.55069 5.95313,7.74013 5.95313,7.92959 5.95312,8.11903 5.95312,8.30848 5.95313,8.49792 5.95312,8.68738 5.95313,8.87682 5.95312,9.06627 5.95313,9.25572 5.95312,9.44516 5.95313,9.63461 5.95313,9.82406 2.97656,4.98308 2.97656,5.03043 2.97656,5.0778 2.97656,5.12516 2.97657,5.17252 2.97656,5.21988 2.97656,5.26725 2.97657,5.3146 2.97656,5.36197 2.97656,5.40933 2.97656,5.45669 2.97656,5.50406 2.97657,5.55141 2.97656,5.59878 2.97656,5.64614 2.97656,5.6935 2.97657,5.74087 2.97656,5.78822 2.97656,5.83559 2.97656,5.88295 2.97657,5.93031 2.97656,5.97768 2.97656,6.02503 2.97656,6.0724 2.97657,6.11976 2.97656,6.16712 2.97656,6.21448 2.97657,6.26185 2.97656,6.3092 2.97656,6.35657 2.97656,6.40393 2.97656,6.4513 2.97657,6.49865 2.97656,6.54602 2.97656,6.59337 2.97656,6.64075 2.97657,6.6881 2.97656,6.73546 2.9766,6.78283 2.9765,6.83019 2.9766,6.87755 2.9765,6.92491 2.9766,6.97227 2.9766,7.01964 2.9765,7.06699 2.9766,7.11436 2.9766,7.16173 2.9765,7.20908 2.9766,7.25644 2.9766,7.30381 2.9765,7.35117 2.9766,7.39853 2.9765,7.4459 2.9766,7.49325 2.9766,7.54062 2.9765,7.58798 2.9766,7.63534 2.9766,7.6827 2.9765,7.73006 2.9766,7.77743 2.9765,7.82479 2.9766,7.87215 2.9766,7.91951 2.9765,7.96688 2.9766,8.01423 2.9766,8.0616 2.9765,8.10896 2.9766,8.15632 2.9765,8.20369 2.9766,8.25104 2.9766,8.29841 2.9765,8.34577 2.9766,8.39313 2.9766,8.44049 2.9765,8.48786 2.9766,8.53522 2.9765,8.58257 2.9766,8.62995 2.9766,8.6773 2.9765,8.72466 2.9766,8.77203 2.9766,8.81939"
         stroke-opacity="0.8"
         stroke-linecap="round"
         stroke-linejoin="round"
         stroke-miterlimit="10"
         stroke-width="2.5"
         id="path12" />
      <text
         fill="#006758"
         stroke="none"
         font-family="geogebra-sans-serif, sans-serif"
         font-size="16px"
         font-style="normal"
         font-weight="normal"
         text-decoration="normal"
         x="24"
         y="923"
         text-anchor="start"
         dominant-baseline="alphabetic"
         fill-opacity="1"
         id="text12">f</text>
    </g>
  </g>
</svg>
