<?xml version="1.0" encoding="UTF-8" standalone="no"?>
<svg
   version="1.1"
   width="256"
   height="256"
   id="svg14"
   sodipodi:docname="hidden-output-weighted.svg"
   inkscape:version="1.4.2 (f4327f4, 2025-05-13)"
   xmlns:inkscape="http://www.inkscape.org/namespaces/inkscape"
   xmlns:sodipodi="http://sodipodi.sourceforge.net/DTD/sodipodi-0.dtd"
   xmlns="http://www.w3.org/2000/svg"
   xmlns:svg="http://www.w3.org/2000/svg">
  <sodipodi:namedview
     id="namedview14"
     pagecolor="#ffffff"
     bordercolor="#000000"
     borderopacity="0.25"
     inkscape:showpageshadow="2"
     inkscape:pageopacity="0.0"
     inkscape:pagecheckerboard="0"
     inkscape:deskcolor="#d1d1d1"
     inkscape:zoom="10.647681"
     inkscape:cx="132.89279"
     inkscape:cy="227.51434"
     inkscape:window-width="2560"
     inkscape:window-height="1417"
     inkscape:window-x="-8"
     inkscape:window-y="-8"
     inkscape:window-maximized="1"
     inkscape:current-layer="svg14" />
  <defs
     id="defs1">
    <clipPath
       id="tdRCtZitUtHC">
      <path
         fill="none"
         stroke="none"
         d="M 0,0 H 2164 V 1291 H 0 Z"
         id="path1" />
    </clipPath>
    <clipPath
       clipPathUnits="userSpaceOnUse"
       id="clipPath14">
      <rect
         style="font-variation-settings:'wght' 700;fill:#3d5562;stroke:#3d5562;stroke-width:3.03694;stroke-linecap:round;stroke-opacity:0;-inkscape-stroke:none"
         id="rect15"
         width="493.3497"
         height="493.53091"
         x="828.15033"
         y="397.9689" />
    </clipPath>
  </defs>
  <g
     transform="matrix(0.5204037,0,0,0.51875633,-431.71351,-206.47117)"
     clip-path="url(#clipPath14)"
     id="g14">
    <g
       id="g13">
      <rect
         fill="#ffffff"
         stroke="none"
         x="0"
         y="0"
         width="2164"
         height="1291"
         fill-opacity="1"
         id="rect1" />
      <path
         fill="none"
         stroke="#c0c0c0"
         paint-order="fill stroke markers"
         d="m 27.5,0.5 v 1291 m 0,-1291 v 1291 m 62,-1291 v 1291 m 62,-1291 v 1291 m 61,-1291 v 1291 m 62,-1291 v 1291 m 61,-1291 v 1291 m 62,-1291 v 1291 m 62,-1291 v 1291 m 61,-1291 v 1291 m 62,-1291 v 1291 m 61,-1291 v 1291 m 62,-1291 v 1291 m 62,-1291 v 1291 m 61,-1291 v 1291 m 62,-1291 v 1291 m 62,-1291 v 1291 m 61,-1291 v 1291 m 123,-1291 v 1291 m 62,-1291 v 1291 m 62,-1291 v 1291 m 61,-1291 v 1291 m 62,-1291 v 1291 m 61,-1291 v 1291 m 62,-1291 v 1291 m 62,-1291 v 1291 m 61,-1291 v 1291 m 62,-1291 v 1291 m 62,-1291 v 1291 m 61,-1291 v 1291 m 62,-1291 v 1291 m 61,-1291 v 1291 m 62,-1291 v 1291 m 62,-1291 v 1291 m 61,-1291 v 1291"
         stroke-opacity="1"
         stroke-linecap="round"
         stroke-linejoin="round"
         stroke-miterlimit="10"
         id="path2" />
      <path
         fill="none"
         stroke="#c0c0c0"
         paint-order="fill stroke markers"
         d="m 3.5,0.5 v 1291 m 12,-1291 v 1291 m 25,-1291 v 1291 m 12,-1291 v 1291 m 12,-1291 v 1291 m 13,-1291 v 1291 m 24,-1291 v 1291 m 13,-1291 v 1291 m 12,-1291 v 1291 m 12,-1291 v 1291 m 25,-1291 v 1291 m 12,-1291 v 1291 m 13,-1291 v 1291 m 12,-1291 v 1291 m 25,-1291 v 1291 m 12,-1291 v 1291 m 12,-1291 v 1291 m 12,-1291 v 1291 m 25,-1291 v 1291 m 12,-1291 v 1291 m 13,-1291 v 1291 m 12,-1291 v 1291 m 25,-1291 v 1291 m 12,-1291 v 1291 m 12,-1291 v 1291 m 13,-1291 v 1291 m 24,-1291 v 1291 m 13,-1291 v 1291 m 12,-1291 v 1291 m 12,-1291 v 1291 m 25,-1291 v 1291 m 12,-1291 v 1291 m 13,-1291 v 1291 m 12,-1291 v 1291 m 25,-1291 v 1291 m 12,-1291 v 1291 m 12,-1291 v 1291 m 13,-1291 v 1291 m 24,-1291 v 1291 m 13,-1291 v 1291 m 12,-1291 v 1291 m 12,-1291 v 1291 m 25,-1291 v 1291 m 12,-1291 v 1291 m 12,-1291 v 1291 m 13,-1291 v 1291 m 24,-1291 v 1291 m 13,-1291 v 1291 m 12,-1291 v 1291 m 12,-1291 v 1291 m 25,-1291 v 1291 m 12,-1291 v 1291 m 13,-1291 v 1291 m 12,-1291 v 1291 m 25,-1291 v 1291 m 12,-1291 v 1291 m 12,-1291 v 1291 m 13,-1291 v 1291 m 24,-1291 v 1291 m 13,-1291 v 1291 m 12,-1291 v 1291 m 12,-1291 v 1291 m 25,-1291 v 1291 m 12,-1291 v 1291 m 13,-1291 v 1291 m 12,-1291 v 1291 m 25,-1291 v 1291 m 12,-1291 v 1291 m 12,-1291 v 1291 m 12,-1291 v 1291 m 25,-1291 v 1291 m 12,-1291 v 1291 m 13,-1291 v 1291 m 12,-1291 v 1291 m 25,-1291 v 1291 m 12,-1291 v 1291 m 12,-1291 v 1291 m 13,-1291 v 1291 m 24,-1291 v 1291 m 13,-1291 v 1291 m 12,-1291 v 1291 m 12,-1291 v 1291 m 25,-1291 v 1291 m 12,-1291 v 1291 m 13,-1291 v 1291 m 12,-1291 v 1291 m 25,-1291 v 1291 m 12,-1291 v 1291 m 12,-1291 v 1291 m 13,-1291 v 1291 m 24,-1291 v 1291 m 13,-1291 v 1291 m 12,-1291 v 1291 m 12,-1291 v 1291 m 25,-1291 v 1291 m 12,-1291 v 1291 m 12,-1291 v 1291 m 13,-1291 v 1291 m 24,-1291 v 1291 m 13,-1291 v 1291 m 12,-1291 v 1291 m 12,-1291 v 1291 m 25,-1291 v 1291 m 12,-1291 v 1291 m 13,-1291 v 1291 m 12,-1291 v 1291 m 25,-1291 v 1291 m 12,-1291 v 1291 m 12,-1291 v 1291 m 13,-1291 v 1291 m 24,-1291 v 1291 m 13,-1291 v 1291 m 12,-1291 v 1291 m 12,-1291 v 1291 m 25,-1291 v 1291 m 12,-1291 v 1291 m 13,-1291 v 1291 m 12,-1291 v 1291 m 24,-1291 v 1291 m 13,-1291 v 1291 m 12,-1291 v 1291 m 12,-1291 v 1291 m 25,-1291 v 1291 m 12,-1291 v 1291 m 13,-1291 v 1291 m 12,-1291 v 1291 m 25,-1291 v 1291 m 12,-1291 v 1291 m 12,-1291 v 1291 m 13,-1291 v 1291 m 24,-1291 v 1291 m 13,-1291 v 1291 m 12,-1291 v 1291 m 12,-1291 v 1291 m 25,-1291 v 1291 m 12,-1291 v 1291 m 13,-1291 v 1291 m 12,-1291 v 1291 m 25,-1291 v 1291 m 12,-1291 v 1291 m 12,-1291 v 1291"
         stroke-opacity="0.235294"
         stroke-linecap="round"
         stroke-linejoin="round"
         stroke-miterlimit="10"
         id="path3" />
      <path
         fill="none"
         stroke="#c0c0c0"
         paint-order="fill stroke markers"
         d="m 0.5,28.5 h 2164 m -2164,0 h 2164 m -2164,62 h 2164 m -2164,61 h 2164 m -2164,62 h 2164 m -2164,62 h 2164 m -2164,61 h 2164 m -2164,62 h 2164 m -2164,62 h 2164 m -2164,61 h 2164 m -2164,62 h 2164 m -2164,123 h 2164 m -2164,62 h 2164 m -2164,61 h 2164 m -2164,62 h 2164 m -2164,61 h 2164 m -2164,62 h 2164 m -2164,62 h 2164 m -2164,61 h 2164 m -2164,62 h 2164 m -2164,62 h 2164"
         stroke-opacity="1"
         stroke-linecap="round"
         stroke-linejoin="round"
         stroke-miterlimit="10"
         id="path4" />
      <path
         fill="none"
         stroke="#c0c0c0"
         paint-order="fill stroke markers"
         d="m 0.5,4.5 h 2164 m -2164,0 h 2164 m -2164,12 h 2164 m -2164,25 h 2164 m -2164,12 h 2164 m -2164,12 h 2164 m -2164,13 h 2164 m -2164,24 h 2164 m -2164,13 h 2164 m -2164,12 h 2164 m -2164,12 h 2164 m -2164,25 h 2164 m -2164,12 h 2164 m -2164,12 h 2164 m -2164,13 h 2164 m -2164,24 h 2164 m -2164,13 h 2164 m -2164,12 h 2164 m -2164,12 h 2164 m -2164,25 h 2164 m -2164,12 h 2164 m -2164,13 h 2164 m -2164,12 h 2164 m -2164,25 h 2164 m -2164,12 h 2164 m -2164,12 h 2164 m -2164,13 h 2164 m -2164,24 h 2164 m -2164,13 h 2164 m -2164,12 h 2164 m -2164,12 h 2164 m -2164,25 h 2164 m -2164,12 h 2164 m -2164,13 h 2164 m -2164,12 h 2164 m -2164,25 h 2164 m -2164,12 h 2164 m -2164,12 h 2164 m -2164,12 h 2164 m -2164,25 h 2164 m -2164,12 h 2164 m -2164,13 h 2164 m -2164,12 h 2164 m -2164,25 h 2164 m -2164,12 h 2164 m -2164,12 h 2164 m -2164,13 h 2164 m -2164,24 h 2164 m -2164,13 h 2164 m -2164,12 h 2164 m -2164,12 h 2164 m -2164,25 h 2164 m -2164,12 h 2164 m -2164,13 h 2164 m -2164,12 h 2164 m -2164,25 h 2164 m -2164,12 h 2164 m -2164,12 h 2164 m -2164,13 h 2164 m -2164,24 h 2164 m -2164,13 h 2164 m -2164,12 h 2164 m -2164,12 h 2164 m -2164,25 h 2164 m -2164,12 h 2164 m -2164,12 h 2164 m -2164,13 h 2164 m -2164,24 h 2164 m -2164,13 h 2164 m -2164,12 h 2164 m -2164,12 h 2164 m -2164,25 h 2164 m -2164,12 h 2164 m -2164,13 h 2164 m -2164,12 h 2164 m -2164,25 h 2164 m -2164,12 h 2164 m -2164,12 h 2164 m -2164,13 h 2164 m -2164,24 h 2164 m -2164,13 h 2164 m -2164,12 h 2164 m -2164,12 h 2164 m -2164,25 h 2164 m -2164,12 h 2164"
         stroke-opacity="0.235294"
         stroke-linecap="round"
         stroke-linejoin="round"
         stroke-miterlimit="10"
         id="path5" />
      <path
         fill="none"
         stroke="#252525"
         paint-order="fill stroke markers"
         d="m 1075.5,2.5 v 1289"
         stroke-opacity="1"
         stroke-miterlimit="10"
         id="path6" />
      <path
         fill="none"
         stroke="#252525"
         paint-order="fill stroke markers"
         d="m 1075.5,1.5 -4,4"
         stroke-opacity="1"
         stroke-miterlimit="10"
         id="path7" />
      <path
         fill="none"
         stroke="#252525"
         paint-order="fill stroke markers"
         d="m 1075.5,1.5 4,4"
         stroke-opacity="1"
         stroke-miterlimit="10"
         id="path8" />
      <path
         fill="none"
         stroke="#252525"
         paint-order="fill stroke markers"
         d="m 0.5,644.5 h 2162"
         stroke-opacity="1"
         stroke-miterlimit="10"
         id="path9" />
      <path
         fill="none"
         stroke="#252525"
         paint-order="fill stroke markers"
         d="m 2163.5,644.5 -4,-4"
         stroke-opacity="1"
         stroke-miterlimit="10"
         id="path10" />
      <path
         fill="none"
         stroke="#252525"
         paint-order="fill stroke markers"
         d="m 2163.5,644.5 -4,4"
         stroke-opacity="1"
         stroke-miterlimit="10"
         id="path11" />
      <path
         fill="none"
         stroke="#006758"
         paint-order="fill stroke markers"
         d="m 1,5081.263 v 8.722 -8.722 l 1,-8.7139 v 0 l 1,-8.7058 v 0 l 1,-8.6976 v 0 l 1,-8.6895 v 0 l 1,-8.6814 v 0 l 1,-8.6733 v 0 l 1,-8.6652 v 0 l 1,-8.6571 v 0 l 1,-8.649 v 0 l 1,-8.6408 v 0 l 1,-8.6327 v 0 l 1,-8.6246 v 0 l 1,-8.6165 v 0 l 1,-8.6084 v 0 l 1,-8.6003 v 0 l 1,-8.5921 v 0 l 1,-8.5841 v 0 l 1,-8.5759 v 0 l 1,-8.5678 v 0 l 1,-8.5597 v 0 l 1,-8.5516 v 0 l 1,-8.5434 v 0 l 1,-8.5354 v 0 l 1,-8.5272 v 0 l 1,-8.5191 v 0 l 1,-8.511 v 0 l 1,-8.5029 v 0 l 1,-8.4948 v 0 l 1,-8.4866 v 0 l 1,-8.4786 v 0 l 1,-8.4704 v 0 l 1,-8.4623 v 0 l 1,-8.4542 v 0 l 1,-8.4461 v 0 l 1,-8.438 v 0 l 1,-8.4298 v 0 l 1,-8.4217 v 0 l 1,-8.4137 v 0 l 1,-8.4055 v 0 l 1,-8.3974 v 0 l 1,-8.3892 v 0 l 1,-8.3812 v 0 l 1,-8.373 v 0 l 1,-8.365 v 0 l 1,-8.3568 v 0 l 1,-8.3487 v 0 l 1,-8.3406 v 0 l 1,-8.3324 v 0 l 1,-8.3244 v 0 l 1,-8.3162 v 0 l 1,-8.3081 v 0 l 1,-8.3001 v 0 l 1,-8.2919 v 0 l 1,-8.2837 v 0 l 1,-8.2757 v 0 l 1,-8.2675 v 0 l 1,-8.2595 v 0 l 1,-8.2513 v 0 l 1,-8.2432 v 0 l 1,-8.2351 v 0 l 1,-8.227 v 0 l 1,-8.2188 v 0 l 1,-8.2108 v 0 l 1,-8.2026 v 0 l 1,-8.1945 v 0 l 1,-8.1864 v 0 l 1,-8.1783 v 0 l 1,-8.1702 v 0 l 1,-8.162 v 0 l 1,-8.154 v 0 l 1,-8.1458 v 0 l 1,-8.1377 v 0 l 1,-8.1296 v 0 l 1,-8.1215 v 0 l 1,-8.1133 v 0 l 1,-8.1053 v 0 l 1,-8.0971 v 0 l 1,-8.089 v 0 l 1,-8.0809 v 0 l 1,-8.0728 v 0 l 1,-8.0647 v 0 l 1,-8.0566 v 0 l 1,-8.0484 v 0 l 1,-8.0403 v 0 l 1,-8.0322 v 0 l 1,-8.0241 v 0 l 1,-8.016 v 0 l 1,-8.0079 v 0 l 1,-7.9997 v 0 l 1,-7.9917 v 0 l 1,-7.9835 v 0 l 1,-7.9754 v 0 l 1,-7.9673 v 0 l 1,-7.9592 v 0 l 1,-7.951 v 0 l 1,-7.943 v 0 l 1,-7.9348 v 0 l 1,-7.9267 v 0 l 1,-7.9186 v 0 l 1,-7.9105 v 0 l 1,-7.9024 v 0 l 1,-7.8943 v 0 l 1,-7.8861 v 0 l 1,-7.878 v 0 l 1,-7.8699 v 0 l 1,-7.8618 v 0 l 1,-7.8537 v 0 l 1,-7.8456 v 0 l 1,-7.8374 v 0 l 1,-7.8294 v 0 l 1,-7.8212 v 0 l 1,-7.8131 v 0 l 1,-7.805 v 0 l 1,-7.7969 v 0 l 1,-7.7887 v 0 l 1,-7.7807 v 0 l 1,-7.7725 v 0 l 1,-7.7644 v 0 l 1,-7.7563 v 0 l 1,-7.7482 v 0 l 1,-7.7401 v 0 l 1,-7.7319 v 0 l 1,-7.7239 v 0 l 1,-7.7157 v 0 l 1,-7.7076 v 0 l 1,-7.6995 v 0 l 1,-7.6914 v 0 l 1,-7.6833 v 0 l 1,-7.6751 v 0 l 1,-7.6671 v 0 l 1,-7.6589 v 0 l 1,-7.6508 v 0 l 1,-7.6427 v 0 l 1,-7.6346 v 0 l 1,-7.6264 v 0 l 1,-7.6184 v 0 l 1,-7.6102 v 0 l 1,-7.6021 v 0 l 1,-7.594 v 0 l 1,-7.5859 v 0 l 1,-7.5778 v 0 l 1,-7.5696 v 0 l 1,-7.5616 v 0 l 1,-7.5534 v 0 l 1,-7.5453 v 0 l 1,-7.5372 v 0 l 1,-7.5291 v 0 l 1,-7.5209 v 0 l 1,-7.5129 v 0 l 1,-7.5047 v 0 l 1,-7.4966 v 0 l 1,-7.4885 v 0 l 1,-7.4804 v 0 l 1,-7.4723 v 0 l 1,-7.4642 v 0 l 1,-7.456 v 0 l 1,-7.4479 v 0 l 1,-7.4399 v 0 l 1,-7.4317 v 0 l 1,-7.4235 v 0 l 1,-7.4155 v 0 l 1,-7.4074 v 0 l 1,-7.3992 v 0 l 1,-7.3911 v 0 l 1,-7.383 v 0 l 1,-7.3749 v 0 l 1,-7.3668 v 0 l 1,-7.3587 v 0 l 1,-7.3505 v 0 l 1,-7.3425 v 0 l 1,-7.3343 v 0 l 1,-7.3262 v 0 l 1,-7.3181 v 0 l 1,-7.31 v 0 l 1,-7.3018 v 0 l 1,-7.2938 v 0 l 1,-7.2856 v 0 l 1,-7.2775 v 0 l 1,-7.2694 v 0 l 1,-7.2613 v 0 l 1,-7.2532 v 0 l 1,-7.245 v 0 l 1,-7.2369 v 0 l 1,-7.2289 v 0 l 1,-7.2207 v 0 l 1,-7.2126 v 0 l 1,-7.2045 v 0 l 1,-7.1963 v 0 l 1,-7.1883 v 0 l 1,-7.1801 v 0 l 1,-7.172 v 0 l 1,-7.1639 v 0 l 1,-7.1558 v 0 l 1,-7.1477 v 0 l 1,-7.1395 v 0 l 1,-7.1315 v 0 l 1,-7.1233 v 0 l 1,-7.1152 v 0 l 1,-7.1071 v 0 l 1,-7.099 v 0 l 1,-7.0909 v 0 l 1,-7.0827 v 0 l 1,-7.0747 v 0 l 1,-7.0665 v 0 l 1,-7.0584 v 0 l 1,-7.0503 v 0 l 1,-7.0422 v 0 l 1,-7.034 v 0 l 1,-7.026 v 0 l 1,-7.0178 v 0 l 1,-7.0097 v 0 l 1,-7.0016 v 0 l 1,-6.9935 v 0 l 1,-6.9854 v 0 l 1,-6.9772 v 0 l 1,-6.9692 v 0 l 1,-6.961 v 0 l 1,-6.9529 v 0 l 1,-6.9448 v 0 l 1,-6.9367 v 0 l 1,-6.9286 v 0 l 1,-6.9204 v 0 l 1,-6.9124 v 0 l 1,-6.9042 v 0 l 1,-6.8961 v 0 l 1,-6.888 v 0 l 1,-6.8799 v 0 l 1,-6.8717 v 0 l 1,-6.8637 v 0 l 1,-6.8555 v 0 l 1,-6.8474 v 0 l 1,-6.8393 v 0 l 1,-6.8312 v 0 l 1,-6.8231 v 0 l 1,-6.8149 v 0 l 1,-6.8069 v 0 l 1,-6.7987 v 0 l 1,-6.7906 v 0 l 1,-6.7825 v 0 l 1,-6.7744 v 0 l 1,-6.7663 v 0 l 1,-6.7581 v 0 l 1,-6.7501 v 0 l 1,-6.7419 v 0 l 1,-6.7338 v 0 l 1,-6.7257 v 0 l 1,-6.7175 v 0 l 1,-6.7095 v 0 l 1,-6.7014 v 0 l 1,-6.6932 v 0 l 1,-6.6851 v 0 l 1,-6.677 v 0 l 1,-6.6689 v 0 l 1,-6.6608 v 0 l 1,-6.6526 v 0 l 1,-6.6446 v 0 l 1,-6.6364 v 0 l 1,-6.6283 v 0 l 1,-6.6202 v 0 l 1,-6.6121 v 0 l 1,-6.6039 v 0 l 1,-6.5959 v 0 l 1,-6.5877 v 0 l 1,-6.5796 v 0 l 1,-6.5715 v 0 l 1,-6.5634 v 0 l 1,-6.5553 v 0 l 1,-6.5472 v 0 l 1,-6.539 v 0 l 1,-6.5309 v 0 l 1,-6.5229 v 0 l 1,-6.5147 v 0 l 1,-6.5065 v 0 l 1,-6.4985 v 0 l 1,-6.4904 v 0 l 1,-6.4822 v 0 l 1,-6.4741 v 0 l 1,-6.466 v 0 l 1,-6.4579 v 0 l 1,-6.4498 v 0 l 1,-6.4417 v 0 l 1,-6.4335 v 0 l 1,-6.4255 v 0 l 1,-6.4173 v 0 l 1,-6.4092 v 0 l 1,-6.4011 v 0 l 1,-6.393 v 0 l 1,-6.3848 v 0 l 1,-6.3768 v 0 l 1,-6.3686 v 0 l 1,-6.3605 v 0 l 1,-6.3524 v 0 l 1,-6.3443 v 0 l 1,-6.3362 v 0 l 1,-6.328 v 0 l 1,-6.3199 v 0 l 1,-6.3119 v 0 l 1,-6.3037 v 0 l 1,-6.2956 v 0 l 1,-6.2875 v 0 l 1,-6.2793 v 0 l 1,-6.2713 v 0 l 1,-6.2631 v 0 l 1,-6.255 v 0 l 1,-6.2469 v 0 l 1,-6.2388 v 0 l 1,-6.2307 v 0 l 1,-6.2225 v 0 l 1,-6.2145 v 0 l 1,-6.2063 v 0 l 1,-6.1982 v 0 l 1,-6.1901 v 0 l 1,-6.182 v 0 l 1,-6.1739 v 0 l 1,-6.1657 v 0 l 1,-6.1577 v 0 l 1,-6.1495 v 0 l 1,-6.1414 v 0 l 1,-6.1333 v 0 l 1,-6.1252 v 0 l 1,-6.117 v 0 l 1,-6.109 v 0 l 1,-6.1008 v 0 l 1,-6.0927 v 0 l 1,-6.0846 v 0 l 1,-6.0765 v 0 l 1,-6.0684 v 0 l 1,-6.0603 v 0 l 1,-6.0521 v 0 l 1,-6.044 v 0 l 1,-6.0359 v 0 l 1,-6.0278 v 0 l 1,-6.0197 v 0 l 1,-6.0116 v 0 l 1,-6.0034 v 0 l 1,-5.9954 v 0 l 1,-5.9872 v 0 l 1,-5.9791 v 0 l 1,-5.971 v 0 l 1,-5.9629 v 0 l 1,-5.9547 v 0 l 1,-5.9467 v 0 l 1,-5.9385 v 0 l 1,-5.9304 v 0 l 1,-5.9223 v 0 l 1,-5.9142 v 0 l 1,-5.9061 v 0 l 1,-5.8979 v 0 l 1,-5.8899 v 0 l 1,-5.8817 v 0 l 1,-5.8736 v 0 l 1,-5.8655 v 0 l 1,-5.8574 v 0 l 1,-5.8493 v 0 l 1,-5.8411 v 0 l 1,-5.8331 v 0 l 1,-5.8249 v 0 l 1,-5.8168 v 0 l 1,-5.8087 v 0 l 1,-5.8006 v 0 l 1,-5.7924 v 0 l 1,-5.7844 v 0 l 1,-5.7762 v 0 l 1,-5.7681 v 0 l 1,-5.76 v 0 l 1,-5.7519 v 0 l 1,-5.7438 v 0 l 1,-5.7356 v 0 l 1,-5.7276 v 0 l 1,-5.7194 v 0 l 1,-5.7113 v 0 l 1,-5.7032 v 0 l 1,-5.6951 v 0 l 1,-5.6869 v 0 l 1,-5.6789 v 0 l 1,-5.6707 v 0 l 1,-5.6627 v 0 l 1,-5.6545 v 0 l 1,-5.6463 v 0 l 1,-5.6383 v 0 l 1,-5.6302 v 0 l 1,-5.622 v 0 l 1,-5.614 v 0 l 1,-5.6058 v 0 l 1,-5.5977 v 0 l 1,-5.5896 v 0 l 1,-5.5814 v 0 l 1,-5.5734 v 0 l 1,-5.5652 v 0 l 1,-5.5571 v 0 l 1,-5.5491 v 0 l 1,-5.5409 v 0 l 1,-5.5327 v 0 l 1,-5.5247 v 0 l 1,-5.5165 v 0 l 1,-5.5085 v 0 l 1,-5.5003 v 0 l 1,-5.4922 v 0 l 1,-5.4841 v 0 l 1,-5.476 v 0 l 1,-5.4678 v 0 l 1,-5.4598 v 0 l 1,-5.4516 v 0 l 1,-5.4435 v 0 l 1,-5.4354 v 0 l 1,-5.4273 v 0 l 1,-5.4192 v 0 l 1,-5.411 v 0 l 1,-5.403 v 0 l 1,-5.3948 v 0 l 1,-5.3867 v 0 l 1,-5.3786 v 0 l 1,-5.3705 v 0 l 1,-5.3623 v 0 l 1,-5.3543 v 0 l 1,-5.3461 v 0 l 1,-5.338 v 0 l 1,-5.3299 v 0 l 1,-5.3218 v 0 l 1,-5.3137 v 0 l 1,-5.3056 v 0 l 1,-5.2974 v 0 l 1,-5.2893 v 0 l 1,-5.2812 v 0 l 1,-5.2731 v 0 l 1,-5.265 v 0 l 1,-5.2569 v 0 l 1,-5.2488 v 0 l 1,-5.2406 v 0 l 1,-5.2325 v 0 l 1,-5.2244 v 0 l 1,-5.2163 v 0 l 1,-5.2082 v 0 l 1,-5.2001 v 0 l 1,-5.1919 v 0 l 1,-5.1838 v 0 l 1,-5.1758 v 0 l 1,-5.1676 v 0 l 1,-5.1594 v 0 l 1,-5.1514 v 0 l 1,-5.1433 v 0 l 1,-5.1351 v 0 l 1,-5.127 v 0 l 1,-5.119 v 0 l 1,-5.1108 v 0 l 1,-5.1026 v 0 l 1,-5.0946 v 0 l 1,-5.0865 v 0 l 1,-5.0783 v 0 l 1,-5.0702 v 0 l 1,-5.0621 v 0 l 1,-5.054 v 0 l 1,-5.0459 v 0 l 1,-5.0378 v 0 l 1,-5.0296 v 0 l 1,-5.0215 v 0 l 1,-5.0135 v 0 l 1,-5.0053 v 0 l 1,-4.9971 v 0 l 1,-4.9891 v 0 l 1,-4.981 v 0 l 1,-4.9728 v 0 l 1,-4.9647 v 0 l 1,-4.9567 v 0 l 1,-4.9484 v 0 l 1,-4.9404 v 0 l 1,-4.9323 v 0 l 1,-4.9241 v 0 l 1,-4.9161 v 0 l 1,-4.9079 v 0 l 1,-4.8998 v 0 l 1,-4.8917 v 0 l 1,-4.8836 v 0 l 1,-4.8754 v 0 l 1,-4.8674 v 0 l 1,-4.8592 v 0 l 1,-4.8511 v 0 l 1,-4.843 v 0 l 1,-4.8349 v 0 l 1,-4.8268 v 0 l 1,-4.8186 v 0 l 1,-4.8106 v 0 l 1,-4.8024 v 0 l 1,-4.7943 v 0 l 1,-4.7862 v 0 l 1,-4.7781 v 0 l 1,-4.77 v 0 l 1,-4.7618 v 0 l 1,-4.7538 v 0 l 1,-4.7456 v 0 l 1,-4.7375 v 0 l 1,-4.7294 v 0 l 1,-4.7212 v 0 l 1,-4.7132 v 0 l 1,-4.7051 v 0 l 1,-4.6969 v 0 l 1,-4.6888 v 0 l 1,-4.6807 v 0 l 1,-4.6726 v 0 l 1,-4.6645 v 0 l 1,-4.6563 v 0 l 1,-4.6483 v 0 l 1,-4.6401 v 0 l 1,-4.632 v 0 l 1,-4.6239 v 0 l 1,-4.6158 v 0 l 1,-4.6076 v 0 l 1,-4.5996 v 0 l 1,-4.5914 v 0 l 1,-4.5833 v 0 l 1,-4.5752 v 0 l 1,-4.5671 v 0 l 1,-4.559 v 0 l 1,-4.5509 v 0 l 1,-4.5427 v 0 l 1,-4.5346 v 0 l 1,-4.5265 v 0 l 1,-4.5184 v 0 l 1,-4.5103 v 0 l 1,-4.5022 v 0 l 1,-4.4941 v 0 l 1,-4.4859 v 0 l 1,-4.4778 v 0 l 1,-4.4697 v 0 l 1,-4.4616 v 0 l 1,-4.4535 v 0 l 1,-4.4454 v 0 l 1,-4.4372 v 0 l 1,-4.4291 v 0 l 1,-4.4211 v 0 l 1,-4.4129 v 0 l 1,-4.4048 v 0 l 1,-4.3966 v 0 l 1,-4.3886 v 0 l 1,-4.3804 v 0 l 1,-4.3724 v 0 l 1,-4.3642 v 0 l 1,-4.3561 v 0 l 1,-4.348 v 0 l 1,-4.3398 v 0 l 1,-4.3318 v 0 l 1,-4.3236 v 0 l 1,-4.3155 v 0 l 1,-4.3075 v 0 l 1,-4.2992 v 0 l 1,-4.2912 v 0 l 1,-4.2831 v 0 l 1,-4.2749 v 0 l 1,-4.2669 v 0 l 1,-4.2587 v 0 l 1,-4.2506 v 0 l 1,-4.2425 v 0 l 1,-4.2343 v 0 l 1,-4.2263 v 0 l 1,-4.2181 v 0 l 1,-4.2101 v 0 l 1,-4.2019 v 0 l 1,-4.1938 v 0 l 1,-4.1857 v 0 l 1,-4.1775 v 0 l 1,-4.1695 v 0 l 1,-4.1613 v 0 l 1,-4.1533 v 0 l 1,-4.1451 v 0 l 1,-4.137 v 0 l 1,-4.1288 v 0 l 1,-4.1208 v 0 l 1,-4.1126 v 0 l 1,-4.1046 v 0 l 1,-4.0964 v 0 l 1,-4.0883 v 0 l 1,-4.0802 v 0 l 1,-4.072 v 0 l 1,-4.064 v 0 l 1,-4.0558 v 0 l 1,-4.0478 v 0 l 1,-4.0396 v 0 l 1,-4.0315 v 0 l 1,-4.0234 v 0 l 1,-4.0152 v 0 l 1,-4.0072 v 0 l 1,-3.999 v 0 l 1,-3.9909 v 0 l 1,-3.9828 v 0 l 1,-3.9747 v 0 l 1,-3.9666 v 0 l 1,-3.9585 v 0 l 1,-3.9503 v 0 l 1,-3.9423 v 0 l 1,-3.9341 v 0 l 1,-3.926 v 0 l 1,-3.9179 v 0 l 1,-3.9097 v 0 l 1,-3.9017 v 0 l 1,-3.8935 v 0 l 1,-3.8855 v 0 l 1,-3.8773 v 0 l 1,-3.8692 v 0 l 1,-3.861 v 0 l 1,-3.853 v 0 l 1,-3.8449 v 0 l 1,-3.8367 v 0 l 1,-3.8286 v 0 l 1,-3.8205 v 0 l 1,-3.8124 v 0 l 1,-3.8043 v 0 l 1,-3.7961 v 0 l 1,-3.7881 v 0 l 1,-3.7799 v 0 l 1,-3.7718 v 0 l 1,-3.7637 v 0 l 1,-3.7556 v 0 l 1,-3.7475 v 0 l 1,-3.7394 v 0 l 1,-3.7312 v 0 l 1,-3.7231 v 0 l 1,-3.715 v 0 l 1,-3.7069 v 0 l 1,-3.6988 v 0 l 1,-3.6907 v 0 l 1,-3.6825 v 0 l 1,-3.6745 v 0 l 1,-3.6663 v 0 l 1,-3.6582 v 0 l 1,-3.6501 v 0 l 1,-3.6419 v 0 l 1,-3.6339 v 0 l 1,-3.6257 v 0 l 1,-3.6177 v 0 l 1,-3.6095 v 0 l 1,-3.6014 v 0 l 1,-3.5933 v 0 l 1,-3.5851 v 0 l 1,-3.5771 v 0 l 1,-3.5689 v 0 l 1,-3.5609 v 0 l 1,-3.5527 v 0 l 1,-3.5446 v 0 l 1,-3.5364 v 0 l 1,-3.5284 v 0 l 1,-3.5203 v 0 l 1,-3.5121 v 0 l 1,-3.504 v 0 l 1,-3.4959 v 0 l 1,-3.4878 v 0 l 1,-3.4797 v 0 l 1,-3.4715 v 0 l 1,-3.4635 v 0 l 1,-3.4553 v 0 l 1,-3.4472 v 0 l 1,-3.4391 v 0 l 1,-3.431 v 0 l 1,-3.4229 v 0 l 1,-3.4147 v 0 l 1,-3.4067 v 0 l 1,-3.3985 v 0 l 1,-3.3904 v 0 l 1,-3.3823 v 0 l 1,-3.3742 v 0 l 1,-3.366 v 0 l 1,-3.358 v 0 l 1,-3.3498 v 0 l 1,-3.3417 v 0 l 1,-3.3336 v 0 l 1,-3.3255 v 0 l 1,-3.3174 v 0 l 1,-3.3093 v 0 l 1,-3.3011 v 0 l 1,-3.293 v 0 l 1,-3.2849 v 0 l 1,-3.2768 v 0 l 1,-3.2687 v 0 l 1,-3.2606 v 0 l 1,-3.2524 v 0 l 1,-3.2444 v 0 l 1,-3.2362 v 0 l 1,-3.2281 v 0 l 1,-3.22 v 0 l 1,-3.2119 v 0 l 1,-3.2037 v 0 l 1,-3.1957 v 0 l 1,-3.1875 v 0 l 1,-3.1794 v 0 l 1,-3.1713 v 0 l 1,-3.1632 v 0 l 1,-3.1551 v 0 l 1,-3.147 v 0 l 1,-3.1388 v 0 l 1,-3.1307 v 0 l 1,-3.12263 v 0 l 1,-3.1145 v 0 l 1,-3.10638 v 0 l 1,-3.09827 v 0 l 1,-3.09015 v 0 l 1,-3.08204 v 0 l 1,-3.07392 v 0 l 1,-3.06581 v 0 l 1,-3.05769 v 0 l 1,-3.04958 v 0 l 1,-3.04146 v 0 l 1,-3.03334 v 0 l 1,-3.02524 v 0 l 1,-3.01711 v 0 l 1,-3.009 v 0 l 1,-3.00089 v 0 l 1,-2.99277 v 0 l 1,-2.98466 v 0 l 1,-2.97654 v 0 l 1,-2.96842 v 0 l 1,-2.96032 v 0 l 1,-2.95219 v 0 l 1,-2.94408 v 0 l 1,-2.93597 v 0 l 1,-2.92785 v 0 l 1,-2.91974 v 0 l 1,-2.91162 v 0 l 1,-2.9035 v 0 l 1,-2.89539 v 0 l 1,-2.88728 v 0 l 1,-2.87916 v 0 l 1,-2.87105 v 0 l 1,-2.86293 v 0 l 1,-2.85481 v 0 l 1,-2.8467 v 0 l 1,-2.83859 v 0 l 1,-2.83047 v 0 l 1,-2.82235 v 0 l 1,-2.81424 v 0 l 1,-2.80613 v 0 l 1,-2.79801 v 0 l 1,-2.78989 v 0 l 1,-2.78178 v 0 l 1,-2.77367 v 0 l 1,-2.76555 v 0 l 1,-2.75743 v 0 l 1,-2.74932 v 0 l 1,-2.74121 v 0 l 1,-2.73309 v 0 l 1,-2.72497 v 0 l 1,-2.71686 v 0 l 1,-2.70875 v 0 l 1,-2.70063 v 0 l 1,-2.69251 v 0 l 1,-2.6844 v 0 l 1,-2.67629 v 0 l 1,-2.66817 v 0 l 1,-2.66005 v 0 l 1,-2.65194 v 0 l 1,-2.64383 v 0 l 1,-2.63571 v 0 l 1,-2.62759 v 0 l 1,-2.61948 v 0 l 1,-2.61136 v 0 l 1,-2.60325 v 0 l 1,-2.59514 v 0 l 1,-2.58702 v 0 l 1,-2.5789 v 0 l 1,-2.57079 v 0 l 1,-2.56267 v 0 l 1,-2.55456 v 0 l 1,-2.54645 v 0 l 1,-2.53832 v 0 l 1,-2.53022 v 0 l 1,-2.5221 v 0 l 1,-2.51398 v 0 l 1,-2.50587 v 0 l 1,-2.49775 v 0 l 1,-2.48964 v 0 l 1,-2.48153 v 0 l 1,-2.4734 v 0 l 1,-2.4653 v 0 l 1,-2.45718 v 0 l 1,-2.44906 v 0 l 1,-2.44095 v 0 l 1,-2.43283 v 0 l 1,-2.42472 v 0 l 1,-2.4166 v 0 l 1,-2.40849 v 0 l 1,-2.40037 v 0 l 1,-2.39226 v 0 l 1,-2.38415 v 0 l 1,-2.37602 v 0 l 1,-2.36792 v 0 l 1,-2.35979 v 0 l 1,-2.35169 v 0 l 1,-2.34356 v 0 l 1,-2.33546 v 0 l 1,-2.32734 v 0 l 1,-2.31922 v 0 l 1,-2.31111 v 0 l 1,-2.30299 v 0 l 1,-2.29488 v 0 l 1,-2.28676 v 0 l 1,-2.27865 v 0 l 1,-2.27053 v 0 l 1,-2.26242 v 0 l 1,-2.2543 v 0 l 1,-2.24619 v 0 l 1,-2.23807 v 0 l 1,-2.22996 v 0 l 1,-2.22184 v 0 l 1,-2.21372 v 0 l 1,-2.20562 v 0 l 1,-2.19749 v 0 l 1,-2.18939 v 0 l 1,-2.18126 v 0 l 1,-2.17315 v 0 l 1,-2.16504 v 0 l 1,-2.15692 v 0 l 1,-2.14881 v 0 l 1,-2.14069 v 0 l 1,-2.13258 v 0 l 1,-2.12446 v 0 l 1,-2.11635 v 0 l 1,-2.10823 v 0 l 1,-2.10012 v 0 l 1,-2.092 v 0 l 1,-2.08388 v 0 l 1,-2.07577 v 0 l 1,-2.06766 v 0 l 1,-2.05954 v 0 l 1,-2.05143 v 0 l 1,-2.04331 v 0 l 1,-2.0352 v 0 l 1,-2.02708 v 0 l 1,-2.01896 v 0 l 1,-2.01085 v 0 l 1,-2.00274 v 0 l 1,-1.99462 v 0 l 1,-1.98651 v 0 l 1,-1.97839 v 0 l 1,-1.97027 v 0 l 1,-1.96217 v 0 l 1,-1.95404 v 0 l 1,-1.94593 v 0 l 1,-1.93782 v 0 l 1,-1.9297 v 0 l 1,-1.92158 v 0 l 1,-1.91347 v 0 l 1,-1.90536 v 0 l 1,-1.89724 v 0 l 1,-1.88913 v 0 l 1,-1.88101 v 0 l 1,-1.87289 v 0 l 1,-1.86478 v 0 l 1,-1.85667 v 0 l 1,-1.84855 v 0 l 1,-1.84043 v 0 l 1,-1.83232 v 0 l 1,-1.82421 v 0 l 1,-1.81609 v 0 l 1,-1.80797 v 0 l 1,-1.79986 v 0 l 1,-1.79175 v 0 l 1,-1.78363 v 0 l 1,-1.77551 v 0 l 1,-1.7674 v 0 l 1,-1.75929 v 0 l 1,-1.75117 v 0 l 1,-1.74305 v 0 l 1,-1.73494 v 0 l 1,-1.72682 v 0 l 1,-1.71871 v 0 l 1,-1.7106 v 0 l 1,-1.70248 v 0 l 1,-1.69436 v 0 l 1,-1.68625 v 0 l 1,-1.67814 v 0 l 1,-1.67002 v 0 l 1,-1.6619 v 0 l 1,-1.65379 v 0 l 1,-1.64567 v 0 l 1,-1.63756 v 0 l 1,-1.62945 v 0 l 1,-1.62133 v 0 l 1,-1.61321 v 0 l 1,-1.6051 v 0 l 1,-1.59698 v 0 l 1,-1.58887 v 0 l 1,-1.58075 v 0 l 1,-1.57264 v 0 l 1,-1.56453 v 0 l 1,-1.55641 v 0 l 1,-1.54829 v 0 l 1,-1.54018 v 0 l 1,-1.53206 v 0 l 1,-1.52395 v 0 l 1,-1.51583 v 0 l 1,-1.50772 v 0 l 1,-1.49961 v 0 l 1,-1.49148 v 0 l 1,-1.48338 v 0 l 1,-1.47525 v 0 l 1,-1.46715 v 0 l 1,-1.45903 v 0 l 1,-1.45091 v 0 l 1,-1.4428 v 0 l 1,-1.43468 v 0 l 1,-1.42657 v 0 l 1,-1.41845 v 0 l 1,-1.41034 v 0 l 1,-1.40222 v 0 l 1,-1.39411 v 0 l 1,-1.38599 v 0 l 1,-1.37788 v 0 l 1,-1.36976 v 0 l 1,-1.36165 v 0 l 1,-1.35353 v 0 l 1,-1.34542 v 0 l 1,-1.3373 v 0 l 1,-1.32919 v 0 l 1,-1.32107 v 0 l 1,-1.31296 v 0 l 1,-1.30484 v 0 l 1,-1.29673 v 0 l 1,-1.28861 v 0 l 1,-1.2805 v 0 l 1,-1.27238 v 0 l 1,-1.26427 v 0 l 1,-1.25615 v 0 l 1,-1.24804 v 0 l 1,-1.23992 v 0 l 1,-1.23181 v 0 l 1,-1.22369 v 0 l 1,-1.21558 v 0 l 1,-1.20746 v 0 l 1,-1.19934 v 0 l 1,-1.19124 v 0 l 1,-1.18311 v 0 l 1,-1.175 v 0 l 1,-1.16689 v 0 l 1,-1.15877 v 0 l 1,-1.15066 v 0 l 1,-1.14254 v 0 l 1,-1.13443 v 0 l 1,-1.12631 v 0 l 1,-1.11819 v 0 l 1,-1.11009 v 0 l 1,-1.10196 v 0 l 1,-1.09385 v 0 l 1,-1.08574 v 0 l 1,-1.07762 v 0 l 1,-1.06951 v 0 l 1,-1.06139 v 0 l 1,-1.05327 v 0 l 1,-1.04516 v 0 l 1,-1.03705 v 0 l 1,-1.02893 v 0 l 1,-1.02082 v 0 l 1,-1.0127 v 0 l 1,-1.00458 v 0 l 1,-0.99647 v 0 l 1,-0.98836 v 0 l 1,-0.98024 v 0 l 1,-0.97213 v 0 l 1,-0.96401 v 0 l 1,-0.95589 v 0 l 1,-0.94778 v 0 l 1,-0.93967 v 0 l 1,-0.93155 v 0 l 1,-0.92343 v 0 l 1,-0.91532 v 0 l 1,-0.90721 v 0 l 1,-0.89909 v 0 l 1,-0.89097 v 0 l 1,-0.88286 v 0 l 1,-0.87475 v 0 l 1,-0.86663 v 0 l 1,-0.85851 v 0 l 1,-0.8504 v 0 l 1,-0.84229 v 0 l 1,-0.83417 v 0 l 1,-0.82605 v 0 l 1,-0.81794 v 0 l 1,-0.80983 v 0 l 1,-0.80171 v 0 l 1,-0.79359 v 0 l 1,-0.78548 v 0 l 1,-0.77737 v 0 l 1,-0.76925 v 0 l 1,-0.76113 v 0 l 1,-0.75302 v 0 l 1,-0.7449 v 0 l 1,-0.73679 v 0 l 1,-0.72868 v 0 l 1,-0.72056 v 0 l 1,-0.71244 v 0 l 1,-0.70433 v 0 l 1,-0.69621 v 0 l 1,-0.6881 v 0 l 1,-0.67999 v 0 l 1,-0.67187 v 0 l 1,-0.66375 v 0 l 1,-0.65564 v 0 l 1,-0.64752 v 0 l 1,-0.63941 v 0 l 1,-0.63129 v 0 l 1,-0.62318 v 0 l 1,-0.61507 v 0 l 1,-0.60695 v 0 l 1,-0.59883 v 0 l 1,-0.59072 v 0 l 1,-0.5826 v 0 l 1,-0.57449 v 0 l 1,-0.56637 v 0 l 1,-0.55826 v 0 l 1,-0.55014 v 0 l 1,-0.54203 v 0 l 1,-0.53392 v 0 l 1,-0.52579 v 0 l 1,-0.51769 v 0 l 1,-0.50957 v 0 l 1,-0.50145 v 0 l 1,-0.49334 v 0 l 1,-0.48522 v 0 l 1,-0.47711 v 0 l 1,-0.46899 v 0 l 1,-0.46088 v 0 l 1,-0.45276 v 0 l 1,-0.44465 v 0 l 1,-0.43653 v 0 l 1,-0.42842 v 0 l 1,-0.4203 v 0 l 1,-0.41219 v 0 l 1,-0.40407 v 0 l 1,-0.39596 v 0 l 1,-0.38784 v 0 l 1,-0.37973 v 0 l 1,-0.37161 v 0 l 1,-0.3635 v 0 l 1,-0.35538 v 0 l 1,-0.34727 v 0 l 1,-0.33915 v 0 l 1,-0.33104 v 0 l 1,-0.32292 v 0 l 1,-0.31481 v 0 l 1,-0.30669 v 0 l 1,-0.29858 v 0 l 1,-0.29046 v 0 l 1,-0.28234 v 0 l 1,-0.27424 v 0 l 1,-0.26611 v 0 l 1,-0.258 v 0 l 1,-0.24989 v 0 l 1,-0.24177 v 0 l 1,-0.23366 v 0 l 1,-0.22554 v 0 l 1,-0.21743 v 0 l 1,-0.20931 v 0 l 1,-0.2012 v 0 l 1,-0.19308 v 0 l 1,-0.18496 v 0 l 1,-0.17685 v 0 l 1,-0.16874 v 0 l 1,-0.16062 v 0 l 1,-0.15251 v 0 l 1,-0.14439 v 0 l 1,-0.13628 v 0 l 1,-0.12816 v 0 l 1,-0.12004 v 0 l 1,-0.11193 v 0 l 1,-0.10382 v 0 l 1,-0.0957 v 0 l 1,-0.0876 v 0 l 1,-0.0795 v 0 l 1,-0.0713 v 0 l 1,-0.0632 v 0 l 1,-0.0551 v 0 l 1,-0.047 v 0 l 1,-0.0389 v 0 l 1,-0.0308 v 0 l 1,-0.0227 v 0 l 1,-0.0145 v 0 l 1,-0.006 v 0.002 l 1,-0.002 v 0.002 l 1,0.01 v 0 l 1,0.0179 v 0 l 1,0.026 v 0 l 1,0.0341 v 0 l 1,0.0423 v 0 l 1,0.0504 v 0 l 1,0.0585 v 0 l 1,0.0666 v 0 l 1,0.0747 v 0 l 1,0.0828 v 0 l 1,0.0909 v 0 l 1,0.0991 v 0 l 1,0.10718 v 0 l 1,0.11529 v 0 l 1,0.1234 v 0 l 1,0.13152 v 0 l 1,0.13964 v 0 l 1,0.14775 v 0 l 1,0.15586 v 0 l 1,0.16398 v 0 l 1,0.1721 v 0 l 1,0.18021 v 0 l 1,0.18833 v 0 l 1,0.19644 v 0 l 1,0.20455 v 0 l 1,0.21267 v 0 l 1,0.22079 v 0 l 1,0.2289 v 0 l 1,0.23702 v 0 l 1,0.24513 v 0 l 1,0.25324 v 0 l 1,0.26136 v 0 l 1,0.26948 v 0 l 1,0.27759 v 0 l 1,0.28571 v 0 l 1,0.29382 v 0 l 1,0.30193 v 0 l 1,0.31006 v 0 l 1,0.31816 v 0 l 1,0.32628 v 0 l 1,0.3344 v 0 l 1,0.34251 v 0 l 1,0.35063 v 0 l 1,0.35874 v 0 l 1,0.36686 v 0 l 1,0.37497 v 0 l 1,0.38308 v 0 l 1,0.39121 v 0 l 1,0.39931 v 0 l 1,0.40743 v 0 l 1,0.41555 v 0 l 1,0.42366 v 0 l 1,0.43178 v 0 l 1,0.43989 v 0 l 1,0.44801 v 0 l 1,0.45612 v 0 l 1,0.46424 v 0 l 1,0.47235 v 0 l 1,0.48047 v 0 l 1,0.48858 v 0 l 1,0.4967 v 0 l 1,0.50481 v 0 l 1,0.51293 v 0 l 1,0.52104 v 0 l 1,0.52916 v 0 l 1,0.53727 v 0 l 1,0.54539 v 0 l 1,0.5535 v 0 l 1,0.56162 v 0 l 1,0.56973 v 0 l 1,0.57785 v 0 l 1,0.58596 v 0 l 1,0.59408 v 0 l 1,0.60219 v 0 l 1,0.61031 v 0 l 1,0.61842 v 0 l 1,0.62654 v 0 l 1,0.63465 v 0 l 1,0.64277 v 0 l 1,0.65088 v 0 l 1,0.659 v 0 l 1,0.66712 v 0 l 1,0.67522 v 0 l 1,0.68335 v 0 l 1,0.69145 v 0 l 1,0.69958 v 0 l 1,0.70769 v 0 l 1,0.7158 v 0 l 1,0.72392 v 0 l 1,0.73203 v 0 l 1,0.74015 v 0 l 1,0.74826 v 0 l 1,0.75638 v 0 l 1,0.7645 v 0 l 1,0.77261 v 0 l 1,0.78072 v 0 l 1,0.78884 v 0 l 1,0.79695 v 0 l 1,0.80507 v 0 l 1,0.81318 v 0 l 1,0.8213 v 0 l 1,0.82942 v 0 l 1,0.83753 v 0 l 1,0.84564 v 0 l 1,0.85376 v 0 l 1,0.86187 v 0 l 1,0.86999 v 0 l 1,0.87811 v 0 l 1,0.88622 v 0 l 1,0.89433 v 0 l 1,0.90245 v 0 l 1,0.91057 v 0 l 1,0.91868 v 0 l 1,0.92679 v 0 l 1,0.93491 v 0 l 1,0.94302 v 0 l 1,0.95114 v 0 l 1,0.95926 v 0 l 1,0.96737 v 0 l 1,0.97548 v 0 l 1,0.9836 v 0 l 1,0.99172 v 0 l 1,0.99983 v 0 l 1,1.00794 v 0 l 1,1.01606 v 0 l 1,1.02418 v 0 l 1,1.03229 v 0 l 1,1.0404 v 0 l 1,1.04852 v 0 l 1,1.05664 v 0 l 1,1.06475 v 0 l 1,1.07286 v 0 l 1,1.08098 v 0 l 1,1.0891 v 0 l 1,1.09721 v 0 l 1,1.10533 v 0 l 1,1.11344 v 0 l 1,1.12155 v 0 l 1,1.12967 v 0 l 1,1.13779 v 0 l 1,1.1459 v 0 l 1,1.15402 v 0 l 1,1.16213 v 0 l 1,1.17024 v 0 l 1,1.17836 v 0 l 1,1.18648 v 0 l 1,1.19459 v 0 l 1,1.20271 v 0 l 1,1.21082 v 0 l 1,1.21893 v 0 l 1,1.22705 v 0 l 1,1.23517 v 0 l 1,1.24328 v 0 l 1,1.2514 v 0 l 1,1.25951 v 0 l 1,1.26763 v 0 l 1,1.27574 v 0 l 1,1.28385 v 0 l 1,1.29197 v 0 l 1,1.30009 v 0 l 1,1.3082 v 0 l 1,1.31632 v 0 l 1,1.32443 v 0 l 1,1.33255 v 0 l 1,1.34066 v 0 l 1,1.34878 v 0 l 1,1.35689 v 0 l 1,1.36501 v 0 l 1,1.37312 v 0 l 1,1.38123 v 0 l 1,1.38936 v 0 l 1,1.39746 v 0 l 1,1.40559 v 0 l 1,1.41369 v 0 l 1,1.42181 v 0 l 1,1.42993 v 0 l 1,1.43804 v 0 l 1,1.44616 v 0 l 1,1.45427 v 0 l 1,1.46239 v 0 l 1,1.4705 v 0 l 1,1.47862 v 0 l 1,1.48673 v 0 l 1,1.49485 v 0 l 1,1.50296 v 0 l 1,1.51108 v 0 l 1,1.51919 v 0 l 1,1.52731 v 0 l 1,1.53543 v 0 l 1,1.54353 v 0 l 1,1.55166 v 0 l 1,1.55976 v 0 l 1,1.56789 v 0 l 1,1.57599 v 0 l 1,1.58412 v 0 l 1,1.59223 v 0 l 1,1.60034 v 0 l 1,1.60846 v 0 l 1,1.61657 v 0 l 1,1.62469 v 0 l 1,1.6328 v 0 l 1,1.64092 v 0 l 1,1.64903 v 0 l 1,1.65715 v 0 l 1,1.66527 v 0 l 1,1.67337 v 0 l 1,1.6815 v 0 l 1,1.68961 v 0 l 1,1.69772 v 0 l 1,1.70584 v 0 l 1,1.71395 v 0 l 1,1.72207 v 0 l 1,1.73019 v 0 l 1,1.73829 v 0 l 1,1.74642 v 0 l 1,1.75453 v 0 l 1,1.76264 v 0 l 1,1.77076 v 0 l 1,1.77887 v 0 l 1,1.78699 v 0 l 1,1.79511 v 0 l 1,1.80322 v 0 l 1,1.81133 v 0 l 1,1.81945 v 0 l 1,1.82756 v 0 l 1,1.83568 v 0 l 1,1.8438 v 0 l 1,1.85191 v 0 l 1,1.86002 v 0 l 1,1.86814 v 0 l 1,1.87626 v 0 l 1,1.88437 v 0 l 1,1.89248 v 0 l 1,1.9006 v 0 l 1,1.90872 v 0 l 1,1.91683 v 0 l 1,1.92494 v 0 l 1,1.93306 v 0 l 1,1.94118 v 0 l 1,1.94929 v 0 l 1,1.9574 v 0 l 1,1.96552 v 0 l 1,1.97364 v 0 l 1,1.98175 v 0 l 1,1.98986 v 0 l 1,1.99798 v 0 l 1,2.0061 v 0 l 1,2.01421 v 0 l 1,2.02232 v 0 l 1,2.03044 v 0 l 1,2.03856 v 0 l 1,2.04667 v 0 l 1,2.05478 v 0 l 1,2.06291 v 0 l 1,2.07101 v 0 l 1,2.07913 v 0 l 1,2.08725 v 0 l 1,2.09536 v 0 l 1,2.10347 v 0 l 1,2.11159 v 0 l 1,2.11971 v 0 l 1,2.12782 v 0 l 1,2.13594 v 0 l 1,2.14405 v 0 l 1,2.15216 v 0 l 1,2.16029 v 0 l 1,2.16839 v 0 l 1,2.17651 v 0 l 1,2.18463 v 0 l 1,2.19274 v 0 l 1,2.20086 v 0 l 1,2.20897 v 0 l 1,2.21708 v 0 l 1,2.22521 v 0 l 1,2.23331 v 0 l 1,2.24143 v 0 l 1,2.24955 v 0 l 1,2.25766 v 0 l 1,2.26578 v 0 l 1,2.27389 v 0 l 1,2.28201 v 0 l 1,2.29012 v 0 l 1,2.29824 v 0 l 1,2.30635 v 0 l 1,2.31447 v 0 l 1,2.32258 v 0 l 1,2.33069 v 0 l 1,2.33882 v 0 l 1,2.34692 v 0 l 1,2.35505 v 0 l 1,2.36315 v 0 l 1,2.37128 v 0 l 1,2.37938 v 0 l 1,2.3875 v 0 l 1,2.39562 v 0 l 1,2.40373 v 0 l 1,2.41185 v 0 l 1,2.41996 v 0 l 1,2.42808 v 0 l 1,2.43619 v 0 l 1,2.44431 v 0 l 1,2.45243 v 0 l 1,2.46053 v 0 l 1,2.46866 v 0 l 1,2.47676 v 0 l 1,2.48489 v 0 l 1,2.49299 v 0 l 1,2.50112 v 0 l 1,2.50923 v 0 l 1,2.51734 v 0 l 1,2.52546 v 0 l 1,2.53357 v 0 l 1,2.54169 v 0 l 1,2.5498 v 0 l 1,2.55792 v 0 l 1,2.56603 v 0 l 1,2.57415 v 0 l 1,2.58226 v 0 l 1,2.59038 v 0 l 1,2.5985 v 0 l 1,2.6066 v 0 l 1,2.61473 v 0 l 1,2.62284 v 0 l 1,2.63095 v 0 l 1,2.63907 v 0 l 1,2.64718 v 0 l 1,2.6553 v 0 l 1,2.66342 v 0 l 1,2.67152 v 0 l 1,2.67965 v 0 l 1,2.68776 v 0 l 1,2.69587 v 0 l 1,2.70399 v 0 l 1,2.7121 v 0 l 1,2.72022 v 0 l 1,2.72834 v 0 l 1,2.73645 v 0 l 1,2.74456 v 0 l 1,2.75268 v 0 l 1,2.76079 v 0 l 1,2.76891 v 0 l 1,2.77703 v 0 l 1,2.78514 v 0 l 1,2.79325 v 0 l 1,2.80137 v 0 l 1,2.80949 v 0 l 1,2.8176 v 0 l 1,2.82571 v 0 l 1,2.83383 v 0 l 1,2.84194 v 0 l 1,2.85006 v 0 l 1,2.85818 v 0 l 1,2.86629 v 0 l 1,2.8744 v 0 l 1,2.88252 v 0 l 1,2.89064 v 0 l 1,2.89875 v 0 l 1,2.90686 v 0 l 1,2.91498 v 0 l 1,2.9231 v 0 l 1,2.93121 v 0 l 1,2.93933 v 0 l 1,2.94744 v 0 l 1,2.95555 v 0 l 1,2.96367 v 0 l 1,2.97179 v 0 l 1,2.9799 v 0 l 1,2.98801 v 0 l 1,2.99613 v 0 l 1,3.00425 v 0 l 1,3.01236 v 0 l 1,3.02048 v 0 l 1,3.02859 v 0 l 1,3.0367 v 0 l 1,3.04482 v 0 l 1,3.05294 v 0 l 1,3.06105 v 0 l 1,3.06917 v 0 l 1,3.07728 v 0 l 1,3.08539 v 0 l 1,3.09351 v 0 l 1,3.10163 v 0 l 1,3.10974 v 0 l 1,3.11786 v 0 l 1,3.12598 v 0 l 1,3.1341 v 0 l 1,3.1422 v 0 l 1,3.1503 v 0 l 1,3.1584 v 0 l 1,3.1666 v 0 l 1,3.1746 v 0 l 1,3.1828 v 0 l 1,3.1909 v 0 l 1,3.199 v 0 l 1,3.2071 v 0 l 1,3.2153 v 0 l 1,3.2233 v 0 l 1,3.2315 v 0 l 1,3.2396 v 0 l 1,3.2477 v 0 l 1,3.2558 v 0 l 1,3.2639 v 0 l 1,3.272 v 0 l 1,3.2802 v 0 l 1,3.2883 v 0 l 1,3.2964 v 0 l 1,3.3045 v 0 l 1,3.3126 v 0 l 1,3.3207 v 0 l 1,3.3288 v 0 l 1,3.337 v 0 l 1,3.3451 v 0 l 1,3.3532 v 0 l 1,3.3613 v 0 l 1,3.3694 v 0 l 1,3.3775 v 0 l 1,3.3857 v 0 l 1,3.3938 v 0 l 1,3.4019 v 0 l 1,3.41 v 0 l 1,3.4181 v 0 l 1,3.4262 v 0 l 1,3.4343 v 0 l 1,3.4425 v 0 l 1,3.4506 v 0 l 1,3.4587 v 0 l 1,3.4668 v 0 l 1,3.4749 v 0 l 1,3.483 v 0 l 1,3.4912 v 0 l 1,3.4992 v 0 l 1,3.5074 v 0 l 1,3.5155 v 0 l 1,3.5236 v 0 l 1,3.5317 v 0 l 1,3.5399 v 0 l 1,3.5479 v 0 l 1,3.5561 v 0 l 1,3.5642 v 0 l 1,3.5723 v 0 l 1,3.5804 v 0 l 1,3.5885 v 0 l 1,3.5967 v 0 l 1,3.6047 v 0 l 1,3.6129 v 0 l 1,3.621 v 0 l 1,3.6291 v 0 l 1,3.6372 v 0 l 1,3.6453 v 0 l 1,3.6535 v 0 l 1,3.6615 v 0 l 1,3.6697 v 0 l 1,3.6778 v 0 l 1,3.6859 v 0 l 1,3.6941 v 0 l 1,3.7021 v 0 l 1,3.7102 v 0 l 1,3.7184 v 0 l 1,3.7265 v 0 l 1,3.7346 v 0 l 1,3.7427 v 0 l 1,3.7508 v 0 l 1,3.759 v 0 l 1,3.767 v 0 l 1,3.7752 v 0 l 1,3.7833 v 0 l 1,3.7914 v 0 l 1,3.7995 v 0 l 1,3.8077 v 0 l 1,3.8157 v 0 l 1,3.8239 v 0 l 1,3.832 v 0 l 1,3.8401 v 0 l 1,3.8482 v 0 l 1,3.8563 v 0 l 1,3.8644 v 0 l 1,3.8726 v 0 l 1,3.8807 v 0 l 1,3.8887 v 0 l 1,3.8969 v 0 l 1,3.9051 v 0 l 1,3.9131 v 0 l 1,3.9212 v 0 l 1,3.9294 v 0 l 1,3.9375 v 0 l 1,3.9456 v 0 l 1,3.9537 v 0 l 1,3.9618 v 0 l 1,3.9699 v 0 l 1,3.9781 v 0 l 1,3.9861 v 0 l 1,3.9943 v 0 l 1,4.0024 v 0 l 1,4.0105 v 0 l 1,4.0187 v 0 l 1,4.0267 v 0 l 1,4.0349 v 0 l 1,4.0429 v 0 l 1,4.0511 v 0 l 1,4.0592 v 0 l 1,4.0673 v 0 l 1,4.0755 v 0 l 1,4.0835 v 0 l 1,4.0917 v 0 l 1,4.0997 v 0 l 1,4.1079 v 0 l 1,4.116 v 0 l 1,4.1242 v 0 l 1,4.1322 v 0 l 1,4.1404 v 0 l 1,4.1484 v 0 l 1,4.1566 v 0 l 1,4.1647 v 0 l 1,4.1728 v 0 l 1,4.1809 v 0 l 1,4.1891 v 0 l 1,4.1971 v 0 l 1,4.2053 v 0 l 1,4.2134 v 0 l 1,4.2215 v 0 l 1,4.2296 v 0 l 1,4.2377 v 0 l 1,4.2459 v 0 l 1,4.254 v 0 l 1,4.262 v 0 l 1,4.2702 v 0 l 1,4.2783 v 0 l 1,4.2865 v 0 l 1,4.2945 v 0 l 1,4.3026 v 0 l 1,4.3108 v 0 l 1,4.3189 v 0 l 1,4.327 v 0 l 1,4.3351 v 0 l 1,4.3432 v 0 l 1,4.3514 v 0 l 1,4.3594 v 0 l 1,4.3676 v 0 l 1,4.3757 v 0 l 1,4.3838 v 0 l 1,4.3919 v 0 l 1,4.4 v 0 l 1,4.4082 v 0 l 1,4.4163 v 0 l 1,4.4243 v 0 l 1,4.4325 v 0 l 1,4.4406 v 0 l 1,4.4488 v 0 l 1,4.4568 v 0 l 1,4.465 v 0 l 1,4.473 v 0 l 1,4.4812 v 0 l 1,4.4893 v 0 l 1,4.4974 v 0 l 1,4.5055 v 0 l 1,4.5137 v 0 l 1,4.5218 v 0 l 1,4.5298 v 0 l 1,4.538 v 0 l 1,4.5461 v 0 l 1,4.5542 v 0 l 1,4.5624 v 0 l 1,4.5704 v 0 l 1,4.5786 v 0 l 1,4.5867 v 0 l 1,4.5948 v 0 l 1,4.6029 v 0 l 1,4.611 v 0 l 1,4.6191 v 0 l 1,4.6273 v 0 l 1,4.6354 v 0 l 1,4.6434 v 0 l 1,4.6516 v 0 l 1,4.6597 v 0 l 1,4.6679 v 0 l 1,4.6759 v 0 l 1,4.6841 v 0 l 1,4.6922 v 0 l 1,4.7002 v 0 l 1,4.7085 v 0 l 1,4.7165 v 0 l 1,4.7246 v 0 l 1,4.7328 v 0 l 1,4.7408 v 0 l 1,4.749 v 0 l 1,4.7571 v 0 l 1,4.7652 v 0 l 1,4.7733 v 0 l 1,4.7815 v 0 l 1,4.7895 v 0 l 1,4.7977 v 0 l 1,4.8058 v 0 l 1,4.8139 v 0 l 1,4.822 v 0 l 1,4.8301 v 0 l 1,4.8383 v 0 l 1,4.8463 v 0 l 1,4.8545 v 0 l 1,4.8626 v 0 l 1,4.8707 v 0 l 1,4.8788 v 0 l 1,4.887 v 0 l 1,4.895 v 0 l 1,4.9032 v 0 l 1,4.9113 v 0 l 1,4.9194 v 0 l 1,4.9275 v 0 l 1,4.9356 v 0 l 1,4.9437 v 0 l 1,4.9519 v 0 l 1,4.96 v 0 l 1,4.968 v 0 l 1,4.9762 v 0 l 1,4.9844 v 0 l 1,4.9924 v 0 l 1,5.0005 v 0 l 1,5.0087 v 0 l 1,5.0168 v 0 l 1,5.0249 v 0 l 1,5.033 v 0 l 1,5.0411 v 0 l 1,5.0492 v 0 l 1,5.0574 v 0 l 1,5.0655 v 0 l 1,5.0735 v 0 l 1,5.0817 v 0 l 1,5.0898 v 0 l 1,5.098 v 0 l 1,5.106 v 0 l 1,5.1142 v 0 l 1,5.1222 v 0 l 1,5.1304 v 0 l 1,5.1385 v 0 l 1,5.1466 v 0 l 1,5.1548 v 0 l 1,5.1628 v 0 l 1,5.171 v 0 l 1,5.1791 v 0 l 1,5.1872 v 0 l 1,5.1953 v 0 l 1,5.2034 v 0 l 1,5.2115 v 0 l 1,5.2197 v 0 l 1,5.2277 v 0 l 1,5.2359 v 0 l 1,5.244 v 0 l 1,5.2521 v 0 l 1,5.2603 v 0 l 1,5.2683 v 0 l 1,5.2765 v 0 l 1,5.2845 v 0 l 1,5.2927 v 0 l 1,5.3008 v 0 l 1,5.3089 v 0 l 1,5.3171 v 0 l 1,5.3251 v 0 l 1,5.3333 v 0 l 1,5.3414 v 0 l 1,5.3495 v 0 l 1,5.3576 v 0 l 1,5.3657 v 0 l 1,5.3738 v 0 l 1,5.382 v 0 l 1,5.3901 v 0 l 1,5.3981 v 0 l 1,5.4063 v 0 l 1,5.4144 v 0 l 1,5.4226 v 0 l 1,5.4306 v 0 l 1,5.4388 v 0 l 1,5.4469 v 0 l 1,5.4549 v 0 l 1,5.4631 v 0 l 1,5.4713 v 0 l 1,5.4793 v 0 l 1,5.4874 v 0 l 1,5.4956 v 0 l 1,5.5037 v 0 l 1,5.5118 v 0 l 1,5.5199 v 0 l 1,5.528 v 0 l 1,5.5362 v 0 l 1,5.5442 v 0 l 1,5.5524 v 0 l 1,5.5605 v 0 l 1,5.5686 v 0 l 1,5.5767 v 0 l 1,5.5848 v 0 l 1,5.5929 v 0 l 1,5.6011 v 0 l 1,5.6092 v 0 l 1,5.6173 v 0 l 1,5.6254 v 0 l 1,5.6335 v 0 l 1,5.6416 v 0 l 1,5.6498 v 0 l 1,5.6578 v 0 l 1,5.666 v 0 l 1,5.6741 v 0 l 1,5.6822 v 0 l 1,5.6904 v 0 l 1,5.6984 v 0 l 1,5.7065 v 0 l 1,5.7147 v 0 l 1,5.7228 v 0 l 1,5.7309 v 0 l 1,5.739 v 0 l 1,5.7471 v 0 l 1,5.7553 v 0 l 1,5.7634 v 0 l 1,5.7714 v 0 l 1,5.7796 v 0 l 1,5.7877 v 0 l 1,5.7958 v 0 l 1,5.804 v 0 l 1,5.812 v 0 l 1,5.8202 v 0 l 1,5.8283 v 0 l 1,5.8364 v 0 l 1,5.8445 v 0 l 1,5.8526 v 0 l 1,5.8608 v 0 l 1,5.8688 v 0 l 1,5.877 v 0 l 1,5.8851 v 0 l 1,5.8932 v 0 l 1,5.9013 v 0 l 1,5.9094 v 0 l 1,5.9176 v 0 l 1,5.9256 v 0 l 1,5.9338 v 0 l 1,5.9419 v 0 l 1,5.95 v 0 l 1,5.9581 v 0 l 1,5.9663 v 0 l 1,5.9743 v 0 l 1,5.9825 v 0 l 1,5.9906 v 0 l 1,5.9986 v 0 l 1,6.0069 v 0 l 1,6.0149 v 0 l 1,6.023 v 0 l 1,6.0312 v 0 l 1,6.0393 v 0 l 1,6.0473 v 0 l 1,6.0555 v 0 l 1,6.0637 v 0 l 1,6.0717 v 0 l 1,6.0798 v 0 l 1,6.088 v 0 l 1,6.0961 v 0 l 1,6.1042 v 0 l 1,6.1123 v 0 l 1,6.1204 v 0 l 1,6.1285 v 0 l 1,6.1367 v 0 l 1,6.1448 v 0 l 1,6.1528 v 0 l 1,6.161 v 0 l 1,6.1692 v 0 l 1,6.1772 v 0 l 1,6.1853 v 0 l 1,6.1935 v 0 l 1,6.2016 v 0 l 1,6.2096 v 0 l 1,6.2178 v 0 l 1,6.226 v 0 l 1,6.234 v 0 l 1,6.2421 v 0 l 1,6.2503 v 0 l 1,6.2584 v 0 l 1,6.2665 v 0 l 1,6.2746 v 0 l 1,6.2827 v 0 l 1,6.2908 v 0 l 1,6.299 v 0 l 1,6.3071 v 0 l 1,6.3151 v 0 l 1,6.3233 v 0 l 1,6.3315 v 0 l 1,6.3395 v 0 l 1,6.3476 v 0 l 1,6.3558 v 0 l 1,6.3639 v 0 l 1,6.372 v 0 l 1,6.3801 v 0 l 1,6.3882 v 0 l 1,6.3963 v 0 l 1,6.4045 v 0 l 1,6.4125 v 0 l 1,6.4207 v 0 l 1,6.4288 v 0 l 1,6.4369 v 0 l 1,6.445 v 0 l 1,6.4532 v 0 l 1,6.4612 v 0 l 1,6.4694 v 0 l 1,6.4775 v 0 l 1,6.4856 v 0 l 1,6.4937 v 0 l 1,6.5018 v 0 l 1,6.51 v 0 l 1,6.518 v 0 l 1,6.5262 v 0 l 1,6.5343 v 0 l 1,6.5424 v 0 l 1,6.5505 v 0 l 1,6.5586 v 0 l 1,6.5668 v 0 l 1,6.5749 v 0 l 1,6.5829 v 0 l 1,6.5911 v 0 l 1,6.5992 v 0 l 1,6.6074 v 0 l 1,6.6154 v 0 l 1,6.6236 v 0 l 1,6.6316 v 0 l 1,6.6398 v 0 l 1,6.6479 v 0 l 1,6.656 v 0 l 1,6.6642 v 0 l 1,6.6722 v 0 l 1,6.6804 v 0 l 1,6.6884 v 0 l 1,6.6966 v 0 l 1,6.7047 v 0 l 1,6.7129 v 0 l 1,6.7209 v 0 l 1,6.729 v 0 l 1,6.7372 v 0 l 1,6.7453 v 0 l 1,6.7534 v 0 l 1,6.7615 v 0 l 1,6.7696 v 0 l 1,6.7778 v 0 l 1,6.7858 v 0 l 1,6.794 v 0 l 1,6.8021 v 0 l 1,6.8102 v 0 l 1,6.8183 v 0 l 1,6.8264 v 0 l 1,6.8346 v 0 l 1,6.8426 v 0 l 1,6.8508 v 0 l 1,6.8589 v 0 l 1,6.867 v 0 l 1,6.8751 v 0 l 1,6.8833 v 0 l 1,6.8913 v 0 l 1,6.8995 v 0 l 1,6.9076 v 0 l 1,6.9157 v 0 l 1,6.9238 v 0 l 1,6.9319 v 0 l 1,6.94 v 0 l 1,6.9482 v 0 l 1,6.9563 v 0 l 1,6.9643 v 0 l 1,6.9725 v 0 l 1,6.9807 v 0 l 1,6.9887 v 0 l 1,6.9968 v 0 l 1,7.005 v 0 l 1,7.0131 v 0 l 1,7.0212 v 0 l 1,7.0293 v 0 l 1,7.0374 v 0 l 1,7.0455 v 0 l 1,7.0537 v 0 l 1,7.0618 v 0 l 1,7.0698 v 0 l 1,7.078 v 0 l 1,7.0862 v 0 l 1,7.0942 v 0 l 1,7.1023 v 0 l 1,7.1105 v 0 l 1,7.1186 v 0 l 1,7.1266 v 0 l 1,7.1348 v 0 l 1,7.143 v 0 l 1,7.151 v 0 l 1,7.1591 v 0 l 1,7.1673 v 0 l 1,7.1754 v 0 l 1,7.1835 v 0 l 1,7.1916 v 0 l 1,7.1997 v 0 l 1,7.2078 v 0 l 1,7.216 v 0 l 1,7.2241 v 0 l 1,7.2321 v 0 l 1,7.2403 v 0 l 1,7.2485 v 0 l 1,7.2565 v 0 l 1,7.2646 v 0 l 1,7.2728 v 0 l 1,7.2809 v 0 l 1,7.289 v 0 l 1,7.2971 v 0 l 1,7.3052 v 0 l 1,7.3133 v 0 l 1,7.3215 v 0 l 1,7.3295 v 0 l 1,7.3377 v 0 l 1,7.3458 v 0 l 1,7.3539 v 0 l 1,7.362 v 0 l 1,7.3702 v 0 l 1,7.3782 v 0 l 1,7.3864 v 0 l 1,7.3945 v 0 l 1,7.4026 v 0 l 1,7.4107 v 0 l 1,7.4188 v 0 l 1,7.427 v 0 l 1,7.435 v 0 l 1,7.4432 v 0 l 1,7.4513 v 0 l 1,7.4594 v 0 l 1,7.4675 v 0 l 1,7.4756 v 0 l 1,7.4838 v 0 l 1,7.4919 v 0 l 1,7.4999 v 0 l 1,7.5081 v 0 l 1,7.5162 v 0 l 1,7.5244 v 0 l 1,7.5324 v 0 l 1,7.5406 v 0 l 1,7.5486 v 0 l 1,7.5568 v 0 l 1,7.5649 v 0 l 1,7.573 v 0 l 1,7.5812 v 0 l 1,7.5892 v 0 l 1,7.5974 v 0 l 1,7.6054 v 0 l 1,7.6136 v 0 l 1,7.6217 v 0 l 1,7.6298 v 0 l 1,7.638 v 0 l 1,7.646 v 0 l 1,7.6542 v 0 l 1,7.6623 v 0 l 1,7.6704 v 0 l 1,7.6785 v 0 l 1,7.6866 v 0 l 1,7.6948 v 0 l 1,7.7028 v 0 l 1,7.711 v 0 l 1,7.7191 v 0 l 1,7.7272 v 0 l 1,7.7353 v 0 l 1,7.7434 v 0 l 1,7.7516 v 0 l 1,7.7596 v 0 l 1,7.7678 v 0 l 1,7.7759 v 0 l 1,7.784 v 0 l 1,7.7921 v 0 l 1,7.8002 v 0 l 1,7.8084 v 0 l 1,7.8165 v 0 l 1,7.8245 v 0 l 1,7.8327 v 0 l 1,7.8409 v 0 l 1,7.8489 v 0 l 1,7.857 v 0 l 1,7.8652 v 0 l 1,7.8733 v 0 l 1,7.8813 v 0 l 1,7.8895 v 0 l 1,7.8977 v 0 l 1,7.9057 v 0 l 1,7.9138 v 0 l 1,7.922 v 0 l 1,7.9301 v 0 l 1,7.9382 v 0 l 1,7.9463 v 0 l 1,7.9544 v 0 l 1,7.9625 v 0 l 1,7.9707 v 0 l 1,7.9788 v 0 l 1,7.9868 v 0 l 1,7.995 v 0 l 1,8.0031 v 0 l 1,8.0113 v 0 l 1,8.0193 v 0 l 1,8.0275 v 0 l 1,8.0355 v 0 l 1,8.0437 v 0 l 1,8.0518 v 0 l 1,8.0599 v 0 l 1,8.0681 v 0 l 1,8.0761 v 0 l 1,8.0843 v 0 l 1,8.0924 v 0 l 1,8.1005 v 0 l 1,8.1086 v 0 l 1,8.1167 v 0 l 1,8.1248 v 0 l 1,8.133 v 0 l 1,8.1411 v 0 l 1,8.1491 v 0 l 1,8.1573 v 0 l 1,8.1654 v 0 l 1,8.1736 v 0 l 1,8.1816 v 0 l 1,8.1898 v 0 l 1,8.1978 v 0 l 1,8.206 v 0 l 1,8.2141 v 0 l 1,8.2223 v 0 l 1,8.2303 v 0 l 1,8.2384 v 0 l 1,8.2466 v 0 l 1,8.2547 v 0 l 1,8.2628 v 0 l 1,8.2709 v 0 l 1,8.279 v 0 l 1,8.2871 v 0 l 1,8.2953 v 0 l 1,8.3034 v 0 l 1,8.3115 v 0 l 1,8.3196 v 0 l 1,8.3277 v 0 l 1,8.3358 v 0 l 1,8.3439 v 0 l 1,8.3521 v 0 l 1,8.3602 v 0 l 1,8.3683 v 0 l 1,8.3764 v 0 l 1,8.3845 v 0 l 1,8.3926 v 0 l 1,8.4008 v 0 l 1,8.4088 v 0 l 1,8.417 v 0 l 1,8.4251 v 0 l 1,8.4332 v 0 l 1,8.4413 v 0 l 1,8.4495 v 0 l 1,8.4575 v 0 l 1,8.4657 v 0 l 1,8.4738 v 0 l 1,8.4819 v 0 l 1,8.49 v 0 l 1,8.4981 v 0 l 1,8.5063 v 0 l 1,8.5143 v 0 l 1,8.5225 v 0 l 1,8.5306 v 0 l 1,8.5387 v 0 l 1,8.5468 v 0 l 1,8.555 v 0 l 1,8.563 v 0 l 1,8.5712 v 0 l 1,8.5793 v 0 l 1,8.5874 v 0 l 1,8.5955 v 0 l 1,8.6036 v 0 l 1,8.6117 v 0 l 1,8.6199 v 0 l 1,8.628 v 0 l 1,8.636 v 0 l 1,8.6442 v 0 l 1,8.6524 v 0 l 1,8.6604 v 0 l 1,8.6685 v 0 l 1,8.6767 v 0 l 1,8.6848 v 0 l 1,8.6929 v 0 l 1,8.701 v 0 l 1,8.7091 v 0 l 1,8.7172 v 0 l 1,8.7254 v 0 l 1,8.7334 v 0 l 1,8.7416 v 0 l 1,8.7497 v 0 l 1,8.7578 v 0 l 1,8.766 v 0 l 1,8.774 v 0 l 1,8.7822 v 0 l 1,8.7902 v 0 l 1,8.7984 v 0 l 1,8.8065 v 0 l 1,8.8146 v 0 l 1,8.8228 v 0 l 1,8.8308"
         stroke-opacity="0.8"
         stroke-linecap="round"
         stroke-linejoin="round"
         stroke-miterlimit="10"
         stroke-width="2.5"
         id="path12" />
      <text
         fill="#006758"
         stroke="none"
         font-family="geogebra-sans-serif, sans-serif"
         font-size="16px"
         font-style="normal"
         font-weight="normal"
         text-decoration="normal"
         x="609"
         y="1280"
         text-anchor="start"
         dominant-baseline="alphabetic"
         fill-opacity="1"
         id="text12">f</text>
      <path
         fill="none"
         stroke="#6557d2"
         paint-order="fill stroke markers"
         d="m 0,644.91087 h 4.2265625 4.2265625 4.226563 4.226562 4.226562 4.226563 4.226562 4.226563 4.226562 4.226563 4.226562 4.226563 4.226562 4.226563 4.226562 4.226563 4.226563 4.226562 4.226562 4.226563 4.226562 4.226563 4.226562 4.226563 4.22656 4.22657 4.22656 4.22656 4.22656 4.22657 4.22656 4.22656 4.22656 4.22656 4.22657 4.22656 4.22656 4.22656 4.22657 4.22656 4.22656 4.22656 4.22657 4.22656 4.22656 4.22656 4.22657 4.22656 4.22656 4.22656 4.22657 4.22656 4.22656 4.22657 4.22656 4.22656 4.22656 4.22656 4.22657 4.22656 4.22656 4.22656 4.22657 4.22656 4.22656 4.22656 4.22657 4.22656 4.22656 4.22656 4.22657 4.22656 4.22656 4.22656 4.22657 4.22656 4.22656 4.22656 4.22657 4.22656 4.22656 4.22657 4.22656 4.22656 4.22656 4.22656 4.22657 4.22656 4.22656 4.22656 4.22657 4.22656 4.22656 4.22656 4.22657 4.22656 4.22656 4.22656 4.22657 4.22656 4.22656 4.22656 4.22657 4.22656 4.22656 4.22656 4.22657 4.22656 4.22656 4.22657 4.22656 4.22656 4.22656 4.22656 4.22657 4.22656 4.22656 4.22656 4.22657 4.22656 4.22656 4.22656 4.22657 4.22656 4.22656 4.22656 4.22657 4.22656 4.22656 4.22656 4.22657 4.22656 4.22656 4.22656 4.22657 4.22656 4.22656 4.22656 4.22657 4.22656 4.22656 4.22656 4.22657 4.22656 4.22656 4.22656 4.22657 4.22656 4.22656 4.22656 4.22657 4.22656 4.22656 4.22656 4.22657 4.22656 4.22656 4.22656 4.22657 4.22656 4.22656 4.22656 4.22657 4.22656 4.22656 4.22656 4.22657 4.22656 4.22656 4.22656 4.22657 4.22656 4.22656 4.22656 4.22657 4.22656 4.22656 4.22656 4.22657 4.22656 4.22656 4.22656 4.22657 4.22656 4.22656 4.22656 4.22657 4.22656 4.22656 4.22656 4.22657 4.22656 4.22656 4.22656 4.22657 4.22656 4.22656 4.22656 4.22657 4.22656 4.22656 4.22657 4.22656 4.22656 4.22656 4.22656 4.22657 4.22656 4.22656 4.22656 4.22657 4.22656 4.22656 4.22656 4.22657 4.22656 4.22656 4.22656 4.22657 4.22656 4.22656 4.22656 4.22657 4.22656 4.22656 1.05664 m 0.066,-123.22793 h 0.066 0.92456 2.11328 4.22657 4.22656 4.22656 4.22657 4.22656 4.22656 4.22656 4.22656 4.22657 4.22656 4.22653 4.2266 4.2265 4.2266 4.2266 4.2265 4.2266 4.2266 4.2265 4.2266 4.2265 4.2266 4.2266 4.2265 4.2266 4.2266 4.2265 4.2266 4.2265 4.2266 4.2266 4.2265 4.2266 4.2266 4.2265 4.2266 4.2265 4.2266 4.2266 4.2265 4.2266 4.2266 4.2265 4.2266 4.2265 4.2266 4.2266 4.2265 4.2266 4.2266 4.2265 4.2266 4.2265 4.2266 4.2266 4.2265 4.2266 4.2266 4.2265 4.2266 4.2265 4.2266 4.2266 4.2265 4.2266 4.2266 4.2265 4.2266 4.2265 4.2266 4.2266 4.2265 4.2266 4.2266 4.2265 4.2266 4.2265 4.2266 4.2266 4.2265 4.2266 4.2266 4.2265 4.2266 4.2265 4.2266 4.2266 4.2265 4.2266 4.2266 4.2265 4.2266 4.2265 4.2266 4.2266 4.2265 4.2266 4.2266 4.2265 4.2266 4.2265 4.2266 4.2266 4.2265 4.2266 4.2266 4.2265 4.2266 4.2265 4.2266 4.2266 4.2265 4.2266 4.2266 4.2265 4.2266 4.2265 4.2266 4.2266 4.2265 4.2266 4.2266 4.2265 4.2266 4.2265 4.2266 4.2266 4.2265 4.2266 4.2266 4.2265 4.2266 4.2265 4.2266 4.2266 4.2265 4.2266 4.2266 4.2265 4.2266 4.2265 4.2266 4.2266 4.2265 4.2266 4.2266 4.2265 4.2266 4.2265 4.2266 4.2266 4.2265 4.2266 4.2266 4.2265 4.2266 4.2265 4.2266 4.2266 4.2265 4.2266 4.2266 4.2265 4.2266 4.2265 4.2266 4.2266 4.2265 4.2266 4.2266 4.2265 4.2266 4.2265 4.2266 4.2266 4.2265 4.2266 4.2266 4.2265 4.2266 4.2265 4.2266 4.2266 4.2265 4.2266 4.2266 4.2265 4.2266 4.2265 4.2266 4.2266 4.2265 4.2266 4.2266 4.2265 4.2266 4.2265 4.2266 4.2266 4.2265 4.2266 4.2266 4.2265 4.2266 4.2265 4.2266 4.2266 4.2265 4.2266 4.2266 4.2265 4.2266 4.2265 4.2266 4.2266 4.2265 4.2266 4.2266 4.2265 4.2266 4.2265 4.2266 4.2266 4.2265 4.2266 4.2266 4.2265 4.2266 4.2265 4.2266 4.2266 4.2265 4.2266 4.2266 4.2265 4.2266 4.2265 4.2266 4.2266 4.2265 4.2266 4.2266 4.2265 4.2266 4.2265 4.2266 4.2266 4.2265 4.2266 4.2266 4.2265 4.2266 4.2265 4.2266 4.2266 4.2265 4.2266 4.2266 4.2265 4.2266 4.2265 4.2266 4.2266 4.2265 4.2266 4.2266 4.2265 4.2266 4.2265 4.2266 4.2266 4.2265 4.2266 4.2266 4.2265 4.2266 4.2265 4.2266 4.2266 4.2265 4.2266 4.2266 4.2265 4.2266 4.2265 4.2266"
         stroke-opacity="0.8"
         stroke-linecap="round"
         stroke-linejoin="round"
         stroke-miterlimit="10"
         stroke-width="2.5"
         id="path13" />
      <text
         fill="#6557d2"
         stroke="none"
         font-family="geogebra-sans-serif, sans-serif"
         font-size="16px"
         font-style="normal"
         font-weight="normal"
         text-decoration="normal"
         x="24"
         y="644"
         text-anchor="start"
         dominant-baseline="alphabetic"
         fill-opacity="1"
         id="text13">g</text>
    </g>
  </g>
</svg>
