<?xml version="1.0" encoding="UTF-8" standalone="no"?>
<svg
   version="1.1"
   width="256"
   height="256"
   id="svg14"
   sodipodi:docname="linearly-dependent.svg"
   inkscape:version="1.4.2 (f4327f4, 2025-05-13)"
   xmlns:inkscape="http://www.inkscape.org/namespaces/inkscape"
   xmlns:sodipodi="http://sodipodi.sourceforge.net/DTD/sodipodi-0.dtd"
   xmlns="http://www.w3.org/2000/svg"
   xmlns:svg="http://www.w3.org/2000/svg">
  <sodipodi:namedview
     id="namedview14"
     pagecolor="#ffffff"
     bordercolor="#000000"
     borderopacity="0.25"
     inkscape:showpageshadow="2"
     inkscape:pageopacity="0.0"
     inkscape:pagecheckerboard="0"
     inkscape:deskcolor="#d1d1d1"
     inkscape:zoom="2.5975351"
     inkscape:cx="133.01071"
     inkscape:cy="215.78149"
     inkscape:window-width="2560"
     inkscape:window-height="1417"
     inkscape:window-x="-8"
     inkscape:window-y="-8"
     inkscape:window-maximized="1"
     inkscape:current-layer="svg14" />
  <defs
     id="defs1">
    <clipPath
       id="hTJelDVHqbft">
      <path
         fill="none"
         stroke="none"
         d="M 0,0 H 1524 V 931 H 0 Z"
         id="path1" />
    </clipPath>
    <clipPath
       clipPathUnits="userSpaceOnUse"
       id="clipPath14">
      <rect
         style="font-variation-settings:'wght' 700;fill:#3d5562;stroke:#3d5562;stroke-width:3.05837;stroke-linecap:round;stroke-opacity:0;-inkscape-stroke:none"
         id="rect15"
         width="374.49933"
         height="374"
         x="535.75031"
         y="262.5" />
    </clipPath>
  </defs>
  <g
     transform="matrix(0.68357934,0,0,0.68357934,-366.22784,-179.43958)"
     clip-path="url(#clipPath14)"
     id="g14">
    <g
       id="g13">
      <rect
         fill="#ffffff"
         stroke="none"
         x="0"
         y="0"
         width="1524"
         height="931"
         fill-opacity="1"
         id="rect1" />
      <path
         fill="none"
         stroke="#c0c0c0"
         paint-order="fill stroke markers"
         d="m 67.5,0.5 v 931 m 0,-931 v 931 m 94,-931 v 931 m 93,-931 v 931 m 94,-931 v 931 m 94,-931 v 931 m 93,-931 v 931 m 94,-931 v 931 m 187,-931 v 931 m 94,-931 v 931 m 94,-931 v 931 m 93,-931 v 931 m 94,-931 v 931 m 94,-931 v 931 m 93,-931 v 931 m 94,-931 v 931"
         stroke-opacity="1"
         stroke-linecap="round"
         stroke-linejoin="round"
         stroke-miterlimit="10"
         id="path2" />
      <path
         fill="none"
         stroke="#c0c0c0"
         paint-order="fill stroke markers"
         d="m 11.5,0.5 v 931 m 19,-931 v 931 m 18,-931 v 931 m 38,-931 v 931 m 19,-931 v 931 m 18,-931 v 931 m 19,-931 v 931 m 37,-931 v 931 m 19,-931 v 931 m 19,-931 v 931 m 19,-931 v 931 m 37,-931 v 931 m 19,-931 v 931 m 19,-931 v 931 m 18,-931 v 931 m 38,-931 v 931 m 18,-931 v 931 m 19,-931 v 931 m 19,-931 v 931 m 37,-931 v 931 m 19,-931 v 931 m 19,-931 v 931 m 19,-931 v 931 m 37,-931 v 931 m 19,-931 v 931 m 19,-931 v 931 m 18,-931 v 931 m 38,-931 v 931 m 18,-931 v 931 m 19,-931 v 931 m 19,-931 v 931 m 37,-931 v 931 m 19,-931 v 931 m 19,-931 v 931 m 19,-931 v 931 m 37,-931 v 931 m 19,-931 v 931 m 18,-931 v 931 m 19,-931 v 931 m 38,-931 v 931 m 18,-931 v 931 m 19,-931 v 931 m 19,-931 v 931 m 37,-931 v 931 m 19,-931 v 931 m 19,-931 v 931 m 18,-931 v 931 m 38,-931 v 931 m 19,-931 v 931 m 18,-931 v 931 m 19,-931 v 931 m 38,-931 v 931 m 18,-931 v 931 m 19,-931 v 931 m 19,-931 v 931 m 37,-931 v 931 m 19,-931 v 931 m 19,-931 v 931 m 18,-931 v 931 m 38,-931 v 931 m 19,-931 v 931 m 18,-931 v 931 m 19,-931 v 931 m 38,-931 v 931 m 18,-931 v 931"
         stroke-opacity="0.235294"
         stroke-linecap="round"
         stroke-linejoin="round"
         stroke-miterlimit="10"
         id="path3" />
      <path
         fill="none"
         stroke="#c0c0c0"
         paint-order="fill stroke markers"
         d="m 0.5,75.5 h 1524 m -1524,0 h 1524 m -1524,93 h 1524 m -1524,94 h 1524 m -1524,94 h 1524 m -1524,187 h 1524 m -1524,93 h 1524 m -1524,94 h 1524 m -1524,94 h 1524 m -1524,93 h 1524"
         stroke-opacity="1"
         stroke-linecap="round"
         stroke-linejoin="round"
         stroke-miterlimit="10"
         id="path4" />
      <path
         fill="none"
         stroke="#c0c0c0"
         paint-order="fill stroke markers"
         d="m 0.5,0.5 h 1524 m -1524,18 h 1524 m -1524,19 h 1524 m -1524,19 h 1524 m -1524,37 h 1524 m -1524,19 h 1524 m -1524,19 h 1524 m -1524,19 h 1524 m -1524,37 h 1524 m -1524,19 h 1524 m -1524,18 h 1524 m -1524,19 h 1524 m -1524,38 h 1524 m -1524,18 h 1524 m -1524,19 h 1524 m -1524,19 h 1524 m -1524,37 h 1524 m -1524,19 h 1524 m -1524,19 h 1524 m -1524,18 h 1524 m -1524,38 h 1524 m -1524,19 h 1524 m -1524,18 h 1524 m -1524,19 h 1524 m -1524,38 h 1524 m -1524,18 h 1524 m -1524,19 h 1524 m -1524,19 h 1524 m -1524,37 h 1524 m -1524,19 h 1524 m -1524,19 h 1524 m -1524,18 h 1524 m -1524,38 h 1524 m -1524,19 h 1524 m -1524,18 h 1524 m -1524,19 h 1524 m -1524,37 h 1524 m -1524,19 h 1524 m -1524,19 h 1524 m -1524,19 h 1524"
         stroke-opacity="0.235294"
         stroke-linecap="round"
         stroke-linejoin="round"
         stroke-miterlimit="10"
         id="path5" />
      <path
         fill="none"
         stroke="#252525"
         paint-order="fill stroke markers"
         d="m 723.5,2.5 v 929"
         stroke-opacity="1"
         stroke-miterlimit="10"
         id="path6" />
      <path
         fill="none"
         stroke="#252525"
         paint-order="fill stroke markers"
         d="m 723.5,1.5 -4,4"
         stroke-opacity="1"
         stroke-miterlimit="10"
         id="path7" />
      <path
         fill="none"
         stroke="#252525"
         paint-order="fill stroke markers"
         d="m 723.5,1.5 4,4"
         stroke-opacity="1"
         stroke-miterlimit="10"
         id="path8" />
      <path
         fill="none"
         stroke="#252525"
         paint-order="fill stroke markers"
         d="m 0.5,449.5 h 1522"
         stroke-opacity="1"
         stroke-miterlimit="10"
         id="path9" />
      <path
         fill="none"
         stroke="#252525"
         paint-order="fill stroke markers"
         d="m 1523.5,449.5 -4,-4"
         stroke-opacity="1"
         stroke-miterlimit="10"
         id="path10" />
      <path
         fill="none"
         stroke="#252525"
         paint-order="fill stroke markers"
         d="m 1523.5,449.5 -4,4"
         stroke-opacity="1"
         stroke-miterlimit="10"
         id="path11" />
      <path
         fill="#000000"
         stroke="none"
         paint-order="stroke fill markers"
         d="m 816.76399,356.0293 -15.02602,9.01561 2.12132,2.12132 -81.62709,81.62709 c -0.48815,0.48815 -0.48815,1.27961 0,1.76777 0.24408,0.24407 0.56399,0.36611 0.88389,0.36611 0.3199,0 0.6398,-0.12204 0.88388,-0.36611 l 81.62709,-81.62709 2.12132,2.12132 z"
         fill-opacity="0.698039"
         id="path12" />
      <text
         fill="#000000"
         stroke="none"
         font-family="geogebra-sans-serif, sans-serif"
         font-size="16px"
         font-style="normal"
         font-weight="normal"
         text-decoration="normal"
         x="766"
         y="399"
         text-anchor="start"
         dominant-baseline="alphabetic"
         fill-opacity="1"
         id="text12">u</text>
      <path
         fill="#000000"
         stroke="none"
         paint-order="stroke fill markers"
         d="m 723.11609,448.4272 c -0.3199,0 -0.63981,0.12204 -0.88389,0.36612 l -81.62708,81.62708 -2.12132,-2.12132 -9.01561,15.02602 15.02602,-9.01561 -2.12132,-2.12132 81.62708,-81.62708 c 0.48816,-0.48816 0.48816,-1.27962 0,-1.76777 -0.24408,-0.24408 -0.56398,-0.36612 -0.88388,-0.36612 z"
         fill-opacity="0.698039"
         id="path13" />
      <text
         fill="#000000"
         stroke="none"
         font-family="geogebra-sans-serif, sans-serif"
         font-size="16px"
         font-style="normal"
         font-weight="normal"
         text-decoration="normal"
         x="679"
         y="499"
         text-anchor="start"
         dominant-baseline="alphabetic"
         fill-opacity="1"
         id="text13">v</text>
    </g>
  </g>
</svg>
