<?xml version="1.0" encoding="UTF-8" standalone="no"?>
<svg
   version="1.1"
   width="256"
   height="256"
   id="svg15"
   sodipodi:docname="linear-combination.svg"
   inkscape:version="1.4.2 (f4327f4, 2025-05-13)"
   xmlns:inkscape="http://www.inkscape.org/namespaces/inkscape"
   xmlns:sodipodi="http://sodipodi.sourceforge.net/DTD/sodipodi-0.dtd"
   xmlns="http://www.w3.org/2000/svg"
   xmlns:svg="http://www.w3.org/2000/svg">
  <sodipodi:namedview
     id="namedview15"
     pagecolor="#ffffff"
     bordercolor="#000000"
     borderopacity="0.25"
     inkscape:showpageshadow="2"
     inkscape:pageopacity="0.0"
     inkscape:pagecheckerboard="0"
     inkscape:deskcolor="#d1d1d1"
     inkscape:zoom="1.8367347"
     inkscape:cx="191.37222"
     inkscape:cy="241.46111"
     inkscape:window-width="2560"
     inkscape:window-height="1417"
     inkscape:window-x="-8"
     inkscape:window-y="-8"
     inkscape:window-maximized="1"
     inkscape:current-layer="svg15" />
  <defs
     id="defs1">
    <clipPath
       id="ukqItaHfeTgg">
      <path
         fill="none"
         stroke="none"
         d="M 0,0 H 1524 V 931 H 0 Z"
         id="path1" />
    </clipPath>
    <clipPath
       clipPathUnits="userSpaceOnUse"
       id="clipPath15">
      <rect
         style="font-variation-settings:'wght' 700;fill:#3d5562;stroke:#3d5562;stroke-width:3.20278;stroke-linecap:round;stroke-opacity:0;-inkscape-stroke:none"
         id="rect16"
         width="452"
         height="452.7222"
         x="440.5"
         y="217.77777" />
    </clipPath>
  </defs>
  <g
     transform="matrix(0.56546818,0,0,0.56546818,-248.68035,-123.1464)"
     clip-path="url(#clipPath15)"
     id="g15">
    <g
       id="g14">
      <rect
         fill="#ffffff"
         stroke="none"
         x="0"
         y="0"
         width="1524"
         height="931"
         fill-opacity="1"
         id="rect1" />
      <path
         fill="none"
         stroke="#c0c0c0"
         paint-order="fill stroke markers"
         d="m 45.5,0.5 v 931 m 0,-931 v 931 m 56,-931 v 931 m 57,-931 v 931 m 56,-931 v 931 m 57,-931 v 931 m 56,-931 v 931 m 57,-931 v 931 m 56,-931 v 931 m 57,-931 v 931 m 56,-931 v 931 m 57,-931 v 931 m 113,-931 v 931 m 56,-931 v 931 m 57,-931 v 931 m 56,-931 v 931 m 57,-931 v 931 m 56,-931 v 931 m 57,-931 v 931 m 56,-931 v 931 m 57,-931 v 931 m 56,-931 v 931 m 57,-931 v 931 m 56,-931 v 931 m 57,-931 v 931 m 56,-931 v 931 m 57,-931 v 931"
         stroke-opacity="1"
         stroke-linecap="round"
         stroke-linejoin="round"
         stroke-miterlimit="10"
         id="path2" />
      <path
         fill="none"
         stroke="#c0c0c0"
         paint-order="fill stroke markers"
         d="m 0.5,0.5 v 931 m 11,-931 v 931 m 11,-931 v 931 m 12,-931 v 931 m 22,-931 v 931 m 11,-931 v 931 m 12,-931 v 931 m 11,-931 v 931 m 23,-931 v 931 m 11,-931 v 931 m 11,-931 v 931 m 12,-931 v 931 m 22,-931 v 931 m 11,-931 v 931 m 12,-931 v 931 m 11,-931 v 931 m 23,-931 v 931 m 11,-931 v 931 m 11,-931 v 931 m 12,-931 v 931 m 22,-931 v 931 m 11,-931 v 931 m 12,-931 v 931 m 11,-931 v 931 m 23,-931 v 931 m 11,-931 v 931 m 11,-931 v 931 m 12,-931 v 931 m 22,-931 v 931 m 11,-931 v 931 m 12,-931 v 931 m 11,-931 v 931 m 23,-931 v 931 m 11,-931 v 931 m 11,-931 v 931 m 12,-931 v 931 m 22,-931 v 931 m 12,-931 v 931 m 11,-931 v 931 m 11,-931 v 931 m 23,-931 v 931 m 11,-931 v 931 m 11,-931 v 931 m 12,-931 v 931 m 22,-931 v 931 m 12,-931 v 931 m 11,-931 v 931 m 11,-931 v 931 m 23,-931 v 931 m 11,-931 v 931 m 11,-931 v 931 m 12,-931 v 931 m 22,-931 v 931 m 12,-931 v 931 m 11,-931 v 931 m 11,-931 v 931 m 23,-931 v 931 m 11,-931 v 931 m 11,-931 v 931 m 12,-931 v 931 m 22,-931 v 931 m 12,-931 v 931 m 11,-931 v 931 m 11,-931 v 931 m 23,-931 v 931 m 11,-931 v 931 m 11,-931 v 931 m 12,-931 v 931 m 22,-931 v 931 m 12,-931 v 931 m 11,-931 v 931 m 11,-931 v 931 m 23,-931 v 931 m 11,-931 v 931 m 11,-931 v 931 m 12,-931 v 931 m 22,-931 v 931 m 12,-931 v 931 m 11,-931 v 931 m 11,-931 v 931 m 23,-931 v 931 m 11,-931 v 931 m 11,-931 v 931 m 12,-931 v 931 m 22,-931 v 931 m 12,-931 v 931 m 11,-931 v 931 m 11,-931 v 931 m 23,-931 v 931 m 11,-931 v 931 m 11,-931 v 931 m 12,-931 v 931 m 22,-931 v 931 m 12,-931 v 931 m 11,-931 v 931 m 11,-931 v 931 m 23,-931 v 931 m 11,-931 v 931 m 11,-931 v 931 m 12,-931 v 931 m 22,-931 v 931 m 12,-931 v 931 m 11,-931 v 931 m 11,-931 v 931 m 23,-931 v 931 m 11,-931 v 931 m 11,-931 v 931 m 12,-931 v 931"
         stroke-opacity="0.235294"
         stroke-linecap="round"
         stroke-linejoin="round"
         stroke-miterlimit="10"
         id="path3" />
      <path
         fill="none"
         stroke="#c0c0c0"
         paint-order="fill stroke markers"
         d="m 0.5,49.5 h 1524 m -1524,0 h 1524 m -1524,56 h 1524 m -1524,57 h 1524 m -1524,56 h 1524 m -1524,57 h 1524 m -1524,56 h 1524 m -1524,57 h 1524 m -1524,113 h 1524 m -1524,56 h 1524 m -1524,57 h 1524 m -1524,56 h 1524 m -1524,57 h 1524 m -1524,56 h 1524 m -1524,57 h 1524 m -1524,56 h 1524"
         stroke-opacity="1"
         stroke-linecap="round"
         stroke-linejoin="round"
         stroke-miterlimit="10"
         id="path4" />
      <path
         fill="none"
         stroke="#c0c0c0"
         paint-order="fill stroke markers"
         d="m 0.5,3.5 h 1524 m -1524,12 h 1524 m -1524,11 h 1524 m -1524,11 h 1524 m -1524,23 h 1524 m -1524,11 h 1524 m -1524,11 h 1524 m -1524,12 h 1524 m -1524,22 h 1524 m -1524,12 h 1524 m -1524,11 h 1524 m -1524,11 h 1524 m -1524,23 h 1524 m -1524,11 h 1524 m -1524,11 h 1524 m -1524,12 h 1524 m -1524,22 h 1524 m -1524,12 h 1524 m -1524,11 h 1524 m -1524,11 h 1524 m -1524,23 h 1524 m -1524,11 h 1524 m -1524,11 h 1524 m -1524,12 h 1524 m -1524,22 h 1524 m -1524,12 h 1524 m -1524,11 h 1524 m -1524,11 h 1524 m -1524,23 h 1524 m -1524,11 h 1524 m -1524,11 h 1524 m -1524,12 h 1524 m -1524,22 h 1524 m -1524,12 h 1524 m -1524,11 h 1524 m -1524,11 h 1524 m -1524,23 h 1524 m -1524,11 h 1524 m -1524,11 h 1524 m -1524,12 h 1524 m -1524,22 h 1524 m -1524,12 h 1524 m -1524,11 h 1524 m -1524,11 h 1524 m -1524,23 h 1524 m -1524,11 h 1524 m -1524,11 h 1524 m -1524,12 h 1524 m -1524,22 h 1524 m -1524,12 h 1524 m -1524,11 h 1524 m -1524,11 h 1524 m -1524,23 h 1524 m -1524,11 h 1524 m -1524,11 h 1524 m -1524,12 h 1524 m -1524,22 h 1524 m -1524,12 h 1524 m -1524,11 h 1524 m -1524,11 h 1524 m -1524,23 h 1524 m -1524,11 h 1524 m -1524,11 h 1524 m -1524,12 h 1524 m -1524,22 h 1524 m -1524,12 h 1524 m -1524,11 h 1524"
         stroke-opacity="0.235294"
         stroke-linecap="round"
         stroke-linejoin="round"
         stroke-miterlimit="10"
         id="path5" />
      <path
         fill="none"
         stroke="#252525"
         paint-order="fill stroke markers"
         d="m 666.5,2.5 v 929"
         stroke-opacity="1"
         stroke-miterlimit="10"
         id="path6" />
      <path
         fill="none"
         stroke="#252525"
         paint-order="fill stroke markers"
         d="m 666.5,1.5 -4,4"
         stroke-opacity="1"
         stroke-miterlimit="10"
         id="path7" />
      <path
         fill="none"
         stroke="#252525"
         paint-order="fill stroke markers"
         d="m 666.5,1.5 4,4"
         stroke-opacity="1"
         stroke-miterlimit="10"
         id="path8" />
      <path
         fill="none"
         stroke="#252525"
         paint-order="fill stroke markers"
         d="m 0.5,444.5 h 1522"
         stroke-opacity="1"
         stroke-miterlimit="10"
         id="path9" />
      <path
         fill="none"
         stroke="#252525"
         paint-order="fill stroke markers"
         d="m 1523.5,444.5 -4,-4"
         stroke-opacity="1"
         stroke-miterlimit="10"
         id="path10" />
      <path
         fill="none"
         stroke="#252525"
         paint-order="fill stroke markers"
         d="m 1523.5,444.5 -4,4"
         stroke-opacity="1"
         stroke-miterlimit="10"
         id="path11" />
      <path
         fill="#000000"
         stroke="none"
         paint-order="stroke fill markers"
         d="m 875.41075,388.03448 0.72761,2.91043 v 0 l -209.5267,52.38167 c -0.66975,0.16744 -1.07695,0.84611 -0.90951,1.51585 0.14199,0.56797 0.65165,0.94713 1.21173,0.94713 0.10036,0 0.20234,-0.0122 0.30411,-0.0376 l 209.5267,-52.38168 v 0 l 0.72761,2.91043 15.46165,-8.24621 z"
         fill-opacity="0.698039"
         id="path12" />
      <text
         fill="#000000"
         stroke="none"
         font-family="geogebra-sans-serif, sans-serif"
         font-size="16px"
         font-style="normal"
         font-weight="normal"
         text-decoration="normal"
         x="778"
         y="412"
         text-anchor="start"
         dominant-baseline="alphabetic"
         fill-opacity="1"
         id="text12">w</text>
      <path
         fill="#000000"
         stroke="none"
         paint-order="stroke fill markers"
         d="m 761.08946,256.18999 -11.40395,13.30461 2.68328,1.34164 -86.572,173.144 c -0.30874,0.61748 -0.0584,1.36832 0.55902,1.67705 0.17946,0.0897 0.37018,0.13224 0.55804,0.13224 0.45853,0 0.9,-0.25324 1.11901,-0.69125 l 86.572,-173.14401 v 0 l 2.68328,1.34164 z"
         fill-opacity="0.698039"
         id="path13" />
      <text
         fill="#000000"
         stroke="none"
         font-family="geogebra-sans-serif, sans-serif"
         font-size="16px"
         font-style="normal"
         font-weight="normal"
         text-decoration="normal"
         x="710"
         y="348"
         text-anchor="start"
         dominant-baseline="alphabetic"
         fill-opacity="1"
         id="text13">sv</text>
      <path
         fill="#000000"
         stroke="none"
         paint-order="stroke fill markers"
         d="m 761.08946,254.93999 c -0.3199,0 -0.63981,0.12204 -0.88388,0.36612 -0.48816,0.48815 -0.48816,1.27961 0,1.76776 l 119.82367,119.82368 -2.12132,2.12132 15.02602,9.01561 -9.01561,-15.02602 -2.12132,2.12132 -119.82368,-119.82367 c -0.24407,-0.24408 -0.56398,-0.36612 -0.88388,-0.36612 z"
         fill-opacity="0.698039"
         id="path14" />
      <text
         fill="#000000"
         stroke="none"
         font-family="geogebra-sans-serif, sans-serif"
         font-size="16px"
         font-style="normal"
         font-weight="normal"
         text-decoration="normal"
         x="830"
         y="319"
         text-anchor="start"
         dominant-baseline="alphabetic"
         fill-opacity="1"
         id="text14">su</text>
    </g>
  </g>
</svg>
