<?xml version="1.0" encoding="UTF-8" standalone="no"?>
<svg
   version="1.1"
   width="256"
   height="256"
   id="svg15"
   sodipodi:docname="local-minimum.svg"
   inkscape:version="1.4.2 (f4327f4, 2025-05-13)"
   xmlns:inkscape="http://www.inkscape.org/namespaces/inkscape"
   xmlns:sodipodi="http://sodipodi.sourceforge.net/DTD/sodipodi-0.dtd"
   xmlns="http://www.w3.org/2000/svg"
   xmlns:svg="http://www.w3.org/2000/svg">
  <sodipodi:namedview
     id="namedview15"
     pagecolor="#ffffff"
     bordercolor="#000000"
     borderopacity="0.25"
     inkscape:showpageshadow="2"
     inkscape:pageopacity="0.0"
     inkscape:pagecheckerboard="0"
     inkscape:deskcolor="#d1d1d1"
     inkscape:zoom="2.6643723"
     inkscape:cx="69.059419"
     inkscape:cy="93.64307"
     inkscape:window-width="2560"
     inkscape:window-height="1417"
     inkscape:window-x="-8"
     inkscape:window-y="-8"
     inkscape:window-maximized="1"
     inkscape:current-layer="svg15" />
  <defs
     id="defs1">
    <clipPath
       id="VXIwnyJeOpBQ">
      <path
         fill="none"
         stroke="none"
         d="M 0,0 H 1524 V 931 H 0 Z"
         id="path1" />
    </clipPath>
    <clipPath
       clipPathUnits="userSpaceOnUse"
       id="clipPath15">
      <rect
         style="font-variation-settings:'wght' 700;fill:#3d5562;stroke:#3d5562;stroke-width:3.03866;stroke-linecap:round;stroke-opacity:0"
         id="rect16"
         width="413"
         height="413"
         x="344.5"
         y="246.5" />
    </clipPath>
  </defs>
  <g
     transform="matrix(0.5887162,0,0,0.5887162,-189.95251,-132.25834)"
     clip-path="url(#clipPath15)"
     id="g15">
    <g
       id="g14">
      <rect
         fill="#ffffff"
         stroke="none"
         x="0"
         y="0"
         width="1524"
         height="931"
         fill-opacity="1"
         id="rect1" />
      <path
         fill="none"
         stroke="#c0c0c0"
         paint-order="fill stroke markers"
         d="m 35.5,0.5 v 931 m 0,-931 v 931 m 51,-931 v 931 m 52,-931 v 931 m 51,-931 v 931 m 52,-931 v 931 m 52,-931 v 931 m 51,-931 v 931 m 52,-931 v 931 m 51,-931 v 931 m 52,-931 v 931 m 103,-931 v 931 m 52,-931 v 931 m 51,-931 v 931 m 52,-931 v 931 m 51,-931 v 931 m 52,-931 v 931 m 51,-931 v 931 m 52,-931 v 931 m 52,-931 v 931 m 51,-931 v 931 m 52,-931 v 931 m 51,-931 v 931 m 52,-931 v 931 m 52,-931 v 931 m 51,-931 v 931 m 52,-931 v 931 m 51,-931 v 931 m 52,-931 v 931"
         stroke-opacity="1"
         stroke-linecap="round"
         stroke-linejoin="round"
         stroke-miterlimit="10"
         id="path2" />
      <path
         fill="none"
         stroke="#c0c0c0"
         paint-order="fill stroke markers"
         d="m 4.5,0.5 v 931 m 10,-931 v 931 m 10,-931 v 931 m 21,-931 v 931 m 10,-931 v 931 m 11,-931 v 931 m 10,-931 v 931 m 20,-931 v 931 m 11,-931 v 931 m 10,-931 v 931 m 10,-931 v 931 m 21,-931 v 931 m 10,-931 v 931 m 11,-931 v 931 m 10,-931 v 931 m 21,-931 v 931 m 10,-931 v 931 m 10,-931 v 931 m 11,-931 v 931 m 20,-931 v 931 m 11,-931 v 931 m 10,-931 v 931 m 10,-931 v 931 m 21,-931 v 931 m 10,-931 v 931 m 10,-931 v 931 m 11,-931 v 931 m 20,-931 v 931 m 11,-931 v 931 m 10,-931 v 931 m 10,-931 v 931 m 21,-931 v 931 m 10,-931 v 931 m 11,-931 v 931 m 10,-931 v 931 m 21,-931 v 931 m 10,-931 v 931 m 10,-931 v 931 m 11,-931 v 931 m 20,-931 v 931 m 10,-931 v 931 m 11,-931 v 931 m 10,-931 v 931 m 21,-931 v 931 m 10,-931 v 931 m 10,-931 v 931 m 11,-931 v 931 m 20,-931 v 931 m 11,-931 v 931 m 10,-931 v 931 m 10,-931 v 931 m 21,-931 v 931 m 10,-931 v 931 m 11,-931 v 931 m 10,-931 v 931 m 20,-931 v 931 m 11,-931 v 931 m 10,-931 v 931 m 10,-931 v 931 m 21,-931 v 931 m 10,-931 v 931 m 11,-931 v 931 m 10,-931 v 931 m 21,-931 v 931 m 10,-931 v 931 m 10,-931 v 931 m 11,-931 v 931 m 20,-931 v 931 m 11,-931 v 931 m 10,-931 v 931 m 10,-931 v 931 m 21,-931 v 931 m 10,-931 v 931 m 10,-931 v 931 m 11,-931 v 931 m 20,-931 v 931 m 11,-931 v 931 m 10,-931 v 931 m 10,-931 v 931 m 21,-931 v 931 m 10,-931 v 931 m 11,-931 v 931 m 10,-931 v 931 m 21,-931 v 931 m 10,-931 v 931 m 10,-931 v 931 m 11,-931 v 931 m 20,-931 v 931 m 10,-931 v 931 m 11,-931 v 931 m 10,-931 v 931 m 21,-931 v 931 m 10,-931 v 931 m 10,-931 v 931 m 11,-931 v 931 m 20,-931 v 931 m 11,-931 v 931 m 10,-931 v 931 m 10,-931 v 931 m 21,-931 v 931 m 10,-931 v 931 m 11,-931 v 931 m 10,-931 v 931 m 20,-931 v 931 m 11,-931 v 931 m 10,-931 v 931 m 10,-931 v 931 m 21,-931 v 931 m 10,-931 v 931 m 11,-931 v 931 m 10,-931 v 931 m 21,-931 v 931 m 10,-931 v 931 m 10,-931 v 931 m 11,-931 v 931 m 20,-931 v 931 m 11,-931 v 931 m 10,-931 v 931 m 10,-931 v 931"
         stroke-opacity="0.235294"
         stroke-linecap="round"
         stroke-linejoin="round"
         stroke-miterlimit="10"
         id="path3" />
      <path
         fill="none"
         stroke="#c0c0c0"
         paint-order="fill stroke markers"
         d="m 0.5,40.5 h 1524 m -1524,0 h 1524 m -1524,51 h 1524 m -1524,52 h 1524 m -1524,51 h 1524 m -1524,52 h 1524 m -1524,52 h 1524 m -1524,51 h 1524 m -1524,52 h 1524 m -1524,103 h 1524 m -1524,52 h 1524 m -1524,51 h 1524 m -1524,52 h 1524 m -1524,51 h 1524 m -1524,52 h 1524 m -1524,51 h 1524 m -1524,52 h 1524 m -1524,52 h 1524"
         stroke-opacity="1"
         stroke-linecap="round"
         stroke-linejoin="round"
         stroke-miterlimit="10"
         id="path4" />
      <path
         fill="none"
         stroke="#c0c0c0"
         paint-order="fill stroke markers"
         d="m 0.5,9.5 h 1524 m -1524,0 h 1524 m -1524,10 h 1524 m -1524,10 h 1524 m -1524,21 h 1524 m -1524,10 h 1524 m -1524,11 h 1524 m -1524,10 h 1524 m -1524,21 h 1524 m -1524,10 h 1524 m -1524,10 h 1524 m -1524,11 h 1524 m -1524,20 h 1524 m -1524,10 h 1524 m -1524,11 h 1524 m -1524,10 h 1524 m -1524,21 h 1524 m -1524,10 h 1524 m -1524,10 h 1524 m -1524,11 h 1524 m -1524,20 h 1524 m -1524,11 h 1524 m -1524,10 h 1524 m -1524,10 h 1524 m -1524,21 h 1524 m -1524,10 h 1524 m -1524,11 h 1524 m -1524,10 h 1524 m -1524,21 h 1524 m -1524,10 h 1524 m -1524,10 h 1524 m -1524,10 h 1524 m -1524,21 h 1524 m -1524,10 h 1524 m -1524,11 h 1524 m -1524,10 h 1524 m -1524,21 h 1524 m -1524,10 h 1524 m -1524,10 h 1524 m -1524,11 h 1524 m -1524,20 h 1524 m -1524,11 h 1524 m -1524,10 h 1524 m -1524,10 h 1524 m -1524,21 h 1524 m -1524,10 h 1524 m -1524,10 h 1524 m -1524,11 h 1524 m -1524,20 h 1524 m -1524,11 h 1524 m -1524,10 h 1524 m -1524,10 h 1524 m -1524,21 h 1524 m -1524,10 h 1524 m -1524,11 h 1524 m -1524,10 h 1524 m -1524,21 h 1524 m -1524,10 h 1524 m -1524,10 h 1524 m -1524,11 h 1524 m -1524,20 h 1524 m -1524,10 h 1524 m -1524,11 h 1524 m -1524,10 h 1524 m -1524,21 h 1524 m -1524,10 h 1524 m -1524,10 h 1524 m -1524,11 h 1524 m -1524,20 h 1524 m -1524,11 h 1524 m -1524,10 h 1524 m -1524,10 h 1524 m -1524,21 h 1524"
         stroke-opacity="0.235294"
         stroke-linecap="round"
         stroke-linejoin="round"
         stroke-miterlimit="10"
         id="path5" />
      <path
         fill="none"
         stroke="#252525"
         paint-order="fill stroke markers"
         d="m 550.5,2.5 v 929"
         stroke-opacity="1"
         stroke-miterlimit="10"
         id="path6" />
      <path
         fill="none"
         stroke="#252525"
         paint-order="fill stroke markers"
         d="m 550.5,1.5 -4,4"
         stroke-opacity="1"
         stroke-miterlimit="10"
         id="path7" />
      <path
         fill="none"
         stroke="#252525"
         paint-order="fill stroke markers"
         d="m 550.5,1.5 4,4"
         stroke-opacity="1"
         stroke-miterlimit="10"
         id="path8" />
      <path
         fill="none"
         stroke="#252525"
         paint-order="fill stroke markers"
         d="m 0.5,452.5 h 1522"
         stroke-opacity="1"
         stroke-miterlimit="10"
         id="path9" />
      <path
         fill="none"
         stroke="#252525"
         paint-order="fill stroke markers"
         d="m 1523.5,452.5 -4,-4"
         stroke-opacity="1"
         stroke-miterlimit="10"
         id="path10" />
      <path
         fill="none"
         stroke="#252525"
         paint-order="fill stroke markers"
         d="m 1523.5,452.5 -4,4"
         stroke-opacity="1"
         stroke-miterlimit="10"
         id="path11" />
      <path
         fill="none"
         stroke="#d32f2f"
         paint-order="fill stroke markers"
         d="m 403.69629,-7.9357332 0.37207,7.08035678 0.37207,7.01303172 0.37207,6.9460657 0.37207,6.879459 0.37207,6.813209 0.37207,6.747316 0.37207,6.681779 0.37207,6.616598 0.37207,6.55177 0.37207,6.487296 0.37207,6.423174 0.37207,6.359405 0.37207,6.295986 0.37207,6.232917 0.37207,6.170198 0.37207,6.107826 0.37207,6.045806 0.37207,5.98412 0.37207,5.9228 0.37208,5.86181 0.37207,5.80117 0.37207,5.74087 0.37207,5.68091 0.37207,5.6213 0.37207,5.56203 0.37207,5.50309 0.37207,5.4445 0.37207,5.38625 0.37207,5.32833 0.37207,5.27074 0.37207,5.2135 0.37207,5.15659 0.37207,5.10001 0.37207,5.04378 0.37207,4.98786 0.74414,9.80931 0.74414,9.58964 0.74414,9.3726 0.74414,9.15817 0.74414,8.94635 0.74414,8.73711 0.74414,8.53046 0.74414,8.32636 0.74415,8.12481 0.74414,7.9258 0.74414,7.72932 0.74414,7.53534 0.74414,7.34385 0.74414,7.15486 0.74414,6.96832 0.74414,6.78425 0.74414,6.60261 0.74414,6.4234 0.74414,6.24662 0.74414,6.07223 0.74414,5.90023 0.74414,5.7306 0.74414,5.56334 0.74414,5.39843 0.74415,5.23585 0.74414,5.07559 1.48828,9.67961 1.48828,9.06611 1.48828,8.47069 1.48828,7.89313 1.48828,7.33325 1.48828,6.7908 1.48828,6.26559 1.48829,5.7574 1.48828,5.266 2.97656,9.12396 2.97656,7.35464 2.97656,5.71203 2.97657,4.19267 1.48828,1.56415 1.48828,1.22899 1.48828,0.90825 1.48828,0.60176 0.74414,0.19033 0.74414,0.11894 1.48828,0.0306 0.74415,-0.085 0.74414,-0.14955 1.48828,-0.48626 1.48828,-0.72483 1.48828,-0.95046 2.97656,-2.52714 2.97656,-3.27976 5.95313,-8.43753 2.97656,-4.97646 2.97656,-5.36643 2.97657,-5.67432 2.97656,-5.90355 2.97656,-6.05758 2.97656,-6.13981 2.97657,-6.1537 2.97656,-6.10265 2.97656,-5.99012 2.97656,-5.81954 2.97657,-5.59432 2.97656,-5.31791 5.95312,-9.61898 5.95313,-7.98479 5.95312,-6.0646 2.97657,-2.23787 2.97656,-1.67544 2.97656,-1.09271 1.48828,-0.32243 1.48828,-0.17068 2.97657,0.11995 1.48828,0.29314 1.48828,0.44988 2.97656,1.37266 2.97656,2.00546 2.97657,2.63797 2.97656,3.26677 5.95312,8.38793 2.97657,5.09657 2.97656,5.67619 2.97656,6.23495 2.97656,6.7694 2.97657,7.2761 2.97656,7.75165 2.97656,8.19259 2.97656,8.5955 2.97657,8.95695 2.97656,9.2735 2.97656,9.54172 2.97656,9.75818 2.97657,9.91946 1.48828,5.00202 1.48828,5.02008 1.48828,5.03029 1.48828,5.03242 1.48828,5.02624 1.48828,5.01157 2.97657,9.944 2.97656,9.77784 2.97656,9.5359 2.97656,9.21474 2.97657,8.81095 2.97656,8.32106 2.97656,7.74168 2.97656,7.06935 2.97657,6.30065 2.97656,5.43215 5.95312,7.8424 0.74415,0.66417 0.74414,0.58815 1.48828,0.94116 1.48828,0.61571 0.74414,0.18128 0.74414,0.0945 0.74414,0.006 0.74414,-0.0847 0.74414,-0.17715 0.74414,-0.27145 1.48828,-0.83339 0.74414,-0.5658 0.74414,-0.66777 2.97657,-3.73018 1.48828,-2.52844 1.48828,-2.99224 2.97656,-7.44185 2.97656,-9.49715 1.48829,-5.56216 1.48828,-6.12784 1.48828,-6.71124 1.48828,-7.3126 1.48828,-7.9321 1.48828,-8.56999 1.48828,-9.22647 1.48828,-9.90174 0.74415,-5.21003 0.74414,-5.386 0.74414,-5.56438 0.74414,-5.74518 0.74414,-5.92842 0.74414,-6.11411 0.74414,-6.30227 0.74414,-6.49289 0.74414,-6.68602 0.74414,-6.88165 0.74414,-7.0798 0.74414,-7.28047 0.74414,-7.4837 0.74414,-7.68947 0.74414,-7.89783 0.74414,-8.10877 0.74415,-8.3223 0.74414,-8.53844 0.74414,-8.75722 0.74414,-8.97863 0.74414,-9.20269 0.74414,-9.42942 0.74414,-9.65883 0.74414,-9.89093 0.37207,-5.03334 0.37207,-5.09239 0.37207,-5.15177 0.37207,-5.21149 0.37207,-5.27155 0.37207,-5.33196 0.37207,-5.39271 0.37207,-5.4538 0.37207,-5.51525 0.37207,-5.57703 0.37207,-5.63916 0.37207,-5.70165 0.37207,-5.76447 0.37207,-5.82765 0.37207,-5.89119 0.37207,-5.95506 0.37208,-6.0193 0.37207,-6.08388 0.37207,-6.14883 0.37207,-6.21411 0.37207,-6.27977 0.37207,-6.34577 0.37207,-6.41213 0.37207,-6.47886 0.37207,-6.54593 0.37207,-6.61337 0.37207,-6.68118 0.37207,-6.74933 0.37207,-6.81785 0.37207,-6.88674 0.37207,-6.95599 0.37207,-7.02561 0.37207,-7.09558 0.37207,-7.16593 0.37207,-7.23664 0.37207,-7.30772 0.37207,-7.37917 0.37207,-7.45099 0.37207,-7.52318 0.37207,-7.59574 0.37207,-7.668668 0.37207,-7.741978 0.37207,-7.815658 0.37207,-7.889711 0.37207,-7.964142 0.37207,-8.038948 0.37207,-8.114131 0.37207,-8.189692 0.37208,-8.265632 0.37207,-8.341952 0.37207,-8.418653 0.37207,-8.4957337 0.37207,-8.5731977"
         stroke-opacity="0.8"
         stroke-linecap="round"
         stroke-linejoin="round"
         stroke-miterlimit="10"
         stroke-width="2.5"
         id="path12" />
      <text
         fill="#d32f2f"
         stroke="none"
         font-family="geogebra-sans-serif, sans-serif"
         font-size="16px"
         font-style="normal"
         font-weight="normal"
         text-decoration="normal"
         x="404"
         y="24"
         text-anchor="start"
         dominant-baseline="alphabetic"
         fill-opacity="1"
         id="text12">f</text>
      <path
         fill="#6e6d73"
         stroke="none"
         paint-order="stroke fill markers"
         d="m 504.3365,452.85612 c 0,2.76143 -2.23857,5 -5,5 -2.76142,0 -5,-2.23857 -5,-5 0,-2.76142 2.23858,-5 5,-5 2.76143,0 5,2.23858 5,5 z"
         fill-opacity="1"
         id="path13" />
      <path
         fill="none"
         stroke="#000000"
         paint-order="fill stroke markers"
         d="m 504.3365,452.85612 c 0,2.76143 -2.23857,5 -5,5 -2.76142,0 -5,-2.23857 -5,-5 0,-2.76142 2.23858,-5 5,-5 2.76143,0 5,2.23858 5,5 z"
         stroke-opacity="1"
         stroke-linecap="round"
         stroke-linejoin="round"
         stroke-miterlimit="10"
         id="path14" />
      <text
         fill="#6e6d73"
         stroke="none"
         font-family="geogebra-sans-serif, sans-serif"
         font-size="16px"
         font-style="normal"
         font-weight="normal"
         text-decoration="normal"
         x="503"
         y="443"
         text-anchor="start"
         dominant-baseline="alphabetic"
         fill-opacity="1"
         id="text14">A</text>
    </g>
  </g>
  <path
     d="M 102.03542,10.758118 V 2.3581177 h 3.636 q 1.128,0 1.944,0.372 0.816,0.36 1.26,1.044 0.444,0.684 0.444,1.632 0,0.936 -0.444,1.62 -0.444,0.684 -1.26,1.056 -0.816,0.36 -1.944,0.36 h -2.556 l 0.864,-0.876 v 3.1920003 z m 1.944,-2.9760003 -0.864,-0.924 h 2.448 q 0.9,0 1.344,-0.384 0.444,-0.384 0.444,-1.068 0,-0.696 -0.444,-1.08 -0.444,-0.384 -1.344,-0.384 h -2.448 l 0.864,-0.924 z m 10.48801,2.9760003 V 9.4981177 l -0.12,-0.276 v -2.256 q 0,-0.6 -0.372,-0.936 -0.36,-0.336 -1.116,-0.336 -0.516,0 -1.02,0.168 -0.492,0.156 -0.84,0.432 l -0.672,-1.308 q 0.528,-0.372 1.272,-0.576 0.744,-0.204 1.512,-0.204 1.476,0 2.292,0.696 0.816,0.696 0.816,2.172 v 3.6840003 z m -1.968,0.096 q -0.756,0 -1.296,-0.252 -0.54,-0.264 -0.828,-0.7080003 -0.288,-0.444 -0.288,-0.996 0,-0.576 0.276,-1.008 0.288,-0.432 0.9,-0.672 0.612,-0.252 1.596,-0.252 h 1.716 v 1.092 h -1.512 q -0.66,0 -0.912,0.216 -0.24,0.216 -0.24,0.54 0,0.36 0.276,0.576 0.288,0.204 0.78,0.204 0.468,0 0.84,-0.216 0.372,-0.228 0.54,-0.66 l 0.288,0.864 q -0.204,0.6240003 -0.744,0.9480003 -0.54,0.324 -1.392,0.324 z m 5.41201,-0.096 V 4.3021177 h 1.788 v 1.824 l -0.252,-0.528 q 0.288,-0.684 0.924,-1.032 0.636,-0.36 1.548,-0.36 v 1.728 q -0.12,-0.012 -0.216,-0.012 -0.096,-0.012 -0.204,-0.012 -0.768,0 -1.248,0.444 -0.468,0.432 -0.468,1.356 v 3.0480003 z m 8.66345,0 V 9.4981177 l -0.12,-0.276 v -2.256 q 0,-0.6 -0.372,-0.936 -0.36,-0.336 -1.116,-0.336 -0.516,0 -1.02,0.168 -0.492,0.156 -0.84,0.432 l -0.672,-1.308 q 0.528,-0.372 1.272,-0.576 0.744,-0.204 1.512,-0.204 1.476,0 2.292,0.696 0.816,0.696 0.816,2.172 v 3.6840003 z m -1.968,0.096 q -0.756,0 -1.296,-0.252 -0.54,-0.264 -0.828,-0.7080003 -0.288,-0.444 -0.288,-0.996 0,-0.576 0.276,-1.008 0.288,-0.432 0.9,-0.672 0.612,-0.252 1.596,-0.252 h 1.716 v 1.092 h -1.512 q -0.66,0 -0.912,0.216 -0.24,0.216 -0.24,0.54 0,0.36 0.276,0.576 0.288,0.204 0.78,0.204 0.468,0 0.84,-0.216 0.372,-0.228 0.54,-0.66 l 0.288,0.864 q -0.204,0.6240003 -0.744,0.9480003 -0.54,0.324 -1.392,0.324 z m 5.41201,-0.096 V 4.3021177 h 1.788 v 1.764 l -0.336,-0.516 q 0.336,-0.66 0.948,-0.996 0.624,-0.348 1.416,-0.348 0.888,0 1.548,0.456 0.672,0.444 0.888,1.368 l -0.66,-0.18 q 0.324,-0.756 1.032,-1.2 0.72,-0.444 1.644,-0.444 0.768,0 1.356,0.312 0.6,0.3 0.936,0.936 0.348,0.624 0.348,1.608 v 3.6960003 h -1.872 V 7.3501177 q 0,-0.78 -0.324,-1.152 -0.324,-0.372 -0.912,-0.372 -0.408,0 -0.732,0.192 -0.324,0.18 -0.504,0.552 -0.18,0.372 -0.18,0.948 v 3.2400003 h -1.872 V 7.3501177 q 0,-0.78 -0.324,-1.152 -0.312,-0.372 -0.9,-0.372 -0.408,0 -0.732,0.192 -0.324,0.18 -0.504,0.552 -0.18,0.372 -0.18,0.948 v 3.2400003 z m 15.83963,0.096 q -1.104,0 -1.944,-0.432 -0.828,-0.4320003 -1.284,-1.1760003 -0.456,-0.756 -0.456,-1.716 0,-0.972 0.444,-1.716 0.456,-0.756 1.236,-1.176 0.78,-0.432 1.764,-0.432 0.948,0 1.704,0.408 0.768,0.396 1.212,1.152 0.444,0.744 0.444,1.788 0,0.108 -0.012,0.252 -0.012,0.132 -0.024,0.252 h -5.244 v -1.092 h 4.26 l -0.72,0.324 q 0,-0.504 -0.204,-0.876 -0.204,-0.372 -0.564,-0.576 -0.36,-0.216 -0.84,-0.216 -0.48,0 -0.852,0.216 -0.36,0.204 -0.564,0.588 -0.204,0.372 -0.204,0.888 v 0.288 q 0,0.528 0.228,0.936 0.24,0.396 0.66,0.612 0.432,0.204 1.008,0.204 0.516,0 0.9,-0.156 0.396,-0.156 0.72,-0.468 l 0.996,1.08 q -0.444,0.5040003 -1.116,0.7800003 -0.672,0.264 -1.548,0.264 z m 7.008,0 q -1.14,0 -1.776,-0.576 -0.636,-0.5880003 -0.636,-1.7400003 v -5.664 h 1.872 v 5.64 q 0,0.408 0.216,0.636 0.216,0.216 0.588,0.216 0.444,0 0.756,-0.24 l 0.504,1.3200003 q -0.288,0.204 -0.696,0.312 -0.396,0.096 -0.828,0.096 z m -3.408,-5.1120003 v -1.44 h 4.476 v 1.44 z m 8.99028,5.1120003 q -1.104,0 -1.944,-0.432 -0.828,-0.4320003 -1.284,-1.1760003 -0.456,-0.756 -0.456,-1.716 0,-0.972 0.444,-1.716 0.456,-0.756 1.236,-1.176 0.78,-0.432 1.764,-0.432 0.948,0 1.704,0.408 0.768,0.396 1.212,1.152 0.444,0.744 0.444,1.788 0,0.108 -0.012,0.252 -0.012,0.132 -0.024,0.252 h -5.244 v -1.092 h 4.26 l -0.72,0.324 q 0,-0.504 -0.204,-0.876 -0.204,-0.372 -0.564,-0.576 -0.36,-0.216 -0.84,-0.216 -0.48,0 -0.852,0.216 -0.36,0.204 -0.564,0.588 -0.204,0.372 -0.204,0.888 v 0.288 q 0,0.528 0.228,0.936 0.24,0.396 0.66,0.612 0.432,0.204 1.008,0.204 0.516,0 0.9,-0.156 0.396,-0.156 0.72,-0.468 l 0.996,1.08 q -0.444,0.5040003 -1.116,0.7800003 -0.672,0.264 -1.548,0.264 z m 4.36801,-0.096 V 4.3021177 h 1.788 v 1.824 l -0.252,-0.528 q 0.288,-0.684 0.924,-1.032 0.636,-0.36 1.548,-0.36 v 1.728 q -0.12,-0.012 -0.216,-0.012 -0.096,-0.012 -0.204,-0.012 -0.768,0 -1.248,0.444 -0.468,0.432 -0.468,1.356 v 3.0480003 z"
     id="text16"
     style="font-size:12px;line-height:0;font-family:Montserrat;-inkscape-font-specification:'Montserrat, @wght=700';font-variation-settings:'wght' 700;fill:#3d5562;stroke:#3d5562;stroke-width:3.05386;stroke-linecap:round;stroke-opacity:0"
     aria-label="Parameter" />
  <path
     d="m -143.47596,8.9426097 q -0.972,0 -1.812,-0.312 -0.828,-0.324 -1.44,-0.912 -0.612,-0.588 -0.96,-1.38 -0.336,-0.792 -0.336,-1.74 0,-0.948 0.336,-1.74 0.348,-0.792 0.96,-1.38 0.624,-0.58799997 1.452,-0.89999997 0.828,-0.324 1.812,-0.324 1.092,0 1.968,0.384 0.888,0.37199997 1.488,1.10399997 l -1.248,1.152 q -0.432,-0.492 -0.96,-0.732 -0.528,-0.252 -1.152,-0.252 -0.588,0 -1.08,0.192 -0.492,0.192 -0.852,0.552 -0.36,0.36 -0.564,0.852 -0.192,0.492 -0.192,1.092 0,0.6 0.192,1.092 0.204,0.492 0.564,0.852 0.36,0.36 0.852,0.552 0.492,0.192 1.08,0.192 0.624,0 1.152,-0.24 0.528,-0.252 0.96,-0.756 l 1.248,1.152 q -0.6,0.732 -1.488,1.116 -0.876,0.384 -1.98,0.384 z m 7.3846,-0.048 q -1.032,0 -1.836,-0.432 -0.792,-0.432 -1.26,-1.176 -0.456,-0.756 -0.456,-1.716 0,-0.972 0.456,-1.716 0.468,-0.756 1.26,-1.176 0.804,-0.432 1.836,-0.432 1.02,0 1.824,0.432 0.804,0.42 1.26,1.164 0.456,0.744 0.456,1.728 0,0.96 -0.456,1.716 -0.456,0.744 -1.26,1.176 -0.804,0.432 -1.824,0.432 z m 0,-1.536 q 0.468,0 0.84,-0.216 0.372,-0.216 0.588,-0.612 0.216,-0.408 0.216,-0.96 0,-0.564 -0.216,-0.96 -0.216,-0.396 -0.588,-0.612 -0.372,-0.216 -0.84,-0.216 -0.468,0 -0.84,0.216 -0.372,0.216 -0.6,0.612 -0.216,0.396 -0.216,0.96 0,0.552 0.216,0.96 0.228,0.396 0.6,0.612 0.372,0.216 0.84,0.216 z m 6.96001,1.536 q -0.828,0 -1.596,-0.192 -0.756,-0.204 -1.2,-0.504 l 0.624,-1.344 q 0.444,0.276 1.044,0.456 0.612,0.168 1.2,0.168 0.648,0 0.912,-0.156 0.276,-0.156 0.276,-0.432 0,-0.228 -0.216,-0.336 -0.204,-0.12 -0.552,-0.18 -0.348,-0.06 -0.768,-0.12 -0.408,-0.06 -0.828,-0.156 -0.42,-0.108 -0.768,-0.312 -0.348,-0.204 -0.564,-0.552 -0.204,-0.348 -0.204,-0.9 0,-0.612 0.348,-1.08 0.36,-0.468 1.032,-0.732 0.672,-0.276 1.608,-0.276 0.66,0 1.344,0.144 0.684,0.144 1.14,0.42 l -0.624,1.332 q -0.468,-0.276 -0.948,-0.372 -0.468,-0.108 -0.912,-0.108 -0.624,0 -0.912,0.168 -0.288,0.168 -0.288,0.432 0,0.24 0.204,0.36 0.216,0.12 0.564,0.192 0.348,0.072 0.756,0.132 0.42,0.048 0.84,0.156 0.42,0.108 0.756,0.312 0.348,0.192 0.564,0.54 0.216,0.336 0.216,0.888 0,0.6 -0.36,1.068 -0.36,0.456 -1.044,0.72 -0.672,0.264 -1.644,0.264 z m 6.84,0 q -1.14,0 -1.776,-0.576 -0.636,-0.588 -0.636,-1.74 V 0.91460973 h 1.872 V 6.5546097 q 0,0.408 0.216,0.636 0.216,0.216 0.588,0.216 0.444,0 0.756,-0.24 l 0.504,1.32 q -0.288,0.204 -0.696,0.312 -0.396,0.096 -0.828,0.096 z m -3.408,-5.112 v -1.44 h 4.476 v 1.44 z"
     id="text16-4"
     style="font-size:12px;line-height:0;font-family:Montserrat;-inkscape-font-specification:'Montserrat, @wght=700';font-variation-settings:'wght' 700;fill:#3d5562;stroke:#3d5562;stroke-width:3.05386;stroke-linecap:round;stroke-opacity:0"
     transform="rotate(-90.551539)"
     aria-label="Cost" />
</svg>
