<?xml version="1.0" encoding="UTF-8" standalone="no"?>
<!-- Created with Inkscape (http://www.inkscape.org/) -->

<svg
   width="255.99998"
   height="255.99998"
   viewBox="0 0 67.733328 67.733329"
   version="1.1"
   id="svg1"
   xmlns="http://www.w3.org/2000/svg"
   xmlns:svg="http://www.w3.org/2000/svg">
  <defs
     id="defs1" />
  <g
     id="layer1">
    <circle
       style="fill:#181c57;fill-opacity:0;stroke:#3d5562;stroke-width:0.67654;stroke-linecap:round;stroke-dasharray:none;stroke-opacity:1"
       id="path2"
       cx="8.2917299"
       cy="27.952589"
       r="4" />
    <path
       style="fill:#181c57;fill-opacity:0;stroke:#3d5562;stroke-width:0.676634;stroke-linecap:round;stroke-dasharray:none;stroke-opacity:1"
       id="path2-1"
       d="m 12.29173,38.645844 a 4,4 0 0 1 -3.9984685,3.999999 4,4 0 0 1 -4.0015304,-3.996936 4,4 0 0 1 3.995404,-4.003061 4,4 0 0 1 4.0045899,3.993871" />
    <circle
       style="fill:#181c57;fill-opacity:0;stroke:#3d5562;stroke-width:0.67654;stroke-linecap:round;stroke-dasharray:none;stroke-opacity:1"
       id="path2-42"
       cx="23.335485"
       cy="17.442715"
       r="4" />
    <path
       style="fill:#181c57;fill-opacity:0;stroke:#3d5562;stroke-width:0.676634;stroke-linecap:round;stroke-dasharray:none;stroke-opacity:1"
       id="path2-1-7"
       d="m 27.335485,28.135969 a 4,4 0 0 1 -3.998468,4 4,4 0 0 1 -4.00153,-3.996937 4,4 0 0 1 3.995404,-4.00306 4,4 0 0 1 4.00459,3.993871" />
    <circle
       style="fill:#181c57;fill-opacity:0;stroke:#3d5562;stroke-width:0.67654;stroke-linecap:round;stroke-dasharray:none;stroke-opacity:1"
       id="path2-9"
       cx="23.335485"
       cy="38.829224"
       r="4" />
    <path
       style="fill:#181c57;fill-opacity:0;stroke:#3d5562;stroke-width:0.676634;stroke-linecap:round;stroke-dasharray:none;stroke-opacity:1"
       id="path2-1-8"
       d="m 27.335485,49.52248 a 4,4 0 0 1 -3.998468,4 4,4 0 0 1 -4.00153,-3.996937 4,4 0 0 1 3.995404,-4.00306 4,4 0 0 1 4.00459,3.993871" />
    <circle
       style="fill:#181c57;fill-opacity:0;stroke:#3d5562;stroke-width:0.67654;stroke-linecap:round;stroke-dasharray:none;stroke-opacity:1"
       id="path2-42-8"
       cx="43.504234"
       cy="17.442715"
       r="4" />
    <path
       style="fill:#181c57;fill-opacity:0;stroke:#3d5562;stroke-width:0.676634;stroke-linecap:round;stroke-dasharray:none;stroke-opacity:1"
       id="path2-1-7-6"
       d="m 47.504234,28.135969 a 4,4 0 0 1 -3.998468,4 4,4 0 0 1 -4.001531,-3.996937 4,4 0 0 1 3.995404,-4.00306 4,4 0 0 1 4.004591,3.993871" />
    <circle
       style="fill:#181c57;fill-opacity:0;stroke:#3d5562;stroke-width:0.67654;stroke-linecap:round;stroke-dasharray:none;stroke-opacity:1"
       id="path2-9-5"
       cx="43.504234"
       cy="38.829224"
       r="4" />
    <path
       style="fill:#181c57;fill-opacity:0;stroke:#3d5562;stroke-width:0.676634;stroke-linecap:round;stroke-dasharray:none;stroke-opacity:1"
       id="path2-1-8-0"
       d="m 47.504234,49.52248 a 4,4 0 0 1 -3.998468,4 4,4 0 0 1 -4.001531,-3.996937 4,4 0 0 1 3.995404,-4.00306 4,4 0 0 1 4.004591,3.993871" />
    <circle
       style="fill:#181c57;fill-opacity:0;stroke:#3d5562;stroke-width:0.67654;stroke-linecap:round;stroke-dasharray:none;stroke-opacity:1"
       id="path2-4"
       cx="58.548038"
       cy="27.952589"
       r="4" />
    <path
       style="fill:#181c57;fill-opacity:0;stroke:#3d5562;stroke-width:0.676634;stroke-linecap:round;stroke-dasharray:none;stroke-opacity:1"
       id="path2-1-1"
       d="m 62.548038,38.645844 a 4,4 0 0 1 -3.998468,3.999999 4,4 0 0 1 -4.00153,-3.996936 4,4 0 0 1 3.995404,-4.003061 4,4 0 0 1 4.00459,3.993871" />
    <path
       style="fill:#181c57;fill-opacity:0;stroke:#3d5562;stroke-width:0.67654;stroke-linecap:round;stroke-dasharray:none;stroke-opacity:1"
       d="M 12.29173,27.952589 19.335485,17.442715"
       id="path46" />
    <path
       style="fill:#181c57;fill-opacity:0;stroke:#3d5562;stroke-width:0.67654;stroke-linecap:round;stroke-dasharray:none;stroke-opacity:1"
       d="m 12.29173,27.952589 7.043755,0.18338"
       id="path47" />
    <path
       style="fill:#181c57;fill-opacity:0;stroke:#3d5562;stroke-width:0.67654;stroke-linecap:round;stroke-dasharray:none;stroke-opacity:1"
       d="m 12.29173,27.952589 7.043755,10.876634"
       id="path48" />
    <path
       style="fill:#181c57;fill-opacity:0;stroke:#3d5562;stroke-width:0.67654;stroke-linecap:round;stroke-dasharray:none;stroke-opacity:1"
       d="m 12.29173,27.952589 7.382025,20.325188"
       id="path49" />
    <path
       style="fill:#181c57;fill-opacity:0;stroke:#3d5562;stroke-width:0.67654;stroke-linecap:round;stroke-dasharray:none;stroke-opacity:1"
       d="M 12.29173,38.645843 19.335485,17.442715"
       id="path50" />
    <path
       style="fill:#181c57;fill-opacity:0;stroke:#3d5562;stroke-width:0.67654;stroke-linecap:round;stroke-dasharray:none;stroke-opacity:1"
       d="m 12.291725,38.639718 7.04376,-10.503749"
       id="path51" />
    <path
       style="fill:#181c57;fill-opacity:0;stroke:#3d5562;stroke-width:0.67654;stroke-linecap:round;stroke-dasharray:none;stroke-opacity:1"
       d="m 12.29173,38.645843 7.043755,0.18338"
       id="path52" />
    <path
       style="fill:#181c57;fill-opacity:0;stroke:#3d5562;stroke-width:0.67654;stroke-linecap:round;stroke-dasharray:none;stroke-opacity:1"
       d="m 12.29173,38.645843 7.382025,9.631934"
       id="path53" />
    <path
       style="fill:#181c57;fill-opacity:0;stroke:#3d5562;stroke-width:0.67654;stroke-linecap:round;stroke-dasharray:none;stroke-opacity:1"
       d="M 27.335485,17.442715 H 39.504233"
       id="path54" />
    <path
       style="fill:#181c57;fill-opacity:0;stroke:#3d5562;stroke-width:0.67654;stroke-linecap:round;stroke-dasharray:none;stroke-opacity:1"
       d="M 27.335485,17.442715 39.504233,28.135969"
       id="path55" />
    <path
       style="fill:#181c57;fill-opacity:0;stroke:#3d5562;stroke-width:0.67654;stroke-linecap:round;stroke-dasharray:none;stroke-opacity:1"
       d="M 27.335485,17.442715 39.504233,38.829223"
       id="path56" />
    <path
       style="fill:#181c57;fill-opacity:0;stroke:#3d5562;stroke-width:0.67654;stroke-linecap:round;stroke-dasharray:none;stroke-opacity:1"
       d="M 27.335485,17.442715 39.504233,49.52248"
       id="path57" />
    <path
       style="fill:#181c57;fill-opacity:0;stroke:#3d5562;stroke-width:0.67654;stroke-linecap:round;stroke-dasharray:none;stroke-opacity:1"
       d="M 27.335485,28.135969 39.504233,17.442715"
       id="path58" />
    <path
       style="fill:#181c57;fill-opacity:0;stroke:#3d5562;stroke-width:0.67654;stroke-linecap:round;stroke-dasharray:none;stroke-opacity:1"
       d="M 27.335485,28.135969 H 39.504233"
       id="path59" />
    <path
       style="fill:#181c57;fill-opacity:0;stroke:#3d5562;stroke-width:0.67654;stroke-linecap:round;stroke-dasharray:none;stroke-opacity:1"
       d="M 27.335485,28.135969 39.504233,38.829223"
       id="path60" />
    <path
       style="fill:#181c57;fill-opacity:0;stroke:#3d5562;stroke-width:0.67654;stroke-linecap:round;stroke-dasharray:none;stroke-opacity:1"
       d="M 27.335485,28.135969 39.504233,49.52248"
       id="path61" />
    <path
       style="fill:#181c57;fill-opacity:0;stroke:#3d5562;stroke-width:0.67654;stroke-linecap:round;stroke-dasharray:none;stroke-opacity:1"
       d="M 27.335485,38.829223 39.504233,17.442715"
       id="path62" />
    <path
       style="fill:#181c57;fill-opacity:0;stroke:#3d5562;stroke-width:0.67654;stroke-linecap:round;stroke-dasharray:none;stroke-opacity:1"
       d="M 27.335485,38.829223 39.504233,28.135969"
       id="path63" />
    <path
       style="fill:#181c57;fill-opacity:0;stroke:#3d5562;stroke-width:0.67654;stroke-linecap:round;stroke-dasharray:none;stroke-opacity:1"
       d="M 27.335485,38.829223 H 39.504233"
       id="path64" />
    <path
       style="fill:#181c57;fill-opacity:0;stroke:#3d5562;stroke-width:0.67654;stroke-linecap:round;stroke-dasharray:none;stroke-opacity:1"
       d="M 27.335485,38.829223 39.504233,49.52248"
       id="path65" />
    <path
       style="fill:#181c57;fill-opacity:0;stroke:#3d5562;stroke-width:0.67654;stroke-linecap:round;stroke-dasharray:none;stroke-opacity:1"
       d="M 27.335485,49.52248 39.504233,17.442715"
       id="path66" />
    <path
       style="fill:#181c57;fill-opacity:0;stroke:#3d5562;stroke-width:0.67654;stroke-linecap:round;stroke-dasharray:none;stroke-opacity:1"
       d="M 27.335485,49.52248 39.504233,28.135969"
       id="path67" />
    <path
       style="fill:#181c57;fill-opacity:0;stroke:#3d5562;stroke-width:0.67654;stroke-linecap:round;stroke-dasharray:none;stroke-opacity:1"
       d="M 27.335485,49.52248 39.504233,38.829223"
       id="path68" />
    <path
       style="fill:#181c57;fill-opacity:0;stroke:#3d5562;stroke-width:0.67654;stroke-linecap:round;stroke-dasharray:none;stroke-opacity:1"
       d="M 27.335485,49.52248 H 39.504233"
       id="path69" />
    <path
       style="fill:#181c57;fill-opacity:0;stroke:#3d5562;stroke-width:0.67654;stroke-linecap:round;stroke-dasharray:none;stroke-opacity:1"
       d="m 47.504233,17.442715 7.043804,10.509874"
       id="path70" />
    <path
       style="fill:#181c57;fill-opacity:0;stroke:#3d5562;stroke-width:0.67654;stroke-linecap:round;stroke-dasharray:none;stroke-opacity:1"
       d="m 47.504233,17.442715 7.043804,21.203128"
       id="path71" />
    <path
       style="fill:#181c57;fill-opacity:0;stroke:#3d5562;stroke-width:0.67654;stroke-linecap:round;stroke-dasharray:none;stroke-opacity:1"
       d="m 47.504233,28.135969 7.043804,-0.18338"
       id="path72" />
    <path
       style="fill:#181c57;fill-opacity:0;stroke:#3d5562;stroke-width:0.67654;stroke-linecap:round;stroke-dasharray:none;stroke-opacity:1"
       d="m 47.504233,28.135969 7.043804,10.509874"
       id="path73" />
    <path
       style="fill:#181c57;fill-opacity:0;stroke:#3d5562;stroke-width:0.67654;stroke-linecap:round;stroke-dasharray:none;stroke-opacity:1"
       d="M 47.504233,38.829223 54.548037,27.952589"
       id="path74" />
    <path
       style="fill:#181c57;fill-opacity:0;stroke:#3d5562;stroke-width:0.67654;stroke-linecap:round;stroke-dasharray:none;stroke-opacity:1"
       d="m 47.504233,38.829223 7.043804,-0.18338"
       id="path75" />
    <path
       style="fill:#181c57;fill-opacity:0;stroke:#3d5562;stroke-width:0.67654;stroke-linecap:round;stroke-dasharray:none;stroke-opacity:1"
       d="M 47.504233,49.52248 54.548037,27.952589"
       id="path76" />
    <path
       style="fill:#181c57;fill-opacity:0;stroke:#3d5562;stroke-width:0.67654;stroke-linecap:round;stroke-dasharray:none;stroke-opacity:1"
       d="M 47.50423,49.516352 54.548037,38.645843"
       id="path77" />
  </g>
</svg>
