<?xml version="1.0" encoding="UTF-8" standalone="no"?>
<svg
   version="1.1"
   width="256"
   height="256"
   id="svg15"
   sodipodi:docname="parameter-on-curve.svg"
   inkscape:version="1.4.2 (f4327f4, 2025-05-13)"
   xmlns:inkscape="http://www.inkscape.org/namespaces/inkscape"
   xmlns:sodipodi="http://sodipodi.sourceforge.net/DTD/sodipodi-0.dtd"
   xmlns="http://www.w3.org/2000/svg"
   xmlns:svg="http://www.w3.org/2000/svg">
  <sodipodi:namedview
     id="namedview15"
     pagecolor="#ffffff"
     bordercolor="#000000"
     borderopacity="0.25"
     inkscape:showpageshadow="2"
     inkscape:pageopacity="0.0"
     inkscape:pagecheckerboard="0"
     inkscape:deskcolor="#d1d1d1"
     inkscape:zoom="3.6912341"
     inkscape:cx="127.87051"
     inkscape:cy="94.954693"
     inkscape:window-width="2560"
     inkscape:window-height="1417"
     inkscape:window-x="-8"
     inkscape:window-y="-8"
     inkscape:window-maximized="1"
     inkscape:current-layer="svg15" />
  <defs
     id="defs1">
    <clipPath
       id="WanndyAUahzS">
      <path
         fill="none"
         stroke="none"
         d="M 0,0 H 1524 V 931 H 0 Z"
         id="path1" />
    </clipPath>
    <clipPath
       clipPathUnits="userSpaceOnUse"
       id="clipPath15">
      <rect
         style="font-variation-settings:'wght' 700;fill:#3d5562;stroke:#3d5562;stroke-width:10.2596;stroke-linecap:round;stroke-opacity:0"
         id="rect16"
         width="399.93167"
         height="399"
         x="330.56833"
         y="455.5" />
    </clipPath>
  </defs>
  <g
     transform="matrix(0.60740842,0,0,0.60740842,-187.71185,-263.03049)"
     clip-path="url(#clipPath15)"
     id="g15">
    <g
       id="g14">
      <rect
         fill="#ffffff"
         stroke="none"
         x="0"
         y="0"
         width="1524"
         height="931"
         fill-opacity="1"
         id="rect1" />
      <path
         fill="none"
         stroke="#c0c0c0"
         paint-order="fill stroke markers"
         d="m 30.5,0.5 v 931 m 0,-931 v 931 m 50,-931 v 931 m 50,-931 v 931 m 50,-931 v 931 m 50,-931 v 931 m 50,-931 v 931 m 50,-931 v 931 m 50,-931 v 931 m 50,-931 v 931 m 50,-931 v 931 m 100,-931 v 931 m 50,-931 v 931 m 50,-931 v 931 m 50,-931 v 931 m 50,-931 v 931 m 50,-931 v 931 m 50,-931 v 931 m 50,-931 v 931 m 50,-931 v 931 m 50,-931 v 931 m 50,-931 v 931 m 50,-931 v 931 m 50,-931 v 931 m 50,-931 v 931 m 50,-931 v 931 m 50,-931 v 931 m 50,-931 v 931 m 50,-931 v 931 m 50,-931 v 931"
         stroke-opacity="1"
         stroke-linecap="round"
         stroke-linejoin="round"
         stroke-miterlimit="10"
         id="path2" />
      <path
         fill="none"
         stroke="#c0c0c0"
         paint-order="fill stroke markers"
         d="m 0.5,0.5 v 931 m 10,-931 v 931 m 10,-931 v 931 m 20,-931 v 931 m 10,-931 v 931 m 10,-931 v 931 m 10,-931 v 931 m 20,-931 v 931 m 10,-931 v 931 m 10,-931 v 931 m 10,-931 v 931 m 20,-931 v 931 m 10,-931 v 931 m 10,-931 v 931 m 10,-931 v 931 m 20,-931 v 931 m 10,-931 v 931 m 10,-931 v 931 m 10,-931 v 931 m 20,-931 v 931 m 10,-931 v 931 m 10,-931 v 931 m 10,-931 v 931 m 20,-931 v 931 m 10,-931 v 931 m 10,-931 v 931 m 10,-931 v 931 m 20,-931 v 931 m 10,-931 v 931 m 10,-931 v 931 m 10,-931 v 931 m 20,-931 v 931 m 10,-931 v 931 m 10,-931 v 931 m 10,-931 v 931 m 20,-931 v 931 m 10,-931 v 931 m 10,-931 v 931 m 10,-931 v 931 m 20,-931 v 931 m 10,-931 v 931 m 10,-931 v 931 m 10,-931 v 931 m 20,-931 v 931 m 10,-931 v 931 m 10,-931 v 931 m 10,-931 v 931 m 20,-931 v 931 m 10,-931 v 931 m 10,-931 v 931 m 10,-931 v 931 m 20,-931 v 931 m 10,-931 v 931 m 10,-931 v 931 m 10,-931 v 931 m 20,-931 v 931 m 10,-931 v 931 m 10,-931 v 931 m 10,-931 v 931 m 20,-931 v 931 m 10,-931 v 931 m 10,-931 v 931 m 10,-931 v 931 m 20,-931 v 931 m 10,-931 v 931 m 10,-931 v 931 m 10,-931 v 931 m 20,-931 v 931 m 10,-931 v 931 m 10,-931 v 931 m 10,-931 v 931 m 20,-931 v 931 m 10,-931 v 931 m 10,-931 v 931 m 10,-931 v 931 m 20,-931 v 931 m 10,-931 v 931 m 10,-931 v 931 m 10,-931 v 931 m 20,-931 v 931 m 10,-931 v 931 m 10,-931 v 931 m 10,-931 v 931 m 20,-931 v 931 m 10,-931 v 931 m 10,-931 v 931 m 10,-931 v 931 m 20,-931 v 931 m 10,-931 v 931 m 10,-931 v 931 m 10,-931 v 931 m 20,-931 v 931 m 10,-931 v 931 m 10,-931 v 931 m 10,-931 v 931 m 20,-931 v 931 m 10,-931 v 931 m 10,-931 v 931 m 10,-931 v 931 m 20,-931 v 931 m 10,-931 v 931 m 10,-931 v 931 m 10,-931 v 931 m 20,-931 v 931 m 10,-931 v 931 m 10,-931 v 931 m 10,-931 v 931 m 20,-931 v 931 m 10,-931 v 931 m 10,-931 v 931 m 10,-931 v 931 m 20,-931 v 931 m 10,-931 v 931 m 10,-931 v 931 m 10,-931 v 931 m 20,-931 v 931 m 10,-931 v 931 m 10,-931 v 931 m 10,-931 v 931 m 20,-931 v 931 m 10,-931 v 931 m 10,-931 v 931 m 10,-931 v 931"
         stroke-opacity="0.235294"
         stroke-linecap="round"
         stroke-linejoin="round"
         stroke-miterlimit="10"
         id="path3" />
      <path
         fill="none"
         stroke="#c0c0c0"
         paint-order="fill stroke markers"
         d="m 0.5,5.5 h 1524 m -1524,0 h 1524 m -1524,50 h 1524 m -1524,50 h 1524 m -1524,50 h 1524 m -1524,50 h 1524 m -1524,50 h 1524 m -1524,50 h 1524 m -1524,50 h 1524 m -1524,50 h 1524 m -1524,50 h 1524 m -1524,50 h 1524 m -1524,50 h 1524 m -1524,50 h 1524 m -1524,99 h 1524 m -1524,50 h 1524 m -1524,50 h 1524 m -1524,50 h 1524 m -1524,50 h 1524"
         stroke-opacity="1"
         stroke-linecap="round"
         stroke-linejoin="round"
         stroke-miterlimit="10"
         id="path4" />
      <path
         fill="none"
         stroke="#c0c0c0"
         paint-order="fill stroke markers"
         d="m 0.5,5.5 h 1524 m -1524,10 h 1524 m -1524,10 h 1524 m -1524,10 h 1524 m -1524,10 h 1524 m -1524,20 h 1524 m -1524,10 h 1524 m -1524,10 h 1524 m -1524,10 h 1524 m -1524,20 h 1524 m -1524,10 h 1524 m -1524,10 h 1524 m -1524,10 h 1524 m -1524,20 h 1524 m -1524,10 h 1524 m -1524,10 h 1524 m -1524,10 h 1524 m -1524,20 h 1524 m -1524,10 h 1524 m -1524,10 h 1524 m -1524,10 h 1524 m -1524,20 h 1524 m -1524,10 h 1524 m -1524,10 h 1524 m -1524,10 h 1524 m -1524,20 h 1524 m -1524,10 h 1524 m -1524,10 h 1524 m -1524,10 h 1524 m -1524,20 h 1524 m -1524,10 h 1524 m -1524,10 h 1524 m -1524,10 h 1524 m -1524,20 h 1524 m -1524,10 h 1524 m -1524,10 h 1524 m -1524,10 h 1524 m -1524,20 h 1524 m -1524,10 h 1524 m -1524,10 h 1524 m -1524,10 h 1524 m -1524,20 h 1524 m -1524,10 h 1524 m -1524,10 h 1524 m -1524,10 h 1524 m -1524,20 h 1524 m -1524,10 h 1524 m -1524,10 h 1524 m -1524,10 h 1524 m -1524,20 h 1524 m -1524,10 h 1524 m -1524,10 h 1524 m -1524,10 h 1524 m -1524,20 h 1524 m -1524,10 h 1524 m -1524,10 h 1524 m -1524,10 h 1524 m -1524,20 h 1524 m -1524,10 h 1524 m -1524,10 h 1524 m -1524,10 h 1524 m -1524,19 h 1524 m -1524,10 h 1524 m -1524,10 h 1524 m -1524,10 h 1524 m -1524,20 h 1524 m -1524,10 h 1524 m -1524,10 h 1524 m -1524,10 h 1524 m -1524,20 h 1524 m -1524,10 h 1524 m -1524,10 h 1524 m -1524,10 h 1524 m -1524,20 h 1524 m -1524,10 h 1524"
         stroke-opacity="0.235294"
         stroke-linecap="round"
         stroke-linejoin="round"
         stroke-miterlimit="10"
         id="path5" />
      <path
         fill="none"
         stroke="#252525"
         paint-order="fill stroke markers"
         d="m 530.5,2.5 v 929"
         stroke-opacity="1"
         stroke-miterlimit="10"
         id="path6" />
      <path
         fill="none"
         stroke="#252525"
         paint-order="fill stroke markers"
         d="m 530.5,1.5 -4,4"
         stroke-opacity="1"
         stroke-miterlimit="10"
         id="path7" />
      <path
         fill="none"
         stroke="#252525"
         paint-order="fill stroke markers"
         d="m 530.5,1.5 4,4"
         stroke-opacity="1"
         stroke-miterlimit="10"
         id="path8" />
      <path
         fill="none"
         stroke="#252525"
         paint-order="fill stroke markers"
         d="m 0.5,655.5 h 1522"
         stroke-opacity="1"
         stroke-miterlimit="10"
         id="path9" />
      <path
         fill="none"
         stroke="#252525"
         paint-order="fill stroke markers"
         d="m 1523.5,655.5 -4,-4"
         stroke-opacity="1"
         stroke-miterlimit="10"
         id="path10" />
      <path
         fill="none"
         stroke="#252525"
         paint-order="fill stroke markers"
         d="m 1523.5,655.5 -4,4"
         stroke-opacity="1"
         stroke-miterlimit="10"
         id="path11" />
      <path
         fill="none"
         stroke="#006758"
         paint-order="fill stroke markers"
         d="M 348.65479,-10 349,-7.48 v 0 l 1,7.26 v 0 L 351,7 v 0 l 1,7.18 v 0 l 1,7.14 v 0 l 1,7.1 v 0 l 1,7.06 v 0 l 1,7.02 v 0 l 1,6.98 v 0 l 1,6.94 v 0 l 1,6.9 v 0 l 1,6.86 v 0 l 1,6.82 v 0 l 1,6.78 v 0 l 1,6.74 v 0 l 1,6.7 v 0 l 1,6.66 v 0 l 1,6.62 v 0 l 1,6.58 v 0 l 1,6.54 v 0 l 1,6.5 v 0 l 1,6.46 v 0 l 1,6.42 v 0 l 1,6.38 v 0 l 1,6.34 v 0 l 1,6.3 v 0 l 1,6.26 v 0 l 1,6.22 v 0 l 1,6.18 v 0 l 1,6.14 v 0 l 1,6.1 v 0 l 1,6.06 v 0 l 1,6.02 v 0 l 1,5.98 v 0 l 1,5.94 v 0 l 1,5.9 v 0 l 1,5.86 v 0 l 1,5.82 v 0 l 1,5.78 v 0 l 1,5.74 v 0 l 1,5.7 v 0 l 1,5.66 v 0 l 1,5.62 v 0 l 1,5.58 v 0 l 1,5.54 v 0 l 1,5.5 v 0 l 1,5.46 v 0 l 1,5.42 v 0 l 1,5.38 v 0 l 1,5.34 v 0 l 1,5.3 v 0 l 1,5.26 v 0 l 1,5.22 v 0 l 1,5.18 v 0 l 1,5.14 v 0 l 1,5.1 v 0 l 1,5.06 v 0 l 1,5.02 v 0 l 1,4.98 v 0 l 1,4.94 v 0 l 1,4.9 v 0 l 1,4.86 v 0 l 1,4.82 v 0 l 1,4.78 v 0 l 1,4.74 v 0 l 1,4.7 v 0 l 1,4.66 v 0 l 1,4.62 v 0 l 1,4.58 v 0 l 1,4.54 v 0 l 1,4.5 v 0 l 1,4.46 v 0 l 1,4.42 v 0 l 1,4.38 v 0 l 1,4.34 v 0 l 1,4.3 v 0 l 1,4.26 v 0 l 1,4.22 v 0 l 1,4.18 v 0 l 1,4.14 v 0 l 1,4.1 v 0 l 1,4.06 v 0 l 1,4.02 v 0 l 1,3.98 v 0 l 1,3.94 v 0 l 1,3.9 v 0 l 1,3.86 v 0 l 1,3.82 v 0 l 1,3.78 v 0 l 1,3.74 v 0 l 1,3.7 v 0 l 1,3.66 v 0 l 1,3.62 v 0 l 1,3.58 v 0 l 1,3.54 v 0 l 1,3.5 v 0 l 1,3.46 v 0 l 1,3.42 v 0 l 1,3.38 v 0 l 1,3.34 v 0 l 1,3.3 v 0 l 1,3.26 v 0 l 1,3.22 v 0 l 1,3.18 v 0 l 1,3.14 v 0 l 1,3.1 v 0 l 1,3.06 v 0 l 1,3.02 v 0 l 1,2.98 v 0 l 1,2.94 v 0 l 1,2.9 v 0 l 1,2.86 v 0 l 1,2.82 v 0 l 1,2.78 v 0 l 1,2.74 v 0 l 1,2.7 v 0 l 1,2.66 v 0 l 1,2.62 v 0 l 1,2.58 v 0 l 1,2.54 v 0 l 1,2.5 v 0 l 1,2.46 v 0 l 1,2.42 v 0 l 1,2.38 v 0 l 1,2.34 v 0 l 1,2.3 v 0 l 1,2.26 v 0 l 1,2.22 v 0 l 1,2.18 v 0 l 1,2.14 v 0 l 1,2.1 v 0 l 1,2.06 v 0 l 1,2.02 v 0 l 1,1.98 v 0 l 1,1.94 v 0 l 1,1.9 v 0 l 1,1.86 v 0 l 1,1.82 v 0 l 1,1.78 v 0 l 1,1.74 v 0 l 1,1.7 v 0 l 1,1.66 v 0 l 1,1.62 v 0 l 1,1.58 v 0 l 1,1.54 v 0 l 1,1.5 v 0 l 1,1.46 v 0 l 1,1.42 v 0 l 1,1.38 v 0 l 1,1.34 v 0 l 1,1.3 v 0 l 1,1.26 v 0 l 1,1.22 v 0 l 1,1.18 v 0 l 1,1.14 v 0 l 1,1.1 v 0 l 1,1.06 v 0 l 1,1.02 v 0 l 1,0.98 v 0 l 1,0.94 v 0 l 1,0.9 v 0 l 1,0.86 v 0 l 1,0.82 v 0 l 1,0.78 v 0 l 1,0.74 v 0 l 1,0.7 v 0 l 1,0.66 v 0 l 1,0.62 v 0 l 1,0.58 v 0 l 1,0.54 v 0 l 1,0.5 v 0 l 1,0.46 v 0 l 1,0.42 v 0 l 1,0.38 v 0 l 1,0.34 v 0 l 1,0.3 v 0 l 1,0.26 v 0 l 1,0.22 v 0 l 1,0.18 v 0 l 1,0.14 v 0 l 1,0.1 v 0 l 1,0.06 v 0 l 1,0.02 v 0 l 1,-0.02 v 0 l 1,-0.06 v 0 l 1,-0.1 v 0 l 1,-0.14 v 0 l 1,-0.18 v 0 l 1,-0.22 v 0 l 1,-0.26 v 0 l 1,-0.3 v 0 l 1,-0.34 v 0 l 1,-0.38 v 0 l 1,-0.42 v 0 l 1,-0.46 v 0 l 1,-0.5 v 0 l 1,-0.54 v 0 l 1,-0.58 v 0 l 1,-0.62 v 0 l 1,-0.66 v 0 l 1,-0.7 v 0 l 1,-0.74 v 0 l 1,-0.78 v 0 l 1,-0.82 v 0 l 1,-0.86 v 0 l 1,-0.9 v 0 l 1,-0.94 v 0 l 1,-0.98 v 0 l 1,-1.02 v 0 l 1,-1.06 v 0 l 1,-1.1 v 0 l 1,-1.14 v 0 l 1,-1.18 v 0 l 1,-1.22 v 0 l 1,-1.26 v 0 l 1,-1.3 v 0 l 1,-1.34 v 0 l 1,-1.38 v 0 l 1,-1.42 v 0 l 1,-1.46 v 0 l 1,-1.5 v 0 l 1,-1.54 v 0 l 1,-1.58 v 0 l 1,-1.62 v 0 l 1,-1.66 v 0 l 1,-1.7 v 0 l 1,-1.74 v 0 l 1,-1.78 v 0 l 1,-1.82 v 0 l 1,-1.86 v 0 l 1,-1.9 v 0 l 1,-1.94 v 0 l 1,-1.98 v 0 l 1,-2.02 v 0 l 1,-2.06 v 0 l 1,-2.1 v 0 l 1,-2.14 v 0 l 1,-2.18 v 0 l 1,-2.22 v 0 l 1,-2.26 v 0 l 1,-2.3 v 0 l 1,-2.34 v 0 l 1,-2.38 v 0 l 1,-2.42 v 0 l 1,-2.46 v 0 l 1,-2.5 v 0 l 1,-2.54 v 0 l 1,-2.58 v 0 l 1,-2.62 v 0 l 1,-2.66 v 0 l 1,-2.7 v 0 l 1,-2.74 v 0 l 1,-2.78 v 0 l 1,-2.82 v 0 l 1,-2.86 v 0 l 1,-2.9 v 0 l 1,-2.94 v 0 l 1,-2.98 v 0 l 1,-3.02 v 0 l 1,-3.06 v 0 l 1,-3.1 v 0 l 1,-3.14 v 0 l 1,-3.18 v 0 l 1,-3.22 v 0 l 1,-3.26 v 0 l 1,-3.3 v 0 l 1,-3.34 v 0 l 1,-3.38 v 0 l 1,-3.42 v 0 l 1,-3.46 v 0 l 1,-3.5 v 0 l 1,-3.54 v 0 l 1,-3.58 v 0 l 1,-3.62 v 0 l 1,-3.66 v 0 l 1,-3.7 v 0 l 1,-3.74 v 0 l 1,-3.78 v 0 l 1,-3.82 v 0 l 1,-3.86 v 0 l 1,-3.9 v 0 l 1,-3.94 v 0 l 1,-3.98 v 0 l 1,-4.02 v 0 l 1,-4.06 v 0 l 1,-4.1 v 0 l 1,-4.14 v 0 l 1,-4.18 v 0 l 1,-4.22 v 0 l 1,-4.26 v 0 l 1,-4.3 v 0 l 1,-4.34 v 0 l 1,-4.38 v 0 l 1,-4.42 v 0 l 1,-4.46 v 0 l 1,-4.5 v 0 l 1,-4.54 v 0 l 1,-4.58 v 0 l 1,-4.62 v 0 l 1,-4.66 v 0 l 1,-4.7 v 0 l 1,-4.74 v 0 l 1,-4.78 v 0 l 1,-4.82 v 0 l 1,-4.86 v 0 l 1,-4.9 v 0 l 1,-4.94 v 0 l 1,-4.98 v 0 l 1,-5.02 v 0 l 1,-5.06 v 0 l 1,-5.1 v 0 l 1,-5.14 v 0 l 1,-5.18 v 0 l 1,-5.22 v 0 l 1,-5.26 v 0 l 1,-5.3 v 0 l 1,-5.34 v 0 l 1,-5.38 v 0 l 1,-5.42 v 0 l 1,-5.46 v 0 l 1,-5.5 v 0 l 1,-5.54 v 0 l 1,-5.58 v 0 l 1,-5.62 v 0 l 1,-5.66 v 0 l 1,-5.7 v 0 l 1,-5.74 v 0 l 1,-5.78 v 0 l 1,-5.82 v 0 l 1,-5.86 v 0 l 1,-5.9 v 0 l 1,-5.94 v 0 l 1,-5.98 v 0 l 1,-6.02 v 0 l 1,-6.06 v 0 l 1,-6.1 v 0 l 1,-6.14 v 0 l 1,-6.18 v 0 l 1,-6.22 v 0 l 1,-6.26 v 0 l 1,-6.3 v 0 l 1,-6.34 v 0 l 1,-6.38 v 0 l 1,-6.42 v 0 l 1,-6.46 v 0 l 1,-6.5 v 0 l 1,-6.54 v 0 l 1,-6.58 v 0 l 1,-6.62 v 0 l 1,-6.66 v 0 l 1,-6.7 v 0 l 1,-6.74 v 0 L 701,77 v 0 l 1,-6.82 v 0 l 1,-6.86 v 0 l 1,-6.9 v 0 l 1,-6.94 v 0 l 1,-6.98 v 0 l 1,-7.02 v 0 l 1,-7.06 v 0 l 1,-7.1 v 0 l 1,-7.14 v 0 L 711,7 v 0 l 1,-7.22 v 0 l 1,-7.26 v 0 l 0.34521,-2.52"
         stroke-opacity="0.8"
         stroke-linecap="round"
         stroke-linejoin="round"
         stroke-miterlimit="10"
         stroke-width="2.5"
         id="path12" />
      <text
         fill="#006758"
         stroke="none"
         font-family="geogebra-sans-serif, sans-serif"
         font-size="16px"
         font-style="normal"
         font-weight="normal"
         text-decoration="normal"
         x="351"
         y="24"
         text-anchor="start"
         dominant-baseline="alphabetic"
         fill-opacity="1"
         id="text12">f</text>
      <path
         fill="#1565c0"
         stroke="none"
         paint-order="stroke fill markers"
         d="m 444.5,485.72 c 0,2.76142 -2.23858,5 -5,5 -2.76142,0 -5,-2.23858 -5,-5 0,-2.76142 2.23858,-5 5,-5 2.76142,0 5,2.23858 5,5 z"
         fill-opacity="1"
         id="path13" />
      <path
         fill="none"
         stroke="#000000"
         paint-order="fill stroke markers"
         d="m 444.5,485.72 c 0,2.76142 -2.23858,5 -5,5 -2.76142,0 -5,-2.23858 -5,-5 0,-2.76142 2.23858,-5 5,-5 2.76142,0 5,2.23858 5,5 z"
         stroke-opacity="1"
         stroke-linecap="round"
         stroke-linejoin="round"
         stroke-miterlimit="10"
         id="path14" />
      <text
         fill="#1565c0"
         stroke="none"
         font-family="geogebra-sans-serif, sans-serif"
         font-size="16px"
         font-style="normal"
         font-weight="normal"
         text-decoration="normal"
         x="443"
         y="476"
         text-anchor="start"
         dominant-baseline="alphabetic"
         fill-opacity="1"
         id="text14">p</text>
    </g>
  </g>
  <path
     d="M 102.14438,10.604469 V 2.2044693 h 3.636 q 1.128,0 1.944,0.372 0.816,0.36 1.26,1.044 0.444,0.684 0.444,1.632 0,0.936 -0.444,1.62 -0.444,0.684 -1.26,1.056 -0.816,0.36 -1.944,0.36 h -2.556 l 0.864,-0.876 v 3.1919997 z m 1.944,-2.9759997 -0.864,-0.924 h 2.448 q 0.9,0 1.344,-0.384 0.444,-0.384 0.444,-1.068 0,-0.696 -0.444,-1.08 -0.444,-0.384 -1.344,-0.384 h -2.448 l 0.864,-0.924 z m 10.48801,2.9759997 V 9.3444693 l -0.12,-0.276 v -2.256 q 0,-0.6 -0.372,-0.936 -0.36,-0.336 -1.116,-0.336 -0.516,0 -1.02,0.168 -0.492,0.156 -0.84,0.432 l -0.672,-1.308 q 0.528,-0.372 1.272,-0.576 0.744,-0.204 1.512,-0.204 1.476,0 2.292,0.696 0.816,0.696 0.816,2.172 v 3.6839997 z m -1.968,0.096 q -0.756,0 -1.296,-0.252 -0.54,-0.264 -0.828,-0.7079997 -0.288,-0.444 -0.288,-0.996 0,-0.576 0.276,-1.008 0.288,-0.432 0.9,-0.672 0.612,-0.252 1.596,-0.252 h 1.716 v 1.092 h -1.512 q -0.66,0 -0.912,0.216 -0.24,0.216 -0.24,0.54 0,0.36 0.276,0.576 0.288,0.204 0.78,0.204 0.468,0 0.84,-0.216 0.372,-0.228 0.54,-0.66 l 0.288,0.864 q -0.204,0.6239997 -0.744,0.9479997 -0.54,0.324 -1.392,0.324 z m 5.412,-0.096 V 4.1484693 h 1.788 v 1.824 l -0.252,-0.528 q 0.288,-0.684 0.924,-1.032 0.636,-0.36 1.548,-0.36 v 1.728 q -0.12,-0.012 -0.216,-0.012 -0.096,-0.012 -0.204,-0.012 -0.768,0 -1.248,0.444 -0.468,0.432 -0.468,1.356 v 3.0479997 z m 8.66346,0 V 9.3444693 l -0.12,-0.276 v -2.256 q 0,-0.6 -0.372,-0.936 -0.36,-0.336 -1.116,-0.336 -0.516,0 -1.02,0.168 -0.492,0.156 -0.84,0.432 l -0.672,-1.308 q 0.528,-0.372 1.272,-0.576 0.744,-0.204 1.512,-0.204 1.476,0 2.292,0.696 0.816,0.696 0.816,2.172 v 3.6839997 z m -1.968,0.096 q -0.756,0 -1.296,-0.252 -0.54,-0.264 -0.828,-0.7079997 -0.288,-0.444 -0.288,-0.996 0,-0.576 0.276,-1.008 0.288,-0.432 0.9,-0.672 0.612,-0.252 1.596,-0.252 h 1.716 v 1.092 h -1.512 q -0.66,0 -0.912,0.216 -0.24,0.216 -0.24,0.54 0,0.36 0.276,0.576 0.288,0.204 0.78,0.204 0.468,0 0.84,-0.216 0.372,-0.228 0.54,-0.66 l 0.288,0.864 q -0.204,0.6239997 -0.744,0.9479997 -0.54,0.324 -1.392,0.324 z m 5.412,-0.096 V 4.1484693 h 1.788 v 1.764 l -0.336,-0.516 q 0.336,-0.66 0.948,-0.996 0.624,-0.348 1.416,-0.348 0.888,0 1.548,0.456 0.672,0.444 0.888,1.368 l -0.66,-0.18 q 0.324,-0.756 1.032,-1.2 0.72,-0.444 1.644,-0.444 0.768,0 1.356,0.312 0.6,0.3 0.936,0.936 0.348,0.624 0.348,1.608 v 3.6959997 h -1.872 V 7.1964693 q 0,-0.78 -0.324,-1.152 -0.324,-0.372 -0.912,-0.372 -0.408,0 -0.732,0.192 -0.324,0.18 -0.504,0.552 -0.18,0.372 -0.18,0.948 v 3.2399997 h -1.872 V 7.1964693 q 0,-0.78 -0.324,-1.152 -0.312,-0.372 -0.9,-0.372 -0.408,0 -0.732,0.192 -0.324,0.18 -0.504,0.552 -0.18,0.372 -0.18,0.948 v 3.2399997 z m 15.83963,0.096 q -1.104,0 -1.944,-0.432 -0.828,-0.4319997 -1.284,-1.1759997 -0.456,-0.756 -0.456,-1.716 0,-0.972 0.444,-1.716 0.456,-0.756 1.236,-1.176 0.78,-0.432 1.764,-0.432 0.948,0 1.704,0.408 0.768,0.396 1.212,1.152 0.444,0.744 0.444,1.788 0,0.108 -0.012,0.252 -0.012,0.132 -0.024,0.252 h -5.244 v -1.092 h 4.26 l -0.72,0.324 q 0,-0.504 -0.204,-0.876 -0.204,-0.372 -0.564,-0.576 -0.36,-0.216 -0.84,-0.216 -0.48,0 -0.852,0.216 -0.36,0.204 -0.564,0.588 -0.204,0.372 -0.204,0.888 v 0.288 q 0,0.528 0.228,0.936 0.24,0.396 0.66,0.612 0.432,0.204 1.008,0.204 0.516,0 0.9,-0.156 0.396,-0.156 0.72,-0.468 l 0.996,1.08 q -0.444,0.5039997 -1.116,0.7799997 -0.672,0.264 -1.548,0.264 z m 7.00801,0 q -1.14,0 -1.776,-0.576 -0.636,-0.5879997 -0.636,-1.7399997 v -5.664 h 1.872 v 5.64 q 0,0.408 0.216,0.636 0.216,0.216 0.588,0.216 0.444,0 0.756,-0.24 l 0.504,1.3199997 q -0.288,0.204 -0.696,0.312 -0.396,0.096 -0.828,0.096 z m -3.408,-5.1119997 v -1.44 h 4.476 v 1.44 z m 8.99028,5.1119997 q -1.104,0 -1.944,-0.432 -0.828,-0.4319997 -1.284,-1.1759997 -0.456,-0.756 -0.456,-1.716 0,-0.972 0.444,-1.716 0.456,-0.756 1.236,-1.176 0.78,-0.432 1.764,-0.432 0.948,0 1.704,0.408 0.768,0.396 1.212,1.152 0.444,0.744 0.444,1.788 0,0.108 -0.012,0.252 -0.012,0.132 -0.024,0.252 h -5.244 v -1.092 h 4.26 l -0.72,0.324 q 0,-0.504 -0.204,-0.876 -0.204,-0.372 -0.564,-0.576 -0.36,-0.216 -0.84,-0.216 -0.48,0 -0.852,0.216 -0.36,0.204 -0.564,0.588 -0.204,0.372 -0.204,0.888 v 0.288 q 0,0.528 0.228,0.936 0.24,0.396 0.66,0.612 0.432,0.204 1.008,0.204 0.516,0 0.9,-0.156 0.396,-0.156 0.72,-0.468 l 0.996,1.08 q -0.444,0.5039997 -1.116,0.7799997 -0.672,0.264 -1.548,0.264 z m 4.36801,-0.096 V 4.1484693 h 1.788 v 1.824 l -0.252,-0.528 q 0.288,-0.684 0.924,-1.032 0.636,-0.36 1.548,-0.36 v 1.728 q -0.12,-0.012 -0.216,-0.012 -0.096,-0.012 -0.204,-0.012 -0.768,0 -1.248,0.444 -0.468,0.432 -0.468,1.356 v 3.0479997 z"
     id="text16"
     style="font-size:12px;line-height:0;font-family:Montserrat;-inkscape-font-specification:'Montserrat, @wght=700';font-variation-settings:'wght' 700;fill:#3d5562;stroke:#3d5562;stroke-width:3.05386;stroke-linecap:round;stroke-opacity:0"
     aria-label="Parameter" />
  <path
     d="m -144.77071,8.1813268 q -0.972,0 -1.812,-0.312 -0.828,-0.324 -1.44,-0.912 -0.612,-0.588 -0.96,-1.38 -0.336,-0.792 -0.336,-1.74 0,-0.948 0.336,-1.74 0.348,-0.792 0.96,-1.37999999 0.624,-0.588 1.452,-0.9 0.828,-0.324 1.812,-0.324 1.092,0 1.968,0.384 0.888,0.372 1.488,1.104 l -1.248,1.15199999 q -0.432,-0.492 -0.96,-0.732 -0.528,-0.252 -1.152,-0.252 -0.588,0 -1.08,0.192 -0.492,0.192 -0.852,0.552 -0.36,0.36 -0.564,0.852 -0.192,0.492 -0.192,1.092 0,0.6 0.192,1.092 0.204,0.492 0.564,0.852 0.36,0.36 0.852,0.552 0.492,0.192 1.08,0.192 0.624,0 1.152,-0.24 0.528,-0.252 0.96,-0.756 l 1.248,1.152 q -0.6,0.732 -1.488,1.116 -0.876,0.384 -1.98,0.384 z m 7.3846,-0.048 q -1.032,0 -1.836,-0.432 -0.792,-0.432 -1.26,-1.176 -0.456,-0.756 -0.456,-1.716 0,-0.972 0.456,-1.716 0.468,-0.756 1.26,-1.176 0.804,-0.432 1.836,-0.432 1.02,0 1.824,0.432 0.804,0.42 1.26,1.164 0.456,0.744 0.456,1.728 0,0.96 -0.456,1.716 -0.456,0.744 -1.26,1.176 -0.804,0.432 -1.824,0.432 z m 0,-1.536 q 0.468,0 0.84,-0.216 0.372,-0.216 0.588,-0.612 0.216,-0.408 0.216,-0.96 0,-0.564 -0.216,-0.96 -0.216,-0.396 -0.588,-0.612 -0.372,-0.216 -0.84,-0.216 -0.468,0 -0.84,0.216 -0.372,0.216 -0.6,0.612 -0.216,0.396 -0.216,0.96 0,0.552 0.216,0.96 0.228,0.396 0.6,0.612 0.372,0.216 0.84,0.216 z m 6.96001,1.536 q -0.828,0 -1.596,-0.192 -0.756,-0.204 -1.2,-0.504 l 0.624,-1.344 q 0.444,0.276 1.044,0.456 0.612,0.168 1.2,0.168 0.648,0 0.912,-0.156 0.276,-0.156 0.276,-0.432 0,-0.228 -0.216,-0.336 -0.204,-0.12 -0.552,-0.18 -0.348,-0.06 -0.768,-0.12 -0.408,-0.06 -0.828,-0.156 -0.42,-0.108 -0.768,-0.312 -0.348,-0.204 -0.564,-0.552 -0.204,-0.348 -0.204,-0.9 0,-0.612 0.348,-1.08 0.36,-0.468 1.032,-0.732 0.672,-0.276 1.608,-0.276 0.66,0 1.344,0.144 0.684,0.144 1.14,0.42 l -0.624,1.332 q -0.468,-0.276 -0.948,-0.372 -0.468,-0.108 -0.912,-0.108 -0.624,0 -0.912,0.168 -0.288,0.168 -0.288,0.432 0,0.24 0.204,0.36 0.216,0.12 0.564,0.192 0.348,0.072 0.756,0.132 0.42,0.048 0.84,0.156 0.42,0.108 0.756,0.312 0.348,0.192 0.564,0.54 0.216,0.336 0.216,0.888 0,0.6 -0.36,1.068 -0.36,0.456 -1.044,0.72 -0.672,0.264 -1.644,0.264 z m 6.84,0 q -1.14,0 -1.776,-0.576 -0.636,-0.588 -0.636,-1.74 V 0.15332681 h 1.872 V 5.7933268 q 0,0.408 0.216,0.636 0.216,0.216 0.588,0.216 0.444,0 0.756,-0.24 l 0.504,1.32 q -0.288,0.204 -0.696,0.312 -0.396,0.096 -0.828,0.096 z m -3.408,-5.112 v -1.44 h 4.476 v 1.44 z"
     id="text16-4"
     style="font-size:12px;line-height:0;font-family:Montserrat;-inkscape-font-specification:'Montserrat, @wght=700';font-variation-settings:'wght' 700;fill:#3d5562;stroke:#3d5562;stroke-width:3.05386;stroke-linecap:round;stroke-opacity:0"
     transform="rotate(-91.012228)"
     aria-label="Cost" />
</svg>
