<?xml version="1.0" encoding="UTF-8" standalone="no"?>
<svg
   version="1.1"
   width="250"
   height="250"
   id="svg14"
   sodipodi:docname="scaled-vector.svg"
   inkscape:version="1.4.2 (f4327f4, 2025-05-13)"
   xmlns:inkscape="http://www.inkscape.org/namespaces/inkscape"
   xmlns:sodipodi="http://sodipodi.sourceforge.net/DTD/sodipodi-0.dtd"
   xmlns="http://www.w3.org/2000/svg"
   xmlns:svg="http://www.w3.org/2000/svg">
  <sodipodi:namedview
     id="namedview14"
     pagecolor="#ffffff"
     bordercolor="#000000"
     borderopacity="0.25"
     inkscape:showpageshadow="2"
     inkscape:pageopacity="0.0"
     inkscape:pagecheckerboard="0"
     inkscape:deskcolor="#d1d1d1"
     inkscape:zoom="2.5975351"
     inkscape:cx="33.300801"
     inkscape:cy="146.10005"
     inkscape:window-width="2560"
     inkscape:window-height="1417"
     inkscape:window-x="-8"
     inkscape:window-y="-8"
     inkscape:window-maximized="1"
     inkscape:current-layer="svg14" />
  <defs
     id="defs1">
    <clipPath
       id="iOuoAvBkwsCO">
      <path
         fill="none"
         stroke="none"
         d="M 0,0 H 1524 V 931 H 0 Z"
         id="path1" />
    </clipPath>
    <clipPath
       clipPathUnits="userSpaceOnUse"
       id="clipPath14">
      <rect
         style="font-variation-settings:'wght' 700;fill:#3d5562;stroke:#3d5562;stroke-width:8.22981;stroke-linecap:round;stroke-opacity:0;-inkscape-stroke:none"
         id="rect15"
         width="474.8392"
         height="475.00897"
         x="294.49548"
         y="268.49548" />
    </clipPath>
  </defs>
  <g
     transform="matrix(0.52630585,0,0,0.52630585,-154.99469,-141.31074)"
     clip-path="url(#clipPath14)"
     id="g14">
    <g
       id="g13">
      <rect
         fill="#ffffff"
         stroke="none"
         x="0"
         y="0"
         width="1524"
         height="931"
         fill-opacity="1"
         id="rect1" />
      <path
         fill="none"
         stroke="#c0c0c0"
         paint-order="fill stroke markers"
         d="m 57.5,0.5 v 931 m 0,-931 v 931 m 59,-931 v 931 m 60,-931 v 931 m 59,-931 v 931 m 59,-931 v 931 m 60,-931 v 931 m 59,-931 v 931 m 59,-931 v 931 m 119,-931 v 931 m 59,-931 v 931 m 60,-931 v 931 m 59,-931 v 931 m 59,-931 v 931 m 60,-931 v 931 m 59,-931 v 931 m 59,-931 v 931 m 60,-931 v 931 m 59,-931 v 931 m 60,-931 v 931 m 59,-931 v 931 m 59,-931 v 931 m 60,-931 v 931 m 59,-931 v 931 m 59,-931 v 931"
         stroke-opacity="1"
         stroke-linecap="round"
         stroke-linejoin="round"
         stroke-miterlimit="10"
         id="path2" />
      <path
         fill="none"
         stroke="#c0c0c0"
         paint-order="fill stroke markers"
         d="m 9.5,0.5 v 931 m 12,-931 v 931 m 12,-931 v 931 m 12,-931 v 931 m 24,-931 v 931 m 12,-931 v 931 m 12,-931 v 931 m 11,-931 v 931 m 24,-931 v 931 m 12,-931 v 931 m 12,-931 v 931 m 12,-931 v 931 m 24,-931 v 931 m 11,-931 v 931 m 12,-931 v 931 m 12,-931 v 931 m 24,-931 v 931 m 12,-931 v 931 m 12,-931 v 931 m 11,-931 v 931 m 24,-931 v 931 m 12,-931 v 931 m 12,-931 v 931 m 12,-931 v 931 m 24,-931 v 931 m 11,-931 v 931 m 12,-931 v 931 m 12,-931 v 931 m 24,-931 v 931 m 12,-931 v 931 m 12,-931 v 931 m 12,-931 v 931 m 23,-931 v 931 m 12,-931 v 931 m 12,-931 v 931 m 12,-931 v 931 m 24,-931 v 931 m 11,-931 v 931 m 12,-931 v 931 m 12,-931 v 931 m 24,-931 v 931 m 12,-931 v 931 m 12,-931 v 931 m 12,-931 v 931 m 23,-931 v 931 m 12,-931 v 931 m 12,-931 v 931 m 12,-931 v 931 m 24,-931 v 931 m 12,-931 v 931 m 11,-931 v 931 m 12,-931 v 931 m 24,-931 v 931 m 12,-931 v 931 m 12,-931 v 931 m 12,-931 v 931 m 23,-931 v 931 m 12,-931 v 931 m 12,-931 v 931 m 12,-931 v 931 m 24,-931 v 931 m 12,-931 v 931 m 11,-931 v 931 m 12,-931 v 931 m 24,-931 v 931 m 12,-931 v 931 m 12,-931 v 931 m 12,-931 v 931 m 23,-931 v 931 m 12,-931 v 931 m 12,-931 v 931 m 12,-931 v 931 m 24,-931 v 931 m 12,-931 v 931 m 11,-931 v 931 m 12,-931 v 931 m 24,-931 v 931 m 12,-931 v 931 m 12,-931 v 931 m 12,-931 v 931 m 23,-931 v 931 m 12,-931 v 931 m 12,-931 v 931 m 12,-931 v 931 m 24,-931 v 931 m 12,-931 v 931 m 11,-931 v 931 m 12,-931 v 931 m 24,-931 v 931 m 12,-931 v 931 m 12,-931 v 931 m 12,-931 v 931 m 23,-931 v 931 m 12,-931 v 931 m 12,-931 v 931 m 12,-931 v 931 m 24,-931 v 931 m 12,-931 v 931 m 12,-931 v 931 m 11,-931 v 931 m 24,-931 v 931 m 12,-931 v 931 m 12,-931 v 931"
         stroke-opacity="0.235294"
         stroke-linecap="round"
         stroke-linejoin="round"
         stroke-miterlimit="10"
         id="path3" />
      <path
         fill="none"
         stroke="#c0c0c0"
         paint-order="fill stroke markers"
         d="m 0.5,31.5 h 1524 m -1524,0 h 1524 m -1524,59 h 1524 m -1524,60 h 1524 m -1524,59 h 1524 m -1524,59 h 1524 m -1524,60 h 1524 m -1524,59 h 1524 m -1524,60 h 1524 m -1524,118 h 1524 m -1524,60 h 1524 m -1524,59 h 1524 m -1524,59 h 1524 m -1524,60 h 1524 m -1524,59 h 1524 m -1524,59 h 1524"
         stroke-opacity="1"
         stroke-linecap="round"
         stroke-linejoin="round"
         stroke-miterlimit="10"
         id="path4" />
      <path
         fill="none"
         stroke="#c0c0c0"
         paint-order="fill stroke markers"
         d="m 0.5,7.5 h 1524 m -1524,0 h 1524 m -1524,12 h 1524 m -1524,24 h 1524 m -1524,12 h 1524 m -1524,12 h 1524 m -1524,12 h 1524 m -1524,23 h 1524 m -1524,12 h 1524 m -1524,12 h 1524 m -1524,12 h 1524 m -1524,24 h 1524 m -1524,12 h 1524 m -1524,11 h 1524 m -1524,12 h 1524 m -1524,24 h 1524 m -1524,12 h 1524 m -1524,12 h 1524 m -1524,12 h 1524 m -1524,23 h 1524 m -1524,12 h 1524 m -1524,12 h 1524 m -1524,12 h 1524 m -1524,24 h 1524 m -1524,12 h 1524 m -1524,11 h 1524 m -1524,12 h 1524 m -1524,24 h 1524 m -1524,12 h 1524 m -1524,12 h 1524 m -1524,12 h 1524 m -1524,23 h 1524 m -1524,12 h 1524 m -1524,12 h 1524 m -1524,12 h 1524 m -1524,24 h 1524 m -1524,12 h 1524 m -1524,11 h 1524 m -1524,12 h 1524 m -1524,24 h 1524 m -1524,12 h 1524 m -1524,12 h 1524 m -1524,12 h 1524 m -1524,23 h 1524 m -1524,12 h 1524 m -1524,12 h 1524 m -1524,12 h 1524 m -1524,24 h 1524 m -1524,12 h 1524 m -1524,12 h 1524 m -1524,11 h 1524 m -1524,24 h 1524 m -1524,12 h 1524 m -1524,12 h 1524 m -1524,12 h 1524 m -1524,23 h 1524 m -1524,12 h 1524 m -1524,12 h 1524 m -1524,12 h 1524 m -1524,24 h 1524 m -1524,12 h 1524 m -1524,12 h 1524 m -1524,11 h 1524"
         stroke-opacity="0.235294"
         stroke-linecap="round"
         stroke-linejoin="round"
         stroke-miterlimit="10"
         id="path5" />
      <path
         fill="none"
         stroke="#252525"
         paint-order="fill stroke markers"
         d="m 532.5,2.5 v 929"
         stroke-opacity="1"
         stroke-miterlimit="10"
         id="path6" />
      <path
         fill="none"
         stroke="#252525"
         paint-order="fill stroke markers"
         d="m 532.5,1.5 -4,4"
         stroke-opacity="1"
         stroke-miterlimit="10"
         id="path7" />
      <path
         fill="none"
         stroke="#252525"
         paint-order="fill stroke markers"
         d="m 532.5,1.5 4,4"
         stroke-opacity="1"
         stroke-miterlimit="10"
         id="path8" />
      <path
         fill="none"
         stroke="#252525"
         paint-order="fill stroke markers"
         d="m 0.5,506.5 h 1522"
         stroke-opacity="1"
         stroke-miterlimit="10"
         id="path9" />
      <path
         fill="none"
         stroke="#252525"
         paint-order="fill stroke markers"
         d="m 1523.5,506.5 -4,-4"
         stroke-opacity="1"
         stroke-miterlimit="10"
         id="path10" />
      <path
         fill="none"
         stroke="#252525"
         paint-order="fill stroke markers"
         d="m 1523.5,506.5 -4,4"
         stroke-opacity="1"
         stroke-miterlimit="10"
         id="path11" />
      <path
         fill="#000000"
         stroke="none"
         paint-order="stroke fill markers"
         d="m 591.57619,387.6779 -11.40395,13.30461 2.68328,1.34164 -51.74255,103.4851 c -0.30873,0.61747 -0.0584,1.36831 0.55902,1.67705 0.17946,0.0897 0.37018,0.13224 0.55805,0.13224 0.45852,0 0.89999,-0.25325 1.119,-0.69126 l 51.74255,-103.4851 2.68328,1.34164 z"
         fill-opacity="0.698039"
         id="path12" />
      <text
         fill="#000000"
         stroke="none"
         font-family="geogebra-sans-serif, sans-serif"
         font-size="16px"
         font-style="normal"
         font-weight="normal"
         text-decoration="normal"
         x="558"
         y="445"
         text-anchor="start"
         dominant-baseline="alphabetic"
         fill-opacity="1"
         id="text12">v</text>
      <path
         fill="#000000"
         stroke="none"
         paint-order="stroke fill markers"
         d="m 650.92137,268.98754 -11.40395,13.3046 2.68328,1.34164 -111.08773,222.17547 c -0.30873,0.61747 -0.0584,1.36831 0.55902,1.67705 0.17946,0.0897 0.37018,0.13224 0.55805,0.13224 0.45852,0 0.89999,-0.25325 1.119,-0.69126 l 111.08773,-222.17546 2.68328,1.34164 z"
         fill-opacity="0.698039"
         id="path13" />
      <text
         fill="#000000"
         stroke="none"
         font-family="geogebra-sans-serif, sans-serif"
         font-size="16px"
         font-style="normal"
         font-weight="normal"
         text-decoration="normal"
         x="587"
         y="385"
         text-anchor="start"
         dominant-baseline="alphabetic"
         fill-opacity="1"
         id="text13">u</text>
    </g>
  </g>
</svg>
