<?xml version="1.0" encoding="UTF-8" standalone="no"?>
<!-- Created with Inkscape (http://www.inkscape.org/) -->

<svg
   width="255.99998"
   height="255.99998"
   viewBox="0 0 67.733328 67.733329"
   version="1.1"
   id="svg1"
   xmlns="http://www.w3.org/2000/svg"
   xmlns:svg="http://www.w3.org/2000/svg">
  <defs
     id="defs1" />
  <g
     id="layer1">
    <path
       style="fill:#181c57;fill-opacity:0;stroke:#3d5562;stroke-width:0.808;stroke-linecap:round;stroke-dasharray:none"
       id="path1"
       d="m 31.057606,16.215942 a 10.5,10.5 0 0 1 -10.49598,10.5 A 10.5,10.5 0 0 1 10.057609,16.223983 10.5,10.5 0 0 1 20.545544,5.7159493 10.5,10.5 0 0 1 31.057593,16.199861" />
    <path
       style="fill:#181c57;fill-opacity:0;stroke:#3d5562;stroke-width:0.808245;stroke-linecap:round"
       id="path1-1"
       d="M 44.366665,50.934101 A 10.5,10.5 0 0 1 33.870685,61.4341 10.5,10.5 0 0 1 23.366668,50.942142 10.5,10.5 0 0 1 33.854603,40.434108 10.5,10.5 0 0 1 44.366653,50.918019" />
    <path
       style="fill:#181c57;fill-opacity:0;stroke:#3d5562;stroke-width:0.808245;stroke-linecap:round"
       id="path1-8"
       d="m 57.722416,16.215942 a 10.5,10.5 0 0 1 -10.49598,10.5 A 10.5,10.5 0 0 1 36.722419,16.223983 10.5,10.5 0 0 1 47.210355,5.7159493 10.5,10.5 0 0 1 57.722404,16.199861" />
    <path
       d="m 13.937649,17.452604 v -2.2225 h 0.962025 q 0.29845,0 0.51435,0.09842 0.2159,0.09525 0.333375,0.276225 0.117475,0.180975 0.117475,0.4318 0,0.24765 -0.117475,0.428625 -0.117475,0.180975 -0.333375,0.2794 -0.2159,0.09525 -0.51435,0.09525 h -0.676275 l 0.2286,-0.231775 v 0.84455 z m 0.51435,-0.7874 -0.2286,-0.244475 h 0.6477 q 0.238125,0 0.3556,-0.1016 0.117475,-0.1016 0.117475,-0.282575 0,-0.18415 -0.117475,-0.28575 -0.117475,-0.1016 -0.3556,-0.1016 h -0.6477 l 0.2286,-0.244475 z m 1.742276,0.7874 v -1.70815 h 0.473075 v 0.4826 l -0.06668,-0.1397 q 0.0762,-0.180975 0.244475,-0.27305 0.168275,-0.09525 0.409575,-0.09525 v 0.4572 q -0.03175,-0.0032 -0.05715,-0.0032 -0.0254,-0.0032 -0.05398,-0.0032 -0.2032,0 -0.3302,0.117475 -0.123825,0.1143 -0.123825,0.358775 v 0.80645 z m 2.292205,0 v -0.333375 l -0.03175,-0.07303 v -0.5969 q 0,-0.15875 -0.09843,-0.24765 -0.09525,-0.0889 -0.295275,-0.0889 -0.136525,0 -0.269875,0.04445 -0.130175,0.04127 -0.22225,0.1143 l -0.1778,-0.346075 q 0.1397,-0.09842 0.33655,-0.1524 0.19685,-0.05397 0.40005,-0.05397 0.390525,0 0.606425,0.18415 0.2159,0.18415 0.2159,0.574675 v 0.974725 z m -0.5207,0.0254 q -0.200025,0 -0.3429,-0.06668 -0.142875,-0.06985 -0.219075,-0.187325 -0.0762,-0.117475 -0.0762,-0.263525 0,-0.1524 0.07303,-0.2667 0.0762,-0.1143 0.238125,-0.1778 0.161925,-0.06668 0.422275,-0.06668 h 0.454025 v 0.288925 h -0.40005 q -0.174625,0 -0.2413,0.05715 -0.0635,0.05715 -0.0635,0.142875 0,0.09525 0.07303,0.1524 0.0762,0.05397 0.206375,0.05397 0.123825,0 0.22225,-0.05715 0.09842,-0.06032 0.142875,-0.174625 l 0.0762,0.2286 q -0.05398,0.1651 -0.19685,0.250825 -0.142875,0.08573 -0.3683,0.08573 z m 2.270029,0 q -0.276225,0 -0.492125,-0.111125 -0.2159,-0.1143 -0.339725,-0.314325 -0.12065,-0.200025 -0.12065,-0.454025 0,-0.257175 0.12065,-0.454025 0.123825,-0.200025 0.339725,-0.31115 0.2159,-0.1143 0.492125,-0.1143 0.269875,0 0.4699,0.1143 0.200025,0.111125 0.295275,0.320675 l -0.384175,0.206375 q -0.06668,-0.12065 -0.168275,-0.1778 -0.09842,-0.05715 -0.2159,-0.05715 -0.127,0 -0.2286,0.05715 -0.1016,0.05715 -0.161925,0.161925 -0.05715,0.104775 -0.05715,0.254 0,0.149225 0.05715,0.254 0.06032,0.104775 0.161925,0.161925 0.1016,0.05715 0.2286,0.05715 0.117475,0 0.2159,-0.05398 0.1016,-0.05715 0.168275,-0.180975 l 0.384175,0.20955 q -0.09525,0.206375 -0.295275,0.320675 -0.200025,0.111125 -0.4699,0.111125 z m 1.775427,0 q -0.301625,0 -0.4699,-0.1524 -0.168275,-0.155575 -0.168275,-0.460375 v -1.4986 h 0.4953 v 1.49225 q 0,0.10795 0.05715,0.168275 0.05715,0.05715 0.155575,0.05715 0.117475,0 0.200025,-0.0635 l 0.13335,0.34925 q -0.0762,0.05398 -0.18415,0.08255 -0.104775,0.0254 -0.219075,0.0254 z m -0.9017,-1.35255 v -0.381 h 1.184275 v 0.381 z m 1.584324,1.32715 v -1.70815 h 0.4953 v 1.70815 z m 0.24765,-1.946275 q -0.136525,0 -0.22225,-0.07937 -0.08573,-0.07938 -0.08573,-0.19685 0,-0.117475 0.08573,-0.19685 0.08573,-0.07937 0.22225,-0.07937 0.136525,0 0.22225,0.0762 0.08573,0.07302 0.08573,0.1905 0,0.123825 -0.08573,0.206375 -0.08255,0.07937 -0.22225,0.07937 z m 1.533527,1.971675 q -0.276225,0 -0.492125,-0.111125 -0.2159,-0.1143 -0.339725,-0.314325 -0.12065,-0.200025 -0.12065,-0.454025 0,-0.257175 0.12065,-0.454025 0.123825,-0.200025 0.339725,-0.31115 0.2159,-0.1143 0.492125,-0.1143 0.269875,0 0.4699,0.1143 0.200025,0.111125 0.295275,0.320675 l -0.384175,0.206375 q -0.06668,-0.12065 -0.168275,-0.1778 -0.09842,-0.05715 -0.2159,-0.05715 -0.127,0 -0.2286,0.05715 -0.1016,0.05715 -0.161925,0.161925 -0.05715,0.104775 -0.05715,0.254 0,0.149225 0.05715,0.254 0.06032,0.104775 0.161925,0.161925 0.1016,0.05715 0.2286,0.05715 0.117475,0 0.2159,-0.05398 0.1016,-0.05715 0.168275,-0.180975 l 0.384175,0.20955 q -0.09525,0.206375 -0.295275,0.320675 -0.200025,0.111125 -0.4699,0.111125 z m 1.877029,0 q -0.2921,0 -0.51435,-0.1143 -0.219075,-0.1143 -0.339725,-0.31115 -0.12065,-0.200025 -0.12065,-0.454025 0,-0.257175 0.117475,-0.454025 0.12065,-0.200025 0.327025,-0.31115 0.206375,-0.1143 0.466725,-0.1143 0.250825,0 0.45085,0.10795 0.2032,0.104775 0.320675,0.3048 0.117475,0.19685 0.117475,0.473075 0,0.02858 -0.0032,0.06668 -0.0032,0.03493 -0.0064,0.06668 h -1.387475 v -0.288925 h 1.127125 l -0.1905,0.08573 q 0,-0.13335 -0.05398,-0.231775 -0.05397,-0.09842 -0.149225,-0.1524 -0.09525,-0.05715 -0.22225,-0.05715 -0.127,0 -0.225425,0.05715 -0.09525,0.05398 -0.149225,0.155575 -0.05397,0.09842 -0.05397,0.23495 v 0.0762 q 0,0.1397 0.06032,0.24765 0.0635,0.104775 0.174625,0.161925 0.1143,0.05398 0.2667,0.05398 0.136525,0 0.238125,-0.04128 0.104775,-0.04127 0.1905,-0.123825 l 0.263525,0.28575 q -0.117475,0.13335 -0.295275,0.206375 -0.1778,0.06985 -0.409575,0.06985 z"
       id="text15"
       style="font-size:3.175px;line-height:0;font-family:Montserrat;-inkscape-font-specification:'Montserrat, @wght=700';font-variation-settings:'wght' 700;fill:#3d5562;stroke:#3d5562;stroke-width:0.1;stroke-linecap:round;stroke-opacity:0"
       aria-label="Practice" />
    <path
       d="m 38.707891,17.144629 v -2.2225 h 1.679575 v 0.41275 h -1.1684 v 1.397 h 1.209675 v 0.41275 z m 0.473075,-0.9271 v -0.40005 h 1.069975 v 0.40005 z m 1.622424,0.9271 v -1.70815 h 0.473075 v 0.473075 l -0.0889,-0.142875 q 0.09208,-0.17145 0.263525,-0.263525 0.17145,-0.09207 0.390525,-0.09207 0.2032,0 0.36195,0.08255 0.161925,0.07937 0.254,0.24765 0.09207,0.1651 0.09207,0.42545 v 0.9779 h -0.4953 v -0.9017 q 0,-0.206375 -0.09208,-0.3048 -0.0889,-0.09843 -0.254,-0.09843 -0.117475,0 -0.212725,0.0508 -0.09208,0.04763 -0.14605,0.149225 -0.0508,0.1016 -0.0508,0.26035 v 0.84455 z m 2.066925,0.64135 q -0.1143,0 -0.219075,-0.0254 -0.104775,-0.02222 -0.1778,-0.06985 l 0.13335,-0.358775 q 0.08573,0.06032 0.20955,0.06032 0.09208,0 0.14605,-0.0635 0.05715,-0.06033 0.05715,-0.18415 v -1.70815 h 0.4953 v 1.704975 q 0,0.295275 -0.168275,0.4699 -0.168275,0.174625 -0.47625,0.174625 z m 0.396875,-2.587625 q -0.136525,0 -0.22225,-0.07938 -0.08572,-0.07937 -0.08572,-0.19685 0,-0.117475 0.08572,-0.19685 0.08573,-0.07938 0.22225,-0.07938 0.136525,0 0.22225,0.0762 0.08572,0.07302 0.08572,0.1905 0,0.123825 -0.08572,0.206375 -0.08255,0.07938 -0.22225,0.07938 z m 1.517647,1.971675 q -0.27305,0 -0.485775,-0.1143 -0.20955,-0.1143 -0.333375,-0.31115 -0.12065,-0.200025 -0.12065,-0.454025 0,-0.257175 0.12065,-0.454025 0.123825,-0.200025 0.333375,-0.31115 0.212725,-0.1143 0.485775,-0.1143 0.269875,0 0.4826,0.1143 0.212725,0.111125 0.333375,0.307975 0.12065,0.19685 0.12065,0.4572 0,0.254 -0.12065,0.454025 -0.12065,0.19685 -0.333375,0.31115 -0.212725,0.1143 -0.4826,0.1143 z m 0,-0.4064 q 0.123825,0 0.22225,-0.05715 0.09842,-0.05715 0.155575,-0.161925 0.05715,-0.10795 0.05715,-0.254 0,-0.149225 -0.05715,-0.254 -0.05715,-0.104775 -0.155575,-0.161925 -0.09842,-0.05715 -0.22225,-0.05715 -0.123825,0 -0.22225,0.05715 -0.09842,0.05715 -0.15875,0.161925 -0.05715,0.104775 -0.05715,0.254 0,0.14605 0.05715,0.254 0.06032,0.104775 0.15875,0.161925 0.09842,0.05715 0.22225,0.05715 z m 1.435105,1.02235 q -0.13335,0 -0.263525,-0.04128 -0.130175,-0.04127 -0.212725,-0.1143 l 0.180975,-0.352425 q 0.05715,0.0508 0.130175,0.07938 0.0762,0.02858 0.149225,0.02858 0.104775,0 0.1651,-0.0508 0.0635,-0.04763 0.1143,-0.161925 l 0.0889,-0.20955 0.0381,-0.05397 0.612775,-1.4732 h 0.47625 l -0.771525,1.812925 q -0.08255,0.206375 -0.1905,0.32385 -0.104775,0.117475 -0.23495,0.1651 -0.127,0.04763 -0.282575,0.04763 z m 0.2921,-0.574675 -0.762,-1.774825 h 0.511175 l 0.59055,1.42875 z m 1.390648,-0.06668 v -1.70815 h 0.473075 v 0.466725 l -0.0889,-0.136525 q 0.0889,-0.174625 0.250825,-0.263525 0.1651,-0.09207 0.37465,-0.09207 0.23495,0 0.409575,0.12065 0.1778,0.117475 0.23495,0.36195 l -0.174625,-0.04763 q 0.08572,-0.200025 0.27305,-0.3175 0.1905,-0.117475 0.434975,-0.117475 0.2032,0 0.358775,0.08255 0.15875,0.07937 0.24765,0.24765 0.09208,0.1651 0.09208,0.42545 v 0.9779 h -0.4953 v -0.9017 q 0,-0.206375 -0.08572,-0.3048 -0.08573,-0.09843 -0.2413,-0.09843 -0.10795,0 -0.193675,0.0508 -0.08572,0.04763 -0.13335,0.14605 -0.04762,0.09843 -0.04762,0.250825 v 0.85725 h -0.4953 v -0.9017 q 0,-0.206375 -0.08573,-0.3048 -0.08255,-0.09843 -0.238125,-0.09843 -0.10795,0 -0.193675,0.0508 -0.08572,0.04763 -0.13335,0.14605 -0.04762,0.09843 -0.04762,0.250825 v 0.85725 z m 4.190901,0.0254 q -0.2921,0 -0.51435,-0.1143 -0.219075,-0.1143 -0.339725,-0.31115 -0.12065,-0.200025 -0.12065,-0.454025 0,-0.257175 0.117475,-0.454025 0.12065,-0.200025 0.327025,-0.31115 0.206375,-0.1143 0.466725,-0.1143 0.250825,0 0.45085,0.10795 0.2032,0.104775 0.320675,0.3048 0.117475,0.19685 0.117475,0.473075 0,0.02858 -0.0032,0.06668 -0.0032,0.03492 -0.0064,0.06668 h -1.387475 v -0.288925 h 1.127125 l -0.1905,0.08573 q 0,-0.13335 -0.05398,-0.231775 -0.05398,-0.09843 -0.149225,-0.1524 -0.09525,-0.05715 -0.22225,-0.05715 -0.127,0 -0.225425,0.05715 -0.09525,0.05397 -0.149225,0.155575 -0.05398,0.09843 -0.05398,0.23495 v 0.0762 q 0,0.1397 0.06032,0.24765 0.0635,0.104775 0.174625,0.161925 0.1143,0.05398 0.2667,0.05398 0.136525,0 0.238125,-0.04128 0.104775,-0.04127 0.1905,-0.123825 l 0.263525,0.28575 q -0.117475,0.13335 -0.295275,0.206375 -0.1778,0.06985 -0.409575,0.06985 z m 1.155702,-0.0254 v -1.70815 h 0.473075 v 0.473075 l -0.0889,-0.142875 q 0.09208,-0.17145 0.263525,-0.263525 0.17145,-0.09207 0.390525,-0.09207 0.2032,0 0.36195,0.08255 0.161925,0.07937 0.254,0.24765 0.09208,0.1651 0.09208,0.42545 v 0.9779 h -0.4953 v -0.9017 q 0,-0.206375 -0.09207,-0.3048 -0.0889,-0.09843 -0.254,-0.09843 -0.117475,0 -0.212725,0.0508 -0.09208,0.04763 -0.14605,0.149225 -0.0508,0.1016 -0.0508,0.26035 v 0.84455 z m 2.892426,0.0254 q -0.301625,0 -0.4699,-0.1524 -0.168275,-0.155575 -0.168275,-0.460375 v -1.4986 h 0.4953 v 1.49225 q 0,0.10795 0.05715,0.168275 0.05715,0.05715 0.155575,0.05715 0.117475,0 0.200025,-0.0635 l 0.13335,0.34925 q -0.0762,0.05397 -0.18415,0.08255 -0.104775,0.0254 -0.219075,0.0254 z m -0.9017,-1.35255 v -0.381 h 1.184275 v 0.381 z"
       id="text15-8"
       style="font-size:3.175px;line-height:0;font-family:Montserrat;-inkscape-font-specification:'Montserrat, @wght=700';font-variation-settings:'wght' 700;fill:#3d5562;stroke:#3d5562;stroke-width:0.1;stroke-linecap:round;stroke-opacity:0"
       aria-label="Enjoyment" />
    <path
       d="m 29.175602,51.794528 q -0.263525,0 -0.48895,-0.08572 -0.22225,-0.08573 -0.38735,-0.2413 -0.161925,-0.155575 -0.254,-0.365125 -0.0889,-0.20955 -0.0889,-0.4572 0,-0.24765 0.0889,-0.4572 0.09208,-0.20955 0.257175,-0.365125 0.1651,-0.155575 0.38735,-0.2413 0.22225,-0.08572 0.4826,-0.08572 0.263525,0 0.4826,0.08572 0.22225,0.08573 0.384175,0.2413 0.1651,0.155575 0.257175,0.365125 0.09208,0.206375 0.09208,0.4572 0,0.24765 -0.09208,0.460375 -0.09208,0.20955 -0.257175,0.365125 -0.161925,0.1524 -0.384175,0.238125 -0.219075,0.08572 -0.479425,0.08572 z m -0.0032,-0.43815 q 0.149225,0 0.27305,-0.0508 0.127,-0.0508 0.22225,-0.14605 0.09525,-0.09525 0.14605,-0.225425 0.05397,-0.130175 0.05397,-0.288925 0,-0.15875 -0.05397,-0.288925 -0.0508,-0.130175 -0.14605,-0.225425 -0.09207,-0.09525 -0.219075,-0.14605 -0.127,-0.0508 -0.276225,-0.0508 -0.149225,0 -0.276225,0.0508 -0.123825,0.0508 -0.219075,0.14605 -0.09525,0.09525 -0.149225,0.225425 -0.0508,0.130175 -0.0508,0.288925 0,0.155575 0.0508,0.288925 0.05397,0.130175 0.14605,0.225425 0.09525,0.09525 0.22225,0.14605 0.127,0.0508 0.276225,0.0508 z m 2.289174,0.42545 q -0.212725,0 -0.381,-0.08255 -0.1651,-0.08255 -0.257175,-0.250825 -0.09208,-0.17145 -0.09208,-0.434975 v -0.9652 h 0.4953 v 0.892175 q 0,0.212725 0.0889,0.314325 0.09208,0.09842 0.257175,0.09842 0.1143,0 0.2032,-0.04763 0.0889,-0.0508 0.1397,-0.1524 0.0508,-0.104775 0.0508,-0.26035 v -0.84455 h 0.4953 v 1.70815 h -0.4699 v -0.4699 l 0.08573,0.136525 q -0.08573,0.1778 -0.254,0.269875 -0.1651,0.0889 -0.36195,0.0889 z m 2.159001,0 q -0.301625,0 -0.4699,-0.1524 -0.168275,-0.155575 -0.168275,-0.460375 v -1.4986 h 0.4953 v 1.49225 q 0,0.10795 0.05715,0.168275 0.05715,0.05715 0.155575,0.05715 0.117475,0 0.200025,-0.0635 l 0.13335,0.34925 q -0.0762,0.05398 -0.18415,0.08255 -0.104775,0.0254 -0.219075,0.0254 z m -0.9017,-1.35255 v -0.381 h 1.184275 v 0.381 z m 2.593973,1.35255 q -0.2159,0 -0.377825,-0.09525 -0.161925,-0.09525 -0.254,-0.288925 -0.0889,-0.19685 -0.0889,-0.4953 0,-0.301625 0.08573,-0.4953 0.08572,-0.193675 0.24765,-0.288925 0.161925,-0.09525 0.38735,-0.09525 0.2413,0 0.4318,0.111125 0.193675,0.10795 0.3048,0.3048 0.1143,0.19685 0.1143,0.46355 0,0.269875 -0.1143,0.466725 -0.111125,0.19685 -0.3048,0.3048 -0.1905,0.10795 -0.4318,0.10795 z m -1.00965,0.59055 v -2.3241 h 0.4731 v 0.34925 l -0.0095,0.508 0.03175,0.504825 v 0.962025 z m 0.923925,-0.99695 q 0.123825,0 0.219075,-0.05715 0.09842,-0.05715 0.155575,-0.161925 0.06033,-0.10795 0.06033,-0.254 0,-0.149225 -0.06033,-0.254 -0.05715,-0.104775 -0.155575,-0.161925 -0.09525,-0.05715 -0.219075,-0.05715 -0.123825,0 -0.22225,0.05715 -0.09842,0.05715 -0.155575,0.161925 -0.05715,0.104775 -0.05715,0.254 0,0.14605 0.05715,0.254 0.05715,0.104775 0.155575,0.161925 0.09842,0.05715 0.22225,0.05715 z m 1.987552,0.4064 q -0.212725,0 -0.381,-0.08255 -0.1651,-0.08255 -0.257175,-0.250825 -0.09208,-0.17145 -0.09208,-0.434975 v -0.9652 h 0.4953 v 0.892175 q 0,0.212725 0.0889,0.314325 0.09208,0.09842 0.257175,0.09842 0.1143,0 0.2032,-0.04763 0.0889,-0.0508 0.1397,-0.1524 0.0508,-0.104775 0.0508,-0.26035 v -0.84455 h 0.4953 v 1.70815 h -0.4699 v -0.4699 l 0.08573,0.136525 q -0.08573,0.1778 -0.254,0.269875 -0.1651,0.0889 -0.36195,0.0889 z m 2.159001,0 q -0.301625,0 -0.4699,-0.1524 -0.168275,-0.155575 -0.168275,-0.460375 v -1.4986 h 0.4953 v 1.49225 q 0,0.10795 0.05715,0.168275 0.05715,0.05715 0.155575,0.05715 0.117475,0 0.200025,-0.0635 l 0.13335,0.34925 q -0.0762,0.05398 -0.18415,0.08255 -0.104775,0.0254 -0.219075,0.0254 z m -0.9017,-1.35255 v -0.381 h 1.184275 v 0.381 z"
       id="text1"
       style="font-size:3.175px;line-height:0;font-family:Montserrat;-inkscape-font-specification:'Montserrat, @wght=700';font-variation-settings:'wght' 700;fill:#3d5562;stroke:#3d5562;stroke-width:0.1;stroke-linecap:round;stroke-opacity:0"
       aria-label="Output" />
    <path
       style="font-variation-settings:'wght' 700;fill:#3d5562;fill-opacity:1;stroke:#3d5562;stroke-width:0.808;stroke-linecap:round;stroke-dasharray:none;stroke-opacity:1"
       d="M 33.866664,40.434101 20.557605,26.715942"
       id="path2" />
    <path
       style="font-variation-settings:'wght' 700;fill:#3d5562;fill-opacity:1;stroke:#3d5562;stroke-width:0.808;stroke-linecap:round;stroke-dasharray:none;stroke-opacity:1"
       d="M 33.866664,40.434101 47.222415,26.715942"
       id="path3" />
  </g>
</svg>
