<?xml version="1.0" encoding="UTF-8" standalone="no"?>
<!-- Created with Inkscape (http://www.inkscape.org/) -->

<svg
   width="256"
   height="256"
   viewBox="0 0 67.733332 67.733333"
   version="1.1"
   id="svg1"
   inkscape:version="1.4.2 (f4327f4, 2025-05-13)"
   sodipodi:docname="simple-network-with-sum-connections.svg"
   xmlns:inkscape="http://www.inkscape.org/namespaces/inkscape"
   xmlns:sodipodi="http://sodipodi.sourceforge.net/DTD/sodipodi-0.dtd"
   xmlns="http://www.w3.org/2000/svg"
   xmlns:svg="http://www.w3.org/2000/svg">
  <sodipodi:namedview
     id="namedview1"
     pagecolor="#ffffff"
     bordercolor="#000000"
     borderopacity="0.25"
     inkscape:showpageshadow="2"
     inkscape:pageopacity="0.0"
     inkscape:pagecheckerboard="0"
     inkscape:deskcolor="#d1d1d1"
     inkscape:document-units="mm"
     inkscape:zoom="4.4079405"
     inkscape:cx="104.81085"
     inkscape:cy="124.43453"
     inkscape:window-width="2560"
     inkscape:window-height="1417"
     inkscape:window-x="-8"
     inkscape:window-y="-8"
     inkscape:window-maximized="1"
     inkscape:current-layer="layer1" />
  <defs
     id="defs1" />
  <g
     inkscape:label="Layer 1"
     inkscape:groupmode="layer"
     id="layer1">
    <path
       style="font-variation-settings:'wght' 700;fill:#3d5562;fill-opacity:0;stroke:#3d5562;stroke-width:0.778672;stroke-linecap:round;stroke-opacity:1"
       id="path1"
       sodipodi:type="arc"
       sodipodi:cx="8.8965759"
       sodipodi:cy="33.866665"
       sodipodi:rx="8.1484385"
       sodipodi:ry="8.4442558"
       sodipodi:start="0"
       sodipodi:end="6.2816537"
       sodipodi:open="true"
       sodipodi:arc-type="arc"
       d="M 17.045014,33.866665 A 8.1484385,8.4442558 0 0 1 8.899696,42.31092 8.1484385,8.4442558 0 0 1 0.74813986,33.873132 8.1484385,8.4442558 0 0 1 8.8872158,25.422415 8.1484385,8.4442558 0 0 1 17.045005,33.853732" />
    <path
       style="font-variation-settings:'wght' 700;fill:#3d5562;fill-opacity:0;stroke:#3d5562;stroke-width:0.778672;stroke-linecap:round;stroke-opacity:1"
       id="path1-23"
       sodipodi:type="arc"
       sodipodi:cx="33.866665"
       sodipodi:cy="15.569298"
       sodipodi:rx="8.1484385"
       sodipodi:ry="8.4442558"
       sodipodi:start="0"
       sodipodi:end="6.2816537"
       sodipodi:open="true"
       sodipodi:arc-type="arc"
       d="m 42.015103,15.569298 a 8.1484385,8.4442558 0 0 1 -8.145318,8.444255 8.1484385,8.4442558 0 0 1 -8.151556,-8.437789 8.1484385,8.4442558 0 0 1 8.139076,-8.4507165 8.1484385,8.4442558 0 0 1 8.157789,8.4313175" />
    <path
       style="font-variation-settings:'wght' 700;fill:#3d5562;fill-opacity:0;stroke:#3d5562;stroke-width:0.778672;stroke-linecap:round;stroke-opacity:1"
       id="path1-23-8"
       sodipodi:type="arc"
       sodipodi:cx="33.866665"
       sodipodi:cy="54.725483"
       sodipodi:rx="8.1484385"
       sodipodi:ry="8.4442558"
       sodipodi:start="0"
       sodipodi:end="6.2816537"
       sodipodi:open="true"
       sodipodi:arc-type="arc"
       d="m 42.015103,54.725483 a 8.1484385,8.4442558 0 0 1 -8.145318,8.444255 8.1484385,8.4442558 0 0 1 -8.151556,-8.437788 8.1484385,8.4442558 0 0 1 8.139076,-8.450717 8.1484385,8.4442558 0 0 1 8.157789,8.431317" />
    <path
       style="font-variation-settings:'wght' 700;fill:#3d5562;fill-opacity:0;stroke:#3d5562;stroke-width:0.778672;stroke-linecap:round;stroke-opacity:1"
       id="path1-2"
       sodipodi:type="arc"
       sodipodi:cx="58.586296"
       sodipodi:cy="33.866665"
       sodipodi:rx="8.1484385"
       sodipodi:ry="8.4442558"
       sodipodi:start="0"
       sodipodi:end="6.2816537"
       sodipodi:open="true"
       sodipodi:arc-type="arc"
       d="m 66.734735,33.866665 a 8.1484385,8.4442558 0 0 1 -8.145319,8.444255 8.1484385,8.4442558 0 0 1 -8.151556,-8.437788 8.1484385,8.4442558 0 0 1 8.139076,-8.450717 8.1484385,8.4442558 0 0 1 8.157789,8.431317" />
    <path
       style="font-variation-settings:'wght' 700;fill:#3d5562;fill-opacity:0;stroke:#3d5562;stroke-width:0.869;stroke-linecap:round;stroke-opacity:1"
       d="M 25.718226,54.725482 17.045004,33.853731"
       id="path6" />
    <path
       style="font-variation-settings:'wght' 700;fill:#3d5562;fill-opacity:0;stroke:#3d5562;stroke-width:0.869;stroke-linecap:round;stroke-opacity:1"
       d="M 17.045014,33.866664 25.718226,15.569298"
       id="path7" />
    <path
       style="font-variation-settings:'wght' 700;fill:#3d5562;fill-opacity:0;stroke:#3d5562;stroke-width:0.869;stroke-linecap:round;stroke-opacity:1"
       d="m 42.015103,15.569298 8.422753,18.297366"
       id="path8" />
    <path
       style="font-variation-settings:'wght' 700;fill:#3d5562;fill-opacity:0;stroke:#3d5562;stroke-width:0.869;stroke-linecap:round;stroke-opacity:1"
       d="M 42.015103,54.725482 50.437856,33.866664"
       id="path9" />
    <path
       d="m 54.249247,34.669941 v -2.2225 h 0.51435 v 2.2225 z m 1.006472,0 v -1.70815 h 0.473075 v 0.473075 l -0.0889,-0.142875 q 0.09208,-0.17145 0.263525,-0.263525 0.17145,-0.09208 0.390525,-0.09208 0.2032,0 0.36195,0.08255 0.161925,0.07937 0.254,0.24765 0.09208,0.1651 0.09208,0.42545 v 0.9779 h -0.4953 v -0.9017 q 0,-0.206375 -0.09208,-0.3048 -0.0889,-0.09843 -0.254,-0.09843 -0.117475,0 -0.212725,0.0508 -0.09207,0.04763 -0.14605,0.149225 -0.0508,0.1016 -0.0508,0.26035 v 0.84455 z m 3.203575,0.0254 q -0.2159,0 -0.377825,-0.09525 -0.161925,-0.09525 -0.254,-0.288925 -0.0889,-0.19685 -0.0889,-0.4953 0,-0.301625 0.08573,-0.4953 0.08572,-0.193675 0.24765,-0.288925 0.161925,-0.09525 0.38735,-0.09525 0.2413,0 0.4318,0.111125 0.193675,0.10795 0.3048,0.3048 0.1143,0.19685 0.1143,0.46355 0,0.269875 -0.1143,0.466725 -0.111125,0.19685 -0.3048,0.3048 -0.1905,0.10795 -0.4318,0.10795 z m -1.00965,0.59055 v -2.3241 h 0.473075 v 0.34925 l -0.0095,0.508 0.03175,0.504825 v 0.962025 z m 0.923925,-0.99695 q 0.123825,0 0.219075,-0.05715 0.09842,-0.05715 0.155575,-0.161925 0.06032,-0.10795 0.06032,-0.254 0,-0.149225 -0.06032,-0.254 -0.05715,-0.104775 -0.155575,-0.161925 -0.09525,-0.05715 -0.219075,-0.05715 -0.123825,0 -0.22225,0.05715 -0.09842,0.05715 -0.155575,0.161925 -0.05715,0.104775 -0.05715,0.254 0,0.14605 0.05715,0.254 0.05715,0.104775 0.155575,0.161925 0.09842,0.05715 0.22225,0.05715 z m 1.987551,0.4064 q -0.212725,0 -0.381,-0.08255 -0.1651,-0.08255 -0.257175,-0.250825 -0.09208,-0.17145 -0.09208,-0.434975 v -0.9652 h 0.4953 v 0.892175 q 0,0.212725 0.0889,0.314325 0.09208,0.09842 0.257175,0.09842 0.1143,0 0.2032,-0.04763 0.0889,-0.0508 0.1397,-0.1524 0.0508,-0.104775 0.0508,-0.26035 v -0.84455 h 0.4953 v 1.70815 h -0.4699 v -0.4699 l 0.08572,0.136525 q -0.08572,0.1778 -0.254,0.269875 -0.1651,0.0889 -0.36195,0.0889 z m 2.159001,0 q -0.301625,0 -0.4699,-0.1524 -0.168275,-0.155575 -0.168275,-0.460375 v -1.4986 h 0.4953 v 1.49225 q 0,0.10795 0.05715,0.168275 0.05715,0.05715 0.155575,0.05715 0.117475,0 0.200025,-0.0635 l 0.13335,0.34925 q -0.0762,0.05398 -0.18415,0.08255 -0.104775,0.0254 -0.219075,0.0254 z m -0.9017,-1.35255 v -0.381 h 1.184275 v 0.381 z"
       id="text9"
       style="font-size:3.175px;line-height:0;font-family:Montserrat;-inkscape-font-specification:'Montserrat, @wght=700';font-variation-settings:'wght' 700;fill:#3d5562;stroke:#3d5562;stroke-width:0.869;stroke-linecap:round;stroke-opacity:0"
       aria-label="Input" />
    <path
       d="m 4.2055125,34.727092 q -0.263525,0 -0.48895,-0.08572 -0.22225,-0.08573 -0.38735,-0.2413 -0.161925,-0.155575 -0.2539999,-0.365125 -0.0889,-0.20955 -0.0889,-0.4572 0,-0.24765 0.0889,-0.4572 0.092075,-0.20955 0.2571749,-0.365125 0.1651,-0.155575 0.38735,-0.2413 0.22225,-0.08572 0.4826,-0.08572 0.263525,0 0.4826,0.08572 0.22225,0.08573 0.384175,0.2413 0.1651,0.155575 0.257175,0.365125 0.092075,0.206375 0.092075,0.4572 0,0.24765 -0.092075,0.460375 -0.092075,0.20955 -0.257175,0.365125 -0.161925,0.1524 -0.384175,0.238125 -0.219075,0.08572 -0.479425,0.08572 z m -0.00318,-0.43815 q 0.149225,0 0.27305,-0.0508 0.127,-0.0508 0.22225,-0.14605 0.09525,-0.09525 0.14605,-0.225425 0.053975,-0.130175 0.053975,-0.288925 0,-0.15875 -0.053975,-0.288925 -0.0508,-0.130175 -0.14605,-0.225425 -0.092075,-0.09525 -0.219075,-0.14605 -0.127,-0.0508 -0.276225,-0.0508 -0.149225,0 -0.276225,0.0508 -0.123825,0.0508 -0.219075,0.14605 -0.09525,0.09525 -0.149225,0.225425 -0.0508,0.130175 -0.0508,0.288925 0,0.155575 0.0508,0.288925 0.053975,0.130175 0.14605,0.225425 0.09525,0.09525 0.22225,0.14605 0.127,0.0508 0.276225,0.0508 z m 2.2891745,0.42545 q -0.212725,0 -0.381,-0.08255 -0.1651,-0.08255 -0.257175,-0.250825 -0.092075,-0.17145 -0.092075,-0.434975 v -0.9652 h 0.4953 v 0.892175 q 0,0.212725 0.0889,0.314325 0.092075,0.09842 0.257175,0.09842 0.1143,0 0.2032,-0.04762 0.0889,-0.0508 0.1397,-0.1524 0.0508,-0.104775 0.0508,-0.26035 v -0.84455 h 0.4952999 v 1.70815 H 7.021737 v -0.4699 l 0.085725,0.136525 q -0.085725,0.1778 -0.254,0.269875 -0.1651,0.0889 -0.36195,0.0889 z m 2.1590007,0 q -0.301625,0 -0.4699,-0.1524 -0.168275,-0.155575 -0.168275,-0.460375 v -1.4986 h 0.4953 v 1.49225 q 0,0.10795 0.05715,0.168275 0.05715,0.05715 0.155575,0.05715 0.117475,0 0.200025,-0.0635 l 0.13335,0.34925 q -0.0762,0.05398 -0.18415,0.08255 -0.104775,0.0254 -0.219075,0.0254 z m -0.9016999,-1.35255 v -0.381 h 1.1842749 v 0.381 z m 2.5939732,1.35255 q -0.2159,0 -0.3778252,-0.09525 -0.161925,-0.09525 -0.254,-0.288925 -0.0889,-0.19685 -0.0889,-0.4953 0,-0.301625 0.085725,-0.4953 0.085725,-0.193675 0.24765,-0.288925 0.1619252,-0.09525 0.3873502,-0.09525 0.2413,0 0.4318,0.111125 0.193675,0.10795 0.3048,0.3048 0.1143,0.19685 0.1143,0.46355 0,0.269875 -0.1143,0.466725 -0.111125,0.19685 -0.3048,0.3048 -0.1905,0.10795 -0.4318,0.10795 z m -1.0096502,0.59055 v -2.3241 h 0.473075 v 0.34925 l -0.00953,0.508 0.03175,0.504825 v 0.962025 z m 0.9239252,-0.99695 q 0.123825,0 0.219075,-0.05715 0.09842,-0.05715 0.155575,-0.161925 0.06033,-0.10795 0.06033,-0.254 0,-0.149225 -0.06033,-0.254 -0.05715,-0.104775 -0.155575,-0.161925 -0.09525,-0.05715 -0.219075,-0.05715 -0.123825,0 -0.22225,0.05715 -0.098425,0.05715 -0.1555752,0.161925 -0.05715,0.104775 -0.05715,0.254 0,0.14605 0.05715,0.254 0.05715,0.104775 0.1555752,0.161925 0.09843,0.05715 0.22225,0.05715 z m 1.987552,0.4064 q -0.212725,0 -0.381,-0.08255 -0.1651,-0.08255 -0.257175,-0.250825 -0.09208,-0.17145 -0.09208,-0.434975 v -0.9652 h 0.4953 v 0.892175 q 0,0.212725 0.0889,0.314325 0.09207,0.09842 0.257175,0.09842 0.1143,0 0.2032,-0.04762 0.0889,-0.0508 0.1397,-0.1524 0.0508,-0.104775 0.0508,-0.26035 v -0.84455 h 0.4953 v 1.70815 h -0.4699 v -0.4699 l 0.08573,0.136525 q -0.08573,0.1778 -0.254,0.269875 -0.1651,0.0889 -0.36195,0.0889 z m 2.159001,0 q -0.301625,0 -0.4699,-0.1524 -0.168275,-0.155575 -0.168275,-0.460375 v -1.4986 h 0.4953 v 1.49225 q 0,0.10795 0.05715,0.168275 0.05715,0.05715 0.155575,0.05715 0.117475,0 0.200025,-0.0635 l 0.13335,0.34925 q -0.0762,0.05398 -0.18415,0.08255 -0.104775,0.0254 -0.219075,0.0254 z m -0.9017,-1.35255 v -0.381 h 1.184275 v 0.381 z"
       id="text10"
       style="font-size:3.175px;line-height:0;font-family:Montserrat;-inkscape-font-specification:'Montserrat, @wght=700';font-variation-settings:'wght' 700;fill:#3d5562;stroke:#3d5562;stroke-width:0.869;stroke-linecap:round;stroke-opacity:0"
       aria-label="Output" />
  </g>
</svg>
