<?xml version="1.0" encoding="UTF-8" standalone="no"?>
<svg
   version="1.1"
   width="256"
   height="256"
   id="svg9"
   xmlns="http://www.w3.org/2000/svg"
   xmlns:svg="http://www.w3.org/2000/svg">
  <defs
     id="defs1">
    <clipPath
       id="EPMbIMALrHtu">
      <path
         fill="none"
         stroke="none"
         d="M 0,0 H 2164 V 1291 H 0 Z"
         id="path1" />
    </clipPath>
    <clipPath
       clipPathUnits="userSpaceOnUse"
       id="clipPath9">
      <rect
         style="font-variation-settings:'wght' 700;fill:#3d5562;stroke:#3d5562;stroke-width:3.07651;stroke-linecap:round;stroke-opacity:0;-inkscape-stroke:none"
         id="rect10"
         width="596.11285"
         height="596"
         x="590.38708"
         y="455.5" />
    </clipPath>
  </defs>
  <g
     clip-path="url(#clipPath9)"
     id="g9"
     transform="matrix(0.42903066,0,0,0.4278793,-253.77164,-194.4926)">
    <g
       id="g8">
      <rect
         fill="#ffffff"
         stroke="none"
         x="0"
         y="0"
         width="2164"
         height="1291"
         fill-opacity="1"
         id="rect1" />
      <path
         fill="none"
         stroke="#c0c0c0"
         paint-order="fill stroke markers"
         d="m 94.5,0.5 v 1291 m 0,-1291 v 1291 m 99,-1291 v 1291 m 100,-1291 v 1291 m 99,-1291 v 1291 m 99,-1291 v 1291 m 100,-1291 v 1291 m 99,-1291 v 1291 m 99,-1291 v 1291 m 199,-1291 v 1291 m 99,-1291 v 1291 m 99,-1291 v 1291 m 100,-1291 v 1291 m 99,-1291 v 1291 m 99,-1291 v 1291 m 100,-1291 v 1291 m 99,-1291 v 1291 m 99,-1291 v 1291 m 100,-1291 v 1291 m 99,-1291 v 1291 m 99,-1291 v 1291"
         stroke-opacity="1"
         stroke-linecap="round"
         stroke-linejoin="round"
         stroke-miterlimit="10"
         id="path2" />
      <path
         fill="none"
         stroke="#c0c0c0"
         paint-order="fill stroke markers"
         d="m 15.5,0.5 v 1291 m 20,-1291 v 1291 m 19,-1291 v 1291 m 20,-1291 v 1291 m 40,-1291 v 1291 m 20,-1291 v 1291 m 20,-1291 v 1291 m 20,-1291 v 1291 m 39,-1291 v 1291 m 20,-1291 v 1291 m 20,-1291 v 1291 m 20,-1291 v 1291 m 40,-1291 v 1291 m 19,-1291 v 1291 m 20,-1291 v 1291 m 20,-1291 v 1291 m 40,-1291 v 1291 m 20,-1291 v 1291 m 20,-1291 v 1291 m 20,-1291 v 1291 m 39,-1291 v 1291 m 20,-1291 v 1291 m 20,-1291 v 1291 m 20,-1291 v 1291 m 40,-1291 v 1291 m 19,-1291 v 1291 m 20,-1291 v 1291 m 20,-1291 v 1291 m 40,-1291 v 1291 m 20,-1291 v 1291 m 20,-1291 v 1291 m 19,-1291 v 1291 m 40,-1291 v 1291 m 20,-1291 v 1291 m 20,-1291 v 1291 m 20,-1291 v 1291 m 39,-1291 v 1291 m 20,-1291 v 1291 m 20,-1291 v 1291 m 20,-1291 v 1291 m 40,-1291 v 1291 m 20,-1291 v 1291 m 19,-1291 v 1291 m 20,-1291 v 1291 m 40,-1291 v 1291 m 20,-1291 v 1291 m 20,-1291 v 1291 m 20,-1291 v 1291 m 39,-1291 v 1291 m 20,-1291 v 1291 m 20,-1291 v 1291 m 20,-1291 v 1291 m 40,-1291 v 1291 m 19,-1291 v 1291 m 20,-1291 v 1291 m 20,-1291 v 1291 m 40,-1291 v 1291 m 20,-1291 v 1291 m 20,-1291 v 1291 m 19,-1291 v 1291 m 40,-1291 v 1291 m 20,-1291 v 1291 m 20,-1291 v 1291 m 20,-1291 v 1291 m 40,-1291 v 1291 m 19,-1291 v 1291 m 20,-1291 v 1291 m 20,-1291 v 1291 m 40,-1291 v 1291 m 20,-1291 v 1291 m 20,-1291 v 1291 m 19,-1291 v 1291 m 40,-1291 v 1291 m 20,-1291 v 1291 m 20,-1291 v 1291 m 20,-1291 v 1291 m 39,-1291 v 1291 m 20,-1291 v 1291 m 20,-1291 v 1291 m 20,-1291 v 1291 m 40,-1291 v 1291 m 20,-1291 v 1291 m 19,-1291 v 1291 m 20,-1291 v 1291 m 40,-1291 v 1291 m 20,-1291 v 1291 m 20,-1291 v 1291 m 20,-1291 v 1291"
         stroke-opacity="0.235294"
         stroke-linecap="round"
         stroke-linejoin="round"
         stroke-miterlimit="10"
         id="path3" />
      <path
         fill="none"
         stroke="#c0c0c0"
         paint-order="fill stroke markers"
         d="m 0.5,58.5 h 2164 m -2164,0 h 2164 m -2164,99 h 2164 m -2164,99 h 2164 m -2164,99 h 2164 m -2164,100 h 2164 m -2164,99 h 2164 m -2164,99 h 2164 m -2164,199 h 2164 m -2164,99 h 2164 m -2164,100 h 2164 m -2164,99 h 2164 m -2164,99 h 2164"
         stroke-opacity="1"
         stroke-linecap="round"
         stroke-linejoin="round"
         stroke-miterlimit="10"
         id="path4" />
      <path
         fill="none"
         stroke="#c0c0c0"
         paint-order="fill stroke markers"
         d="m 0.5,18.5 h 2164 m -2164,0 h 2164 m -2164,20 h 2164 m -2164,39 h 2164 m -2164,20 h 2164 m -2164,20 h 2164 m -2164,20 h 2164 m -2164,40 h 2164 m -2164,20 h 2164 m -2164,19 h 2164 m -2164,20 h 2164 m -2164,40 h 2164 m -2164,20 h 2164 m -2164,20 h 2164 m -2164,20 h 2164 m -2164,39 h 2164 m -2164,20 h 2164 m -2164,20 h 2164 m -2164,20 h 2164 m -2164,40 h 2164 m -2164,19 h 2164 m -2164,20 h 2164 m -2164,20 h 2164 m -2164,40 h 2164 m -2164,20 h 2164 m -2164,20 h 2164 m -2164,19 h 2164 m -2164,40 h 2164 m -2164,20 h 2164 m -2164,20 h 2164 m -2164,20 h 2164 m -2164,39 h 2164 m -2164,20 h 2164 m -2164,20 h 2164 m -2164,20 h 2164 m -2164,40 h 2164 m -2164,20 h 2164 m -2164,19 h 2164 m -2164,20 h 2164 m -2164,40 h 2164 m -2164,20 h 2164 m -2164,20 h 2164 m -2164,20 h 2164 m -2164,39 h 2164 m -2164,20 h 2164 m -2164,20 h 2164 m -2164,20 h 2164 m -2164,40 h 2164 m -2164,20 h 2164 m -2164,19 h 2164 m -2164,20 h 2164 m -2164,40 h 2164 m -2164,20 h 2164"
         stroke-opacity="0.235294"
         stroke-linecap="round"
         stroke-linejoin="round"
         stroke-miterlimit="10"
         id="path5" />
      <path
         fill="none"
         stroke="#252525"
         paint-order="fill stroke markers"
         d="m 889.5,-0.5 v 1292"
         stroke-opacity="1"
         stroke-miterlimit="10"
         id="path6" />
      <path
         fill="none"
         stroke="#252525"
         paint-order="fill stroke markers"
         d="m 0.5,753.5 h 2163"
         stroke-opacity="1"
         stroke-miterlimit="10"
         id="path7" />
      <path
         fill="#000000"
         stroke="none"
         paint-order="stroke fill markers"
         d="m 988.35211,554.52219 -11.40395,13.30461 2.68329,1.34164 v 0 l -91.6958,183.39159 c -0.30874,0.61747 -0.0585,1.36832 0.55902,1.67705 0.17945,0.0897 0.37018,0.13224 0.55804,0.13224 0.45853,0 0.9,-0.25324 1.11901,-0.69126 l 91.69579,-183.39159 2.68329,1.34164 z"
         fill-opacity="0.698039"
         id="path8" />
      <text
         fill="#000000"
         stroke="none"
         font-family="geogebra-sans-serif, sans-serif"
         font-size="16px"
         font-style="normal"
         font-weight="normal"
         text-decoration="normal"
         x="934"
         y="651"
         text-anchor="start"
         dominant-baseline="alphabetic"
         fill-opacity="1"
         id="text8">v</text>
    </g>
  </g>
</svg>
