<?xml version="1.0" encoding="UTF-8" standalone="no"?>
<svg
   version="1.1"
   width="256"
   height="256"
   id="svg14"
   sodipodi:docname="simple-approximation-of-sine.svg"
   inkscape:version="1.4.2 (f4327f4, 2025-05-13)"
   xmlns:inkscape="http://www.inkscape.org/namespaces/inkscape"
   xmlns:sodipodi="http://sodipodi.sourceforge.net/DTD/sodipodi-0.dtd"
   xmlns="http://www.w3.org/2000/svg"
   xmlns:svg="http://www.w3.org/2000/svg">
  <sodipodi:namedview
     id="namedview14"
     pagecolor="#ffffff"
     bordercolor="#000000"
     borderopacity="0.25"
     inkscape:showpageshadow="2"
     inkscape:pageopacity="0.0"
     inkscape:pagecheckerboard="0"
     inkscape:deskcolor="#d1d1d1"
     inkscape:zoom="1.8790356"
     inkscape:cx="-27.67377"
     inkscape:cy="14.635167"
     inkscape:window-width="2560"
     inkscape:window-height="1417"
     inkscape:window-x="-8"
     inkscape:window-y="-8"
     inkscape:window-maximized="1"
     inkscape:current-layer="svg14" />
  <defs
     id="defs1">
    <clipPath
       id="IXQIVhBbkRrN">
      <path
         fill="none"
         stroke="none"
         d="M 0,0 H 1521 V 931 H 0 Z"
         id="path1" />
    </clipPath>
    <clipPath
       clipPathUnits="userSpaceOnUse"
       id="clipPath14">
      <rect
         style="font-variation-settings:'wght' 700;fill:#3d5562;fill-opacity:1;stroke:#3d5562;stroke-width:4.04988;stroke-linecap:round;stroke-opacity:1"
         id="rect15"
         width="172.36847"
         height="171.95573"
         x="520.2326"
         y="363.4996" />
    </clipPath>
  </defs>
  <g
     transform="matrix(1.4851904,0,0,1.4851904,-772.64445,-539.13288)"
     clip-path="url(#clipPath14)"
     id="g14">
    <g
       id="g13">
      <rect
         fill="#ffffff"
         stroke="none"
         x="0"
         y="0"
         width="1521"
         height="931"
         fill-opacity="1"
         id="rect1" />
      <path
         fill="none"
         stroke="#c0c0c0"
         paint-order="fill stroke markers"
         d="m 77.5,0.5 v 931 m 0,-931 v 931 m 88,-931 v 931 m 88,-931 v 931 m 89,-931 v 931 m 88,-931 v 931 m 88,-931 v 931 m 176,-931 v 931 m 88,-931 v 931 m 88,-931 v 931 m 89,-931 v 931 m 88,-931 v 931 m 88,-931 v 931 m 88,-931 v 931 m 88,-931 v 931 m 88,-931 v 931 m 88,-931 v 931"
         stroke-opacity="1"
         stroke-linecap="round"
         stroke-linejoin="round"
         stroke-miterlimit="10"
         id="path2" />
      <path
         fill="none"
         stroke="#c0c0c0"
         paint-order="fill stroke markers"
         d="m 7.5,0.5 v 931 m 17,-931 v 931 m 18,-931 v 931 m 18,-931 v 931 m 35,-931 v 931 m 17,-931 v 931 m 18,-931 v 931 m 18,-931 v 931 m 35,-931 v 931 m 18,-931 v 931 m 17,-931 v 931 m 18,-931 v 931 m 35,-931 v 931 m 18,-931 v 931 m 17,-931 v 931 m 18,-931 v 931 m 35,-931 v 931 m 18,-931 v 931 m 17,-931 v 931 m 18,-931 v 931 m 35,-931 v 931 m 18,-931 v 931 m 18,-931 v 931 m 17,-931 v 931 m 36,-931 v 931 m 17,-931 v 931 m 18,-931 v 931 m 17,-931 v 931 m 36,-931 v 931 m 17,-931 v 931 m 18,-931 v 931 m 18,-931 v 931 m 35,-931 v 931 m 17,-931 v 931 m 18,-931 v 931 m 18,-931 v 931 m 35,-931 v 931 m 18,-931 v 931 m 17,-931 v 931 m 18,-931 v 931 m 35,-931 v 931 m 18,-931 v 931 m 17,-931 v 931 m 18,-931 v 931 m 35,-931 v 931 m 18,-931 v 931 m 17,-931 v 931 m 18,-931 v 931 m 35,-931 v 931 m 18,-931 v 931 m 18,-931 v 931 m 17,-931 v 931 m 36,-931 v 931 m 17,-931 v 931 m 18,-931 v 931 m 17,-931 v 931 m 36,-931 v 931 m 17,-931 v 931 m 18,-931 v 931 m 18,-931 v 931 m 35,-931 v 931 m 17,-931 v 931 m 18,-931 v 931 m 18,-931 v 931 m 35,-931 v 931 m 18,-931 v 931 m 17,-931 v 931 m 18,-931 v 931 m 35,-931 v 931"
         stroke-opacity="0.235294"
         stroke-linecap="round"
         stroke-linejoin="round"
         stroke-miterlimit="10"
         id="path3" />
      <path
         fill="none"
         stroke="#c0c0c0"
         paint-order="fill stroke markers"
         d="m 0.5,8.5 h 1521 m -1521,0 h 1521 m -1521,88 h 1521 m -1521,88 h 1521 m -1521,88 h 1521 m -1521,89 h 1521 m -1521,176 h 1521 m -1521,88 h 1521 m -1521,88 h 1521 m -1521,88 h 1521 m -1521,88 h 1521"
         stroke-opacity="1"
         stroke-linecap="round"
         stroke-linejoin="round"
         stroke-miterlimit="10"
         id="path4" />
      <path
         fill="none"
         stroke="#c0c0c0"
         paint-order="fill stroke markers"
         d="m 0.5,8.5 h 1521 m -1521,18 h 1521 m -1521,17 h 1521 m -1521,18 h 1521 m -1521,18 h 1521 m -1521,35 h 1521 m -1521,17 h 1521 m -1521,18 h 1521 m -1521,18 h 1521 m -1521,35 h 1521 m -1521,18 h 1521 m -1521,17 h 1521 m -1521,18 h 1521 m -1521,35 h 1521 m -1521,18 h 1521 m -1521,17 h 1521 m -1521,18 h 1521 m -1521,35 h 1521 m -1521,18 h 1521 m -1521,17 h 1521 m -1521,18 h 1521 m -1521,35 h 1521 m -1521,18 h 1521 m -1521,18 h 1521 m -1521,17 h 1521 m -1521,36 h 1521 m -1521,17 h 1521 m -1521,18 h 1521 m -1521,17 h 1521 m -1521,36 h 1521 m -1521,17 h 1521 m -1521,18 h 1521 m -1521,18 h 1521 m -1521,35 h 1521 m -1521,17 h 1521 m -1521,18 h 1521 m -1521,18 h 1521 m -1521,35 h 1521 m -1521,18 h 1521 m -1521,17 h 1521 m -1521,18 h 1521 m -1521,35 h 1521 m -1521,18 h 1521"
         stroke-opacity="0.235294"
         stroke-linecap="round"
         stroke-linejoin="round"
         stroke-miterlimit="10"
         id="path5" />
      <path
         fill="none"
         stroke="#252525"
         paint-order="fill stroke markers"
         d="m 606.5,2.5 v 929"
         stroke-opacity="1"
         stroke-miterlimit="10"
         id="path6" />
      <path
         fill="none"
         stroke="#252525"
         paint-order="fill stroke markers"
         d="m 606.5,1.5 -4,4"
         stroke-opacity="1"
         stroke-miterlimit="10"
         id="path7" />
      <path
         fill="none"
         stroke="#252525"
         paint-order="fill stroke markers"
         d="m 606.5,1.5 4,4"
         stroke-opacity="1"
         stroke-miterlimit="10"
         id="path8" />
      <path
         fill="none"
         stroke="#252525"
         paint-order="fill stroke markers"
         d="m 0.5,449.5 h 1519"
         stroke-opacity="1"
         stroke-miterlimit="10"
         id="path9" />
      <path
         fill="none"
         stroke="#252525"
         paint-order="fill stroke markers"
         d="m 1520.5,449.5 -4,-4"
         stroke-opacity="1"
         stroke-miterlimit="10"
         id="path10" />
      <path
         fill="none"
         stroke="#252525"
         paint-order="fill stroke markers"
         d="m 1520.5,449.5 -4,4"
         stroke-opacity="1"
         stroke-miterlimit="10"
         id="path11" />
      <path
         fill="none"
         stroke="#006758"
         paint-order="fill stroke markers"
         d="m 0.5,396.85406 v 0.95566 0 l 1,0.95732 v 0 l 1,0.95894 v 0 l 1,0.96053 v 0 l 1,0.9621 v 0 l 1,0.96363 v 0 l 1,0.96513 v 0 l 1,0.9666 v 0 l 1,0.96803 v 0 l 1,0.96945 v 0 l 1,0.97082 v 0 l 1,0.97216 v 0 l 1,0.97348 v 0 l 1,0.97476 v 0 l 1,0.97601 v 0 l 1,0.97723 v 0 l 1,0.97842 v 0 l 1,0.97957 v 0 l 1,0.9807 v 0 l 1,0.98179 v 0 l 1,0.98286 v 0 l 1,0.98388 v 0 l 1,0.98488 v 0 l 1,0.98585 v 0 l 1,0.98679 v 0 l 1,0.98768 v 0 l 1,0.98856 v 0 l 1,0.9894 v 0 l 1,0.99021 v 0 l 1,0.99098 v 0 l 1,0.99173 v 0 l 1,0.99243 v 0 l 1,0.99312 v 0 l 1,0.99377 v 0 l 1,0.99438 v 0 l 1,0.99497 v 0 l 1,0.99552 v 0 l 1,0.99604 v 0 l 1,0.99653 v 0 l 1,0.99698 v 0 l 1,0.99741 v 0 l 1,0.9978 v 0 l 1,0.99816 v 0 l 1,0.99849 v 0 l 1,0.99878 v 0 l 1,0.99905 v 0 l 1,0.99928 v 0 l 1,0.99948 v 0 l 1,0.99964 v 0 l 1,0.99978 v 0 l 1,0.99988 v 0 l 1,0.99996 v 0 l 1,0.99999 v 0 l 1,0.99999 v 0 l 1,0.99997 v 0 l 1,0.99992 v 0 l 1,0.99982 v 0 l 1,0.9997 v 0 l 1,0.99955 v 0 l 1,0.99935 v 0 l 1,0.99914 v 0 l 1,0.99889 v 0 l 1,0.99861 v 0 l 1,0.99829 v 0 l 1,0.99794 v 0 l 1,0.99756 v 0 l 1,0.99715 v 0 l 1,0.99671 v 0 l 1,0.99623 v 0 l 1,0.99572 v 0 l 1,0.99518 v 0 l 1,0.99461 v 0 l 1,0.99401 v 0 l 1,0.99337 v 0 l 1,0.9927 v 0 l 1,0.99201 v 0 l 1,0.99127 v 0 l 1,0.9905 v 0 l 1,0.98971 v 0 l 1,0.98889 v 0 l 1,0.98802 v 0 l 1,0.98714 v 0 l 1,0.98621 v 0 l 1,0.98525 v 0 l 1,0.98427 v 0 l 1,0.98325 v 0 l 1,0.98221 v 0 l 1,0.98112 v 0 l 1,0.98001 v 0 l 1,0.97886 v 0 l 1,0.97769 v 0 l 1,0.97648 v 0 l 1,0.97524 v 0 l 1,0.97397 v 0 l 1,0.97267 v 0 l 1,0.97134 v 0 l 1,0.96998 v 0 l 1,0.96857 v 0 l 1,0.96716 v 0 l 1,0.96569 v 0 l 1,0.96421 v 0 l 1,0.96269 v 0 l 1,0.96113 v 0 l 1,0.95956 v 0 l 1,0.95794 v 0 l 1,0.9563 v 0 l 1,0.95463 v 0 l 1,0.95292 v 0 l 1,0.95118 v 0 l 1,0.94942 v 0 l 1,0.94763 v 0 l 1,0.94579 v 0 l 1,0.94394 v 0 l 1,0.94205 v 0 l 1,0.94014 v 0 l 1,0.93818 v 0 l 1,0.93621 v 0 l 1,0.9342 v 0 l 1,0.93216 v 0 l 1,0.93009 v 0 l 1,0.92799 v 0 l 1,0.92586 v 0 l 1,0.92371 v 0 l 1,0.92152 v 0 l 1,0.9193 v 0 l 1,0.91705 v 0 l 1,0.91477 v 0 l 1,0.91247 v 0 l 1,0.91014 v 0 l 1,0.90777 v 0 l 1,0.90537 v 0 l 1,0.90296 v 0 l 1,0.9005 v 0 l 1,0.89802 v 0 l 1,0.8955 v 0 l 1,0.89297 v 0 l 1,0.89041 v 0 l 1,0.8878 v 0 l 1,0.88518 v 0 l 1,0.88253 v 0 l 1,0.87985 v 0 l 1,0.87714 v 0 l 1,0.87439 v 0 l 1,0.87164 v 0 l 1,0.86883 v 0 l 1,0.86602 v 0 l 1,0.86316 v 0 l 1,0.86029 v 0 l 1,0.85738 v 0 l 1,0.85445 v 0 l 1,0.85149 v 0 l 1,0.84849 v 0 l 1,0.84549 v 0 l 1,0.84244 v 0 l 1,0.83937 v 0 l 1,0.83627 v 0 l 1,0.83315 v 0 l 1,0.83 v 0 l 1,0.82683 v 0 l 1,0.82362 v 0 l 1,0.82038 v 0 l 1,0.81714 v 0 l 1,0.81385 v 0 l 1,0.81053 v 0 l 1,0.80721 v 0 l 1,0.80384 v 0 l 1,0.80046 v 0 l 1,0.79704 v 0 l 1,0.79361 v 0 l 1,0.79014 v 0 l 1,0.78665 v 0 l 1,0.78313 v 0 l 1,0.7796 v 0 l 1,0.77603 v 0 l 1,0.77244 v 0 l 1,0.76883 v 0 l 1,0.76519 v 0 l 1,0.76152 v 0 l 1,0.75783 v 0 l 1,0.75412 v 0 l 1,0.75039 v 0 l 1,0.74662 v 0 l 1,0.74283 v 0 l 1,0.73903 v 0 l 1,0.73519 v 0 l 1,0.73134 v 0 l 1,0.72746 v 0 l 1,0.72355 v 0 l 1,0.71962 v 0 l 1,0.71568 v 0 l 1,0.7117 v 0 l 1,0.7077 v 0 l 1,0.70369 v 0 l 1,0.69964 v 0 l 1,0.69558 v 0 l 1,0.6915 v 0 l 1,0.68738 v 0 l 1,0.68326 v 0 l 1,0.6791 v 0 l 1,0.67492 v 0 l 1,0.67073 v 0 l 1,0.66652 v 0 l 1,0.66227 v 0 l 1,0.65801 v 0 l 1,0.65373 v 0 l 1,0.64943 v 0 l 1,0.6451 v 0 l 1,0.64076 v 0 l 1,0.63639 v 0 l 1,0.63201 v 0 l 1,0.6276 v 0 l 1,0.62318 v 0 l 1,0.61872 v 0 l 1,0.61427 v 0 l 1,0.60977 v 0 l 1,0.60527 v 0 l 1,0.60075 v 0 l 1,0.5962 v 0 l 1,0.59164 v 0 l 1,0.58705 v 0 l 1,0.58246 v 0 l 1,0.57783 v 0 l 1,0.57319 v 0 l 1,0.56854 v 0 l 1,0.56386 v 0 l 1,0.55917 v 0 l 1,0.55445 v 0 l 1,0.54973 v 0 l 1,0.54498 v 0 l 1,0.54021 v 0 l 1,0.53544 v 0 l 1,0.53063 v 0 l 1,0.52582 v 0 l 1,0.52098 v 0 l 1,0.51613 v 0 l 1,0.51127 v 0 l 1,0.50638 v 0 l 1,0.50148 v 0 l 1,0.49657 v 0 l 1,0.49163 v 0 l 1,0.48669 v 0 l 1,0.48173 v 0 l 1,0.47674 v 0 l 1,0.47176 v 0 l 1,0.46674 v 0 l 1,0.46172 v 0 l 1,0.45668 v 0 l 1,0.45163 v 0 l 1,0.44655 v 0 l 1,0.44148 v 0 l 1,0.43638 v 0 l 1,0.43127 v 0 l 1,0.42614 v 0 l 1,0.42101 v 0 l 1,0.41585 v 0 l 1,0.41069 v 0 l 1,0.4055 v 0 l 1,0.40032 v 0 l 1,0.39511 v 0 l 1,0.3899 v 0 l 1,0.38467 v 0 l 1,0.37942 v 0 l 1,0.37417 v 0 l 1,0.3689 v 0 l 1,0.36363 v 0 l 1,0.35833 v 0 l 1,0.35303 v 0 l 1,0.34772 v 0 l 1,0.3424 v 0 l 1,0.33706 v 0 l 1,0.33172 v 0 l 1,0.32635 v 0 l 1,0.321 v 0 l 1,0.31561 v 0 l 1,0.31023 v 0 l 1,0.30483 v 0 l 1,0.29942 v 0 l 1,0.294 v 0 l 1,0.28858 v 0 l 1,0.28314 v 0 l 1,0.2777 v 0 l 1,0.27224 v 0 l 1,0.26679 v 0 l 1,0.26131 v 0 l 1,0.25583 v 0 l 1,0.25034 v 0 l 1,0.24485 v 0 l 1,0.23934 v 0 l 1,0.23383 v 0 l 1,0.22831 v 0 l 1,0.22279 v 0 l 1,0.21725 v 0 l 1,0.21172 v 0 l 1,0.20616 v 0 l 1,0.20061 v 0 l 1,0.19506 v 0 l 1,0.18948 v 0 l 1,0.18391 v 0 l 1,0.17834 v 0 l 1,0.17275 v 0 l 1,0.16715 v 0 l 1,0.16157 v 0 l 1,0.15596 v 0 l 1,0.15036 v 0 l 1,0.14475 v 0 l 1,0.13913 v 0 l 1,0.13351 v 0 l 1,0.12789 v 0 l 1,0.12226 v 0 l 1,0.11663 v 0 l 1,0.111 v 0 l 1,0.10535 v 0 l 1,0.0997 v 0 l 1,0.0941 v 0 l 1,0.0884 v 0 l 1,0.0828 v 0 l 1,0.0771 v 0 l 1,0.0714 v 0 l 1,0.0658 v 0 l 1,0.0601 v 0 l 1,0.0545 v 0 l 1,0.0488 v 0 l 1,0.0431 v 0 l 1,0.0375 v 0 l 1,0.0318 v 0 l 1,0.0261 v 0 l 1,0.0205 v 0 l 1,0.0148 v 0 l 1,0.009 v 0 l 1,0.003 v -0.002 l 1,0.002 v -0.002 l 1,-0.008 v 0 l 1,-0.0136 v 0 l 1,-0.0192 v 0 l 1,-0.0249 v 0 l 1,-0.0306 v 0 l 1,-0.0362 v 0 l 1,-0.0419 v 0 l 1,-0.0476 v 0 l 1,-0.0533 v 0 l 1,-0.0589 v 0 l 1,-0.0646 v 0 l 1,-0.0702 v 0 l 1,-0.0759 v 0 l 1,-0.0815 v 0 l 1,-0.0872 v 0 l 1,-0.0928 v 0 l 1,-0.0985 v 0 l 1,-0.10414 v 0 l 1,-0.10978 v 0 l 1,-0.11542 v 0 l 1,-0.12105 v 0 l 1,-0.12668 v 0 l 1,-0.1323 v 0 l 1,-0.13792 v 0 l 1,-0.14354 v 0 l 1,-0.14915 v 0 l 1,-0.15476 v 0 l 1,-0.16036 v 0 l 1,-0.16596 v 0 l 1,-0.17154 v 0 l 1,-0.17714 v 0 l 1,-0.18271 v 0 l 1,-0.18828 v 0 l 1,-0.19386 v 0 l 1,-0.19941 v 0 l 1,-0.20498 v 0 l 1,-0.21052 v 0 l 1,-0.21606 v 0 l 1,-0.22159 v 0 l 1,-0.22713 v 0 l 1,-0.23264 v 0 l 1,-0.23816 v 0 l 1,-0.24367 v 0 l 1,-0.24916 v 0 l 1,-0.25465 v 0 l 1,-0.26013 v 0 l 1,-0.2656 v 0 l 1,-0.27107 v 0 l 1,-0.27653 v 0 l 1,-0.28197 v 0 l 1,-0.28741 v 0 l 1,-0.29284 v 0 l 1,-0.29825 v 0 l 1,-0.30367 v 0 l 1,-0.30907 v 0 l 1,-0.31445 v 0 l 1,-0.31984 v 0 l 1,-0.3252 v 0 l 1,-0.33057 v 0 l 1,-0.33591 v 0 l 1,-0.34125 v 0 l 1,-0.34657 v 0 l 1,-0.35189 v 0 l 1,-0.3572 v 0 l 1,-0.36249 v 0 l 1,-0.36776 v 0 l 1,-0.37304 v 0 l 1,-0.37829 v 0 l 1,-0.38354 v 0 l 1,-0.38877 v 0 l 1,-0.394 v 0 l 1,-0.39919 v 0 l 1,-0.4044 v 0 l 1,-0.40957 v 0 l 1,-0.41474 v 0 l 1,-0.4199 v 0 l 1,-0.42504 v 0 l 1,-0.43017 v 0 l 1,-0.43528 v 0 l 1,-0.44038 v 0 l 1,-0.44546 v 0 l 1,-0.45054 v 0 l 1,-0.4556 v 0 l 1,-0.46063 v 0 l 1,-0.46567 v 0 l 1,-0.47067 v 0 l 1,-0.47567 v 0 l 1,-0.48066 v 0 l 1,-0.48562 v 0 l 1,-0.49057 v 0 l 1,-0.49551 v 0 l 1,-0.50043 v 0 l 1,-0.50533 v 0 l 1,-0.51021 v 0 l 1,-0.51509 v 0 l 1,-0.51994 v 0 l 1,-0.52478 v 0 l 1,-0.5296 v 0 l 1,-0.5344 v 0 l 1,-0.53918 v 0 l 1,-0.54396 v 0 l 1,-0.54871 v 0 l 1,-0.55344 v 0 l 1,-0.55815 v 0 l 1,-0.56285 v 0 l 1,-0.56754 v 0 l 1,-0.57219 v 0 l 1,-0.57684 v 0 l 1,-0.58146 v 0 l 1,-0.58606 v 0 l 1,-0.59066 v 0 l 1,-0.59522 v 0 l 1,-0.59977 v 0 l 1,-0.6043 v 0 l 1,-0.60881 v 0 l 1,-0.61329 v 0 l 1,-0.61777 v 0 l 1,-0.62222 v 0 l 1,-0.62665 v 0 l 1,-0.63106 v 0 l 1,-0.63546 v 0 l 1,-0.63982 v 0 l 1,-0.64417 v 0 l 1,-0.64849 v 0 l 1,-0.65281 v 0 l 1,-0.65709 v 0 l 1,-0.66136 v 0 l 1,-0.6656 v 0 l 1,-0.66983 v 0 l 1,-0.67402 v 0 l 1,-0.67821 v 0 l 1,-0.68236 v 0 l 1,-0.6865 v 0 l 1,-0.69061 v 0 l 1,-0.6947 v 0 l 1,-0.69877 v 0 l 1,-0.70282 v 0 l 1,-0.70684 v 0 l 1,-0.71085 v 0 l 1,-0.71482 v 0 l 1,-0.71878 v 0 l 1,-0.7227 v 0 l 1,-0.72662 v 0 l 1,-0.73051 v 0 l 1,-0.73436 v 0 l 1,-0.73821 v 0 l 1,-0.74201 v 0 l 1,-0.74581 v 0 l 1,-0.74958 v 0 l 1,-0.75332 v 0 l 1,-0.75703 v 0 l 1,-0.76073 v 0 l 1,-0.7644 v 0 l 1,-0.76805 v 0 l 1,-0.77167 v 0 l 1,-0.77526 v 0 l 1,-0.77883 v 0 l 1,-0.78238 v 0 l 1,-0.78589 v 0 l 1,-0.78939 v 0 l 1,-0.79287 v 0 l 1,-0.7963 v 0 l 1,-0.79972 v 0 l 1,-0.80312 v 0 l 1,-0.80648 v 0 l 1,-0.80983 v 0 l 1,-0.81314 v 0 l 1,-0.81643 v 0 l 1,-0.81969 v 0 l 1,-0.82292 v 0 l 1,-0.82614 v 0 l 1,-0.82932 v 0 l 1,-0.83247 v 0 l 1,-0.83561 v 0 l 1,-0.8387 v 0 l 1,-0.84179 v 0 l 1,-0.84483 v 0 l 1,-0.84785 v 0 l 1,-0.85085 v 0 l 1,-0.85381 v 0 l 1,-0.85675 v 0 l 1,-0.85966 v 0 l 1,-0.86255 v 0 l 1,-0.86541 v 0 l 1,-0.86823 v 0 l 1,-0.87103 v 0 l 1,-0.87381 v 0 l 1,-0.87655 v 0 l 1,-0.87926 v 0 l 1,-0.88196 v 0 l 1,-0.88461 v 0 l 1,-0.88724 v 0 l 1,-0.88985 v 0 l 1,-0.89242 v 0 l 1,-0.89496 v 0 l 1,-0.89749 v 0 l 1,-0.89996 v 0 l 1,-0.90243 v 0 l 1,-0.90486 v 0 l 1,-0.90726 v 0 l 1,-0.90962 v 0 l 1,-0.91197 v 0 l 1,-0.91429 v 0 l 1,-0.91656 v 0 l 1,-0.91882 v 0 l 1,-0.92104 v 0 l 1,-0.92324 v 0 l 1,-0.9254 v 0 l 1,-0.92754 v 0 l 1,-0.92964 v 0 l 1,-0.93172 v 0 l 1,-0.93376 v 0 l 1,-0.93578 v 0 l 1,-0.93776 v 0 l 1,-0.93971 v 0 l 1,-0.94165 v 0 l 1,-0.94353 v 0 l 1,-0.9454 v 0 l 1,-0.94723 v 0 l 1,-0.94904 v 0 l 1,-0.95081 v 0 l 1,-0.95255 v 0 l 1,-0.95426 v 0 l 1,-0.95594 v 0 l 1,-0.95759 v 0 l 1,-0.95922 v 0 l 1,-0.96079 v 0 l 1,-0.96236 v 0 l 1,-0.96388 v 0 l 1,-0.96538 v 0 l 1,-0.96684 v 0 l 1,-0.96828 v 0 l 1,-0.96967 v 0 l 1,-0.97105 v 0 l 1,-0.97239 v 0 l 1,-0.97369 v 0 l 1,-0.97497 v 0 l 1,-0.97622 v 0 l 1,-0.97743 v 0 l 1,-0.97861 v 0 l 1,-0.97977 v 0 l 1,-0.98088 v 0 l 1,-0.98198 v 0 l 1,-0.98302 v 0 l 1,-0.98406 v 0 l 1,-0.98504 v 0 l 1,-0.98601 v 0 l 1,-0.98694 v 0 l 1,-0.98784 v 0 l 1,-0.9887 v 0 l 1,-0.98953 v 0 l 1,-0.99034 v 0 l 1,-0.99111 v 0 l 1,-0.99185 v 0 l 1,-0.99255 v 0 l 1,-0.99323 v 0 l 1,-0.99387 v 0 l 1,-0.99449 v 0 l 1,-0.99506 v 0 l 1,-0.99561 v 0 l 1,-0.99612 v 0 l 1,-0.99661 v 0 l 1,-0.99706 v 0 l 1,-0.99747 v 0 l 1,-0.99787 v 0 l 1,-0.99821 v 0 l 1,-0.99854 v 0 l 1,-0.99883 v 0 l 1,-0.99909 v 0 l 1,-0.99932 v 0 l 1,-0.9995 v 0 l 1,-0.99967 v 0 l 1,-0.9998 v 0 l 1,-0.9999 v 0 l 1,-0.99996 v 0 l 1,-0.99999 v 0 l 1,-1 v 0 l 1,-0.99996 v 0 l 1,-0.9999 v 0 l 1,-0.99981 v 0 l 1,-0.99967 v 0 l 1,-0.99952 v 0 l 1,-0.99932 v 0 l 1,-0.9991 v 0 l 1,-0.99885 v 0 l 1,-0.99855 v 0 l 1,-0.99823 v 0 l 1,-0.99788 v 0 l 1,-0.9975 v 0 l 1,-0.99708 v 0 l 1,-0.99663 v 0 l 1,-0.99614 v 0 l 1,-0.99564 v 0 l 1,-0.99509 v 0 l 1,-0.99451 v 0 l 1,-0.9939 v 0 l 1,-0.99326 v 0 l 1,-0.99259 v 0 l 1,-0.99188 v 0 l 1,-0.99115 v 0 l 1,-0.99037 v 0 l 1,-0.98958 v 0 l 1,-0.98874 v 0 l 1,-0.98788 v 0 l 1,-0.98698 v 0 l 1,-0.98605 v 0 l 1,-0.98509 v 0 l 1,-0.98411 v 0 l 1,-0.98307 v 0 l 1,-0.98203 v 0 l 1,-0.98093 v 0 l 1,-0.97982 v 0 l 1,-0.97867 v 0 l 1,-0.97749 v 0 l 1,-0.97628 v 0 l 1,-0.97503 v 0 l 1,-0.97375 v 0 l 1,-0.97245 v 0 l 1,-0.97112 v 0 l 1,-0.96974 v 0 l 1,-0.96834 v 0 l 1,-0.96691 v 0 l 1,-0.96545 v 0 l 1,-0.96395 v 0 l 1,-0.96243 v 0 l 1,-0.96088 v 0 l 1,-0.95928 v 0 l 1,-0.95767 v 0 l 1,-0.95602 v 0 l 1,-0.95435 v 0 l 1,-0.95263 v 0 l 1,-0.95089 v 0 l 1,-0.94912 v 0 l 1,-0.94732 v 0 l 1,-0.94549 v 0 l 1,-0.94363 v 0 l 1,-0.94173 v 0 l 1,-0.93981 v 0 l 1,-0.93785 v 0 l 1,-0.93588 v 0 l 1,-0.93385 v 0 l 1,-0.93182 v 0 l 1,-0.92974 v 0 l 1,-0.92764 v 0 l 1,-0.9255 v 0 l 1,-0.92334 v 0 l 1,-0.92115 v 0 l 1,-0.91893 v 0 l 1,-0.91667 v 0 l 1,-0.91439 v 0 l 1,-0.91208 v 0 l 1,-0.90974 v 0 l 1,-0.90737 v 0 l 1,-0.90497 v 0 l 1,-0.90255 v 0 l 1,-0.90008 v 0 l 1,-0.8976 v 0 l 1,-0.89509 v 0 l 1,-0.89254 v 0 l 1,-0.88997 v 0 l 1,-0.88737 v 0 l 1,-0.88474 v 0 l 1,-0.88208 v 0 l 1,-0.87939 v 0 l 1,-0.87668 v 0 l 1,-0.87394 v 0 l 1,-0.87117 v 0 l 1,-0.86836 v 0 l 1,-0.86554 v 0 l 1,-0.86269 v 0 l 1,-0.8598 v 0 l 1,-0.85689 v 0 l 1,-0.85395 v 0 l 1,-0.85099 v 0 l 1,-0.848 v 0 l 1,-0.84497 v 0 l 1,-0.84193 v 0 l 1,-0.83886 v 0 l 1,-0.83575 v 0 l 1,-0.83262 v 0 l 1,-0.82947 v 0 l 1,-0.82629 v 0 l 1,-0.82308 v 0 l 1,-0.81985 v 0 l 1,-0.81658 v 0 l 1,-0.8133 v 0 l 1,-0.80998 v 0 l 1,-0.80664 v 0 l 1,-0.80328 v 0 l 1,-0.79989 v 0 l 1,-0.79646 v 0 l 1,-0.79303 v 0 l 1,-0.78956 v 0 l 1,-0.78606 v 0 l 1,-0.78255 v 0 l 1,-0.779 v 0 l 1,-0.77543 v 0 l 1,-0.77184 v 0 l 1,-0.76822 v 0 l 1,-0.76457 v 0 l 1,-0.76091 v 0 l 1,-0.75721 v 0 l 1,-0.7535 v 0 l 1,-0.74975 v 0 l 1,-0.74599 v 0 l 1,-0.7422 v 0 l 1,-0.73838 v 0 l 1,-0.73455 v 0 l 1,-0.73069 v 0 l 1,-0.72681 v 0 l 1,-0.72289 v 0 l 1,-0.71897 v 0 l 1,-0.71501 v 0 l 1,-0.71103 v 0 l 1,-0.70703 v 0 l 1,-0.70301 v 0 l 1,-0.69897 v 0 l 1,-0.6949 v 0 l 1,-0.6908 v 0 l 1,-0.6867 v 0 l 1,-0.68256 v 0 l 1,-0.6784 v 0 l 1,-0.67423 v 0 l 1,-0.67002 v 0 l 1,-0.6658 v 0 l 1,-0.66156 v 0 l 1,-0.6573 v 0 l 1,-0.65301 v 0 l 1,-0.6487 v 0 l 1,-0.64438 v 0 l 1,-0.64003 v 0 l 1,-0.63566 v 0 l 1,-0.63127 v 0 l 1,-0.62686 v 0 l 1,-0.62243 v 0 l 1,-0.61798 v 0 l 1,-0.61352 v 0 l 1,-0.60902 v 0 l 1,-0.60451 v 0 l 1,-0.59999 v 0 l 1,-0.59544 v 0 l 1,-0.59087 v 0 l 1,-0.58628 v 0 l 1,-0.58168 v 0 l 1,-0.57706 v 0 l 1,-0.57242 v 0 l 1,-0.56775 v 0 l 1,-0.56308 v 0 l 1,-0.55838 v 0 l 1,-0.55366 v 0 l 1,-0.54893 v 0 l 1,-0.54419 v 0 l 1,-0.53941 v 0 l 1,-0.53463 v 0 l 1,-0.52983 v 0 l 1,-0.525 v 0 l 1,-0.52018 v 0 l 1,-0.51531 v 0 l 1,-0.51045 v 0 l 1,-0.50557 v 0 l 1,-0.50066 v 0 l 1,-0.49574 v 0 l 1,-0.49081 v 0 l 1,-0.48585 v 0 l 1,-0.4809 v 0 l 1,-0.47591 v 0 l 1,-0.47091 v 0 l 1,-0.46591 v 0 l 1,-0.46087 v 0 l 1,-0.45584 v 0 l 1,-0.45077 v 0 l 1,-0.44571 v 0 l 1,-0.44063 v 0 l 1,-0.43552 v 0 l 1,-0.43041 v 0 l 1,-0.42528 v 0 l 1,-0.42015 v 0 l 1,-0.41498 v 0 l 1,-0.40982 v 0 l 1,-0.40464 v 0 l 1,-0.39945 v 0 l 1,-0.39424 v 0 l 1,-0.38902 v 0 l 1,-0.38379 v 0 l 1,-0.37854 v 0 l 1,-0.37329 v 0 l 1,-0.36802 v 0 l 1,-0.36274 v 0 l 1,-0.35745 v 0 l 1,-0.35214 v 0 l 1,-0.34683 v 0 l 1,-0.3415 v 0 l 1,-0.33617 v 0 l 1,-0.33082 v 0 l 1,-0.32546 v 0 l 1,-0.32009 v 0 l 1,-0.31471 v 0 l 1,-0.30933 v 0 l 1,-0.30392 v 0 l 1,-0.29851 v 0 l 1,-0.2931 v 0 l 1,-0.28767 v 0 l 1,-0.28223 v 0 l 1,-0.27678 v 0 l 1,-0.27133 v 0 l 1,-0.26587 v 0 l 1,-0.26039 v 0 l 1,-0.25491 v 0 l 1,-0.24943 v 0 l 1,-0.24392 v 0 l 1,-0.23842 v 0 l 1,-0.23291 v 0 l 1,-0.22739 v 0 l 1,-0.22186 v 0 l 1,-0.21632 v 0 l 1,-0.21079 v 0 l 1,-0.20523 v 0 l 1,-0.19968 v 0 l 1,-0.19412 v 0 l 1,-0.18856 v 0 l 1,-0.18297 v 0 l 1,-0.1774 v 0 l 1,-0.17181 v 0 l 1,-0.16623 v 0 l 1,-0.16062 v 0 l 1,-0.15503 v 0 l 1,-0.14942 v 0 l 1,-0.1438 v 0 l 1,-0.13819 v 0 l 1,-0.13258 v 0 l 1,-0.12694 v 0 l 1,-0.12132 v 0 l 1,-0.11569 v 0 l 1,-0.11005 v 0 l 1,-0.10441 v 0 l 1,-0.0988 v 0 l 1,-0.0931 v 0 l 1,-0.0875 v 0 l 1,-0.0818 v 0 l 1,-0.0762 v 0 l 1,-0.0705 v 0 l 1,-0.0649 v 0 l 1,-0.0592 v 0 l 1,-0.0535 v 0 l 1,-0.0479 v 0 l 1,-0.0422 v 0 l 1,-0.0365 v 0 l 1,-0.0308 v 0 l 1,-0.0252 v 0 l 1,-0.0195 v 0 l 1,-0.0138 v 0 l 1,-0.008 v 0 l 1,-0.003 v 10e-6 l 1,0.003 v 0 l 1,0.009 v 0 l 1,0.0145 v 0 l 1,0.0202 v 0 l 1,0.0259 v 0 l 1,0.0315 v 0 l 1,0.0372 v 0 l 1,0.0429 v 0 l 1,0.0485 v 0 l 1,0.0542 v 0 l 1,0.0599 v 0 l 1,0.0655 v 0 l 1,0.0712 v 0 l 1,0.0768 v 0 l 1,0.0825 v 0 l 1,0.0882 v 0 l 1,0.0938 v 0 l 1,0.0994 v 0 l 1,0.10509 v 0 l 1,0.11073 v 0 l 1,0.11636 v 0 l 1,0.12199 v 0 l 1,0.12762 v 0 l 1,0.13325 v 0 l 1,0.13886 v 0 l 1,0.14448 v 0 l 1,0.15009 v 0 l 1,0.1557 v 0 l 1,0.1613 v 0 l 1,0.16689 v 0 l 1,0.17248 v 0 l 1,0.17807 v 0 l 1,0.18364 v 0 l 1,0.18922 v 0 l 1,0.19479 v 0 l 1,0.20035 v 0 l 1,0.2059 v 0 l 1,0.21145 v 0 l 1,0.21699 v 0 l 1,0.22252 v 0 l 1,0.22805 v 0 l 1,0.23357 v 0 l 1,0.23908 v 0 l 1,0.24459 v 0 l 1,0.25008 v 0 l 1,0.25557 v 0 l 1,0.26105 v 0 l 1,0.26652 v 0 l 1,0.27198 v 0 l 1,0.27744 v 0 l 1,0.28288 v 0 l 1,0.28832 v 0 l 1,0.29375 v 0 l 1,0.29916 v 0 l 1,0.30457 v 0 l 1,0.30997 v 0 l 1,0.31536 v 0 l 1,0.32074 v 0 l 1,0.3261 v 0 l 1,0.33146 v 0 l 1,0.33681 v 0 l 1,0.34214 v 0 l 1,0.34746 v 0 l 1,0.35279 v 0 l 1,0.35808 v 0 l 1,0.36337 v 0 l 1,0.36865 v 0 l 1,0.37392 v 0 l 1,0.37917 v 0 l 1,0.38442 v 0 l 1,0.38965 v 0 l 1,0.39486 v 0 l 1,0.40007 v 0 l 1,0.40526 v 0 l 1,0.41044 v 0 l 1,0.41561 v 0 l 1,0.42076 v 0 l 1,0.4259 v 0 l 1,0.43102 v 0 l 1,0.43614 v 0 l 1,0.44123 v 0 l 1,0.44632 v 0 l 1,0.45138 v 0 l 1,0.45644 v 0 l 1,0.46148 v 0 l 1,0.46651 v 0 l 1,0.47151 v 0 l 1,0.47651 v 0 l 1,0.48149 v 0 l 1,0.48645 v 0 l 1,0.4914 v 0 l 1,0.49634 v 0 l 1,0.50124 v 0 l 1,0.50615 v 0 l 1,0.51104 v 0 l 1,0.5159 v 0 l 1,0.52075 v 0 l 1,0.52559 v 0 l 1,0.5304 v 0 l 1,0.5352 v 0 l 1,0.53999 v 0 l 1,0.54475 v 0 l 1,0.5495 v 0 l 1,0.55423 v 0 l 1,0.55895 v 0 l 1,0.56364 v 0 l 1,0.56831 v 0 l 1,0.57297 v 0 l 1,0.57762 v 0 l 1,0.58223 v 0 l 1,0.58684 v 0 l 1,0.59142 v 0 l 1,0.59598 v 0 l 1,0.60053 v 0 l 1,0.60506 v 0 l 1,0.60956 v 0 l 1,0.61405 v 0 l 1,0.61851 v 0 l 1,0.62297 v 0 l 1,0.62739 v 0 l 1,0.63179 v 0 l 1,0.63619 v 0 l 1,0.64055 v 0 l 1,0.6449 v 0 l 1,0.64922 v 0 l 1,0.65352 v 0 l 1,0.65781 v 0 l 1,0.66207 v 0 l 1,0.66631 v 0 l 1,0.67053 v 0 l 1,0.67473 v 0 l 1,0.6789 v 0 l 1,0.68306 v 0 l 1,0.68719 v 0 l 1,0.6913 v 0 l 1,0.69538 v 0 l 1,0.69945 v 0 l 1,0.7035 v 0 l 1,0.70751 v 0 l 1,0.71151 v 0 l 1,0.71549 v 0 l 1,0.71944 v 0 l 1,0.72336 v 0 l 1,0.72727 v 0 l 1,0.73115 v 0 l 1,0.73501 v 0 l 1,0.73885 v 0 l 1,0.74265 v 0 l 1,0.74644 v 0 l 1,0.75021 v 0 l 1,0.75394 v 0 l 1,0.75766 v 0 l 1,0.76135 v 0 l 1,0.76501 v 0 l 1,0.76865 v 0 l 1,0.77227 v 0 l 1,0.77586 v 0 l 1,0.77943 v 0 l 1,0.78297 v 0 l 1,0.78648 v 0 l 1,0.78998 v 0 l 1,0.79344 v 0 l 1,0.79688 v 0 l 1,0.80029 v 0 l 1,0.80368 v 0 l 1,0.80705 v 0 l 1,0.81038 v 0 l 1,0.81369 v 0 l 1,0.81698 v 0 l 1,0.82023 v 0 l 1,0.82347 v 0 l 1,0.82667 v 0 l 1,0.82985 v 0 l 1,0.833 v 0 l 1,0.83613 v 0 l 1,0.83922 v 0 l 1,0.84229 v 0 l 1,0.84534 v 0 l 1,0.84836 v 0 l 1,0.85134 v 0 l 1,0.85431 v 0 l 1,0.85724 v 0 l 1,0.86015 v 0 l 1,0.86303 v 0 l 1,0.86588 v 0 l 1,0.86871 v 0 l 1,0.87149 v 0 l 1,0.87427 v 0 l 1,0.87701 v 0 l 1,0.87972 v 0 l 1,0.8824 v 0 l 1,0.88505 v 0 l 1,0.88768 v 0 l 1,0.89028 v 0 l 1,0.89285 v 0 l 1,0.89539 v 0 l 1,0.8979 v 0 l 1,0.90038 v 0 l 1,0.90284 v 0 l 1,0.90526 v 0 l 1,0.90766 v 0 l 1,0.91002 v 0 l 1,0.91236 v 0 l 1,0.91466 v 0 l 1,0.91695 v 0 l 1,0.91919 v 0 l 1,0.92142 v 0 l 1,0.9236 v 0 l 1,0.92576 v 0 l 1,0.92789 v 0 l 1,0.92999 v 0 l 1,0.93206 v 0 l 1,0.9341 v 0 l 1,0.93612 v 0 l 1,0.93809 v 0 l 1,0.94004 v 0 l 1,0.94196 v 0 l 1,0.94385 v 0 l 1,0.94571 v 0 l 1,0.94754 v 0 l 1,0.94933 v 0 l 1,0.9511 v 0 l 1,0.95284 v 0 l 1,0.95455 v 0 l 1,0.95622 v 0 l 1,0.95786 v 0 l 1,0.95948 v 0 l 1,0.96107 v 0 l 1,0.96261 v 0 l 1,0.96413 v 0 l 1,0.96563 v 0 l 1,0.96708 v 0 l 1,0.96852 v 0 l 1,0.9699 v 0 l 1,0.97128 v 0 l 1,0.97261 v 0 l 1,0.97391 v 0 l 1,0.97518 v 0 l 1,0.97642 v 0 l 1,0.97763 v 0 l 1,0.97881 v 0 l 1,0.97996 v 0 l 1,0.98106 v 0 l 1,0.98216 v 0 l 1,0.9832 v 0 l 1,0.98422 v 0 l 1,0.98521 v 0 l 1,0.98617 v 0 l 1,0.98709 v 0 l 1,0.98798 v 0 l 1,0.98884 v 0 l 1,0.98967 v 0 l 1,0.99047 v 0 l 1,0.99124 v 0 l 1,0.99197 v 0 l 1,0.99267 v 0 l 1,0.99334 v 0 l 1,0.99397 v 0 l 1,0.99459 v 0 l 1,0.99515 v 0 l 1,0.9957 v 0 l 1,0.99621 v 0 l 1,0.99668 v 0 l 1,0.99713 v 0 l 1,0.99755 v 0 l 1,0.99792 v 0 l 1,0.99827 v 0 l 1,0.99859 v 0 l 1,0.99888 v 0 l 1,0.99913 v 0 l 1,0.99935 v 0 l 1,0.99953 v 0 l 1,0.9997 v 0 l 1,0.99981 v 0 l 1,0.99991 v 0 l 1,0.99997 v 0 l 1,1 v 0 l 1,0.99999 v 0 l 1,0.99996 v 0 l 1,0.99988 v 0 l 1,0.99979 v 0 l 1,0.99965 v 0 l 1,0.99949 v 0 l 1,0.99928 v 0 l 1,0.99906 v 0 l 1,0.9988 v 0 l 1,0.9985 v 0 l 1,0.99818 v 0 l 1,0.99782 v 0 l 1,0.99743 v 0 l 1,0.997 v 0 l 1,0.99655 v 0 l 1,0.99607 v 0 l 1,0.99554 v 0 l 1,0.995 v 0 l 1,0.99441 v 0 l 1,0.99379 v 0 l 1,0.99315 v 0 l 1,0.99248 v 0 l 1,0.99176 v 0 l 1,0.99102 v 0 l 1,0.99024 v 0 l 1,0.98944 v 0 l 1,0.9886 v 0 l 1,0.98773 v 0 l 1,0.98682 v 0 l 1,0.9859 v 0 l 1,0.98493 v 0 l 1,0.98393 v 0 l 1,0.9829 v 0 l 1,0.98185 v 0 l 1,0.98075 v 0 l 1,0.97963 v 0 l 1,0.97847 v 0 l 1,0.97729 v 0 l 1,0.97607 v 0 l 1,0.97482 v 0 l 1,0.97354 v 0 l 1,0.97222 v 0 l 1,0.97089 v 0 l 1,0.96951 v 0 l 1,0.9681 v 0 l 1,0.96667 v 0 l 1,0.9652 v 0 l 1,0.9637 v 0 l 1,0.96217 v 0 l 1,0.96061 v 0 l 1,0.95902 v 0 l 1,0.9574 v 0 l 1,0.95574 v 0 l 1,0.95406 v 0 l 1,0.95234 v 0 l 1,0.9506 v 0 l 1,0.94882 v 0 l 1,0.94701 v 0 l 1,0.94518 v 0 l 1,0.94331 v 0 l 1,0.94141 v 0 l 1,0.93949 v 0 l 1,0.93752 v 0 l 1,0.93554 v 0 l 1,0.93352 v 0 l 1,0.93147 v 0 l 1,0.92939 v 0 l 1,0.92728 v 0 l 1,0.92515 v 0 l 1,0.92297 v 0 l 1,0.92078 v 0 l 1,0.91855 v 0 l 1,0.91629 v 0 l 1,0.91401 v 0 l 1,0.91169 v 0 l 1,0.90935 v 0 l 1,0.90697 v 0 l 1,0.90456 v 0 l 1,0.90214 v 0 l 1,0.89967 v 0 l 1,0.89718 v 0 l 1,0.89466 v 0 l 1,0.89212 v 0 l 1,0.88953 v 0 l 1,0.88693 v 0 l 1,0.8843 v 0 l 1,0.88163 v 0 l 1,0.87894 v 0 l 1,0.87622 v 0 l 1,0.87348 v 0 l 1,0.8707 v 0 l 1,0.86789 v 0 l 1,0.86506 v 0 l 1,0.86221 v 0 l 1,0.85931 v 0 l 1,0.85641 v 0 l 1,0.85345 v 0 l 1,0.85049 v 0 l 1,0.8475 v 0 l 1,0.84446 v 0 l 1,0.84142 v 0 l 1,0.83833 v 0 l 1,0.83523 v 0 l 1,0.8321 v 0 l 1,0.82894 v 0 l 1,0.82575 v 0 l 1,0.82254 v 0 l 1,0.8193 v 0 l 1,0.81604 v 0 l 1,0.81274 v 0 l 1,0.80943 v 0 l 1,0.80608 v 0 l 1,0.80271 v 0 l 1,0.79931 v 0 l 1,0.7959 v 0 l 1,0.79244 v 0 l 1,0.78898 v 0 l 1,0.78548 v 0 l 1,0.78195 v 0 l 1,0.7784 v 0 l 1,0.77483 v 0 l 1,0.77124 v 0 l 1,0.76761 v 0 l 1,0.76396 v 0 l 1,0.76029 v 0 l 1,0.75659 v 0 l 1,0.75287 v 0 l 1,0.74913 v 0 l 1,0.74535 v 0 l 1,0.74156 v 0 l 1,0.73775 v 0 l 1,0.7339 v 0 l 1,0.73004 v 0 l 1,0.72615 v 0 l 1,0.72224 v 0 l 1,0.71831 v 0 l 1,0.71434 v 0 l 1,0.71037 v 0 l 1,0.70636 v 0 l 1,0.70233 v 0 l 1,0.69829 v 0 l 1,0.69421 v 0 l 1,0.69012 v 0 l 1,0.686 v 0 l 1,0.68187 v 0 l 1,0.6777 v 0 l 1,0.67353 v 0 l 1,0.66932 v 0 l 1,0.66509 v 0 l 1,0.66085 v 0 l 1,0.65658 v 0 l 1,0.65229 v 0 l 1,0.64798 v 0 l 1,0.64365 v 0 l 1,0.6393 v 0 l 1,0.63492 v 0 l 1,0.63053 v 0 l 1,0.62612 v 0 l 1,0.62169 v 0 l 1,0.61724 v 0 l 1,0.61276 v 0 l 1,0.60827 v 0 l 1,0.60375 v 0 l 1,0.59923 v 0 l 1,0.59467 v 0 l 1,0.59011 v 0 l 1,0.58551 v 0 l 1,0.58091 v 0 l 1,0.57628 v 0 l 1,0.57164 v 0 l 1,0.56697 v 0 l 1,0.56229 v 0 l 1,0.55759 v 0 l 1,0.55287 v 0 l 1,0.54814 v 0 l 1,0.54339 v 0 l 1,0.53861 v 0 l 1,0.53383 v 0 l 1,0.52902 v 0 l 1,0.5242 v 0 l 1,0.51936 v 0 l 1,0.5145 v 0 l 1,0.50963 v 0 l 1,0.50474 v 0 l 1,0.49984 v 0 l 1,0.49492 v 0 l 1,0.48998 v 0 l 1,0.48503 v 0 l 1,0.48005 v 0 l 1,0.47508 v 0 l 1,0.47007 v 0 l 1,0.46507 v 0 l 1,0.46003 v 0 l 1,0.45499 v 0 l 1,0.44993 v 0 l 1,0.44485 v 0 l 1,0.43977 v 0 l 1,0.43467 v 0 l 1,0.42956 v 0 l 1,0.42442 v 0 l 1,0.41928 v 0 l 1,0.41412 v 0 l 1,0.40896 v 0 l 1,0.40377 v 0 l 1,0.39857 v 0 l 1,0.39337 v 0 l 1,0.38814 v 0 l 1,0.38291 v 0 l 1,0.37767 v 0 l 1,0.3724 v 0 l 1,0.36714 v 0 l 1,0.36185 v 0 l 1,0.35656 v 0 l 1,0.35126 v 0 l 1,0.34593 v 0 l 1,0.34061 v 0 l 1,0.33528 v 0 l 1,0.32992 v 0 l 1,0.32456 v 0 l 1,0.31919 v 0 l 1,0.31381 v 0 l 1,0.30842 v 0 l 1,0.30302 v 0 l 1,0.29761 v 0 l 1,0.29218 v 0 l 1,0.28676 v 0 l 1,0.28132 v 0 l 1,0.27587 v 0 l 1,0.27042 v 0 l 1,0.26495 v 0 l 1,0.25947 v 0 l 1,0.25399 v 0 l 1,0.24851 v 0 l 1,0.243 v 0 l 1,0.2375 v 0 l 1,0.23198 v 0 l 1,0.22646 v 0 l 1,0.22094 v 0 l 1,0.2154 v 0 l 1,0.20985 v 0 l 1,0.20431 v 0 l 1,0.19875 v 0 l 1,0.19318 v 0 l 1,0.18762 v 0 l 1,0.18204 v 0 l 1,0.17647 v 0 l 1,0.17087 v 0 l 1,0.16529 v 0 l 1,0.15969 v 0 l 1,0.15408 v 0 l 1,0.14848 v 0 l 1,0.14287 v 0 l 1,0.13725 v 0 l 1,0.13163 v 0 l 1,0.126 v 0 l 1,0.12038 v 0 l 1,0.11474 v 0 l 1,0.1091 v 0 l 1,0.10347 v 0 l 1,0.0978 v 0 l 1,0.0922 v 0 l 1,0.0865 v 0 l 1,0.0809 v 0 l 1,0.0752 v 0 l 1,0.0696 v 0 l 1,0.0639 v 0 l 1,0.0582 v 0 l 1,0.0526 v 0 l 1,0.0469 v 0 l 1,0.0412 v 0 l 1,0.0356 v 0 l 1,0.0299 v 0 l 1,0.0242 v 0 l 1,0.0186 v 0 l 1,0.0129 v 0 l 1,0.007 v 0 l 1,0.002 v -1.5e-4 l 1,-0.004 v 0 l 1,-0.01 v 0 l 1,-0.0155 v 0 l 1,-0.0212 v 0 l 1,-0.0268 v 0 l 1,-0.0325 v 0 l 1,-0.0381 v 0 l 1,-0.0438 v 0 l 1,-0.0495 v 0 l 1,-0.0551 v 0 l 1,-0.0608 v 0 l 1,-0.0665 v 0 l 1,-0.0721 v 0 l 1,-0.0778 v 0 l 1,-0.0834 v 0 l 1,-0.0891 v 0 l 1,-0.0947 v 0 l 1,-0.10039 v 0 l 1,-0.10603 v 0 l 1,-0.11167 v 0 l 1,-0.11731 v 0 l 1,-0.12293 v 0 l 1,-0.12857 v 0 l 1,-0.13418 v 0 l 1,-0.13981 v 0 l 1,-0.14542 v 0 l 1,-0.15103 v 0 l 1,-0.15663 v 0 l 1,-0.16224 v 0 l 1,-0.16783 v 0 l 1,-0.17342 v 0 l 1,-0.179 v 0 l 1,-0.18458 v 0 l 1,-0.19015 v 0 l 1,-0.19572 v 0 l 1,-0.20128 v 0 l 1,-0.20683 v 0 l 1,-0.21238 v 0 l 1,-0.21792 v 0 l 1,-0.22344 v 0 l 1,-0.22898 v 0 l 1,-0.23449 v 0 l 1,-0.24001 v 0 l 1,-0.2455 v 0 l 1,-0.251 v 0 l 1,-0.25649 v 0 l 1,-0.26197 v 0 l 1,-0.26744 v 0 l 1,-0.27289 v 0 l 1,-0.27835 v 0 l 1,-0.2838 v 0 l 1,-0.28923 v 0 l 1,-0.29465 v 0 l 1,-0.30007 v 0 l 1,-0.30548 v 0 l 1,-0.31087 v 0 l 1,-0.31626 v 0 l 1,-0.32164 v 0 l 1,-0.327 v 0 l 1,-0.33236 v 0 l 1,-0.3377 v 0 l 1,-0.34303 v 0 l 1,-0.34836 v 0 l 1,-0.35367 v 0 l 1,-0.35897 v 0 l 1,-0.36426 v 0 l 1,-0.36953 v 0 l 1,-0.3748 v 0 l 1,-0.38005 v 0 l 1,-0.3853 v 0 l 1,-0.39052 v 0 l 1,-0.39574 v 0 l 1,-0.40094 v 0 l 1,-0.40613 v 0 l 1,-0.4113 v 0 l 1,-0.41647 v 0 l 1,-0.42163 v 0 l 1,-0.42675 v 0 l 1,-0.43189 v 0 l 1,-0.43699 v 0 l 1,-0.44208 v 0 l 1,-0.44717 v 0 l 1,-0.45223 v 0 l 1,-0.45729"
         stroke-opacity="0.8"
         stroke-linecap="round"
         stroke-linejoin="round"
         stroke-miterlimit="10"
         stroke-width="2.5"
         id="path12" />
      <text
         fill="#006758"
         stroke="none"
         font-family="geogebra-sans-serif, sans-serif"
         font-size="16px"
         font-style="normal"
         font-weight="normal"
         text-decoration="normal"
         x="24"
         y="421"
         text-anchor="start"
         dominant-baseline="alphabetic"
         fill-opacity="1"
         id="text12">f</text>
      <path
         fill="none"
         stroke="#c75000"
         paint-order="fill stroke markers"
         d="m 0.5,361.09681 v 0 0 h 1 v 0 h 1 v 0 h 1 v 0 h 1 v 0 h 1 v 0 h 1 v 0 h 1 v 0 h 1 v 0 h 1 v 0 h 1 v 0 h 1 v 0 h 1 v 0 h 1 v 0 h 1 v 0 h 1 v 0 h 1 v 0 h 1 v 0 h 1 v 0 h 1 v 0 h 1 v 0 h 1 v 0 h 1 v 0 h 1 v 0 h 1 v 0 h 1 v 0 h 1 v 0 h 1 v 0 h 1 v 0 h 1 v 0 h 1 v 0 h 1 v 0 h 1 v 0 h 1 v 0 h 1 v 0 h 1 v 0 h 1 v 0 h 1 v 0 h 1 v 0 h 1 v 0 h 1 v 0 h 1 v 0 h 1 v 0 h 1 v 0 h 1 v 0 h 1 v 0 h 1 v 0 h 1 v 0 h 1 v 0 h 1 v 0 h 1 v 0 h 1 v 0 h 1 v 0 h 1 v 0 h 1 v 0 h 1 v 0 h 1 v 0 h 1 v 0 h 1 v 0 h 1 v 0 h 1 v 0 h 1 v 0 h 1 v 0 h 1 v 0 h 1 v 0 h 1 v 0 h 1 v 0 h 1 v 0 h 1 v 0 h 1 v 0 h 1 v 0 h 1 v 0 h 1 v 0 h 1 v 0 h 1 v 0 h 1 v 0 h 1 v 0 h 1 v 0 h 1 v 0 h 1 v 0 h 1 v 0 h 1 v 0 h 1 v 0 h 1 v 0 h 1 v 0 h 1 v 0 h 1 v 0 h 1 v 0 h 1 v 0 h 1 v 0 h 1 v 0 h 1 v 0 h 1 v 0 h 1 v 0 h 1 v 0 h 1 v 0 h 1 v 0 h 1 v 0 h 1 v 0 h 1 v 0 h 1 v 0 h 1 v 0 h 1 v 0 h 1 v 0 h 1 v 0 h 1 v 0 h 1 v 0 h 1 v 0 h 1 v 0 h 1 v 0 h 1 v 0 h 1 v 0 h 1 v 0 h 1 v 0 h 1 v 0 h 1 v 0 h 1 v 0 h 1 v 0 h 1 v 0 h 1 v 0 h 1 v 0 h 1 v 0 h 1 v 0 h 1 v 0 h 1 v 0 h 1 v 0 h 1 v 0 h 1 v 0 h 1 v 0 h 1 v 0 h 1 v 0 h 1 v 0 h 1 v 0 h 1 v 0 h 1 v 0 h 1 v 0 h 1 v 0 h 1 v 0 h 1 v 0 h 1 v 0 h 1 v 0 h 1 v 0 h 1 v 0 h 1 v 0 h 1 v 0 h 1 v 0 h 1 v 0 h 1 v 0 h 1 v 0 h 1 v 0 h 1 v 0 h 1 v 0 h 1 v 0 h 1 v 0 h 1 v 0 h 1 v 0 h 1 v 0 h 1 v 0 h 1 v 0 h 1 v 0 h 1 v 0 h 1 v 0 h 1 v 0 h 1 v 0 h 1 v 0 h 1 v 0 h 1 v 0 h 1 v 0 h 1 v 0 h 1 v 0 h 1 v 0 h 1 v 0 h 1 v 0 h 1 v 0 h 1 v 0 h 1 v 0 h 1 v 0 h 1 v 0 h 1 v 0 h 1 v 0 h 1 v 0 h 1 v 0 h 1 v 0 h 1 v 0 h 1 v 0 h 1 v 0 h 1 v 0 h 1 v 0 h 1 v 0 h 1 v 0 h 1 v 0 h 1 v 0 h 1 v 0 h 1 v 0 h 1 v 0 h 1 v 0 h 1 v 0 h 1 v 0 h 1 v 0 h 1 v 0 h 1 v 0 h 1 v 0 h 1 v 0 h 1 v 0 h 1 v 0 h 1 v 0 h 1 v 0 h 1 v 0 h 1 v 0 h 1 v 0 h 1 v 0 h 1 v 0 h 1 v 0 h 1 v 0 h 1 v 0 h 1 v 0 h 1 v 0 h 1 v 0 h 1 v 0 h 1 v 0 h 1 v 0 h 1 v 0 h 1 v 0 h 1 v 0 h 1 v 0 h 1 v 0 h 1 v 0 h 1 v 0 h 1 v 0 h 1 v 0 h 1 v 0 h 1 v 0 h 1 v 0 h 1 v 0 h 1 v 0 h 1 v 0 h 1 v 0 h 1 v 0 h 1 v 0 h 1 v 0 h 1 v 0 h 1 v 0 h 1 v 0 h 1 v 0 h 1 v 0 h 1 v 0 h 1 v 0 h 1 v 0 h 1 v 0 h 1 v 0 h 1 v 0 h 1 v 0 h 1 v 0 h 1 v 0 h 1 v 0 h 1 v 0 h 1 v 0 h 1 v 0 h 1 v 0 h 1 v 0 h 1 v 0 h 1 v 0 h 1 v 0 h 1 v 0 h 1 v 0 h 1 v 0 h 1 v 0 h 1 v 0 h 1 v 0 h 1 v 0 h 1 v 0 h 1 v 0 h 1 v 0 h 1 v 0 h 1 v 0 h 1 v 0 h 1 v 0 h 1 v 0 h 1 v 0 h 1 v 0 h 1 v 0 h 1 v 0 h 1 v 0 h 1 v 0 h 1 v 0 h 1 v 0 h 1 v 0 h 1 v 0 h 1 v 0 h 1 v 0 h 1 v 0 h 1 v 0 l 1,10e-6 v 0 h 1 v 0 h 1 v 0 h 1 v 0 h 1 v 0 h 1 v 0 h 1 v 0 h 1 v 0 h 1 v 0 h 1 v 0 h 1 v 0 h 1 v 0 h 1 v 0 h 1 v 0 h 1 v 0 h 1 v 0 h 1 v 0 h 1 v 0 h 1 v 0 h 1 v 0 l 1,1e-5 v 0 h 1 v 0 h 1 v 0 h 1 v 0 h 1 v 0 h 1 v 0 h 1 v 0 h 1 v 0 h 1 v 0 l 1,10e-6 v 0 h 1 v 0 h 1 v 0 h 1 v 0 h 1 v 0 h 1 v 0 l 1,1e-5 v 0 h 1 v 0 h 1 v 0 h 1 v 0 l 1,10e-6 v 0 h 1 v 0 h 1 v 0 h 1 v 0 l 1,1e-5 v 0 h 1 v 0 h 1 v 0 l 1,10e-6 v 0 h 1 v 0 l 1,10e-6 v 0 h 1 v 0 l 1,1e-5 v 0 h 1 v 0 l 1,10e-6 v 0 h 1 v 0 l 1,1e-5 v 0 h 1 v 0 l 1,10e-6 v 0 l 1,1e-5 v 0 l 1,10e-6 v 0 h 1 v 0 l 1,1e-5 v 0 l 1,10e-6 v 0 l 1,10e-6 v 0 l 1,1e-5 v 0 l 1,10e-6 v 0 l 1,1e-5 v 0 l 1,2e-5 v 0 l 1,10e-6 v 0 l 1,1e-5 v 0 l 1,2e-5 v 0 l 1,1e-5 v 0 l 1,2e-5 v 0 l 1,2e-5 v 0 l 1,2e-5 v 0 l 1,10e-6 v 0 l 1,3e-5 v 0 l 1,2e-5 v 0 l 1,2e-5 v 0 l 1,2e-5 v 0 l 1,3e-5 v 0 l 1,3e-5 v 0 l 1,3e-5 v 0 l 1,3e-5 v 0 l 1,3e-5 v 0 l 1,4e-5 v 0 l 1,3e-5 v 0 l 1,4e-5 v 0 l 1,4e-5 v 0 l 1,5e-5 v 0 l 1,4e-5 v 0 l 1,5e-5 v 0 l 1,5e-5 v 0 l 1,6e-5 v 0 l 1,6e-5 v 0 l 1,6e-5 v 0 l 1,7e-5 v 0 l 1,7e-5 v 0 l 1,7e-5 v 0 l 1,8e-5 v 0 l 1,8e-5 v 0 l 1,9e-5 v 0 l 1,9e-5 v 0 l 1,1e-4 v 0 l 1,1.1e-4 v 0 l 1,1.1e-4 v 0 l 1,1.1e-4 v 0 l 1,1.3e-4 v 0 l 1,1.3e-4 v 0 l 1,1.4e-4 v 0 l 1,1.5e-4 v 0 l 1,1.6e-4 v 0 l 1,1.6e-4 v 0 l 1,1.8e-4 v 0 l 1,1.9e-4 v 0 l 1,2e-4 v 0 l 1,2.1e-4 v 0 l 1,2.2e-4 v 0 l 1,2.4e-4 v 0 l 1,2.5e-4 v 0 l 1,2.6e-4 v 0 l 1,2.8e-4 v 0 l 1,3e-4 v 0 l 1,3.2e-4 v 0 l 1,3.3e-4 v 0 l 1,3.6e-4 v 0 l 1,3.7e-4 v 0 l 1,4e-4 v 0 l 1,4.2e-4 v 0 l 1,4.5e-4 v 0 l 1,4.7e-4 v 0 l 1,5.1e-4 v 0 l 1,5.3e-4 v 0 l 1,5.6e-4 v 0 l 1,6e-4 v 0 l 1,6.4e-4 v 0 l 1,6.7e-4 v 0 l 1,7.1e-4 v 0 l 1,7.5e-4 v 0 l 1,8e-4 v 0 l 1,8.5e-4 v 0 l 1,9e-4 v 0 l 1,9.5e-4 v 0 l 1,0.001 v 0 l 1,10e-4 v 0 l 1,10e-4 v 0 l 1,0.001 v 0 l 1,10e-4 v 0 l 1,0.001 v 0 l 1,10e-4 v 0 l 1,0.002 v 0 l 1,0.002 v 0 l 1,0.002 v 0 l 1,0.002 v 0 l 1,0.002 v 0 l 1,0.002 v 0 l 1,0.002 v 0 l 1,0.002 v 0 l 1,0.002 v 0 l 1,0.003 v 0 l 1,0.003 v 0 l 1,0.003 v 0 l 1,0.003 v 0 l 1,0.003 v 0 l 1,0.003 v 0 l 1,0.004 v 0 l 1,0.004 v 0 l 1,0.004 v 0 l 1,0.004 v 0 l 1,0.005 v 0 l 1,0.005 v 0 l 1,0.005 v 0 l 1,0.005 v 0 l 1,0.006 v 0 l 1,0.006 v 0 l 1,0.006 v 0 l 1,0.007 v 0 l 1,0.007 v 0 l 1,0.008 v 0 l 1,0.008 v 0 l 1,0.009 v 0 l 1,0.009 v 0 l 1,0.01 v 0 l 1,0.0103 v 0 l 1,0.0109 v 0 l 1,0.0116 v 0 l 1,0.0122 v 0 l 1,0.013 v 0 l 1,0.0138 v 0 l 1,0.0146 v 0 l 1,0.0154 v 0 l 1,0.0164 v 0 l 1,0.0174 v 0 l 1,0.0184 v 0 l 1,0.0195 v 0 l 1,0.0206 v 0 l 1,0.0219 v 0 l 1,0.0232 v 0 l 1,0.0246 v 0 l 1,0.026 v 0 l 1,0.0276 v 0 l 1,0.0292 v 0 l 1,0.031 v 0 l 1,0.0328 v 0 l 1,0.0348 v 0 l 1,0.0368 v 0 l 1,0.0391 v 0 l 1,0.0414 v 0 l 1,0.0438 v 0 l 1,0.0465 v 0 l 1,0.0492 v 0 l 1,0.0521 v 0 l 1,0.0553 v 0 l 1,0.0585 v 0 l 1,0.062 v 0 l 1,0.0657 v 0 l 1,0.0696 v 0 l 1,0.0738 v 0 l 1,0.0781 v 0 l 1,0.0828 v 0 l 1,0.0877 v 0 l 1,0.0929 v 0 l 1,0.0984 v 0 l 1,0.10419 v 0 l 1,0.11036 v 0 l 1,0.11688 v 0 l 1,0.12378 v 0 l 1,0.1311 v 0 l 1,0.13883 v 0 l 1,0.147 v 0 l 1,0.15566 v 0 l 1,0.16482 v 0 l 1,0.1745 v 0 l 1,0.18473 v 0 l 1,0.19556 v 0 l 1,0.207 v 0 l 1,0.2191 v 0 l 1,0.23187 v 0 l 1,0.24538 v 0 l 1,0.25963 v 0 l 1,0.27469 v 0 l 1,0.29059 v 0 l 1,0.30736 v 0 l 1,0.32507 v 0 l 1,0.34372 v 0 l 1,0.36341 v 0 l 1,0.38414 v 0 l 1,0.40599 v 0 l 1,0.42897 v 0 l 1,0.45318 v 0 l 1,0.47862 v 0 l 1,0.50537 v 0 l 1,0.53345 v 0 l 1,0.56292 v 0 l 1,0.59382 v 0 l 1,0.6262 v 0 l 1,0.66008 v 0 l 1,0.69549 v 0 l 1,0.73246 v 0 l 1,0.77101 v 0 l 1,0.81116 v 0 l 1,0.85287 v 0 l 1,0.89617 v 0 l 1,0.94099 v 0 l 1,0.98731 v 0 l 1,1.03505 v 0 l 1,1.08413 v 0 l 1,1.13442 v 0 l 1,1.1858 v 0 l 1,1.23808 v 0 l 1,1.29106 v 0 l 1,1.3445 v 0 l 1,1.39812 v 0 l 1,1.45157 v 0 l 1,1.50453 v 0 l 1,1.55655 v 0 l 1,1.60719 v 0 l 1,1.65596 v 0 l 1,1.70234 v 0 l 1,1.74572 v 0 l 1,1.78555 v 0 l 1,1.82121 v 0 l 1,1.85205 v 0 l 1,1.87751 v 0 l 1,1.89696 v 0 l 1,1.90986 v 0 l 1,1.91571 v 0 l 1,1.91411 v 0 l 1,1.90472 v 0 l 1,1.88732 v 0 l 1,1.86184 v 0 l 1,1.82832 v 0 l 1,1.78696 v 0 l 1,1.7381 v 0 l 1,1.68223 v 0 l 1,1.61999 v 0 l 1,1.5521 v 0 l 1,1.47942 v 0 l 1,1.40286 v 0 l 1,1.32342 v 0 l 1,1.24206 v 0 l 1,1.15978 v 0 l 1,1.07752 v 0 l 1,0.99619 v 0 l 1,0.91658 v 0 l 1,0.8394 v 0 l 1,0.76526 v 0 l 1,0.69467 v 0 l 1,0.62799 v 0 l 1,0.56547 v 0 l 1,0.50731 v 0 l 1,0.45354 v 0 l 1,0.40417 v 0 l 1,0.3591 v 0 l 1,0.31819 v 0 l 1,0.28124 v 0 l 1,0.24803 v 0 l 1,0.21832 v 0 l 1,0.19185 v 0 l 1,0.16833 v 0 l 1,0.14754 v 0 l 1,0.12918 v 0 l 1,0.11304 v 0 l 1,0.0989 v 0 l 1,0.0864 v 0 l 1,0.0756 v 0 l 1,0.0661 v 0 l 1,0.0578 v 0 l 1,0.0506 v 0 l 1,0.0443 v 0 l 1,0.0389 v 0 l 1,0.0341 v 0 l 1,0.03 v 0 l 1,0.0264 v 0 l 1,0.0232 v 0 l 1,0.0205 v 0 l 1,0.0181 v 0 l 1,0.016 v 0 l 1,0.0142 v 0 l 1,0.0126 v 0 l 1,0.0112 v 0 l 1,0.01 v 0 l 1,0.009 v 0 l 1,0.008 v 0 l 1,0.007 v 0 l 1,0.006 v 0 l 1,0.006 v 0 l 1,0.005 v 0 l 1,0.005 v 0 l 1,0.004 v 0 l 1,0.004 v 0 l 1,0.003 v 0 l 1,0.003 v 0 l 1,0.003 v 0 l 1,0.003 v 0 l 1,0.002 v 0 l 1,0.002 v 0 l 1,0.002 v 0 l 1,0.002 v 0 l 1,0.002 v 0 l 1,0.002 v 0 l 1,0.001 v 0 l 1,10e-4 v 0 l 1,0.001 v 0 l 1,10e-4 v 0 l 1,0.001 v 0 l 1,9.7e-4 v 0 l 1,8.9e-4 v 0 l 1,8.3e-4 v 0 l 1,7.6e-4 v 0 l 1,7.2e-4 v 0 l 1,6.6e-4 v 0 l 1,6.2e-4 v 0 l 1,5.7e-4 v 0 l 1,5.4e-4 v 0 l 1,5e-4 v 0 l 1,4.6e-4 v 0 l 1,4.3e-4 v 0 l 1,4.1e-4 v 0 l 1,3.8e-4 v 0 l 1,3.5e-4 v 0 l 1,3.3e-4 v 0 l 1,3.1e-4 v 0 l 1,2.9e-4 v 0 l 1,2.8e-4 v 0 l 1,2.5e-4 v 0 l 1,2.4e-4 v 0 l 1,2.2e-4 v 0 l 1,2.1e-4 v 0 l 1,2e-4 v 0 l 1,1.9e-4 v 0 l 1,1.7e-4 v 0 l 1,1.6e-4 v 0 l 1,1.6e-4 v 0 l 1,1.4e-4 v 0 l 1,1.4e-4 v 0 l 1,1.2e-4 v 0 l 1,1.2e-4 v 0 l 1,1.2e-4 v 0 l 1,1e-4 v 0 l 1,10e-5 v 0 l 1,9e-5 v 0 l 1,9e-5 v 0 l 1,9e-5 v 0 l 1,7e-5 v 0 l 1,8e-5 v 0 l 1,7e-5 v 0 l 1,6e-5 v 0 l 1,6e-5 v 0 l 1,6e-5 v 0 l 1,6e-5 v 0 l 1,5e-5 v 0 l 1,5e-5 v 0 l 1,4e-5 v 0 l 1,4e-5 v 0 l 1,4e-5 v 0 l 1,4e-5 v 0 l 1,4e-5 v 0 l 1,3e-5 v 0 l 1,3e-5 v 0 l 1,3e-5 v 0 l 1,3e-5 v 0 l 1,3e-5 v 0 l 1,2e-5 v 0 l 1,3e-5 v 0 l 1,2e-5 v 0 l 1,2e-5 v 0 l 1,2e-5 v 0 l 1,2e-5 v 0 l 1,2e-5 v 0 l 1,2e-5 v 0 l 1,1e-5 v 0 l 1,2e-5 v 0 l 1,10e-6 v 0 l 1,10e-6 v 0 l 1,2e-5 v 0 l 1,1e-5 v 0 l 1,10e-6 v 0 l 1,1e-5 v 0 l 1,10e-6 v 0 l 1,1e-5 v 0 l 1,10e-6 v 0 l 1,10e-6 v 0 h 1 v 0 l 1,1e-5 v 0 l 1,10e-6 v 0 h 1 v 0 l 1,1e-5 v 0 l 1,10e-6 v 0 h 1 v 0 l 1,1e-5 v 0 h 1 v 0 l 1,10e-6 v 0 h 1 v 0 h 1 v 0 l 1,1e-5 v 0 h 1 v 0 l 1,10e-6 v 0 h 1 v 0 h 1 v 0 l 1,10e-6 v 0 h 1 v 0 h 1 v 0 h 1 v 0 l 1,1e-5 v 0 h 1 v 0 h 1 v 0 h 1 v 0 h 1 v 0 h 1 v 0 l 1,10e-6 v 0 h 1 v 0 h 1 v 0 h 1 v 0 h 1 v 0 h 1 v 0 h 1 v 0 l 1,1e-5 v 0 h 1 v 0 h 1 v 0 h 1 v 0 h 1 v 0 h 1 v 0 h 1 v 0 h 1 v 0 h 1 v 0 h 1 v 0 h 1 v 0 h 1 v 0 h 1 v 0 l 1,10e-6 v 0 h 1 v 0 h 1 v 0 h 1 v 0 h 1 v 0 h 1 v 0 h 1 v 0 h 1 v 0 h 1 v 0 h 1 v 0 h 1 v 0 h 1 v 0 h 1 v 0 h 1 v 0 h 1 v 0 h 1 v 0 h 1 v 0 h 1 v 0 h 1 v 0 h 1 v 0 h 1 v 0 h 1 v 0 h 1 v 0 h 1 v 0 h 1 v 0 h 1 v 0 h 1 v 0 h 1 v 0 h 1 v 0 h 1 v 0 h 1 v 0 h 1 v 0 h 1 v 0 h 1 v 0 h 1 v 0 h 1 v 0 h 1 v 0 h 1 v 0 h 1 v 0 h 1 v 0 h 1 v 0 h 1 v 0 h 1 v 0 h 1 v 0 h 1 v 0 h 1 v 0 h 1 v 0 h 1 v 0 h 1 v 0 h 1 v 0 h 1 v 0 h 1 v 0 h 1 v 0 h 1 v 0 h 1 v 0 h 1 v 0 h 1 v 0 h 1 v 0 h 1 v 0 h 1 v 0 h 1 v 0 h 1 v 0 h 1 v 0 h 1 v 0 h 1 v 0 h 1 v 0 h 1 v 0 h 1 v 0 h 1 v 0 h 1 v 0 h 1 v 0 h 1 v 0 h 1 v 0 h 1 v 0 h 1 v 0 h 1 v 0 h 1 v 0 h 1 v 0 h 1 v 0 h 1 v 0 h 1 v 0 h 1 v 0 h 1 v 0 h 1 v 0 h 1 v 0 h 1 v 0 h 1 v 0 h 1 v 0 h 1 v 0 h 1 v 0 h 1 v 0 h 1 v 0 h 1 v 0 h 1 v 0 h 1 v 0 h 1 v 0 h 1 v 0 h 1 v 0 h 1 v 0 h 1 v 0 h 1 v 0 h 1 v 0 h 1 v 0 h 1 v 0 h 1 v 0 h 1 v 0 h 1 v 0 h 1 v 0 h 1 v 0 h 1 v 0 h 1 v 0 h 1 v 0 h 1 v 0 h 1 v 0 h 1 v 0 h 1 v 0 h 1 v 0 h 1 v 0 h 1 v 0 h 1 v 0 h 1 v 0 h 1 v 0 h 1 v 0 h 1 v 0 h 1 v 0 h 1 v 0 h 1 v 0 h 1 v 0 h 1 v 0 h 1 v 0 h 1 v 0 h 1 v 0 h 1 v 0 h 1 v 0 h 1 v 0 h 1 v 0 h 1 v 0 h 1 v 0 h 1 v 0 h 1 v 0 h 1 v 0 h 1 v 0 h 1 v 0 h 1 v 0 h 1 v 0 h 1 v 0 h 1 v 0 h 1 v 0 h 1 v 0 h 1 v 0 h 1 v 0 h 1 v 0 h 1 v 0 h 1 v 0 h 1 v 0 h 1 v 0 h 1 v 0 h 1 v 0 h 1 v 0 h 1 v 0 h 1 v 0 h 1 v 0 h 1 v 0 h 1 v 0 h 1 v 0 h 1 v 0 h 1 v 0 h 1 v 0 h 1 v 0 h 1 v 0 h 1 v 0 h 1 v 0 h 1 v 0 h 1 v 0 h 1 v 0 h 1 v 0 h 1 v 0 h 1 v 0 h 1 v 0 h 1 v 0 h 1 v 0 h 1 v 0 h 1 v 0 h 1 v 0 h 1 v 0 h 1 v 0 h 1 v 0 h 1 v 0 h 1 v 0 h 1 v 0 h 1 v 0 h 1 v 0 h 1 v 0 h 1 v 0 h 1 v 0 h 1 v 0 h 1 v 0 h 1 v 0 h 1 v 0 h 1 v 0 h 1 v 0 h 1 v 0 h 1 v 0 h 1 v 0 h 1 v 0 h 1 v 0 h 1 v 0 h 1 v 0 h 1 v 0 h 1 v 0 h 1 v 0 h 1 v 0 h 1 v 0 h 1 v 0 h 1 v 0 h 1 v 0 h 1 v 0 h 1 v 0 h 1 v 0 h 1 v 0 h 1 v 0 h 1 v 0 h 1 v 0 h 1 v 0 h 1 v 0 h 1 v 0 h 1 v 0 h 1 v 0 h 1 v 0 h 1 v 0 h 1 v 0 h 1 v 0 h 1 v 0 h 1 v 0 h 1 v 0 h 1 v 0 h 1 v 0 h 1 v 0 h 1 v 0 h 1 v 0 h 1 v 0 h 1 v 0 h 1 v 0 h 1 v 0 h 1 v 0 h 1 v 0 h 1 v 0 h 1 v 0 h 1 v 0 h 1 v 0 h 1 v 0 h 1 v 0 h 1 v 0 h 1 v 0 h 1 v 0 h 1 v 0 h 1 v 0 h 1 v 0 h 1 v 0 h 1 v 0 h 1 v 0 h 1 v 0 h 1 v 0 h 1 v 0 h 1 v 0 h 1 v 0 h 1 v 0 h 1 v 0 h 1 v 0 h 1 v 0 h 1 v 0 h 1 v 0 h 1 v 0 h 1 v 0 h 1 v 0 h 1 v 0 h 1 v 0 h 1 v 0 h 1 v 0 h 1 v 0 h 1 v 0 h 1 v 0 h 1 v 0 h 1 v 0 h 1 v 0 h 1 v 0 h 1 v 0 h 1 v 0 h 1 v 0 h 1 v 0 h 1 v 0 h 1 v 0 h 1 v 0 h 1 v 0 h 1 v 0 h 1 v 0 h 1 v 0 h 1 v 0 h 1 v 0 h 1 v 0 h 1 v 0 h 1 v 0 h 1 v 0 h 1 v 0 h 1 v 0 h 1 v 0 h 1 v 0 h 1 v 0 h 1 v 0 h 1 v 0 h 1 v 0 h 1 v 0 h 1 v 0 h 1 v 0 h 1 v 0 h 1 v 0 h 1 v 0 h 1 v 0 h 1 v 0 h 1 v 0 h 1 v 0 h 1 v 0 h 1 v 0 h 1 v 0 h 1 v 0 h 1 v 0 h 1 v 0 h 1 v 0 h 1 v 0 h 1 v 0 h 1 v 0 h 1 v 0 h 1 v 0 h 1 v 0 h 1 v 0 h 1 v 0 h 1 v 0 h 1 v 0 h 1 v 0 h 1 v 0 h 1 v 0 h 1 v 0 h 1 v 0 h 1 v 0 h 1 v 0 h 1 v 0 h 1 v 0 h 1 v 0 h 1 v 0 h 1 v 0 h 1 v 0 h 1 v 0 h 1 v 0 h 1 v 0 h 1 v 0 h 1 v 0 h 1 v 0 h 1 v 0 h 1 v 0 h 1 v 0 h 1 v 0 h 1 v 0 h 1 v 0 h 1 v 0 h 1 v 0 h 1 v 0 h 1 v 0 h 1 v 0 h 1 v 0 h 1 v 0 h 1 v 0 h 1 v 0 h 1 v 0 h 1 v 0 h 1 v 0 h 1 v 0 h 1 v 0 h 1 v 0 h 1 v 0 h 1 v 0 h 1 v 0 h 1 v 0 h 1 v 0 h 1 v 0 h 1 v 0 h 1 v 0 h 1 v 0 h 1 v 0 h 1 v 0 h 1 v 0 h 1 v 0 h 1 v 0 h 1 v 0 h 1 v 0 h 1 v 0 h 1 v 0 h 1 v 0 h 1 v 0 h 1 v 0 h 1 v 0 h 1 v 0 h 1 v 0 h 1 v 0 h 1 v 0 h 1 v 0 h 1 v 0 h 1 v 0 h 1 v 0 h 1 v 0 h 1 v 0 h 1 v 0 h 1 v 0 h 1 v 0 h 1 v 0 h 1 v 0 h 1 v 0 h 1 v 0 h 1 v 0 h 1 v 0 h 1 v 0 h 1 v 0 h 1 v 0 h 1 v 0 h 1 v 0 h 1 v 0 h 1 v 0 h 1 v 0 h 1 v 0 h 1 v 0 h 1 v 0 h 1 v 0 h 1 v 0 h 1 v 0 h 1 v 0 h 1 v 0 h 1 v 0 h 1 v 0 h 1 v 0 h 1 v 0 h 1 v 0 h 1 v 0 h 1 v 0 h 1 v 0 h 1 v 0 h 1 v 0 h 1 v 0 h 1 v 0 h 1 v 0 h 1 v 0 h 1 v 0 h 1 v 0 h 1 v 0 h 1 v 0 h 1 v 0 h 1 v 0 h 1 v 0 h 1 v 0 h 1 v 0 h 1 v 0 h 1 v 0 h 1 v 0 h 1 v 0 h 1 v 0 h 1 v 0 h 1 v 0 h 1 v 0 h 1 v 0 h 1 v 0 h 1 v 0 h 1 v 0 h 1 v 0 h 1 v 0 h 1 v 0 h 1 v 0 h 1 v 0 h 1 v 0 h 1 v 0 h 1 v 0 h 1 v 0 h 1 v 0 h 1 v 0 h 1 v 0 h 1 v 0 h 1 v 0 h 1 v 0 h 1 v 0 h 1 v 0 h 1 v 0 h 1 v 0 h 1 v 0 h 1 v 0 h 1 v 0 h 1 v 0 h 1 v 0 h 1 v 0 h 1 v 0 h 1 v 0 h 1 v 0 h 1 v 0 h 1 v 0 h 1 v 0 h 1 v 0 h 1 v 0 h 1 v 0 h 1 v 0 h 1 v 0 h 1 v 0 h 1 v 0 h 1 v 0 h 1 v 0 h 1 v 0 h 1 v 0 h 1 v 0 h 1 v 0 h 1 v 0 h 1 v 0 h 1 v 0 h 1 v 0 h 1 v 0 h 1 v 0 h 1 v 0 h 1 v 0 h 1 v 0 h 1 v 0 h 1 v 0 h 1 v 0 h 1 v 0 h 1 v 0 h 1 v 0 h 1 v 0 h 1 v 0 h 1 v 0 h 1 v 0 h 1 v 0 h 1 v 0 h 1 v 0 h 1 v 0 h 1 v 0 h 1 v 0 h 1 v 0 h 1 v 0 h 1 v 0 h 1 v 0 h 1 v 0 h 1 v 0 h 1 v 0 h 1 v 0 h 1 v 0 h 1 v 0 h 1 v 0 h 1 v 0 h 1 v 0 h 1 v 0 h 1 v 0 h 1 v 0 h 1 v 0 h 1 v 0 h 1 v 0 h 1 v 0 h 1 v 0 h 1 v 0 h 1 v 0 h 1 v 0 h 1 v 0 h 1 v 0 h 1 v 0 h 1 v 0 h 1 v 0 h 1 v 0 h 1 v 0 h 1 v 0 h 1 v 0 h 1 v 0 h 1 v 0 h 1 v 0 h 1 v 0 h 1 v 0 h 1 v 0 h 1 v 0 h 1 v 0 h 1 v 0 h 1 v 0 h 1 v 0 h 1 v 0 h 1 v 0 h 1 v 0 h 1 v 0 h 1 v 0 h 1 v 0 h 1 v 0 h 1 v 0 h 1 v 0 h 1 v 0 h 1 v 0 h 1 v 0 h 1 v 0 h 1 v 0 h 1 v 0 h 1 v 0 h 1 v 0 h 1 v 0 h 1 v 0 h 1 v 0 h 1 v 0 h 1 v 0 h 1 v 0 h 1 v 0 h 1 v 0 h 1 v 0 h 1 v 0 h 1 v 0 h 1 v 0 h 1 v 0 h 1 v 0 h 1 v 0 h 1 v 0 h 1 v 0 h 1 v 0 h 1 v 0 h 1 v 0 h 1 v 0 h 1 v 0 h 1 v 0 h 1 v 0 h 1 v 0 h 1 v 0 h 1 v 0 h 1 v 0 h 1 v 0 h 1 v 0 h 1 v 0 h 1 v 0 h 1 v 0 h 1 v 0 h 1 v 0 h 1 v 0 h 1 v 0 h 1 v 0 h 1 v 0 h 1 v 0 h 1 v 0 h 1 v 0 h 1 v 0 h 1 v 0 h 1 v 0 h 1 v 0 h 1 v 0 h 1 v 0 h 1 v 0 h 1 v 0 h 1 v 0 h 1 v 0 h 1 v 0 h 1 v 0 h 1 v 0 h 1 v 0 h 1 v 0 h 1 v 0 h 1 v 0 h 1 v 0 h 1 v 0 h 1 v 0 h 1 v 0 h 1 v 0 h 1 v 0 h 1 v 0 h 1 v 0 h 1 v 0 h 1 v 0 h 1 v 0 h 1 v 0 h 1 v 0 h 1 v 0 h 1 v 0 h 1 v 0 h 1 v 0 h 1 v 0 h 1 v 0 h 1 v 0 h 1 v 0 h 1 v 0 h 1 v 0 h 1 v 0 h 1 v 0 h 1 v 0 h 1 v 0 h 1 v 0 h 1 v 0 h 1 v 0 h 1 v 0 h 1 v 0 h 1 v 0 h 1 v 0 h 1 v 0 h 1 v 0 h 1 v 0 h 1 v 0 h 1 v 0 h 1 v 0 h 1 v 0 h 1 v 0 h 1 v 0 h 1 v 0 h 1 v 0 h 1 v 0 h 1 v 0 h 1 v 0 h 1 v 0 h 1 v 0 h 1 v 0 h 1 v 0 h 1 v 0 h 1 v 0 h 1 v 0 h 1 v 0 h 1 v 0 h 1 v 0 h 1 v 0 h 1 v 0 h 1 v 0 h 1 v 0 h 1 v 0 h 1 v 0 h 1 v 0 h 1 v 0 h 1 v 0 h 1 v 0 h 1 v 0 h 1 v 0 h 1 v 0 h 1 v 0 h 1 v 0 h 1 v 0 h 1 v 0 h 1 v 0 h 1 v 0 h 1 v 0 h 1 v 0 h 1 v 0 h 1 v 0 h 1"
         stroke-opacity="0.8"
         stroke-linecap="round"
         stroke-linejoin="round"
         stroke-miterlimit="10"
         stroke-width="2.5"
         id="path13" />
      <text
         fill="#c75000"
         stroke="none"
         font-family="geogebra-sans-serif, sans-serif"
         font-size="16px"
         font-style="normal"
         font-weight="normal"
         text-decoration="normal"
         x="24"
         y="361"
         text-anchor="start"
         dominant-baseline="alphabetic"
         fill-opacity="1"
         id="text13">g</text>
    </g>
  </g>
</svg>
