<?xml version="1.0" encoding="UTF-8" standalone="no"?>
<svg
   version="1.1"
   width="256"
   height="256"
   id="svg13"
   sodipodi:docname="single-parameter-loss-fn.svg"
   inkscape:version="1.4.2 (f4327f4, 2025-05-13)"
   xmlns:inkscape="http://www.inkscape.org/namespaces/inkscape"
   xmlns:sodipodi="http://sodipodi.sourceforge.net/DTD/sodipodi-0.dtd"
   xmlns="http://www.w3.org/2000/svg"
   xmlns:svg="http://www.w3.org/2000/svg">
  <sodipodi:namedview
     id="namedview13"
     pagecolor="#ffffff"
     bordercolor="#000000"
     borderopacity="0.25"
     inkscape:showpageshadow="2"
     inkscape:pageopacity="0.0"
     inkscape:pagecheckerboard="0"
     inkscape:deskcolor="#d1d1d1"
     inkscape:zoom="3.8786911"
     inkscape:cx="71.931482"
     inkscape:cy="133.93693"
     inkscape:window-width="2560"
     inkscape:window-height="1417"
     inkscape:window-x="-8"
     inkscape:window-y="-8"
     inkscape:window-maximized="1"
     inkscape:current-layer="svg13" />
  <defs
     id="defs1">
    <clipPath
       id="deRcieKnJTZW">
      <path
         fill="none"
         stroke="none"
         d="M 0,0 H 2164 V 1253 H 0 Z"
         id="path1" />
    </clipPath>
    <clipPath
       clipPathUnits="userSpaceOnUse"
       id="clipPath13">
      <rect
         style="font-variation-settings:'wght' 700;fill:#3d5562;stroke:#3d5562;stroke-width:3.038;stroke-linecap:round;stroke-opacity:0"
         id="rect14"
         width="400.84082"
         height="400.90308"
         x="664.49438"
         y="601.6026" />
    </clipPath>
  </defs>
  <g
     transform="matrix(0.61170133,0,0,0.61170133,-395.66696,-357.23406)"
     clip-path="url(#clipPath13)"
     id="g13">
    <g
       id="g12">
      <rect
         fill="#ffffff"
         stroke="none"
         x="0"
         y="0"
         width="2164"
         height="1253"
         fill-opacity="1"
         id="rect1" />
      <path
         fill="none"
         stroke="#c0c0c0"
         paint-order="fill stroke markers"
         d="m 11.5,0.5 v 1253 m 0,-1253 v 1253 m 51,-1253 v 1253 m 50,-1253 v 1253 m 50,-1253 v 1253 m 50,-1253 v 1253 m 50,-1253 v 1253 m 51,-1253 v 1253 m 50,-1253 v 1253 m 50,-1253 v 1253 m 50,-1253 v 1253 m 50,-1253 v 1253 m 51,-1253 v 1253 m 50,-1253 v 1253 m 50,-1253 v 1253 m 50,-1253 v 1253 m 50,-1253 v 1253 m 50,-1253 v 1253 m 101,-1253 v 1253 m 50,-1253 v 1253 m 50,-1253 v 1253 m 50,-1253 v 1253 m 51,-1253 v 1253 m 50,-1253 v 1253 m 50,-1253 v 1253 m 50,-1253 v 1253 m 50,-1253 v 1253 m 51,-1253 v 1253 m 50,-1253 v 1253 m 50,-1253 v 1253 m 50,-1253 v 1253 m 50,-1253 v 1253 m 51,-1253 v 1253 m 50,-1253 v 1253 m 50,-1253 v 1253 m 50,-1253 v 1253 m 50,-1253 v 1253 m 51,-1253 v 1253 m 50,-1253 v 1253 m 50,-1253 v 1253 m 50,-1253 v 1253 m 50,-1253 v 1253 m 51,-1253 v 1253"
         stroke-opacity="1"
         stroke-linecap="round"
         stroke-linejoin="round"
         stroke-miterlimit="10"
         id="path2" />
      <path
         fill="none"
         stroke="#c0c0c0"
         paint-order="fill stroke markers"
         d="m 1.5,0.5 v 1253 m 20,-1253 v 1253 m 10,-1253 v 1253 m 10,-1253 v 1253 m 10,-1253 v 1253 m 21,-1253 v 1253 m 10,-1253 v 1253 m 10,-1253 v 1253 m 10,-1253 v 1253 m 20,-1253 v 1253 m 10,-1253 v 1253 m 10,-1253 v 1253 m 10,-1253 v 1253 m 20,-1253 v 1253 m 10,-1253 v 1253 m 10,-1253 v 1253 m 10,-1253 v 1253 m 20,-1253 v 1253 m 10,-1253 v 1253 m 10,-1253 v 1253 m 10,-1253 v 1253 m 20,-1253 v 1253 m 10,-1253 v 1253 m 10,-1253 v 1253 m 10,-1253 v 1253 m 21,-1253 v 1253 m 10,-1253 v 1253 m 10,-1253 v 1253 m 10,-1253 v 1253 m 20,-1253 v 1253 m 10,-1253 v 1253 m 10,-1253 v 1253 m 10,-1253 v 1253 m 20,-1253 v 1253 m 10,-1253 v 1253 m 10,-1253 v 1253 m 10,-1253 v 1253 m 20,-1253 v 1253 m 10,-1253 v 1253 m 10,-1253 v 1253 m 10,-1253 v 1253 m 20,-1253 v 1253 m 10,-1253 v 1253 m 10,-1253 v 1253 m 10,-1253 v 1253 m 21,-1253 v 1253 m 10,-1253 v 1253 m 10,-1253 v 1253 m 10,-1253 v 1253 m 20,-1253 v 1253 m 10,-1253 v 1253 m 10,-1253 v 1253 m 10,-1253 v 1253 m 20,-1253 v 1253 m 10,-1253 v 1253 m 10,-1253 v 1253 m 10,-1253 v 1253 m 20,-1253 v 1253 m 10,-1253 v 1253 m 10,-1253 v 1253 m 10,-1253 v 1253 m 20,-1253 v 1253 m 10,-1253 v 1253 m 10,-1253 v 1253 m 10,-1253 v 1253 m 21,-1253 v 1253 m 10,-1253 v 1253 m 10,-1253 v 1253 m 10,-1253 v 1253 m 20,-1253 v 1253 m 10,-1253 v 1253 m 10,-1253 v 1253 m 10,-1253 v 1253 m 20,-1253 v 1253 m 10,-1253 v 1253 m 10,-1253 v 1253 m 10,-1253 v 1253 m 20,-1253 v 1253 m 10,-1253 v 1253 m 10,-1253 v 1253 m 10,-1253 v 1253 m 20,-1253 v 1253 m 10,-1253 v 1253 m 10,-1253 v 1253 m 10,-1253 v 1253 m 21,-1253 v 1253 m 10,-1253 v 1253 m 10,-1253 v 1253 m 10,-1253 v 1253 m 20,-1253 v 1253 m 10,-1253 v 1253 m 10,-1253 v 1253 m 10,-1253 v 1253 m 20,-1253 v 1253 m 10,-1253 v 1253 m 10,-1253 v 1253 m 10,-1253 v 1253 m 20,-1253 v 1253 m 10,-1253 v 1253 m 10,-1253 v 1253 m 10,-1253 v 1253 m 20,-1253 v 1253 m 10,-1253 v 1253 m 10,-1253 v 1253 m 10,-1253 v 1253 m 21,-1253 v 1253 m 10,-1253 v 1253 m 10,-1253 v 1253 m 10,-1253 v 1253 m 20,-1253 v 1253 m 10,-1253 v 1253 m 10,-1253 v 1253 m 10,-1253 v 1253 m 20,-1253 v 1253 m 10,-1253 v 1253 m 10,-1253 v 1253 m 10,-1253 v 1253 m 20,-1253 v 1253 m 10,-1253 v 1253 m 10,-1253 v 1253 m 10,-1253 v 1253 m 20,-1253 v 1253 m 10,-1253 v 1253 m 10,-1253 v 1253 m 10,-1253 v 1253 m 21,-1253 v 1253 m 10,-1253 v 1253 m 10,-1253 v 1253 m 10,-1253 v 1253 m 20,-1253 v 1253 m 10,-1253 v 1253 m 10,-1253 v 1253 m 10,-1253 v 1253 m 20,-1253 v 1253 m 10,-1253 v 1253 m 10,-1253 v 1253 m 10,-1253 v 1253 m 20,-1253 v 1253 m 10,-1253 v 1253 m 10,-1253 v 1253 m 10,-1253 v 1253 m 20,-1253 v 1253 m 10,-1253 v 1253 m 10,-1253 v 1253 m 10,-1253 v 1253 m 21,-1253 v 1253 m 10,-1253 v 1253 m 10,-1253 v 1253 m 10,-1253 v 1253 m 20,-1253 v 1253 m 10,-1253 v 1253 m 10,-1253 v 1253 m 10,-1253 v 1253 m 20,-1253 v 1253 m 10,-1253 v 1253 m 10,-1253 v 1253 m 10,-1253 v 1253 m 20,-1253 v 1253 m 10,-1253 v 1253 m 10,-1253 v 1253 m 10,-1253 v 1253 m 20,-1253 v 1253 m 10,-1253 v 1253 m 10,-1253 v 1253 m 10,-1253 v 1253 m 21,-1253 v 1253 m 10,-1253 v 1253 m 10,-1253 v 1253 m 10,-1253 v 1253 m 20,-1253 v 1253 m 10,-1253 v 1253 m 10,-1253 v 1253 m 10,-1253 v 1253"
         stroke-opacity="0.235294"
         stroke-linecap="round"
         stroke-linejoin="round"
         stroke-miterlimit="10"
         id="path3" />
      <path
         fill="none"
         stroke="#c0c0c0"
         paint-order="fill stroke markers"
         d="m 0.5,48.5 h 2164 m -2164,0 h 2164 m -2164,51 h 2164 m -2164,50 h 2164 m -2164,50 h 2164 m -2164,50 h 2164 m -2164,50 h 2164 m -2164,51 h 2164 m -2164,50 h 2164 m -2164,50 h 2164 m -2164,50 h 2164 m -2164,50 h 2164 m -2164,51 h 2164 m -2164,50 h 2164 m -2164,50 h 2164 m -2164,50 h 2164 m -2164,101 h 2164 m -2164,50 h 2164 m -2164,50 h 2164 m -2164,50 h 2164 m -2164,50 h 2164 m -2164,51 h 2164 m -2164,50 h 2164 m -2164,50 h 2164"
         stroke-opacity="1"
         stroke-linecap="round"
         stroke-linejoin="round"
         stroke-miterlimit="10"
         id="path4" />
      <path
         fill="none"
         stroke="#c0c0c0"
         paint-order="fill stroke markers"
         d="m 0.5,8.5 h 2164 m -2164,10 h 2164 m -2164,10 h 2164 m -2164,10 h 2164 m -2164,20 h 2164 m -2164,10 h 2164 m -2164,10 h 2164 m -2164,11 h 2164 m -2164,20 h 2164 m -2164,10 h 2164 m -2164,10 h 2164 m -2164,10 h 2164 m -2164,20 h 2164 m -2164,10 h 2164 m -2164,10 h 2164 m -2164,10 h 2164 m -2164,20 h 2164 m -2164,10 h 2164 m -2164,10 h 2164 m -2164,10 h 2164 m -2164,20 h 2164 m -2164,10 h 2164 m -2164,10 h 2164 m -2164,10 h 2164 m -2164,20 h 2164 m -2164,10 h 2164 m -2164,10 h 2164 m -2164,11 h 2164 m -2164,20 h 2164 m -2164,10 h 2164 m -2164,10 h 2164 m -2164,10 h 2164 m -2164,20 h 2164 m -2164,10 h 2164 m -2164,10 h 2164 m -2164,10 h 2164 m -2164,20 h 2164 m -2164,10 h 2164 m -2164,10 h 2164 m -2164,10 h 2164 m -2164,20 h 2164 m -2164,10 h 2164 m -2164,10 h 2164 m -2164,10 h 2164 m -2164,20 h 2164 m -2164,10 h 2164 m -2164,10 h 2164 m -2164,11 h 2164 m -2164,20 h 2164 m -2164,10 h 2164 m -2164,10 h 2164 m -2164,10 h 2164 m -2164,20 h 2164 m -2164,10 h 2164 m -2164,10 h 2164 m -2164,10 h 2164 m -2164,20 h 2164 m -2164,10 h 2164 m -2164,10 h 2164 m -2164,10 h 2164 m -2164,20 h 2164 m -2164,10 h 2164 m -2164,10 h 2164 m -2164,10 h 2164 m -2164,20 h 2164 m -2164,10 h 2164 m -2164,10 h 2164 m -2164,11 h 2164 m -2164,20 h 2164 m -2164,10 h 2164 m -2164,10 h 2164 m -2164,10 h 2164 m -2164,20 h 2164 m -2164,10 h 2164 m -2164,10 h 2164 m -2164,10 h 2164 m -2164,20 h 2164 m -2164,10 h 2164 m -2164,10 h 2164 m -2164,10 h 2164 m -2164,20 h 2164 m -2164,10 h 2164 m -2164,10 h 2164 m -2164,10 h 2164 m -2164,20 h 2164 m -2164,10 h 2164 m -2164,10 h 2164 m -2164,11 h 2164 m -2164,20 h 2164 m -2164,10 h 2164 m -2164,10 h 2164 m -2164,10 h 2164 m -2164,20 h 2164 m -2164,10 h 2164 m -2164,10 h 2164 m -2164,10 h 2164 m -2164,20 h 2164 m -2164,10 h 2164 m -2164,10 h 2164 m -2164,10 h 2164"
         stroke-opacity="0.235294"
         stroke-linecap="round"
         stroke-linejoin="round"
         stroke-miterlimit="10"
         id="path5" />
      <path
         fill="none"
         stroke="#252525"
         paint-order="fill stroke markers"
         d="m 865.5,2.5 v 1251"
         stroke-opacity="1"
         stroke-miterlimit="10"
         id="path6" />
      <path
         fill="none"
         stroke="#252525"
         paint-order="fill stroke markers"
         d="m 865.5,1.5 -4,4"
         stroke-opacity="1"
         stroke-miterlimit="10"
         id="path7" />
      <path
         fill="none"
         stroke="#252525"
         paint-order="fill stroke markers"
         d="m 865.5,1.5 4,4"
         stroke-opacity="1"
         stroke-miterlimit="10"
         id="path8" />
      <path
         fill="none"
         stroke="#252525"
         paint-order="fill stroke markers"
         d="m 0.5,801.5 h 2162"
         stroke-opacity="1"
         stroke-miterlimit="10"
         id="path9" />
      <path
         fill="none"
         stroke="#252525"
         paint-order="fill stroke markers"
         d="m 2163.5,801.5 -4,-4"
         stroke-opacity="1"
         stroke-miterlimit="10"
         id="path10" />
      <path
         fill="none"
         stroke="#252525"
         paint-order="fill stroke markers"
         d="m 2163.5,801.5 -4,4"
         stroke-opacity="1"
         stroke-miterlimit="10"
         id="path11" />
      <path
         fill="none"
         stroke="#006758"
         paint-order="fill stroke markers"
         d="M 663.32147,-10 664,-4.5473662 v 0 l 1,7.9961227 v 0 l 1,7.9562815 v 0 l 1,7.91644 v 0 l 1,7.876598 v 0 l 1,7.836757 v 0 l 1,7.796916 v 0 l 1,7.757074 v 0 l 1,7.717233 v 0 l 1,7.677392 v 0 l 1,7.63755 v 0 l 1,7.597709 v 0 l 1,7.557868 v 0 l 1,7.518026 v 0 l 1,7.478189 v 0 l 1,7.43834 v 0 l 1,7.3985 v 0 l 1,7.35866 v 0 l 1,7.31882 v 0 l 1,7.27898 v 0 l 1,7.23913 v 0 l 1,7.1993 v 0 l 1,7.15945 v 0 l 1,7.11961 v 0 l 1,7.07978 v 0 l 1,7.03993 v 0 l 1,7.00008 v 0 l 1,6.96025 v 0 l 1,6.92041 v 0 l 1,6.88056 v 0 l 1,6.84072 v 0 l 1,6.80088 v 0 l 1,6.76104 v 0 l 1,6.7212 v 0 l 1,6.68136 v 0 l 1,6.64151 v 0 l 1,6.60168 v 0 l 1,6.56183 v 0 l 1,6.52199 v 0 l 1,6.48215 v 0 l 1,6.44231 v 0 l 1,6.40247 v 0 l 1,6.36262 v 0 l 1,6.32279 v 0 l 1,6.28294 v 0 l 1,6.2431 v 0 l 1,6.20326 v 0 l 1,6.16342 v 0 l 1,6.12358 v 0 l 1,6.08374 v 0 l 1,6.04389 v 0 l 1,6.00405 v 0 l 1,5.96422 v 0 l 1,5.92437 v 0 l 1,5.88453 v 0 l 1,5.84468 v 0 l 1,5.80485 v 0 l 1,5.765 v 0 l 1,5.72517 v 0 l 1,5.68532 v 0 l 1,5.64548 v 0 l 1,5.60564 v 0 l 1,5.5658 v 0 l 1,5.52596 v 0 l 1,5.48611 v 0 l 1,5.44628 v 0 l 1,5.40643 v 0 l 1,5.36659 v 0 l 1,5.32675 v 0 l 1,5.28691 v 0 l 1,5.24706 v 0 l 1,5.20723 v 0 l 1,5.16738 v 0 l 1,5.12755 v 0 l 1,5.0877 v 0 l 1,5.04786 v 0 l 1,5.00802 v 0 l 1,4.96818 v 0 l 1,4.92833 v 0 l 1,4.8885 v 0 l 1,4.84865 v 0 l 1,4.80881 v 0 l 1,4.76897 v 0 l 1,4.72913 v 0 l 1,4.68929 v 0 l 1,4.64944 v 0 l 1,4.60961 v 0 l 1,4.56976 v 0 l 1,4.52993 v 0 l 1,4.49008 v 0 l 1,4.45024 v 0 l 1,4.41039 v 0 l 1,4.37056 v 0 l 1,4.33072 v 0 l 1,4.29087 v 0 l 1,4.25103 v 0 l 1,4.21119 v 0 l 1,4.17135 v 0 l 1,4.13151 v 0 l 1,4.09167 v 0 l 1,4.05182 v 0 l 1,4.01199 v 0 l 1,3.97214 v 0 l 1,3.9323 v 0 l 1,3.89246 v 0 l 1,3.85262 v 0 l 1,3.81278 v 0 l 1,3.77293 v 0 l 1,3.7331 v 0 l 1,3.69325 v 0 l 1,3.65341 v 0 l 1,3.61357 v 0 l 1,3.57373 v 0 l 1,3.53389 v 0 l 1,3.49404 v 0 l 1,3.45421 v 0 l 1,3.41436 v 0 l 1,3.37452 v 0 l 1,3.33468 v 0 l 1,3.29484 v 0 l 1,3.255 v 0 l 1,3.21516 v 0 l 1,3.17531 v 0 l 1,3.13548 v 0 l 1,3.09563 v 0 l 1,3.05579 v 0 l 1,3.01595 v 0 l 1,2.97611 v 0 l 1,2.93626 v 0 l 1,2.89643 v 0 l 1,2.85658 v 0 l 1,2.81675 v 0 l 1,2.7769 v 0 l 1,2.73706 v 0 l 1,2.69722 v 0 l 1,2.65737 v 0 l 1,2.61754 v 0 l 1,2.57769 v 0 l 1,2.53785 v 0 l 1,2.49802 v 0 l 1,2.45817 v 0 l 1,2.41833 v 0 l 1,2.37848 v 0 l 1,2.33865 v 0 l 1,2.2988 v 0 l 1,2.25897 v 0 l 1,2.21912 v 0 l 1,2.17928 v 0 l 1,2.13944 v 0 l 1,2.09959 v 0 l 1,2.05976 v 0 l 1,2.01992 v 0 l 1,1.98007 v 0 l 1,1.94023 v 0 l 1,1.90039 v 0 l 1,1.86055 v 0 l 1,1.82071 v 0 l 1,1.78087 v 0 l 1,1.74102 v 0 l 1,1.70118 v 0 l 1,1.66135 v 0 l 1,1.6215 v 0 l 1,1.58166 v 0 l 1,1.54182 v 0 l 1,1.50197 v 0 l 1,1.46214 v 0 l 1,1.42229 v 0 l 1,1.38245 v 0 l 1,1.34262 v 0 l 1,1.30277 v 0 l 1,1.26292 v 0 l 1,1.22309 v 0 l 1,1.18325 v 0 l 1,1.1434 v 0 l 1,1.10356 v 0 l 1,1.06373 v 0 l 1,1.02388 v 0 l 1,0.98404 v 0 l 1,0.94419 v 0 l 1,0.90436 v 0 l 1,0.86451 v 0 l 1,0.82468 v 0 l 1,0.78483 v 0 l 1,0.74499 v 0 l 1,0.70515 v 0 l 1,0.66531 v 0 l 1,0.62546 v 0 l 1,0.58563 v 0 l 1,0.54578 v 0 l 1,0.50594 v 0 l 1,0.4661 v 0 l 1,0.42626 v 0 l 1,0.38642 v 0 l 1,0.34658 v 0 l 1,0.30673 v 0 l 1,0.2669 v 0 l 1,0.22705 v 0 l 1,0.18721 v 0 l 1,0.14737 v 0 l 1,0.10753 v 0 l 1,0.0677 v 0 l 1,0.0278 v -0.012 l 1,0.0128 v -0.0128 l 1,-0.0518 v 0 l 1,-0.0917 v 0 l 1,-0.13152 v 0 l 1,-0.17136 v 0 l 1,-0.2112 v 0 l 1,-0.25105 v 0 l 1,-0.29088 v 0 l 1,-0.33073 v 0 l 1,-0.37057 v 0 l 1,-0.41041 v 0 l 1,-0.45025 v 0 l 1,-0.49009 v 0 l 1,-0.52994 v 0 l 1,-0.56977 v 0 l 1,-0.60962 v 0 l 1,-0.64946 v 0 l 1,-0.6893 v 0 l 1,-0.72914 v 0 l 1,-0.76898 v 0 l 1,-0.80882 v 0 l 1,-0.84867 v 0 l 1,-0.8885 v 0 l 1,-0.92835 v 0 l 1,-0.96819 v 0 l 1,-1.00803 v 0 l 1,-1.04787 v 0 l 1,-1.08772 v 0 l 1,-1.12755 v 0 l 1,-1.1674 v 0 l 1,-1.20723 v 0 l 1,-1.24708 v 0 l 1,-1.28692 v 0 l 1,-1.32676 v 0 l 1,-1.36661 v 0 l 1,-1.40644 v 0 l 1,-1.44629 v 0 l 1,-1.48612 v 0 l 1,-1.52597 v 0 l 1,-1.56581 v 0 l 1,-1.60565 v 0 l 1,-1.6455 v 0 l 1,-1.68533 v 0 l 1,-1.72518 v 0 l 1,-1.76501 v 0 l 1,-1.80486 v 0 l 1,-1.8447 v 0 l 1,-1.88454 v 0 l 1,-1.92438 v 0 l 1,-1.96423 v 0 l 1,-2.00406 v 0 l 1,-2.04391 v 0 l 1,-2.08375 v 0 l 1,-2.12359 v 0 l 1,-2.16343 v 0 l 1,-2.20327 v 0 l 1,-2.24311 v 0 l 1,-2.28296 v 0 l 1,-2.32279 v 0 l 1,-2.36264 v 0 l 1,-2.40248 v 0 l 1,-2.44232 v 0 l 1,-2.48216 v 0 l 1,-2.52201 v 0 l 1,-2.56184 v 0 l 1,-2.60169 v 0 l 1,-2.64152 v 0 l 1,-2.68137 v 0 l 1,-2.72121 v 0 l 1,-2.76105 v 0 l 1,-2.8009 v 0 l 1,-2.84073 v 0 l 1,-2.88058 v 0 l 1,-2.92041 v 0 l 1,-2.96026 v 0 l 1,-3.0001 v 0 l 1,-3.03994 v 0 l 1,-3.07978 v 0 l 1,-3.11963 v 0 l 1,-3.15946 v 0 l 1,-3.19931 v 0 l 1,-3.23915 v 0 l 1,-3.27899 v 0 l 1,-3.31883 v 0 l 1,-3.35867 v 0 l 1,-3.39851 v 0 l 1,-3.43836 v 0 l 1,-3.4782 v 0 l 1,-3.51803 v 0 l 1,-3.55788 v 0 l 1,-3.59772 v 0 l 1,-3.63757 v 0 l 1,-3.6774 v 0 l 1,-3.71724 v 0 l 1,-3.75709 v 0 l 1,-3.79693 v 0 l 1,-3.83677 v 0 l 1,-3.87661 v 0 l 1,-3.91645 v 0 l 1,-3.95629 v 0 l 1,-3.99614 v 0 l 1,-4.03597 v 0 l 1,-4.07582 v 0 l 1,-4.11566 v 0 l 1,-4.1555 v 0 l 1,-4.19534 v 0 l 1,-4.23518 v 0 l 1,-4.27502 v 0 l 1,-4.31487 v 0 l 1,-4.35471 v 0 l 1,-4.39455 v 0 l 1,-4.43438 v 0 l 1,-4.47424 v 0 l 1,-4.51407 v 0 l 1,-4.55391 v 0 l 1,-4.59376 v 0 l 1,-4.63359 v 0 l 1,-4.67344 v 0 l 1,-4.71328 v 0 l 1,-4.75312 v 0 l 1,-4.79296 v 0 l 1,-4.83281 v 0 l 1,-4.87264 v 0 l 1,-4.91249 v 0 l 1,-4.95233 v 0 l 1,-4.99217 v 0 l 1,-5.03201 v 0 l 1,-5.07185 v 0 l 1,-5.11169 v 0 l 1,-5.15154 v 0 l 1,-5.19137 v 0 l 1,-5.23122 v 0 l 1,-5.27106 v 0 l 1,-5.3109 v 0 l 1,-5.35074 v 0 l 1,-5.39058 v 0 l 1,-5.43043 v 0 l 1,-5.47026 v 0 l 1,-5.51011 v 0 l 1,-5.54995 v 0 l 1,-5.58979 v 0 l 1,-5.62963 v 0 l 1,-5.66947 v 0 l 1,-5.70931 v 0 l 1,-5.74916 v 0 l 1,-5.789 v 0 l 1,-5.82883 v 0 l 1,-5.86868 v 0 l 1,-5.90853 v 0 l 1,-5.94836 v 0 l 1,-5.9882 v 0 l 1,-6.02805 v 0 l 1,-6.06788 v 0 l 1,-6.10773 v 0 l 1,-6.14757 v 0 l 1,-6.18741 v 0 l 1,-6.22725 v 0 l 1,-6.2671 v 0 l 1,-6.30693 v 0 l 1,-6.34678 v 0 l 1,-6.38661 v 0 l 1,-6.42646 v 0 l 1,-6.4663 v 0 l 1,-6.50614 v 0 l 1,-6.54599 v 0 l 1,-6.58582 v 0 l 1,-6.62567 v 0 l 1,-6.66551 v 0 l 1,-6.70534 v 0 l 1,-6.74519 v 0 l 1,-6.78504 v 0 l 1,-6.82487 v 0 l 1,-6.86471 v 0 l 1,-6.90456 v 0 l 1,-6.94439 v 0 l 1,-6.98424 v 0 l 1,-7.02408 v 0 l 1,-7.06392 v 0 l 1,-7.10377 v 0 l 1,-7.1436 v 0 l 1,-7.18345 v 0 l 1,-7.22328 v 0 l 1,-7.26313 v 0 l 1,-7.30297 v 0 l 1,-7.34281 v 0 l 1,-7.38265 v 0 l 1,-7.4225 v 0 l 1,-7.462331 v 0 l 1,-7.502176 v 0 l 1,-7.542018 v 0 l 1,-7.581859 v 0 l 1,-7.621701 v 0 l 1,-7.661542 v 0 l 1,-7.701383 v 0 l 1,-7.741224 v 0 l 1,-7.781066 v 0 l 1,-7.820908 v 0 l 1,-7.860749 v 0 l 1,-7.90059 v 0 l 1,-7.9404314 v 0 l 1,-7.9802729 v 0 l 1,-8.0201144 v 0 L 1067.0767,-10"
         stroke-opacity="0.8"
         stroke-linecap="round"
         stroke-linejoin="round"
         stroke-miterlimit="10"
         stroke-width="2.5"
         id="path12" />
      <text
         fill="#006758"
         stroke="none"
         font-family="geogebra-sans-serif, sans-serif"
         font-size="16px"
         font-style="normal"
         font-weight="normal"
         text-decoration="normal"
         x="664"
         y="24"
         text-anchor="start"
         dominant-baseline="alphabetic"
         fill-opacity="1"
         id="text12">f</text>
    </g>
  </g>
  <path
     d="M 101.36585,10.063169 V 1.6631685 h 3.636 q 1.128,0 1.944,0.372 0.816,0.36 1.26,1.044 0.444,0.684 0.444,1.632 0,0.936 -0.444,1.62 -0.444,0.684 -1.26,1.056 -0.816,0.36 -1.944,0.36 h -2.556 l 0.864,-0.876 v 3.1920005 z m 1.944,-2.9760005 -0.864,-0.924 h 2.448 q 0.9,0 1.344,-0.384 0.444,-0.384 0.444,-1.068 0,-0.696 -0.444,-1.08 -0.444,-0.384 -1.344,-0.384 h -2.448 l 0.864,-0.924 z m 10.48801,2.9760005 V 8.8031685 l -0.12,-0.276 v -2.256 q 0,-0.6 -0.372,-0.936 -0.36,-0.336 -1.116,-0.336 -0.516,0 -1.02,0.168 -0.492,0.156 -0.84,0.432 l -0.672,-1.308 q 0.528,-0.372 1.272,-0.576 0.744,-0.204 1.512,-0.204 1.476,0 2.292,0.696 0.816,0.696 0.816,2.172 v 3.6840005 z m -1.968,0.096 q -0.756,0 -1.296,-0.2520005 -0.54,-0.264 -0.828,-0.708 -0.288,-0.444 -0.288,-0.996 0,-0.576 0.276,-1.008 0.288,-0.432 0.9,-0.672 0.612,-0.252 1.596,-0.252 h 1.716 v 1.092 h -1.512 q -0.66,0 -0.912,0.216 -0.24,0.216 -0.24,0.54 0,0.36 0.276,0.576 0.288,0.204 0.78,0.204 0.468,0 0.84,-0.216 0.372,-0.228 0.54,-0.66 l 0.288,0.864 q -0.204,0.624 -0.744,0.948 -0.54,0.3240005 -1.392,0.3240005 z m 5.41201,-0.096 V 3.6071685 h 1.788 v 1.824 l -0.252,-0.528 q 0.288,-0.684 0.924,-1.032 0.636,-0.36 1.548,-0.36 v 1.728 q -0.12,-0.012 -0.216,-0.012 -0.096,-0.012 -0.204,-0.012 -0.768,0 -1.248,0.444 -0.468,0.432 -0.468,1.356 v 3.0480005 z m 8.66345,0 V 8.8031685 l -0.12,-0.276 v -2.256 q 0,-0.6 -0.372,-0.936 -0.36,-0.336 -1.116,-0.336 -0.516,0 -1.02,0.168 -0.492,0.156 -0.84,0.432 l -0.672,-1.308 q 0.528,-0.372 1.272,-0.576 0.744,-0.204 1.512,-0.204 1.476,0 2.292,0.696 0.816,0.696 0.816,2.172 v 3.6840005 z m -1.968,0.096 q -0.756,0 -1.296,-0.2520005 -0.54,-0.264 -0.828,-0.708 -0.288,-0.444 -0.288,-0.996 0,-0.576 0.276,-1.008 0.288,-0.432 0.9,-0.672 0.612,-0.252 1.596,-0.252 h 1.716 v 1.092 h -1.512 q -0.66,0 -0.912,0.216 -0.24,0.216 -0.24,0.54 0,0.36 0.276,0.576 0.288,0.204 0.78,0.204 0.468,0 0.84,-0.216 0.372,-0.228 0.54,-0.66 l 0.288,0.864 q -0.204,0.624 -0.744,0.948 -0.54,0.3240005 -1.392,0.3240005 z m 5.41201,-0.096 V 3.6071685 h 1.788 v 1.764 l -0.336,-0.516 q 0.336,-0.66 0.948,-0.996 0.624,-0.348 1.416,-0.348 0.888,0 1.548,0.456 0.672,0.444 0.888,1.368 l -0.66,-0.18 q 0.324,-0.756 1.032,-1.2 0.72,-0.444 1.644,-0.444 0.768,0 1.356,0.312 0.6,0.3 0.936,0.936 0.348,0.624 0.348,1.608 v 3.6960005 h -1.872 V 6.6551685 q 0,-0.78 -0.324,-1.152 -0.324,-0.372 -0.912,-0.372 -0.408,0 -0.732,0.192 -0.324,0.18 -0.504,0.552 -0.18,0.372 -0.18,0.948 v 3.2400005 h -1.872 V 6.6551685 q 0,-0.78 -0.324,-1.152 -0.312,-0.372 -0.9,-0.372 -0.408,0 -0.732,0.192 -0.324,0.18 -0.504,0.552 -0.18,0.372 -0.18,0.948 v 3.2400005 z m 15.83963,0.096 q -1.104,0 -1.944,-0.4320005 -0.828,-0.432 -1.284,-1.176 -0.456,-0.756 -0.456,-1.716 0,-0.972 0.444,-1.716 0.456,-0.756 1.236,-1.176 0.78,-0.432 1.764,-0.432 0.948,0 1.704,0.408 0.768,0.396 1.212,1.152 0.444,0.744 0.444,1.788 0,0.108 -0.012,0.252 -0.012,0.132 -0.024,0.252 h -5.244 v -1.092 h 4.26 l -0.72,0.324 q 0,-0.504 -0.204,-0.876 -0.204,-0.372 -0.564,-0.576 -0.36,-0.216 -0.84,-0.216 -0.48,0 -0.852,0.216 -0.36,0.204 -0.564,0.588 -0.204,0.372 -0.204,0.888 v 0.288 q 0,0.528 0.228,0.936 0.24,0.396 0.66,0.612 0.432,0.204 1.008,0.204 0.516,0 0.9,-0.156 0.396,-0.156 0.72,-0.468 l 0.996,1.08 q -0.444,0.504 -1.116,0.78 -0.672,0.2640005 -1.548,0.2640005 z m 7.008,0 q -1.14,0 -1.776,-0.5760005 -0.636,-0.588 -0.636,-1.74 v -5.664 h 1.872 v 5.64 q 0,0.408 0.216,0.636 0.216,0.216 0.588,0.216 0.444,0 0.756,-0.24 l 0.504,1.32 q -0.288,0.204 -0.696,0.3120005 -0.396,0.096 -0.828,0.096 z m -3.408,-5.1120005 v -1.44 h 4.476 v 1.44 z m 8.99028,5.1120005 q -1.104,0 -1.944,-0.4320005 -0.828,-0.432 -1.284,-1.176 -0.456,-0.756 -0.456,-1.716 0,-0.972 0.444,-1.716 0.456,-0.756 1.236,-1.176 0.78,-0.432 1.764,-0.432 0.948,0 1.704,0.408 0.768,0.396 1.212,1.152 0.444,0.744 0.444,1.788 0,0.108 -0.012,0.252 -0.012,0.132 -0.024,0.252 h -5.244 v -1.092 h 4.26 l -0.72,0.324 q 0,-0.504 -0.204,-0.876 -0.204,-0.372 -0.564,-0.576 -0.36,-0.216 -0.84,-0.216 -0.48,0 -0.852,0.216 -0.36,0.204 -0.564,0.588 -0.204,0.372 -0.204,0.888 v 0.288 q 0,0.528 0.228,0.936 0.24,0.396 0.66,0.612 0.432,0.204 1.008,0.204 0.516,0 0.9,-0.156 0.396,-0.156 0.72,-0.468 l 0.996,1.08 q -0.444,0.504 -1.116,0.78 -0.672,0.2640005 -1.548,0.2640005 z m 4.36801,-0.096 V 3.6071685 h 1.788 v 1.824 l -0.252,-0.528 q 0.288,-0.684 0.924,-1.032 0.636,-0.36 1.548,-0.36 v 1.728 q -0.12,-0.012 -0.216,-0.012 -0.096,-0.012 -0.204,-0.012 -0.768,0 -1.248,0.444 -0.468,0.432 -0.468,1.356 v 3.0480005 z"
     id="text14"
     style="font-size:12px;line-height:0;font-family:Montserrat;-inkscape-font-specification:'Montserrat, @wght=700';font-variation-settings:'wght' 700;fill:#3d5562;stroke:#3d5562;stroke-width:0.8;stroke-linecap:round;stroke-opacity:0"
     aria-label="Parameter" />
  <path
     d="m -143.16547,7.1950116 q -0.972,0 -1.812,-0.312 -0.828,-0.324 -1.44,-0.912 -0.612,-0.588 -0.96,-1.38 -0.336,-0.792 -0.336,-1.74 0,-0.948 0.336,-1.74 0.348,-0.79200004 0.96,-1.38000004 0.624,-0.588 1.452,-0.89999996 0.828,-0.324 1.812,-0.324 1.092,0 1.968,0.384 0.888,0.37199996 1.488,1.10399996 l -1.248,1.15200004 q -0.432,-0.49200004 -0.96,-0.73200004 -0.528,-0.252 -1.152,-0.252 -0.588,0 -1.08,0.192 -0.492,0.192 -0.852,0.552 -0.36,0.36000004 -0.564,0.85200004 -0.192,0.492 -0.192,1.092 0,0.6 0.192,1.092 0.204,0.492 0.564,0.852 0.36,0.36 0.852,0.552 0.492,0.192 1.08,0.192 0.624,0 1.152,-0.24 0.528,-0.252 0.96,-0.756 l 1.248,1.152 q -0.6,0.732 -1.488,1.116 -0.876,0.384 -1.98,0.384 z m 7.3846,-0.048 q -1.032,0 -1.836,-0.432 -0.792,-0.432 -1.26,-1.176 -0.456,-0.756 -0.456,-1.716 0,-0.972 0.456,-1.716 0.468,-0.756 1.26,-1.17600004 0.804,-0.432 1.836,-0.432 1.02,0 1.824,0.432 0.804,0.42000004 1.26,1.16400004 0.456,0.744 0.456,1.728 0,0.96 -0.456,1.716 -0.456,0.744 -1.26,1.176 -0.804,0.432 -1.824,0.432 z m 0,-1.536 q 0.468,0 0.84,-0.216 0.372,-0.216 0.588,-0.612 0.216,-0.408 0.216,-0.96 0,-0.564 -0.216,-0.96 -0.216,-0.396 -0.588,-0.612 -0.372,-0.216 -0.84,-0.216 -0.468,0 -0.84,0.216 -0.372,0.216 -0.6,0.612 -0.216,0.396 -0.216,0.96 0,0.552 0.216,0.96 0.228,0.396 0.6,0.612 0.372,0.216 0.84,0.216 z m 6.96001,1.536 q -0.828,0 -1.596,-0.192 -0.756,-0.204 -1.2,-0.504 l 0.624,-1.344 q 0.444,0.276 1.044,0.456 0.612,0.168 1.2,0.168 0.648,0 0.912,-0.156 0.276,-0.156 0.276,-0.432 0,-0.228 -0.216,-0.336 -0.204,-0.12 -0.552,-0.18 -0.348,-0.06 -0.768,-0.12 -0.408,-0.06 -0.828,-0.156 -0.42,-0.108 -0.768,-0.312 -0.348,-0.204 -0.564,-0.552 -0.204,-0.348 -0.204,-0.9 0,-0.612 0.348,-1.08 0.36,-0.468 1.032,-0.73200004 0.672,-0.276 1.608,-0.276 0.66,0 1.344,0.144 0.684,0.144 1.14,0.42000004 l -0.624,1.332 q -0.468,-0.276 -0.948,-0.372 -0.468,-0.108 -0.912,-0.108 -0.624,0 -0.912,0.168 -0.288,0.168 -0.288,0.432 0,0.24 0.204,0.36 0.216,0.12 0.564,0.192 0.348,0.072 0.756,0.132 0.42,0.048 0.84,0.156 0.42,0.108 0.756,0.312 0.348,0.192 0.564,0.54 0.216,0.336 0.216,0.888 0,0.6 -0.36,1.068 -0.36,0.456 -1.044,0.72 -0.672,0.264 -1.644,0.264 z m 6.84,0 q -1.14,0 -1.776,-0.576 -0.636,-0.588 -0.636,-1.74 v -5.66400004 h 1.872 V 4.8070116 q 0,0.408 0.216,0.636 0.216,0.216 0.588,0.216 0.444,0 0.756,-0.24 l 0.504,1.32 q -0.288,0.204 -0.696,0.312 -0.396,0.096 -0.828,0.096 z m -3.408,-5.112 V 0.59501156 h 4.476 V 2.0350116 Z"
     id="text14-4"
     style="font-size:12px;line-height:0;font-family:Montserrat;-inkscape-font-specification:'Montserrat, @wght=700';font-variation-settings:'wght' 700;fill:#3d5562;stroke:#3d5562;stroke-width:0.8;stroke-linecap:round;stroke-opacity:0"
     transform="rotate(-90.822822)"
     aria-label="Cost" />
</svg>
