<?xml version="1.0" encoding="UTF-8" standalone="no"?>
<svg
   version="1.1"
   width="256"
   height="256"
   id="svg14"
   sodipodi:docname="slope-at-parameter.svg"
   inkscape:version="1.4.2 (f4327f4, 2025-05-13)"
   xmlns:inkscape="http://www.inkscape.org/namespaces/inkscape"
   xmlns:sodipodi="http://sodipodi.sourceforge.net/DTD/sodipodi-0.dtd"
   xmlns="http://www.w3.org/2000/svg"
   xmlns:svg="http://www.w3.org/2000/svg">
  <sodipodi:namedview
     id="namedview14"
     pagecolor="#ffffff"
     bordercolor="#000000"
     borderopacity="0.25"
     inkscape:showpageshadow="2"
     inkscape:pageopacity="0.0"
     inkscape:pagecheckerboard="0"
     inkscape:deskcolor="#d1d1d1"
     inkscape:zoom="2.6619202"
     inkscape:cx="97.673853"
     inkscape:cy="119.2748"
     inkscape:window-width="2560"
     inkscape:window-height="1417"
     inkscape:window-x="-8"
     inkscape:window-y="-8"
     inkscape:window-maximized="1"
     inkscape:current-layer="svg14" />
  <defs
     id="defs1">
    <clipPath
       id="dAqgGUDqQieP">
      <path
         fill="none"
         stroke="none"
         d="M 0,0 H 2164 V 1291 H 0 Z"
         id="path1" />
    </clipPath>
    <clipPath
       clipPathUnits="userSpaceOnUse"
       id="clipPath14">
      <rect
         style="font-variation-settings:'wght' 700;fill:#3d5562;stroke:#3d5562;stroke-width:3.05831;stroke-linecap:round;stroke-opacity:0"
         id="rect15"
         width="633"
         height="633"
         x="668.5"
         y="436.5" />
    </clipPath>
  </defs>
  <g
     transform="matrix(0.38844872,0,0,0.38844872,-249.56601,-159.4459)"
     clip-path="url(#clipPath14)"
     id="g14">
    <g
       id="g13">
      <rect
         fill="#ffffff"
         stroke="none"
         x="0"
         y="0"
         width="2164"
         height="1291"
         fill-opacity="1"
         id="rect1" />
      <path
         fill="none"
         stroke="#c0c0c0"
         paint-order="fill stroke markers"
         d="m 34.5,0.5 v 1291 m 0,-1291 v 1291 m 53,-1291 v 1291 m 53,-1291 v 1291 m 53,-1291 v 1291 m 52,-1291 v 1291 m 53,-1291 v 1291 m 53,-1291 v 1291 m 53,-1291 v 1291 m 52,-1291 v 1291 m 53,-1291 v 1291 m 53,-1291 v 1291 m 53,-1291 v 1291 m 53,-1291 v 1291 m 52,-1291 v 1291 m 53,-1291 v 1291 m 53,-1291 v 1291 m 53,-1291 v 1291 m 53,-1291 v 1291 m 105,-1291 v 1291 m 53,-1291 v 1291 m 53,-1291 v 1291 m 52,-1291 v 1291 m 53,-1291 v 1291 m 53,-1291 v 1291 m 53,-1291 v 1291 m 53,-1291 v 1291 m 52,-1291 v 1291 m 53,-1291 v 1291 m 53,-1291 v 1291 m 53,-1291 v 1291 m 52,-1291 v 1291 m 53,-1291 v 1291 m 53,-1291 v 1291 m 53,-1291 v 1291 m 53,-1291 v 1291 m 52,-1291 v 1291 m 53,-1291 v 1291 m 53,-1291 v 1291 m 53,-1291 v 1291 m 53,-1291 v 1291"
         stroke-opacity="1"
         stroke-linecap="round"
         stroke-linejoin="round"
         stroke-miterlimit="10"
         id="path2" />
      <path
         fill="none"
         stroke="#c0c0c0"
         paint-order="fill stroke markers"
         d="m 3.5,0.5 v 1291 m 10,-1291 v 1291 m 11,-1291 v 1291 m 21,-1291 v 1291 m 10,-1291 v 1291 m 11,-1291 v 1291 m 10,-1291 v 1291 m 22,-1291 v 1291 m 10,-1291 v 1291 m 11,-1291 v 1291 m 10,-1291 v 1291 m 21,-1291 v 1291 m 11,-1291 v 1291 m 10,-1291 v 1291 m 11,-1291 v 1291 m 21,-1291 v 1291 m 11,-1291 v 1291 m 10,-1291 v 1291 m 11,-1291 v 1291 m 21,-1291 v 1291 m 10,-1291 v 1291 m 11,-1291 v 1291 m 11,-1291 v 1291 m 21,-1291 v 1291 m 10,-1291 v 1291 m 11,-1291 v 1291 m 10,-1291 v 1291 m 21,-1291 v 1291 m 11,-1291 v 1291 m 11,-1291 v 1291 m 10,-1291 v 1291 m 21,-1291 v 1291 m 11,-1291 v 1291 m 10,-1291 v 1291 m 11,-1291 v 1291 m 21,-1291 v 1291 m 11,-1291 v 1291 m 10,-1291 v 1291 m 11,-1291 v 1291 m 21,-1291 v 1291 m 10,-1291 v 1291 m 11,-1291 v 1291 m 10,-1291 v 1291 m 22,-1291 v 1291 m 10,-1291 v 1291 m 11,-1291 v 1291 m 10,-1291 v 1291 m 21,-1291 v 1291 m 11,-1291 v 1291 m 10,-1291 v 1291 m 11,-1291 v 1291 m 21,-1291 v 1291 m 11,-1291 v 1291 m 10,-1291 v 1291 m 11,-1291 v 1291 m 21,-1291 v 1291 m 10,-1291 v 1291 m 11,-1291 v 1291 m 11,-1291 v 1291 m 21,-1291 v 1291 m 10,-1291 v 1291 m 11,-1291 v 1291 m 10,-1291 v 1291 m 22,-1291 v 1291 m 10,-1291 v 1291 m 11,-1291 v 1291 m 10,-1291 v 1291 m 21,-1291 v 1291 m 11,-1291 v 1291 m 10,-1291 v 1291 m 11,-1291 v 1291 m 21,-1291 v 1291 m 11,-1291 v 1291 m 10,-1291 v 1291 m 11,-1291 v 1291 m 21,-1291 v 1291 m 10,-1291 v 1291 m 11,-1291 v 1291 m 11,-1291 v 1291 m 21,-1291 v 1291 m 10,-1291 v 1291 m 11,-1291 v 1291 m 10,-1291 v 1291 m 21,-1291 v 1291 m 11,-1291 v 1291 m 11,-1291 v 1291 m 10,-1291 v 1291 m 21,-1291 v 1291 m 11,-1291 v 1291 m 10,-1291 v 1291 m 11,-1291 v 1291 m 21,-1291 v 1291 m 11,-1291 v 1291 m 10,-1291 v 1291 m 11,-1291 v 1291 m 21,-1291 v 1291 m 10,-1291 v 1291 m 11,-1291 v 1291 m 10,-1291 v 1291 m 22,-1291 v 1291 m 10,-1291 v 1291 m 11,-1291 v 1291 m 10,-1291 v 1291 m 21,-1291 v 1291 m 11,-1291 v 1291 m 10,-1291 v 1291 m 11,-1291 v 1291 m 21,-1291 v 1291 m 11,-1291 v 1291 m 10,-1291 v 1291 m 11,-1291 v 1291 m 21,-1291 v 1291 m 10,-1291 v 1291 m 11,-1291 v 1291 m 11,-1291 v 1291 m 21,-1291 v 1291 m 10,-1291 v 1291 m 11,-1291 v 1291 m 10,-1291 v 1291 m 21,-1291 v 1291 m 11,-1291 v 1291 m 11,-1291 v 1291 m 10,-1291 v 1291 m 21,-1291 v 1291 m 11,-1291 v 1291 m 10,-1291 v 1291 m 11,-1291 v 1291 m 21,-1291 v 1291 m 11,-1291 v 1291 m 10,-1291 v 1291 m 11,-1291 v 1291 m 21,-1291 v 1291 m 10,-1291 v 1291 m 11,-1291 v 1291 m 10,-1291 v 1291 m 22,-1291 v 1291 m 10,-1291 v 1291 m 11,-1291 v 1291 m 10,-1291 v 1291 m 21,-1291 v 1291 m 11,-1291 v 1291 m 11,-1291 v 1291 m 10,-1291 v 1291 m 21,-1291 v 1291 m 11,-1291 v 1291 m 10,-1291 v 1291 m 11,-1291 v 1291 m 21,-1291 v 1291 m 11,-1291 v 1291 m 10,-1291 v 1291 m 11,-1291 v 1291 m 21,-1291 v 1291 m 10,-1291 v 1291 m 11,-1291 v 1291 m 10,-1291 v 1291 m 22,-1291 v 1291 m 10,-1291 v 1291 m 11,-1291 v 1291 m 10,-1291 v 1291 m 21,-1291 v 1291 m 11,-1291 v 1291 m 10,-1291 v 1291 m 11,-1291 v 1291 m 21,-1291 v 1291"
         stroke-opacity="0.235294"
         stroke-linecap="round"
         stroke-linejoin="round"
         stroke-miterlimit="10"
         id="path3" />
      <path
         fill="none"
         stroke="#c0c0c0"
         paint-order="fill stroke markers"
         d="m 0.5,14.5 h 2164 m -2164,0 h 2164 m -2164,52 h 2164 m -2164,53 h 2164 m -2164,53 h 2164 m -2164,53 h 2164 m -2164,53 h 2164 m -2164,52 h 2164 m -2164,53 h 2164 m -2164,53 h 2164 m -2164,53 h 2164 m -2164,53 h 2164 m -2164,52 h 2164 m -2164,53 h 2164 m -2164,53 h 2164 m -2164,105 h 2164 m -2164,53 h 2164 m -2164,53 h 2164 m -2164,53 h 2164 m -2164,53 h 2164 m -2164,52 h 2164 m -2164,53 h 2164 m -2164,53 h 2164 m -2164,53 h 2164 m -2164,52 h 2164"
         stroke-opacity="1"
         stroke-linecap="round"
         stroke-linejoin="round"
         stroke-miterlimit="10"
         id="path4" />
      <path
         fill="none"
         stroke="#c0c0c0"
         paint-order="fill stroke markers"
         d="m 0.5,3.5 h 2164 m -2164,0 h 2164 m -2164,21 h 2164 m -2164,11 h 2164 m -2164,10 h 2164 m -2164,11 h 2164 m -2164,21 h 2164 m -2164,11 h 2164 m -2164,10 h 2164 m -2164,11 h 2164 m -2164,21 h 2164 m -2164,10 h 2164 m -2164,11 h 2164 m -2164,10 h 2164 m -2164,22 h 2164 m -2164,10 h 2164 m -2164,11 h 2164 m -2164,10 h 2164 m -2164,21 h 2164 m -2164,11 h 2164 m -2164,10 h 2164 m -2164,11 h 2164 m -2164,21 h 2164 m -2164,11 h 2164 m -2164,10 h 2164 m -2164,11 h 2164 m -2164,21 h 2164 m -2164,10 h 2164 m -2164,11 h 2164 m -2164,11 h 2164 m -2164,21 h 2164 m -2164,10 h 2164 m -2164,11 h 2164 m -2164,10 h 2164 m -2164,21 h 2164 m -2164,11 h 2164 m -2164,11 h 2164 m -2164,10 h 2164 m -2164,21 h 2164 m -2164,11 h 2164 m -2164,10 h 2164 m -2164,11 h 2164 m -2164,21 h 2164 m -2164,11 h 2164 m -2164,10 h 2164 m -2164,11 h 2164 m -2164,21 h 2164 m -2164,10 h 2164 m -2164,11 h 2164 m -2164,11 h 2164 m -2164,21 h 2164 m -2164,10 h 2164 m -2164,11 h 2164 m -2164,10 h 2164 m -2164,21 h 2164 m -2164,11 h 2164 m -2164,11 h 2164 m -2164,10 h 2164 m -2164,21 h 2164 m -2164,11 h 2164 m -2164,10 h 2164 m -2164,11 h 2164 m -2164,21 h 2164 m -2164,11 h 2164 m -2164,10 h 2164 m -2164,11 h 2164 m -2164,21 h 2164 m -2164,10 h 2164 m -2164,11 h 2164 m -2164,10 h 2164 m -2164,22 h 2164 m -2164,10 h 2164 m -2164,11 h 2164 m -2164,10 h 2164 m -2164,21 h 2164 m -2164,11 h 2164 m -2164,10 h 2164 m -2164,11 h 2164 m -2164,21 h 2164 m -2164,11 h 2164 m -2164,10 h 2164 m -2164,11 h 2164 m -2164,21 h 2164 m -2164,10 h 2164 m -2164,11 h 2164 m -2164,11 h 2164 m -2164,21 h 2164 m -2164,10 h 2164 m -2164,11 h 2164 m -2164,10 h 2164 m -2164,21 h 2164 m -2164,11 h 2164 m -2164,11 h 2164 m -2164,10 h 2164 m -2164,21 h 2164 m -2164,11 h 2164 m -2164,10 h 2164 m -2164,11 h 2164"
         stroke-opacity="0.235294"
         stroke-linecap="round"
         stroke-linejoin="round"
         stroke-miterlimit="10"
         id="path5" />
      <path
         fill="none"
         stroke="#252525"
         paint-order="fill stroke markers"
         d="m 984.5,2.5 v 1289"
         stroke-opacity="1"
         stroke-miterlimit="10"
         id="path6" />
      <path
         fill="none"
         stroke="#252525"
         paint-order="fill stroke markers"
         d="m 984.5,1.5 -4,4"
         stroke-opacity="1"
         stroke-miterlimit="10"
         id="path7" />
      <path
         fill="none"
         stroke="#252525"
         paint-order="fill stroke markers"
         d="m 984.5,1.5 4,4"
         stroke-opacity="1"
         stroke-miterlimit="10"
         id="path8" />
      <path
         fill="none"
         stroke="#252525"
         paint-order="fill stroke markers"
         d="m 0.5,753.5 h 2162"
         stroke-opacity="1"
         stroke-miterlimit="10"
         id="path9" />
      <path
         fill="none"
         stroke="#252525"
         paint-order="fill stroke markers"
         d="m 2163.5,753.5 -4,-4"
         stroke-opacity="1"
         stroke-miterlimit="10"
         id="path10" />
      <path
         fill="none"
         stroke="#252525"
         paint-order="fill stroke markers"
         d="m 2163.5,753.5 -4,4"
         stroke-opacity="1"
         stroke-miterlimit="10"
         id="path11" />
      <path
         fill="none"
         stroke="#006758"
         paint-order="fill stroke markers"
         d="M 784.09711,-10 785,-3.1475611 v 0 l 1,7.5515715 v 0 l 1,7.5136806 v 0 l 1,7.47579 v 0 l 1,7.4379 v 0 l 1,7.400008 v 0 l 1,7.362118 v 0 l 1,7.324228 v 0 l 1,7.286336 v 0 l 1,7.248446 v 0 l 1,7.210555 v 0 l 1,7.172664 v 0 l 1,7.134774 v 0 l 1,7.096883 v 0 l 1,7.058992 v 0 l 1,7.021105 v 0 l 1,6.98321 v 0 l 1,6.94532 v 0 l 1,6.90743 v 0 l 1,6.86954 v 0 l 1,6.83164 v 0 l 1,6.79376 v 0 l 1,6.75587 v 0 l 1,6.71797 v 0 l 1,6.68009 v 0 l 1,6.64219 v 0 l 1,6.60431 v 0 l 1,6.56641 v 0 l 1,6.52852 v 0 l 1,6.49063 v 0 l 1,6.45274 v 0 l 1,6.41485 v 0 l 1,6.37696 v 0 l 1,6.33907 v 0 l 1,6.30118 v 0 l 1,6.26328 v 0 l 1,6.2254 v 0 l 1,6.18751 v 0 l 1,6.14961 v 0 l 1,6.11173 v 0 l 1,6.07383 v 0 l 1,6.03594 v 0 l 1,5.99805 v 0 l 1,5.96017 v 0 l 1,5.92227 v 0 l 1,5.88438 v 0 l 1,5.84649 v 0 l 1,5.80859 v 0 l 1,5.77071 v 0 l 1,5.73282 v 0 l 1,5.69492 v 0 l 1,5.65704 v 0 l 1,5.61914 v 0 l 1,5.58126 v 0 l 1,5.54336 v 0 l 1,5.50548 v 0 l 1,5.46758 v 0 l 1,5.42969 v 0 l 1,5.3918 v 0 l 1,5.35391 v 0 l 1,5.31602 v 0 l 1,5.27813 v 0 l 1,5.24023 v 0 l 1,5.20235 v 0 l 1,5.16446 v 0 l 1,5.12656 v 0 l 1,5.08868 v 0 l 1,5.05078 v 0 l 1,5.01289 v 0 l 1,4.97501 v 0 l 1,4.93711 v 0 l 1,4.89922 v 0 l 1,4.86133 v 0 l 1,4.82344 v 0 l 1,4.78555 v 0 l 1,4.74766 v 0 l 1,4.70977 v 0 l 1,4.67187 v 0 l 1,4.63399 v 0 l 1,4.59609 v 0 l 1,4.55821 v 0 l 1,4.52031 v 0 l 1,4.48243 v 0 l 1,4.44453 v 0 l 1,4.40664 v 0 l 1,4.36875 v 0 l 1,4.33086 v 0 l 1,4.29297 v 0 l 1,4.25508 v 0 l 1,4.21719 v 0 l 1,4.1793 v 0 l 1,4.1414 v 0 l 1,4.10352 v 0 l 1,4.06562 v 0 l 1,4.02774 v 0 l 1,3.98984 v 0 l 1,3.95196 v 0 l 1,3.91406 v 0 l 1,3.87617 v 0 l 1,3.83828 v 0 l 1,3.80039 v 0 l 1,3.7625 v 0 l 1,3.72461 v 0 l 1,3.68672 v 0 l 1,3.64883 v 0 l 1,3.61093 v 0 l 1,3.57305 v 0 l 1,3.53515 v 0 l 1,3.49727 v 0 l 1,3.45937 v 0 l 1,3.42149 v 0 l 1,3.38359 v 0 l 1,3.3457 v 0 l 1,3.30781 v 0 l 1,3.26992 v 0 l 1,3.23203 v 0 l 1,3.19414 v 0 l 1,3.15625 v 0 l 1,3.11835 v 0 l 1,3.08047 v 0 l 1,3.04258 v 0 l 1,3.00468 v 0 l 1,2.9668 v 0 l 1,2.9289 v 0 l 1,2.89101 v 0 l 1,2.85313 v 0 l 1,2.81523 v 0 l 1,2.77734 v 0 l 1,2.73945 v 0 l 1,2.70156 v 0 l 1,2.66367 v 0 l 1,2.62577 v 0 l 1,2.58789 v 0 l 1,2.55 v 0 l 1,2.5121 v 0 l 1,2.47422 v 0 l 1,2.43632 v 0 l 1,2.39844 v 0 l 1,2.36054 v 0 l 1,2.32265 v 0 l 1,2.28476 v 0 l 1,2.24688 v 0 l 1,2.20898 v 0 l 1,2.17109 v 0 l 1,2.13319 v 0 l 1,2.09531 v 0 l 1,2.05742 v 0 l 1,2.01953 v 0 l 1,1.98163 v 0 l 1,1.94375 v 0 l 1,1.90585 v 0 l 1,1.86796 v 0 l 1,1.83008 v 0 l 1,1.79218 v 0 l 1,1.75429 v 0 l 1,1.7164 v 0 l 1,1.67851 v 0 l 1,1.64062 v 0 l 1,1.60273 v 0 l 1,1.56484 v 0 l 1,1.52694 v 0 l 1,1.48906 v 0 l 1,1.45117 v 0 l 1,1.41327 v 0 l 1,1.37539 v 0 l 1,1.33749 v 0 l 1,1.2996 v 0 l 1,1.26171 v 0 l 1,1.22383 v 0 l 1,1.18593 v 0 l 1,1.14804 v 0 l 1,1.11015 v 0 l 1,1.07225 v 0 l 1,1.03437 v 0 l 1,0.99648 v 0 l 1,0.95859 v 0 l 1,0.92069 v 0 l 1,0.88281 v 0 l 1,0.84491 v 0 l 1,0.80702 v 0 l 1,0.76914 v 0 l 1,0.73124 v 0 l 1,0.69335 v 0 l 1,0.65546 v 0 l 1,0.61757 v 0 l 1,0.57968 v 0 l 1,0.54179 v 0 l 1,0.5039 v 0 l 1,0.466 v 0 l 1,0.42812 v 0 l 1,0.39023 v 0 l 1,0.35233 v 0 l 1,0.31444 v 0 l 1,0.27656 v 0 l 1,0.23866 v 0 l 1,0.20077 v 0 l 1,0.16288 v 0 l 1,0.12499 v 0 l 1,0.0871 v 0 l 1,0.0492 v 0 l 1,0.0121 v -7.7e-4 l 1,-0.0266 v 0 l 1,-0.0645 v 0 l 1,-0.10236 v 0 l 1,-0.14024 v 0 l 1,-0.17814 v 0 l 1,-0.21602 v 0 l 1,-0.25392 v 0 l 1,-0.29181 v 0 l 1,-0.3297 v 0 l 1,-0.36758 v 0 l 1,-0.40548 v 0 l 1,-0.44337 v 0 l 1,-0.48126 v 0 l 1,-0.51916 v 0 l 1,-0.55704 v 0 l 1,-0.59493 v 0 l 1,-0.63283 v 0 l 1,-0.67071 v 0 l 1,-0.70861 v 0 l 1,-0.74649 v 0 l 1,-0.78439 v 0 l 1,-0.82228 v 0 l 1,-0.86016 v 0 l 1,-0.89806 v 0 l 1,-0.93595 v 0 l 1,-0.97384 v 0 l 1,-1.01173 v 0 l 1,-1.04963 v 0 l 1,-1.08751 v 0 l 1,-1.1254 v 0 l 1,-1.1633 v 0 l 1,-1.20118 v 0 l 1,-1.23908 v 0 l 1,-1.27696 v 0 l 1,-1.31486 v 0 l 1,-1.35275 v 0 l 1,-1.39063 v 0 l 1,-1.42853 v 0 l 1,-1.46642 v 0 l 1,-1.50431 v 0 l 1,-1.5422 v 0 l 1,-1.5801 v 0 l 1,-1.61798 v 0 l 1,-1.65587 v 0 l 1,-1.69377 v 0 l 1,-1.73165 v 0 l 1,-1.76955 v 0 l 1,-1.80743 v 0 l 1,-1.84533 v 0 l 1,-1.88322 v 0 l 1,-1.9211 v 0 l 1,-1.959 v 0 l 1,-1.99689 v 0 l 1,-2.03478 v 0 l 1,-2.07267 v 0 l 1,-2.11057 v 0 l 1,-2.14845 v 0 l 1,-2.18634 v 0 l 1,-2.22424 v 0 l 1,-2.26212 v 0 l 1,-2.30002 v 0 l 1,-2.3379 v 0 l 1,-2.3758 v 0 l 1,-2.41369 v 0 l 1,-2.45158 v 0 l 1,-2.48947 v 0 l 1,-2.52736 v 0 l 1,-2.56525 v 0 l 1,-2.60314 v 0 l 1,-2.64103 v 0 l 1,-2.67892 v 0 l 1,-2.71681 v 0 l 1,-2.75471 v 0 l 1,-2.79259 v 0 l 1,-2.83049 v 0 l 1,-2.86838 v 0 l 1,-2.90626 v 0 l 1,-2.94416 v 0 l 1,-2.98205 v 0 l 1,-3.01994 v 0 l 1,-3.05783 v 0 l 1,-3.09572 v 0 l 1,-3.13361 v 0 l 1,-3.1715 v 0 l 1,-3.20939 v 0 l 1,-3.24729 v 0 l 1,-3.28517 v 0 l 1,-3.32307 v 0 l 1,-3.36095 v 0 l 1,-3.39885 v 0 l 1,-3.43674 v 0 l 1,-3.47462 v 0 l 1,-3.51252 v 0 l 1,-3.55041 v 0 l 1,-3.5883 v 0 l 1,-3.62619 v 0 l 1,-3.66408 v 0 l 1,-3.70198 v 0 l 1,-3.73986 v 0 l 1,-3.77775 v 0 l 1,-3.81565 v 0 l 1,-3.85353 v 0 l 1,-3.89143 v 0 l 1,-3.92931 v 0 l 1,-3.96721 v 0 l 1,-4.0051 v 0 l 1,-4.04299 v 0 l 1,-4.08088 v 0 l 1,-4.11877 v 0 l 1,-4.15666 v 0 l 1,-4.19455 v 0 l 1,-4.23244 v 0 l 1,-4.27033 v 0 l 1,-4.30823 v 0 l 1,-4.34611 v 0 l 1,-4.38401 v 0 l 1,-4.42189 v 0 l 1,-4.45979 v 0 l 1,-4.49768 v 0 l 1,-4.53556 v 0 l 1,-4.57346 v 0 l 1,-4.61135 v 0 l 1,-4.64924 v 0 l 1,-4.68713 v 0 l 1,-4.72502 v 0 l 1,-4.76292 v 0 l 1,-4.8008 v 0 l 1,-4.83869 v 0 l 1,-4.87659 v 0 l 1,-4.91447 v 0 l 1,-4.95237 v 0 l 1,-4.99026 v 0 l 1,-5.02814 v 0 l 1,-5.06604 v 0 l 1,-5.10393 v 0 l 1,-5.14182 v 0 l 1,-5.17971 v 0 l 1,-5.2176 v 0 l 1,-5.25549 v 0 l 1,-5.29338 v 0 l 1,-5.33128 v 0 l 1,-5.36916 v 0 l 1,-5.40706 v 0 l 1,-5.44494 v 0 l 1,-5.48284 v 0 l 1,-5.52072 v 0 l 1,-5.55862 v 0 l 1,-5.59651 v 0 l 1,-5.6344 v 0 l 1,-5.67229 v 0 l 1,-5.71018 v 0 l 1,-5.74807 v 0 l 1,-5.78596 v 0 l 1,-5.82385 v 0 l 1,-5.86174 v 0 l 1,-5.89964 v 0 l 1,-5.93752 v 0 l 1,-5.97542 v 0 l 1,-6.0133 v 0 l 1,-6.0512 v 0 l 1,-6.08909 v 0 l 1,-6.12698 v 0 l 1,-6.16487 v 0 l 1,-6.20276 v 0 l 1,-6.24065 v 0 l 1,-6.27854 v 0 l 1,-6.31643 v 0 l 1,-6.35432 v 0 l 1,-6.39221 v 0 l 1,-6.43011 v 0 l 1,-6.46799 v 0 l 1,-6.50589 v 0 l 1,-6.54377 v 0 l 1,-6.58167 v 0 l 1,-6.61956 v 0 l 1,-6.65745 v 0 l 1,-6.69534 v 0 l 1,-6.73322 v 0 l 1,-6.77113 v 0 l 1,-6.80901 v 0 l 1,-6.8469 v 0 l 1,-6.88479 v 0 l 1,-6.92268 v 0 l 1,-6.96058 v 0 l 1,-6.99846 v 0 l 1,-7.036358 v 0 l 1,-7.074246 v 0 l 1,-7.112137 v 0 l 1,-7.150028 v 0 l 1,-7.187918 v 0 l 1,-7.225809 v 0 l 1,-7.2637 v 0 l 1,-7.30159 v 0 l 1,-7.339481 v 0 l 1,-7.377372 v 0 l 1,-7.415263 v 0 l 1,-7.453153 v 0 l 1,-7.491044 v 0 l 1,-7.5289348 v 0 l 1,-7.5668254 v 0 L 1185.4999,-10"
         stroke-opacity="0.8"
         stroke-linecap="round"
         stroke-linejoin="round"
         stroke-miterlimit="10"
         stroke-width="2.5"
         id="path12" />
      <text
         fill="#006758"
         stroke="none"
         font-family="geogebra-sans-serif, sans-serif"
         font-size="16px"
         font-style="normal"
         font-weight="normal"
         text-decoration="normal"
         x="786"
         y="24"
         text-anchor="start"
         dominant-baseline="alphabetic"
         fill-opacity="1"
         id="text12">f</text>
      <text
         fill="#1565c0"
         stroke="none"
         font-family="geogebra-sans-serif, sans-serif"
         font-size="16px"
         font-style="normal"
         font-weight="normal"
         text-decoration="normal"
         x="903"
         y="572"
         text-anchor="start"
         dominant-baseline="alphabetic"
         fill-opacity="1"
         id="text13">A</text>
      <path
         fill="none"
         stroke="#1565c0"
         paint-order="fill stroke markers"
         d="M 914.59682,672.96953 861.81345,479.78238"
         stroke-opacity="1"
         stroke-linecap="round"
         stroke-linejoin="round"
         stroke-miterlimit="10"
         stroke-width="2.5"
         id="path13" />
    </g>
  </g>
  <path
     d="M 100.37231,9.1304359 V 0.73043594 h 3.636 q 1.128,0 1.944,0.37199996 0.816,0.36 1.26,1.044 0.444,0.684 0.444,1.632 0,0.936 -0.444,1.62 -0.444,0.684 -1.26,1.056 -0.816,0.36 -1.944,0.36 h -2.556 l 0.864,-0.876 v 3.192 z m 1.944,-2.976 -0.864,-0.924 h 2.448 q 0.9,0 1.344,-0.384 0.444,-0.384 0.444,-1.068 0,-0.696 -0.444,-1.08 -0.444,-0.384 -1.344,-0.384 h -2.448 l 0.864,-0.924 z m 10.48801,2.976 v -1.26 l -0.12,-0.276 v -2.256 q 0,-0.6 -0.372,-0.936 -0.36,-0.336 -1.116,-0.336 -0.516,0 -1.02,0.168 -0.492,0.156 -0.84,0.432 l -0.672,-1.308 q 0.528,-0.372 1.272,-0.576 0.744,-0.204 1.512,-0.204 1.476,0 2.292,0.696 0.816,0.696 0.816,2.172 v 3.684 z m -1.968,0.096 q -0.756,0 -1.296,-0.252 -0.54,-0.264 -0.828,-0.708 -0.288,-0.444 -0.288,-0.996 0,-0.576 0.276,-1.008 0.288,-0.432 0.9,-0.672 0.612,-0.252 1.596,-0.252 h 1.716 v 1.092 h -1.512 q -0.66,0 -0.912,0.216 -0.24,0.216 -0.24,0.54 0,0.36 0.276,0.576 0.288,0.204 0.78,0.204 0.468,0 0.84,-0.216 0.372,-0.228 0.54,-0.66 l 0.288,0.864 q -0.204,0.624 -0.744,0.948 -0.54,0.324 -1.392,0.324 z m 5.41201,-0.096 v -6.456 h 1.788 v 1.824 l -0.252,-0.528 q 0.288,-0.684 0.924,-1.032 0.636,-0.36 1.548,-0.36 v 1.728 q -0.12,-0.012 -0.216,-0.012 -0.096,-0.012 -0.204,-0.012 -0.768,0 -1.248,0.444 -0.468,0.432 -0.468,1.356 v 3.048 z m 8.66345,0 v -1.26 l -0.12,-0.276 v -2.256 q 0,-0.6 -0.372,-0.936 -0.36,-0.336 -1.116,-0.336 -0.516,0 -1.02,0.168 -0.492,0.156 -0.84,0.432 l -0.672,-1.308 q 0.528,-0.372 1.272,-0.576 0.744,-0.204 1.512,-0.204 1.476,0 2.292,0.696 0.816,0.696 0.816,2.172 v 3.684 z m -1.968,0.096 q -0.756,0 -1.296,-0.252 -0.54,-0.264 -0.828,-0.708 -0.288,-0.444 -0.288,-0.996 0,-0.576 0.276,-1.008 0.288,-0.432 0.9,-0.672 0.612,-0.252 1.596,-0.252 h 1.716 v 1.092 h -1.512 q -0.66,0 -0.912,0.216 -0.24,0.216 -0.24,0.54 0,0.36 0.276,0.576 0.288,0.204 0.78,0.204 0.468,0 0.84,-0.216 0.372,-0.228 0.54,-0.66 l 0.288,0.864 q -0.204,0.624 -0.744,0.948 -0.54,0.324 -1.392,0.324 z m 5.41201,-0.096 v -6.456 h 1.788 v 1.764 l -0.336,-0.516 q 0.336,-0.66 0.948,-0.996 0.624,-0.348 1.416,-0.348 0.888,0 1.548,0.456 0.672,0.444 0.888,1.368 l -0.66,-0.18 q 0.324,-0.756 1.032,-1.2 0.72,-0.444 1.644,-0.444 0.768,0 1.356,0.312 0.6,0.3 0.936,0.936 0.348,0.624 0.348,1.608 v 3.696 h -1.872 v -3.408 q 0,-0.78 -0.324,-1.152 -0.324,-0.372 -0.912,-0.372 -0.408,0 -0.732,0.192 -0.324,0.18 -0.504,0.552 -0.18,0.372 -0.18,0.948 v 3.24 h -1.872 v -3.408 q 0,-0.78 -0.324,-1.152 -0.312,-0.372 -0.9,-0.372 -0.408,0 -0.732,0.192 -0.324,0.18 -0.504,0.552 -0.18,0.372 -0.18,0.948 v 3.24 z m 15.83963,0.096 q -1.104,0 -1.944,-0.432 -0.828,-0.432 -1.284,-1.176 -0.456,-0.756 -0.456,-1.716 0,-0.972 0.444,-1.716 0.456,-0.756 1.236,-1.176 0.78,-0.432 1.764,-0.432 0.948,0 1.704,0.408 0.768,0.396 1.212,1.152 0.444,0.744 0.444,1.788 0,0.108 -0.012,0.252 -0.012,0.132 -0.024,0.252 h -5.244 v -1.092 h 4.26 l -0.72,0.324 q 0,-0.504 -0.204,-0.876 -0.204,-0.372 -0.564,-0.576 -0.36,-0.216 -0.84,-0.216 -0.48,0 -0.852,0.216 -0.36,0.204 -0.564,0.588 -0.204,0.372 -0.204,0.888 v 0.288 q 0,0.528 0.228,0.936 0.24,0.396 0.66,0.612 0.432,0.204 1.008,0.204 0.516,0 0.9,-0.156 0.396,-0.156 0.72,-0.468 l 0.996,1.08 q -0.444,0.504 -1.116,0.78 -0.672,0.264 -1.548,0.264 z m 7.008,0 q -1.14,0 -1.776,-0.576 -0.636,-0.588 -0.636,-1.74 v -5.664 h 1.872 v 5.64 q 0,0.408 0.216,0.636 0.216,0.216 0.588,0.216 0.444,0 0.756,-0.24 l 0.504,1.32 q -0.288,0.204 -0.696,0.312 -0.396,0.096 -0.828,0.096 z m -3.408,-5.112 v -1.44 h 4.476 v 1.44 z m 8.99028,5.112 q -1.104,0 -1.944,-0.432 -0.828,-0.432 -1.284,-1.176 -0.456,-0.756 -0.456,-1.716 0,-0.972 0.444,-1.716 0.456,-0.756 1.236,-1.176 0.78,-0.432 1.764,-0.432 0.948,0 1.704,0.408 0.768,0.396 1.212,1.152 0.444,0.744 0.444,1.788 0,0.108 -0.012,0.252 -0.012,0.132 -0.024,0.252 h -5.244 v -1.092 h 4.26 l -0.72,0.324 q 0,-0.504 -0.204,-0.876 -0.204,-0.372 -0.564,-0.576 -0.36,-0.216 -0.84,-0.216 -0.48,0 -0.852,0.216 -0.36,0.204 -0.564,0.588 -0.204,0.372 -0.204,0.888 v 0.288 q 0,0.528 0.228,0.936 0.24,0.396 0.66,0.612 0.432,0.204 1.008,0.204 0.516,0 0.9,-0.156 0.396,-0.156 0.72,-0.468 l 0.996,1.08 q -0.444,0.504 -1.116,0.78 -0.672,0.264 -1.548,0.264 z m 4.36801,-0.096 v -6.456 h 1.788 v 1.824 l -0.252,-0.528 q 0.288,-0.684 0.924,-1.032 0.636,-0.36 1.548,-0.36 v 1.728 q -0.12,-0.012 -0.216,-0.012 -0.096,-0.012 -0.204,-0.012 -0.768,0 -1.248,0.444 -0.468,0.432 -0.468,1.356 v 3.048 z"
     id="text15"
     style="font-size:12px;line-height:0;font-family:Montserrat;-inkscape-font-specification:'Montserrat, @wght=700';font-variation-settings:'wght' 700;fill:#3d5562;stroke:#3d5562;stroke-width:3.05386;stroke-linecap:round;stroke-opacity:0"
     aria-label="Parameter" />
  <path
     d="m -142.71819,7.7621936 q -0.972,0 -1.812,-0.312 -0.828,-0.324 -1.44,-0.912 -0.612,-0.588 -0.96,-1.38 -0.336,-0.792 -0.336,-1.74 0,-0.948 0.336,-1.74 0.348,-0.79199997 0.96,-1.37999997 0.624,-0.588 1.452,-0.9 0.828,-0.324 1.812,-0.324 1.092,0 1.968,0.384 0.888,0.372 1.488,1.104 l -1.248,1.15199997 q -0.432,-0.492 -0.96,-0.73199997 -0.528,-0.252 -1.152,-0.252 -0.588,0 -1.08,0.192 -0.492,0.19199997 -0.852,0.55199997 -0.36,0.36 -0.564,0.852 -0.192,0.492 -0.192,1.092 0,0.6 0.192,1.092 0.204,0.492 0.564,0.852 0.36,0.36 0.852,0.552 0.492,0.192 1.08,0.192 0.624,0 1.152,-0.24 0.528,-0.252 0.96,-0.756 l 1.248,1.152 q -0.6,0.732 -1.488,1.116 -0.876,0.384 -1.98,0.384 z m 7.3846,-0.048 q -1.032,0 -1.836,-0.432 -0.792,-0.432 -1.26,-1.176 -0.456,-0.756 -0.456,-1.716 0,-0.972 0.456,-1.716 0.468,-0.756 1.26,-1.176 0.804,-0.432 1.836,-0.432 1.02,0 1.824,0.432 0.804,0.42 1.26,1.164 0.456,0.744 0.456,1.728 0,0.96 -0.456,1.716 -0.456,0.744 -1.26,1.176 -0.804,0.432 -1.824,0.432 z m 0,-1.536 q 0.468,0 0.84,-0.216 0.372,-0.216 0.588,-0.612 0.216,-0.408 0.216,-0.96 0,-0.564 -0.216,-0.96 -0.216,-0.396 -0.588,-0.612 -0.372,-0.216 -0.84,-0.216 -0.468,0 -0.84,0.216 -0.372,0.216 -0.6,0.612 -0.216,0.396 -0.216,0.96 0,0.552 0.216,0.96 0.228,0.396 0.6,0.612 0.372,0.216 0.84,0.216 z m 6.96001,1.536 q -0.828,0 -1.596,-0.192 -0.756,-0.204 -1.2,-0.504 l 0.624,-1.344 q 0.444,0.276 1.044,0.456 0.612,0.168 1.2,0.168 0.648,0 0.912,-0.156 0.276,-0.156 0.276,-0.432 0,-0.228 -0.216,-0.336 -0.204,-0.12 -0.552,-0.18 -0.348,-0.06 -0.768,-0.12 -0.408,-0.06 -0.828,-0.156 -0.42,-0.108 -0.768,-0.312 -0.348,-0.204 -0.564,-0.552 -0.204,-0.348 -0.204,-0.9 0,-0.612 0.348,-1.08 0.36,-0.468 1.032,-0.732 0.672,-0.276 1.608,-0.276 0.66,0 1.344,0.144 0.684,0.144 1.14,0.42 l -0.624,1.332 q -0.468,-0.276 -0.948,-0.372 -0.468,-0.108 -0.912,-0.108 -0.624,0 -0.912,0.168 -0.288,0.168 -0.288,0.432 0,0.24 0.204,0.36 0.216,0.12 0.564,0.192 0.348,0.072 0.756,0.132 0.42,0.048 0.84,0.156 0.42,0.108 0.756,0.312 0.348,0.192 0.564,0.54 0.216,0.336 0.216,0.888 0,0.6 -0.36,1.068 -0.36,0.456 -1.044,0.72 -0.672,0.264 -1.644,0.264 z m 6.84,0 q -1.14,0 -1.776,-0.576 -0.636,-0.588 -0.636,-1.74 v -5.66399997 h 1.872 V 5.3741936 q 0,0.408 0.216,0.636 0.216,0.216 0.588,0.216 0.444,0 0.756,-0.24 l 0.504,1.32 q -0.288,0.204 -0.696,0.312 -0.396,0.096 -0.828,0.096 z m -3.408,-5.112 v -1.44 h 4.476 v 1.44 z"
     id="text15-4"
     style="font-size:12px;line-height:0;font-family:Montserrat;-inkscape-font-specification:'Montserrat, @wght=700';font-variation-settings:'wght' 700;fill:#3d5562;stroke:#3d5562;stroke-width:3.05386;stroke-linecap:round;stroke-opacity:0"
     transform="rotate(-90.578677)"
     aria-label="Cost" />
</svg>
