<?xml version="1.0" encoding="UTF-8" standalone="no"?>
<svg
   version="1.1"
   width="256"
   height="256"
   id="svg14"
   sodipodi:docname="transformed-decision-boundary.svg"
   inkscape:version="1.4.2 (f4327f4, 2025-05-13)"
   xmlns:inkscape="http://www.inkscape.org/namespaces/inkscape"
   xmlns:sodipodi="http://sodipodi.sourceforge.net/DTD/sodipodi-0.dtd"
   xmlns="http://www.w3.org/2000/svg"
   xmlns:svg="http://www.w3.org/2000/svg">
  <sodipodi:namedview
     id="namedview14"
     pagecolor="#ffffff"
     bordercolor="#000000"
     borderopacity="0.25"
     inkscape:showpageshadow="2"
     inkscape:pageopacity="0.0"
     inkscape:pagecheckerboard="0"
     inkscape:deskcolor="#d1d1d1"
     inkscape:zoom="2.7080685"
     inkscape:cx="48.743227"
     inkscape:cy="180.38687"
     inkscape:window-width="2560"
     inkscape:window-height="1417"
     inkscape:window-x="-8"
     inkscape:window-y="-8"
     inkscape:window-maximized="1"
     inkscape:current-layer="svg14" />
  <defs
     id="defs1">
    <clipPath
       id="ObkWxsMcrwtZ">
      <path
         fill="none"
         stroke="none"
         d="M 0,0 H 1524 V 893 H 0 Z"
         id="path1" />
    </clipPath>
    <clipPath
       clipPathUnits="userSpaceOnUse"
       id="clipPath15">
      <rect
         style="font-variation-settings:'wght' 700;fill:#3d5562;stroke:#3d5562;stroke-width:2.98034;stroke-linecap:round;stroke-opacity:0;-inkscape-stroke:none"
         id="rect16"
         width="851.42633"
         height="850.10004"
         x="329.90268"
         y="30.738941" />
    </clipPath>
  </defs>
  <g
     clip-path="url(#clipPath15)"
     id="g14"
     transform="matrix(0.28323948,0,0,0.28323948,-78.599015,6.511626)">
    <g
       id="g13">
      <rect
         fill="#ffffff"
         stroke="none"
         x="0"
         y="0"
         width="1524"
         height="893"
         fill-opacity="1"
         id="rect1" />
      <path
         fill="none"
         stroke="#c0c0c0"
         paint-order="fill stroke markers"
         d="m 10.5,0.5 v 893 m 0,-893 v 893 m 54,-893 v 893 m 53,-893 v 893 m 53,-893 v 893 m 53,-893 v 893 m 53,-893 v 893 m 53,-893 v 893 m 54,-893 v 893 m 53,-893 v 893 m 53,-893 v 893 m 53,-893 v 893 m 53,-893 v 893 m 54,-893 v 893 m 53,-893 v 893 m 106,-893 v 893 m 53,-893 v 893 m 54,-893 v 893 m 53,-893 v 893 m 53,-893 v 893 m 53,-893 v 893 m 53,-893 v 893 m 54,-893 v 893 m 53,-893 v 893 m 53,-893 v 893 m 53,-893 v 893 m 53,-893 v 893 m 54,-893 v 893 m 53,-893 v 893"
         stroke-opacity="1"
         stroke-linecap="round"
         stroke-linejoin="round"
         stroke-miterlimit="10"
         id="path2" />
      <path
         fill="none"
         stroke="#c0c0c0"
         paint-order="fill stroke markers"
         d="m 0.5,0.5 v 893 m 21,-893 v 893 m 11,-893 v 893 m 10,-893 v 893 m 11,-893 v 893 m 21,-893 v 893 m 11,-893 v 893 m 10,-893 v 893 m 11,-893 v 893 m 21,-893 v 893 m 11,-893 v 893 m 11,-893 v 893 m 10,-893 v 893 m 22,-893 v 893 m 10,-893 v 893 m 11,-893 v 893 m 10,-893 v 893 m 22,-893 v 893 m 10,-893 v 893 m 11,-893 v 893 m 11,-893 v 893 m 21,-893 v 893 m 11,-893 v 893 m 10,-893 v 893 m 11,-893 v 893 m 21,-893 v 893 m 11,-893 v 893 m 10,-893 v 893 m 11,-893 v 893 m 21,-893 v 893 m 11,-893 v 893 m 11,-893 v 893 m 10,-893 v 893 m 21,-893 v 893 m 11,-893 v 893 m 11,-893 v 893 m 10,-893 v 893 m 22,-893 v 893 m 10,-893 v 893 m 11,-893 v 893 m 11,-893 v 893 m 21,-893 v 893 m 11,-893 v 893 m 10,-893 v 893 m 11,-893 v 893 m 21,-893 v 893 m 11,-893 v 893 m 10,-893 v 893 m 11,-893 v 893 m 21,-893 v 893 m 11,-893 v 893 m 11,-893 v 893 m 10,-893 v 893 m 21,-893 v 893 m 11,-893 v 893 m 11,-893 v 893 m 10,-893 v 893 m 22,-893 v 893 m 10,-893 v 893 m 11,-893 v 893 m 11,-893 v 893 m 21,-893 v 893 m 10,-893 v 893 m 11,-893 v 893 m 11,-893 v 893 m 21,-893 v 893 m 11,-893 v 893 m 10,-893 v 893 m 11,-893 v 893 m 21,-893 v 893 m 11,-893 v 893 m 10,-893 v 893 m 11,-893 v 893 m 21,-893 v 893 m 11,-893 v 893 m 11,-893 v 893 m 10,-893 v 893 m 22,-893 v 893 m 10,-893 v 893 m 11,-893 v 893 m 11,-893 v 893 m 21,-893 v 893 m 10,-893 v 893 m 11,-893 v 893 m 11,-893 v 893 m 21,-893 v 893 m 11,-893 v 893 m 10,-893 v 893 m 11,-893 v 893 m 21,-893 v 893 m 11,-893 v 893 m 10,-893 v 893 m 11,-893 v 893 m 21,-893 v 893 m 11,-893 v 893 m 11,-893 v 893 m 10,-893 v 893 m 22,-893 v 893 m 10,-893 v 893 m 11,-893 v 893 m 10,-893 v 893 m 22,-893 v 893 m 10,-893 v 893 m 11,-893 v 893 m 11,-893 v 893 m 21,-893 v 893 m 11,-893 v 893 m 10,-893 v 893 m 11,-893 v 893 m 21,-893 v 893 m 11,-893 v 893 m 10,-893 v 893 m 11,-893 v 893 m 21,-893 v 893 m 11,-893 v 893"
         stroke-opacity="0.235294"
         stroke-linecap="round"
         stroke-linejoin="round"
         stroke-miterlimit="10"
         id="path3" />
      <path
         fill="none"
         stroke="#c0c0c0"
         paint-order="fill stroke markers"
         d="m 0.5,30.5 h 1524 m -1524,0 h 1524 m -1524,54 h 1524 m -1524,53 h 1524 m -1524,53 h 1524 m -1524,53 h 1524 m -1524,53 h 1524 m -1524,54 h 1524 m -1524,53 h 1524 m -1524,106 h 1524 m -1524,53 h 1524 m -1524,54 h 1524 m -1524,53 h 1524 m -1524,53 h 1524 m -1524,53 h 1524 m -1524,53 h 1524 m -1524,54 h 1524"
         stroke-opacity="1"
         stroke-linecap="round"
         stroke-linejoin="round"
         stroke-miterlimit="10"
         id="path4" />
      <path
         fill="none"
         stroke="#c0c0c0"
         paint-order="fill stroke markers"
         d="m 0.5,9.5 h 1524 m -1524,0 h 1524 m -1524,11 h 1524 m -1524,21 h 1524 m -1524,11 h 1524 m -1524,10 h 1524 m -1524,11 h 1524 m -1524,21 h 1524 m -1524,11 h 1524 m -1524,11 h 1524 m -1524,10 h 1524 m -1524,21 h 1524 m -1524,11 h 1524 m -1524,11 h 1524 m -1524,10 h 1524 m -1524,22 h 1524 m -1524,10 h 1524 m -1524,11 h 1524 m -1524,11 h 1524 m -1524,21 h 1524 m -1524,11 h 1524 m -1524,10 h 1524 m -1524,11 h 1524 m -1524,21 h 1524 m -1524,11 h 1524 m -1524,10 h 1524 m -1524,11 h 1524 m -1524,21 h 1524 m -1524,11 h 1524 m -1524,11 h 1524 m -1524,10 h 1524 m -1524,21 h 1524 m -1524,11 h 1524 m -1524,11 h 1524 m -1524,10 h 1524 m -1524,22 h 1524 m -1524,10 h 1524 m -1524,11 h 1524 m -1524,11 h 1524 m -1524,21 h 1524 m -1524,10 h 1524 m -1524,11 h 1524 m -1524,11 h 1524 m -1524,21 h 1524 m -1524,11 h 1524 m -1524,10 h 1524 m -1524,11 h 1524 m -1524,21 h 1524 m -1524,11 h 1524 m -1524,10 h 1524 m -1524,11 h 1524 m -1524,21 h 1524 m -1524,11 h 1524 m -1524,11 h 1524 m -1524,10 h 1524 m -1524,22 h 1524 m -1524,10 h 1524 m -1524,11 h 1524 m -1524,11 h 1524 m -1524,21 h 1524 m -1524,10 h 1524 m -1524,11 h 1524 m -1524,11 h 1524 m -1524,21 h 1524 m -1524,11 h 1524 m -1524,10 h 1524 m -1524,11 h 1524 m -1524,21 h 1524"
         stroke-opacity="0.235294"
         stroke-linecap="round"
         stroke-linejoin="round"
         stroke-miterlimit="10"
         id="path5" />
      <path
         fill="none"
         stroke="#252525"
         paint-order="fill stroke markers"
         d="m 755.5,2.5 v 891"
         stroke-opacity="1"
         stroke-miterlimit="10"
         id="path6" />
      <path
         fill="none"
         stroke="#252525"
         paint-order="fill stroke markers"
         d="m 755.5,1.5 -4,4"
         stroke-opacity="1"
         stroke-miterlimit="10"
         id="path7" />
      <path
         fill="none"
         stroke="#252525"
         paint-order="fill stroke markers"
         d="m 755.5,1.5 4,4"
         stroke-opacity="1"
         stroke-miterlimit="10"
         id="path8" />
      <path
         fill="none"
         stroke="#252525"
         paint-order="fill stroke markers"
         d="m 0.5,456.5 h 1522"
         stroke-opacity="1"
         stroke-miterlimit="10"
         id="path9" />
      <path
         fill="none"
         stroke="#252525"
         paint-order="fill stroke markers"
         d="m 1523.5,456.5 -4,-4"
         stroke-opacity="1"
         stroke-miterlimit="10"
         id="path10" />
      <path
         fill="none"
         stroke="#252525"
         paint-order="fill stroke markers"
         d="m 1523.5,456.5 -4,4"
         stroke-opacity="1"
         stroke-miterlimit="10"
         id="path11" />
      <path
         fill="none"
         stroke="#0000ff"
         paint-order="fill stroke markers"
         d="M 314.00315,898 1217.0032,-5"
         stroke-opacity="1"
         stroke-linejoin="round"
         stroke-miterlimit="10"
         stroke-width="2.5"
         stroke-dasharray="6.5, 4"
         id="path12" />
      <text
         fill="#0000ff"
         stroke="none"
         font-family="geogebra-sans-serif, sans-serif"
         font-size="16px"
         font-style="normal"
         font-weight="normal"
         text-decoration="normal"
         x="337"
         y="885"
         text-anchor="start"
         dominant-baseline="alphabetic"
         fill-opacity="1"
         id="text12">a</text>
      <path
         fill="#0000ff"
         stroke="none"
         paint-order="stroke fill markers"
         d="M 1212.0032,0 319.00315,893 H 1524 V 0 Z"
         fill-opacity="0.247059"
         id="path13" />
      <text
         fill="#0000ff"
         stroke="none"
         font-family="geogebra-sans-serif, sans-serif"
         font-size="16px"
         font-style="normal"
         font-weight="normal"
         text-decoration="normal"
         x="337"
         y="885"
         text-anchor="start"
         dominant-baseline="alphabetic"
         fill-opacity="1"
         id="text13">a</text>
    </g>
  </g>
  <path
     d="M 102.77791,11.225044 V 2.8250443 h 6.348 v 1.56 h -4.416 v 5.28 h 4.572 v 1.5599997 z m 1.788,-3.5039997 v -1.512 h 4.044 v 1.512 z m 6.132,3.5039997 V 4.7690443 h 1.788 v 1.788 l -0.336,-0.54 q 0.348,-0.648 0.996,-0.996 0.648,-0.348 1.476,-0.348 0.768,0 1.368,0.312 0.612,0.3 0.96,0.936 0.348,0.624 0.348,1.608 v 3.6959997 h -1.872 V 7.8170443 q 0,-0.78 -0.348,-1.152 -0.336,-0.372 -0.96,-0.372 -0.444,0 -0.804,0.192 -0.348,0.18 -0.552,0.564 -0.192,0.384 -0.192,0.984 v 3.1919997 z m 7.812,2.424 q -0.432,0 -0.828,-0.096 -0.396,-0.084 -0.672,-0.264 l 0.504,-1.356 q 0.324,0.228 0.792,0.228 0.348,0 0.552,-0.24 0.216,-0.228 0.216,-0.696 V 4.7690443 h 1.872 v 6.4439997 q 0,1.116 -0.636,1.776 -0.636,0.66 -1.8,0.66 z m 1.5,-9.7799997 q -0.516,0 -0.84,-0.3 -0.324,-0.3 -0.324,-0.744 0,-0.444 0.324,-0.744 0.324,-0.3 0.84,-0.3 0.516,0 0.84,0.288 0.324,0.276 0.324,0.72 0,0.468 -0.324,0.78 -0.312,0.3 -0.84,0.3 z m 5.73599,7.4519997 q -1.032,0 -1.836,-0.432 -0.792,-0.432 -1.26,-1.1759997 -0.456,-0.756 -0.456,-1.716 0,-0.972 0.456,-1.716 0.468,-0.756 1.26,-1.176 0.804,-0.432 1.836,-0.432 1.02,0 1.824,0.432 0.804,0.42 1.26,1.164 0.456,0.744 0.456,1.728 0,0.96 -0.456,1.716 -0.456,0.7439997 -1.26,1.1759997 -0.804,0.432 -1.824,0.432 z m 0,-1.5359997 q 0.468,0 0.84,-0.216 0.372,-0.216 0.588,-0.612 0.216,-0.408 0.216,-0.96 0,-0.564 -0.216,-0.96 -0.216,-0.396 -0.588,-0.612 -0.372,-0.216 -0.84,-0.216 -0.468,0 -0.84,0.216 -0.372,0.216 -0.6,0.612 -0.216,0.396 -0.216,0.96 0,0.552 0.216,0.96 0.228,0.396 0.6,0.612 0.372,0.216 0.84,0.216 z m 5.42401,3.8639997 q -0.504,0 -0.996,-0.156 -0.492,-0.156 -0.804,-0.432 l 0.684,-1.332 q 0.216,0.192 0.492,0.3 0.288,0.108 0.564,0.108 0.396,0 0.624,-0.192 0.24,-0.18 0.432,-0.612 l 0.336,-0.792 0.144,-0.204 2.316,-5.5679997 h 1.8 l -2.916,6.8519997 q -0.312,0.78 -0.72,1.224 -0.396,0.444 -0.888,0.624 -0.48,0.18 -1.068,0.18 z m 1.104,-2.172 -2.88,-6.7079997 h 1.932 l 2.232,5.3999997 z m 5.256,-0.252 V 4.7690443 h 1.788 v 1.764 l -0.336,-0.516 q 0.336,-0.66 0.948,-0.996 0.624,-0.348 1.416,-0.348 0.888,0 1.548,0.456 0.672,0.444 0.888,1.368 l -0.66,-0.18 q 0.324,-0.756 1.032,-1.2 0.72,-0.444 1.644,-0.444 0.768,0 1.356,0.312 0.6,0.3 0.936,0.936 0.348,0.624 0.348,1.608 v 3.6959997 h -1.872 V 7.8170443 q 0,-0.78 -0.324,-1.152 -0.324,-0.372 -0.912,-0.372 -0.408,0 -0.732,0.192 -0.324,0.18 -0.504,0.552 -0.18,0.372 -0.18,0.948 v 3.2399997 h -1.872 V 7.8170443 q 0,-0.78 -0.324,-1.152 -0.312,-0.372 -0.9,-0.372 -0.408,0 -0.732,0.192 -0.324,0.18 -0.504,0.552 -0.18,0.372 -0.18,0.948 v 3.2399997 z m 15.83963,0.096 q -1.104,0 -1.944,-0.432 -0.828,-0.432 -1.284,-1.1759997 -0.456,-0.756 -0.456,-1.716 0,-0.972 0.444,-1.716 0.456,-0.756 1.236,-1.176 0.78,-0.432 1.764,-0.432 0.948,0 1.704,0.408 0.768,0.396 1.212,1.152 0.444,0.744 0.444,1.788 0,0.108 -0.012,0.252 -0.012,0.132 -0.024,0.252 h -5.244 v -1.092 h 4.26 l -0.72,0.324 q 0,-0.504 -0.204,-0.876 -0.204,-0.372 -0.564,-0.576 -0.36,-0.216 -0.84,-0.216 -0.48,0 -0.852,0.216 -0.36,0.204 -0.564,0.588 -0.204,0.372 -0.204,0.888 v 0.288 q 0,0.528 0.228,0.936 0.24,0.396 0.66,0.612 0.432,0.204 1.008,0.204 0.516,0 0.9,-0.156 0.396,-0.156 0.72,-0.468 l 0.996,1.0799997 q -0.444,0.504 -1.116,0.78 -0.672,0.264 -1.548,0.264 z m 4.368,-0.096 V 4.7690443 h 1.788 v 1.788 l -0.336,-0.54 q 0.348,-0.648 0.996,-0.996 0.648,-0.348 1.476,-0.348 0.768,0 1.368,0.312 0.612,0.3 0.96,0.936 0.348,0.624 0.348,1.608 v 3.6959997 h -1.872 V 7.8170443 q 0,-0.78 -0.348,-1.152 -0.336,-0.372 -0.96,-0.372 -0.444,0 -0.804,0.192 -0.348,0.18 -0.552,0.564 -0.192,0.384 -0.192,0.984 v 3.1919997 z m 10.932,0.096 q -1.14,0 -1.776,-0.576 -0.636,-0.588 -0.636,-1.7399997 v -5.664 h 1.872 v 5.64 q 0,0.408 0.216,0.636 0.216,0.216 0.588,0.216 0.444,0 0.756,-0.24 l 0.504,1.3199997 q -0.288,0.204 -0.696,0.312 -0.396,0.096 -0.828,0.096 z m -3.408,-5.1119997 v -1.44 h 4.476 v 1.44 z"
     id="text16"
     style="font-size:12px;line-height:0;font-family:Montserrat;-inkscape-font-specification:'Montserrat, @wght=700';font-variation-settings:'wght' 700;fill:#3d5562;stroke:#3d5562;stroke-width:3.05386;stroke-linecap:round;stroke-opacity:0"
     aria-label="Enjoyment" />
  <path
     d="M -178.13053,14.5068 V 6.1067997 h 3.636 q 1.128,0 1.944,0.372 0.816,0.36 1.26,1.044 0.444,0.684 0.444,1.632 0,0.9360003 -0.444,1.6200003 -0.444,0.684 -1.26,1.056 -0.816,0.36 -1.944,0.36 h -2.556 l 0.864,-0.876 v 3.192 z m 1.944,-2.976 -0.864,-0.924 h 2.448 q 0.9,0 1.344,-0.384 0.444,-0.3840003 0.444,-1.0680003 0,-0.696 -0.444,-1.08 -0.444,-0.384 -1.344,-0.384 h -2.448 l 0.864,-0.924 z m 6.58498,2.976 V 8.0507997 h 1.788 v 1.824 l -0.252,-0.528 q 0.288,-0.684 0.924,-1.032 0.636,-0.36 1.548,-0.36 v 1.728 q -0.12,-0.012 -0.216,-0.012 -0.096,-0.012 -0.204,-0.012 -0.768,0 -1.248,0.4440003 -0.468,0.432 -0.468,1.356 v 3.048 z m 8.66346,0 v -1.26 l -0.12,-0.276 v -2.256 q 0,-0.6 -0.372,-0.9360003 -0.36,-0.336 -1.116,-0.336 -0.516,0 -1.02,0.168 -0.492,0.156 -0.84,0.4320003 l -0.672,-1.3080003 q 0.528,-0.372 1.272,-0.576 0.744,-0.204 1.512,-0.204 1.476,0 2.292,0.696 0.816,0.696 0.816,2.1720003 v 3.684 z m -1.968,0.096 q -0.756,0 -1.296,-0.252 -0.54,-0.264 -0.828,-0.708 -0.288,-0.444 -0.288,-0.996 0,-0.576 0.276,-1.008 0.288,-0.432 0.9,-0.672 0.612,-0.252 1.596,-0.252 h 1.716 v 1.092 h -1.512 q -0.66,0 -0.912,0.216 -0.24,0.216 -0.24,0.54 0,0.36 0.276,0.576 0.288,0.204 0.78,0.204 0.468,0 0.84,-0.216 0.372,-0.228 0.54,-0.66 l 0.288,0.864 q -0.204,0.624 -0.744,0.948 -0.54,0.324 -1.392,0.324 z m 8.57963,0 q -1.044,0 -1.86,-0.42 -0.816,-0.432 -1.284,-1.188 -0.456,-0.756 -0.456,-1.716 0,-0.972 0.456,-1.7160003 0.468,-0.756 1.284,-1.176 0.816,-0.432 1.86,-0.432 1.02,0 1.776,0.432 0.756,0.42 1.116,1.212 l -1.452,0.7800003 q -0.252,-0.4560003 -0.636,-0.6720003 -0.372,-0.216 -0.816,-0.216 -0.48,0 -0.864,0.216 -0.384,0.216 -0.612,0.6120003 -0.216,0.396 -0.216,0.96 0,0.564 0.216,0.96 0.228,0.396 0.612,0.612 0.384,0.216 0.864,0.216 0.444,0 0.816,-0.204 0.384,-0.216 0.636,-0.684 l 1.452,0.792 q -0.36,0.78 -1.116,1.212 -0.756,0.42 -1.776,0.42 z m 6.71028,0 q -1.14,0 -1.776,-0.576 -0.636,-0.588 -0.636,-1.74 V 6.6227997 h 1.872 V 12.2628 q 0,0.408 0.216,0.636 0.216,0.216 0.588,0.216 0.444,0 0.756,-0.24 l 0.504,1.32 q -0.288,0.204 -0.696,0.312 -0.396,0.096 -0.828,0.096 z m -3.408,-5.1120003 v -1.44 h 4.476 v 1.44 z m 5.988,5.0160003 V 8.0507997 h 1.872 V 14.5068 Z m 0.936,-7.3560003 q -0.516,0 -0.84,-0.3 -0.324,-0.3 -0.324,-0.744 0,-0.444 0.324,-0.744 0.324,-0.3 0.84,-0.3 0.516,0 0.84,0.288 0.324,0.276 0.324,0.72 0,0.468 -0.324,0.78 -0.312,0.3 -0.84,0.3 z m 5.796,7.4520003 q -1.044,0 -1.86,-0.42 -0.816,-0.432 -1.284,-1.188 -0.456,-0.756 -0.456,-1.716 0,-0.972 0.456,-1.7160003 0.468,-0.756 1.284,-1.176 0.816,-0.432 1.86,-0.432 1.02,0 1.776,0.432 0.756,0.42 1.116,1.212 l -1.452,0.7800003 q -0.252,-0.4560003 -0.636,-0.6720003 -0.372,-0.216 -0.816,-0.216 -0.48,0 -0.864,0.216 -0.384,0.216 -0.612,0.6120003 -0.216,0.396 -0.216,0.96 0,0.564 0.216,0.96 0.228,0.396 0.612,0.612 0.384,0.216 0.864,0.216 0.444,0 0.816,-0.204 0.384,-0.216 0.636,-0.684 l 1.452,0.792 q -0.36,0.78 -1.116,1.212 -0.756,0.42 -1.776,0.42 z m 7.09429,0 q -1.104,0 -1.944,-0.432 -0.828,-0.432 -1.284,-1.176 -0.456,-0.756 -0.456,-1.716 0,-0.972 0.444,-1.7160003 0.456,-0.756 1.236,-1.176 0.78,-0.432 1.764,-0.432 0.948,0 1.704,0.408 0.768,0.396 1.212,1.152 0.444,0.7440003 0.444,1.7880003 0,0.108 -0.012,0.252 -0.012,0.132 -0.024,0.252 h -5.244 v -1.092 h 4.26 l -0.72,0.324 q 0,-0.504 -0.204,-0.876 -0.204,-0.3720003 -0.564,-0.5760003 -0.36,-0.216 -0.84,-0.216 -0.48,0 -0.852,0.216 -0.36,0.204 -0.564,0.5880003 -0.204,0.372 -0.204,0.888 v 0.288 q 0,0.528 0.228,0.936 0.24,0.396 0.66,0.612 0.432,0.204 1.008,0.204 0.516,0 0.9,-0.156 0.396,-0.156 0.72,-0.468 l 0.996,1.08 q -0.444,0.504 -1.116,0.78 -0.672,0.264 -1.548,0.264 z m 9.63601,-0.096 V 7.6907997 h -2.688 v -1.584 h 7.32 v 1.584 h -2.688 V 14.5068 Z m 5.544,0 V 8.0507997 h 1.872 V 14.5068 Z m 0.936,-7.3560003 q -0.516,0 -0.84,-0.3 -0.324,-0.3 -0.324,-0.744 0,-0.444 0.324,-0.744 0.324,-0.3 0.84,-0.3 0.516,0 0.84,0.288 0.324,0.276 0.324,0.72 0,0.468 -0.324,0.78 -0.312,0.3 -0.84,0.3 z m 2.67601,7.3560003 V 8.0507997 h 1.788 v 1.764 l -0.336,-0.516 q 0.336,-0.66 0.948,-0.996 0.624,-0.348 1.416,-0.348 0.888,0 1.548,0.456 0.672,0.444 0.888,1.368 l -0.66,-0.18 q 0.324,-0.756 1.032,-1.2 0.72,-0.444 1.644,-0.444 0.768,0 1.356,0.312 0.6,0.3 0.936,0.936 0.348,0.624 0.348,1.6080003 v 3.696 h -1.872 v -3.408 q 0,-0.78 -0.324,-1.1520003 -0.324,-0.372 -0.912,-0.372 -0.408,0 -0.732,0.192 -0.324,0.18 -0.504,0.5520003 -0.18,0.372 -0.18,0.948 v 3.24 h -1.872 v -3.408 q 0,-0.78 -0.324,-1.1520003 -0.312,-0.372 -0.9,-0.372 -0.408,0 -0.732,0.192 -0.324,0.18 -0.504,0.5520003 -0.18,0.372 -0.18,0.948 v 3.24 z m 15.83963,0.096 q -1.104,0 -1.944,-0.432 -0.828,-0.432 -1.284,-1.176 -0.456,-0.756 -0.456,-1.716 0,-0.972 0.444,-1.7160003 0.456,-0.756 1.236,-1.176 0.78,-0.432 1.764,-0.432 0.948,0 1.704,0.408 0.768,0.396 1.212,1.152 0.444,0.7440003 0.444,1.7880003 0,0.108 -0.012,0.252 -0.012,0.132 -0.024,0.252 h -5.244 v -1.092 h 4.26 l -0.72,0.324 q 0,-0.504 -0.204,-0.876 -0.204,-0.3720003 -0.564,-0.5760003 -0.36,-0.216 -0.84,-0.216 -0.48,0 -0.852,0.216 -0.36,0.204 -0.564,0.5880003 -0.204,0.372 -0.204,0.888 v 0.288 q 0,0.528 0.228,0.936 0.24,0.396 0.66,0.612 0.432,0.204 1.008,0.204 0.516,0 0.9,-0.156 0.396,-0.156 0.72,-0.468 l 0.996,1.08 q -0.444,0.504 -1.116,0.78 -0.672,0.264 -1.548,0.264 z"
     id="text16-8"
     style="font-size:12px;line-height:0;font-family:Montserrat;-inkscape-font-specification:'Montserrat, @wght=700';font-variation-settings:'wght' 700;fill:#3d5562;stroke:#3d5562;stroke-width:3.05386;stroke-linecap:round;stroke-opacity:0"
     transform="rotate(-89.53584)"
     aria-label="Practice Time" />
</svg>
