<?xml version="1.0" encoding="UTF-8" standalone="no"?>
<svg
   version="1.1"
   width="256"
   height="256"
   id="svg14"
   xmlns="http://www.w3.org/2000/svg"
   xmlns:svg="http://www.w3.org/2000/svg">
  <defs
     id="defs1">
    <clipPath
       id="HZgmqfAsTrFL">
      <path
         fill="none"
         stroke="none"
         d="M 0,0 H 1524 V 893 H 0 Z"
         id="path1" />
    </clipPath>
    <clipPath
       clipPathUnits="userSpaceOnUse"
       id="clipPath16">
      <rect
         style="font-variation-settings:'wght' 700;fill:#3d5562;stroke:#3d5562;stroke-width:3.03435;stroke-linecap:round;stroke-opacity:0;-inkscape-stroke:none"
         id="rect16"
         width="826.99994"
         height="827"
         x="261.5"
         y="39.5" />
    </clipPath>
  </defs>
  <g
     clip-path="url(#clipPath16)"
     id="g14"
     transform="matrix(0.29384788,0,0,0.29384788,-63.853395,1.3808161)">
    <g
       id="g13">
      <rect
         fill="#ffffff"
         stroke="none"
         x="0"
         y="0"
         width="1524"
         height="893"
         fill-opacity="1"
         id="rect1" />
      <path
         fill="none"
         stroke="#c0c0c0"
         paint-order="fill stroke markers"
         d="m 3.5,0.5 v 893 m 0,-893 v 893 m 52,-893 v 893 m 51,-893 v 893 m 52,-893 v 893 m 52,-893 v 893 m 51,-893 v 893 m 52,-893 v 893 m 52,-893 v 893 m 51,-893 v 893 m 52,-893 v 893 m 52,-893 v 893 m 51,-893 v 893 m 52,-893 v 893 m 103,-893 v 893 m 52,-893 v 893 m 52,-893 v 893 m 51,-893 v 893 m 52,-893 v 893 m 52,-893 v 893 m 51,-893 v 893 m 52,-893 v 893 m 52,-893 v 893 m 51,-893 v 893 m 52,-893 v 893 m 52,-893 v 893 m 51,-893 v 893 m 52,-893 v 893 m 51,-893 v 893 m 52,-893 v 893"
         stroke-opacity="1"
         stroke-linecap="round"
         stroke-linejoin="round"
         stroke-miterlimit="10"
         id="path2" />
      <path
         fill="none"
         stroke="#c0c0c0"
         paint-order="fill stroke markers"
         d="m 13.5,0.5 v 893 m 11,-893 v 893 m 10,-893 v 893 m 10,-893 v 893 m 21,-893 v 893 m 10,-893 v 893 m 11,-893 v 893 m 10,-893 v 893 m 21,-893 v 893 m 10,-893 v 893 m 10,-893 v 893 m 11,-893 v 893 m 20,-893 v 893 m 11,-893 v 893 m 10,-893 v 893 m 10,-893 v 893 m 21,-893 v 893 m 10,-893 v 893 m 11,-893 v 893 m 10,-893 v 893 m 21,-893 v 893 m 10,-893 v 893 m 10,-893 v 893 m 11,-893 v 893 m 20,-893 v 893 m 11,-893 v 893 m 10,-893 v 893 m 10,-893 v 893 m 21,-893 v 893 m 10,-893 v 893 m 11,-893 v 893 m 10,-893 v 893 m 21,-893 v 893 m 10,-893 v 893 m 10,-893 v 893 m 11,-893 v 893 m 20,-893 v 893 m 11,-893 v 893 m 10,-893 v 893 m 10,-893 v 893 m 21,-893 v 893 m 10,-893 v 893 m 11,-893 v 893 m 10,-893 v 893 m 21,-893 v 893 m 10,-893 v 893 m 10,-893 v 893 m 11,-893 v 893 m 20,-893 v 893 m 11,-893 v 893 m 10,-893 v 893 m 10,-893 v 893 m 21,-893 v 893 m 10,-893 v 893 m 11,-893 v 893 m 10,-893 v 893 m 21,-893 v 893 m 10,-893 v 893 m 10,-893 v 893 m 11,-893 v 893 m 20,-893 v 893 m 11,-893 v 893 m 10,-893 v 893 m 10,-893 v 893 m 21,-893 v 893 m 10,-893 v 893 m 11,-893 v 893 m 10,-893 v 893 m 21,-893 v 893 m 10,-893 v 893 m 10,-893 v 893 m 11,-893 v 893 m 20,-893 v 893 m 11,-893 v 893 m 10,-893 v 893 m 10,-893 v 893 m 21,-893 v 893 m 10,-893 v 893 m 11,-893 v 893 m 10,-893 v 893 m 21,-893 v 893 m 10,-893 v 893 m 10,-893 v 893 m 11,-893 v 893 m 20,-893 v 893 m 11,-893 v 893 m 10,-893 v 893 m 10,-893 v 893 m 21,-893 v 893 m 10,-893 v 893 m 11,-893 v 893 m 10,-893 v 893 m 21,-893 v 893 m 10,-893 v 893 m 10,-893 v 893 m 11,-893 v 893 m 20,-893 v 893 m 11,-893 v 893 m 10,-893 v 893 m 10,-893 v 893 m 21,-893 v 893 m 10,-893 v 893 m 10,-893 v 893 m 11,-893 v 893 m 20,-893 v 893 m 11,-893 v 893 m 10,-893 v 893 m 10,-893 v 893 m 21,-893 v 893 m 10,-893 v 893 m 11,-893 v 893 m 10,-893 v 893 m 21,-893 v 893 m 10,-893 v 893 m 10,-893 v 893 m 11,-893 v 893 m 20,-893 v 893 m 11,-893 v 893"
         stroke-opacity="0.235294"
         stroke-linecap="round"
         stroke-linejoin="round"
         stroke-miterlimit="10"
         id="path3" />
      <path
         fill="none"
         stroke="#c0c0c0"
         paint-order="fill stroke markers"
         d="m 0.5,39.5 h 1524 m -1524,0 h 1524 m -1524,52 h 1524 m -1524,52 h 1524 m -1524,51 h 1524 m -1524,52 h 1524 m -1524,52 h 1524 m -1524,51 h 1524 m -1524,52 h 1524 m -1524,103 h 1524 m -1524,52 h 1524 m -1524,51 h 1524 m -1524,52 h 1524 m -1524,52 h 1524 m -1524,51 h 1524 m -1524,52 h 1524 m -1524,52 h 1524"
         stroke-opacity="1"
         stroke-linecap="round"
         stroke-linejoin="round"
         stroke-miterlimit="10"
         id="path4" />
      <path
         fill="none"
         stroke="#c0c0c0"
         paint-order="fill stroke markers"
         d="m 0.5,8.5 h 1524 m -1524,0 h 1524 m -1524,11 h 1524 m -1524,10 h 1524 m -1524,21 h 1524 m -1524,10 h 1524 m -1524,10 h 1524 m -1524,11 h 1524 m -1524,20 h 1524 m -1524,11 h 1524 m -1524,10 h 1524 m -1524,10 h 1524 m -1524,21 h 1524 m -1524,10 h 1524 m -1524,11 h 1524 m -1524,10 h 1524 m -1524,21 h 1524 m -1524,10 h 1524 m -1524,10 h 1524 m -1524,11 h 1524 m -1524,20 h 1524 m -1524,11 h 1524 m -1524,10 h 1524 m -1524,10 h 1524 m -1524,21 h 1524 m -1524,10 h 1524 m -1524,11 h 1524 m -1524,10 h 1524 m -1524,20 h 1524 m -1524,11 h 1524 m -1524,10 h 1524 m -1524,10 h 1524 m -1524,21 h 1524 m -1524,10 h 1524 m -1524,11 h 1524 m -1524,10 h 1524 m -1524,21 h 1524 m -1524,10 h 1524 m -1524,10 h 1524 m -1524,11 h 1524 m -1524,20 h 1524 m -1524,11 h 1524 m -1524,10 h 1524 m -1524,10 h 1524 m -1524,21 h 1524 m -1524,10 h 1524 m -1524,11 h 1524 m -1524,10 h 1524 m -1524,21 h 1524 m -1524,10 h 1524 m -1524,10 h 1524 m -1524,11 h 1524 m -1524,20 h 1524 m -1524,11 h 1524 m -1524,10 h 1524 m -1524,10 h 1524 m -1524,21 h 1524 m -1524,10 h 1524 m -1524,11 h 1524 m -1524,10 h 1524 m -1524,21 h 1524 m -1524,10 h 1524 m -1524,10 h 1524 m -1524,11 h 1524 m -1524,20 h 1524 m -1524,11 h 1524 m -1524,10 h 1524 m -1524,10 h 1524 m -1524,21 h 1524 m -1524,10 h 1524"
         stroke-opacity="0.235294"
         stroke-linecap="round"
         stroke-linejoin="round"
         stroke-miterlimit="10"
         id="path5" />
      <path
         fill="none"
         stroke="#252525"
         paint-order="fill stroke markers"
         d="M 675,3 V 893"
         stroke-opacity="1"
         stroke-miterlimit="10"
         stroke-width="2"
         id="path6" />
      <path
         fill="none"
         stroke="#252525"
         paint-order="fill stroke markers"
         d="m 675,2 -5,5"
         stroke-opacity="1"
         stroke-miterlimit="10"
         stroke-width="2"
         id="path7" />
      <path
         fill="none"
         stroke="#252525"
         paint-order="fill stroke markers"
         d="m 675,2 5,5"
         stroke-opacity="1"
         stroke-miterlimit="10"
         stroke-width="2"
         id="path8" />
      <path
         fill="none"
         stroke="#252525"
         paint-order="fill stroke markers"
         d="M 0,453 H 1521"
         stroke-opacity="1"
         stroke-miterlimit="10"
         stroke-width="2"
         id="path9" />
      <path
         fill="none"
         stroke="#252525"
         paint-order="fill stroke markers"
         d="m 1522,453 -5,-5"
         stroke-opacity="1"
         stroke-miterlimit="10"
         stroke-width="2"
         id="path10" />
      <path
         fill="none"
         stroke="#252525"
         paint-order="fill stroke markers"
         d="m 1522,453 -5,5"
         stroke-opacity="1"
         stroke-miterlimit="10"
         stroke-width="2"
         id="path11" />
      <path
         fill="none"
         stroke="#0000ff"
         paint-order="fill stroke markers"
         d="m 333.4331,898 903,-903"
         stroke-opacity="1"
         stroke-linejoin="round"
         stroke-miterlimit="10"
         stroke-width="2.5"
         stroke-dasharray="6.5, 4"
         id="path12" />
      <text
         fill="#0000ff"
         stroke="none"
         font-family="geogebra-sans-serif, sans-serif"
         font-size="16px"
         font-style="normal"
         font-weight="normal"
         text-decoration="normal"
         x="356"
         y="885"
         text-anchor="start"
         dominant-baseline="alphabetic"
         fill-opacity="1"
         id="text12">a</text>
      <path
         fill="#0000ff"
         stroke="none"
         paint-order="stroke fill markers"
         d="m 1231.4331,0 -893,893 H 1524 V 0 Z"
         fill-opacity="0.247059"
         id="path13" />
      <text
         fill="#0000ff"
         stroke="none"
         font-family="geogebra-sans-serif, sans-serif"
         font-size="16px"
         font-style="normal"
         font-weight="normal"
         text-decoration="normal"
         x="356"
         y="885"
         text-anchor="start"
         dominant-baseline="alphabetic"
         fill-opacity="1"
         id="text13">a</text>
    </g>
  </g>
  <path
     d="m 101.07961,10.589323 v -8.4 h 6.348 v 1.56 h -4.416 v 5.28 h 4.572 v 1.56 z m 1.788,-3.504 v -1.512 h 4.044 v 1.512 z m 6.13199,3.504 v -6.456 h 1.788 v 1.788 l -0.336,-0.54 q 0.348,-0.648 0.996,-0.996 0.648,-0.348 1.476,-0.348 0.768,0 1.368,0.312 0.612,0.3 0.96,0.936 0.348,0.624 0.348,1.608 v 3.696 h -1.872 v -3.408 q 0,-0.78 -0.348,-1.152 -0.336,-0.372 -0.96,-0.372 -0.444,0 -0.804,0.192 -0.348,0.18 -0.552,0.564 -0.192,0.384 -0.192,0.984 v 3.192 z m 7.812,2.424 q -0.432,0 -0.828,-0.096 -0.396,-0.084 -0.672,-0.264 l 0.504,-1.356 q 0.324,0.228 0.792,0.228 0.348,0 0.552,-0.24 0.216,-0.228 0.216,-0.696 v -6.456 h 1.872 v 6.444 q 0,1.116 -0.636,1.776 -0.636,0.66 -1.8,0.66 z m 1.5,-9.78 q -0.516,0 -0.84,-0.3 -0.324,-0.3 -0.324,-0.744 0,-0.444 0.324,-0.744 0.324,-0.3 0.84,-0.3 0.516,0 0.84,0.288 0.324,0.276 0.324,0.72 0,0.468 -0.324,0.78 -0.312,0.3 -0.84,0.3 z m 5.736,7.452 q -1.032,0 -1.836,-0.432 -0.792,-0.432 -1.26,-1.176 -0.456,-0.756 -0.456,-1.716 0,-0.972 0.456,-1.716 0.468,-0.756 1.26,-1.176 0.804,-0.432 1.836,-0.432 1.02,0 1.824,0.432 0.804,0.42 1.26,1.164 0.456,0.744 0.456,1.728 0,0.96 -0.456,1.716 -0.456,0.744 -1.26,1.176 -0.804,0.432 -1.824,0.432 z m 0,-1.536 q 0.468,0 0.84,-0.216 0.372,-0.216 0.588,-0.612 0.216,-0.408 0.216,-0.96 0,-0.564 -0.216,-0.96 -0.216,-0.396 -0.588,-0.612 -0.372,-0.216 -0.84,-0.216 -0.468,0 -0.84,0.216 -0.372,0.216 -0.6,0.612 -0.216,0.396 -0.216,0.96 0,0.552 0.216,0.96 0.228,0.396 0.6,0.612 0.372,0.216 0.84,0.216 z m 5.42401,3.864 q -0.504,0 -0.996,-0.156 -0.492,-0.156 -0.804,-0.432 l 0.684,-1.332 q 0.216,0.192 0.492,0.3 0.288,0.108 0.564,0.108 0.396,0 0.624,-0.192 0.24,-0.18 0.432,-0.612 l 0.336,-0.792 0.144,-0.204 2.316,-5.568 h 1.8 l -2.916,6.852 q -0.312,0.78 -0.72,1.224 -0.396,0.444 -0.888,0.624 -0.48,0.18 -1.068,0.18 z m 1.104,-2.172 -2.88,-6.708 h 1.932 l 2.232,5.4 z m 5.256,-0.252 v -6.456 h 1.788 v 1.764 l -0.336,-0.516 q 0.336,-0.66 0.948,-0.996 0.624,-0.348 1.416,-0.348 0.888,0 1.548,0.456 0.672,0.444 0.888,1.368 l -0.66,-0.18 q 0.324,-0.756 1.032,-1.2 0.72,-0.444 1.644,-0.444 0.768,0 1.356,0.312 0.6,0.3 0.936,0.936 0.348,0.624 0.348,1.608 v 3.696 h -1.872 v -3.408 q 0,-0.78 -0.324,-1.152 -0.324,-0.372 -0.912,-0.372 -0.408,0 -0.732,0.192 -0.324,0.18 -0.504,0.552 -0.18,0.372 -0.18,0.948 v 3.24 h -1.872 v -3.408 q 0,-0.78 -0.324,-1.152 -0.312,-0.372 -0.9,-0.372 -0.408,0 -0.732,0.192 -0.324,0.18 -0.504,0.552 -0.18,0.372 -0.18,0.948 v 3.24 z m 15.83962,0.096 q -1.104,0 -1.944,-0.432 -0.828,-0.432 -1.284,-1.176 -0.456,-0.756 -0.456,-1.716 0,-0.972 0.444,-1.716 0.456,-0.756 1.236,-1.176 0.78,-0.432 1.764,-0.432 0.948,0 1.704,0.408 0.768,0.396 1.212,1.152 0.444,0.744 0.444,1.788 0,0.108 -0.012,0.252 -0.012,0.132 -0.024,0.252 h -5.244 v -1.092 h 4.26 l -0.72,0.324 q 0,-0.504 -0.204,-0.876 -0.204,-0.372 -0.564,-0.576 -0.36,-0.216 -0.84,-0.216 -0.48,0 -0.852,0.216 -0.36,0.204 -0.564,0.588 -0.204,0.372 -0.204,0.888 v 0.288 q 0,0.528 0.228,0.936 0.24,0.396 0.66,0.612 0.432,0.204 1.008,0.204 0.516,0 0.9,-0.156 0.396,-0.156 0.72,-0.468 l 0.996,1.08 q -0.444,0.504 -1.116,0.78 -0.672,0.264 -1.548,0.264 z m 4.36801,-0.096 v -6.456 h 1.788 v 1.788 l -0.336,-0.54 q 0.348,-0.648 0.996,-0.996 0.648,-0.348 1.476,-0.348 0.768,0 1.368,0.312 0.612,0.3 0.96,0.936 0.348,0.624 0.348,1.608 v 3.696 h -1.872 v -3.408 q 0,-0.78 -0.348,-1.152 -0.336,-0.372 -0.96,-0.372 -0.444,0 -0.804,0.192 -0.348,0.18 -0.552,0.564 -0.192,0.384 -0.192,0.984 v 3.192 z m 10.932,0.096 q -1.14,0 -1.776,-0.576 -0.636,-0.588 -0.636,-1.74 v -5.664 h 1.872 v 5.64 q 0,0.408 0.216,0.636 0.216,0.216 0.588,0.216 0.444,0 0.756,-0.24 l 0.504,1.32 q -0.288,0.204 -0.696,0.312 -0.396,0.096 -0.828,0.096 z m -3.408,-5.112 v -1.44 h 4.476 v 1.44 z"
     id="text16"
     style="font-size:12px;line-height:0;font-family:Montserrat;-inkscape-font-specification:'Montserrat, @wght=700';font-variation-settings:'wght' 700;fill:#3d5562;stroke:#3d5562;stroke-width:3.05386;stroke-linecap:round;stroke-opacity:0"
     aria-label="Enjoyment" />
  <path
     d="m -176.87235,9.4777908 v -8.4 h 3.636 q 1.128,0 1.944,0.372 0.816,0.36 1.26,1.044 0.444,0.684 0.444,1.632 0,0.936 -0.444,1.62 -0.444,0.684 -1.26,1.056 -0.816,0.36 -1.944,0.36 h -2.556 l 0.864,-0.876 v 3.192 z m 1.944,-2.976 -0.864,-0.924 h 2.448 q 0.9,0 1.344,-0.384 0.444,-0.384 0.444,-1.068 0,-0.696 -0.444,-1.08 -0.444,-0.384 -1.344,-0.384 h -2.448 l 0.864,-0.924 z m 6.58498,2.976 v -6.456 h 1.788 v 1.824 l -0.252,-0.528 q 0.288,-0.684 0.924,-1.032 0.636,-0.36 1.548,-0.36 v 1.728 q -0.12,-0.012 -0.216,-0.012 -0.096,-0.012 -0.204,-0.012 -0.768,0 -1.248,0.444 -0.468,0.432 -0.468,1.356 v 3.048 z m 8.66346,0 v -1.26 l -0.12,-0.276 v -2.256 q 0,-0.6 -0.372,-0.936 -0.36,-0.336 -1.116,-0.336 -0.516,0 -1.02,0.168 -0.492,0.156 -0.84,0.432 l -0.672,-1.308 q 0.528,-0.372 1.272,-0.576 0.744,-0.204 1.512,-0.204 1.476,0 2.292,0.696 0.816,0.696 0.816,2.172 v 3.684 z m -1.968,0.096 q -0.756,0 -1.296,-0.252 -0.54,-0.264 -0.828,-0.708 -0.288,-0.444 -0.288,-0.996 0,-0.576 0.276,-1.008 0.288,-0.432 0.9,-0.672 0.612,-0.252 1.596,-0.252 h 1.716 v 1.092 h -1.512 q -0.66,0 -0.912,0.216 -0.24,0.216 -0.24,0.54 0,0.36 0.276,0.576 0.288,0.204 0.78,0.204 0.468,0 0.84,-0.216 0.372,-0.228 0.54,-0.66 l 0.288,0.864 q -0.204,0.624 -0.744,0.948 -0.54,0.324 -1.392,0.324 z m 8.57963,0 q -1.044,0 -1.86,-0.42 -0.816,-0.432 -1.284,-1.188 -0.456,-0.756 -0.456,-1.716 0,-0.972 0.456,-1.716 0.468,-0.756 1.284,-1.176 0.816,-0.432 1.86,-0.432 1.02,0 1.776,0.432 0.756,0.42 1.116,1.212 l -1.452,0.78 q -0.252,-0.456 -0.636,-0.672 -0.372,-0.216 -0.816,-0.216 -0.48,0 -0.864,0.216 -0.384,0.216 -0.612,0.612 -0.216,0.396 -0.216,0.96 0,0.564 0.216,0.96 0.228,0.396 0.612,0.612 0.384,0.216 0.864,0.216 0.444,0 0.816,-0.204 0.384,-0.216 0.636,-0.684 l 1.452,0.792 q -0.36,0.78 -1.116,1.212 -0.756,0.42 -1.776,0.42 z m 6.71028,0 q -1.14,0 -1.776,-0.576 -0.636,-0.588 -0.636,-1.74 v -5.664 h 1.872 v 5.64 q 0,0.408 0.216,0.636 0.216,0.216 0.588,0.216 0.444,0 0.756,-0.24 l 0.504,1.32 q -0.288,0.204 -0.696,0.312 -0.396,0.096 -0.828,0.096 z m -3.408,-5.112 v -1.44 h 4.476 v 1.44 z m 5.98799,5.016 v -6.456 h 1.872 v 6.456 z m 0.936,-7.356 q -0.516,0 -0.84,-0.3 -0.324,-0.3 -0.324,-0.744 0,-0.44399997 0.324,-0.74399997 0.324,-0.3 0.84,-0.3 0.516,0 0.84,0.288 0.324,0.276 0.324,0.71999997 0,0.468 -0.324,0.78 -0.312,0.3 -0.84,0.3 z m 5.79601,7.452 q -1.044,0 -1.86,-0.42 -0.816,-0.432 -1.284,-1.188 -0.456,-0.756 -0.456,-1.716 0,-0.972 0.456,-1.716 0.468,-0.756 1.284,-1.176 0.816,-0.432 1.86,-0.432 1.02,0 1.776,0.432 0.756,0.42 1.116,1.212 l -1.452,0.78 q -0.252,-0.456 -0.636,-0.672 -0.372,-0.216 -0.816,-0.216 -0.48,0 -0.864,0.216 -0.384,0.216 -0.612,0.612 -0.216,0.396 -0.216,0.96 0,0.564 0.216,0.96 0.228,0.396 0.612,0.612 0.384,0.216 0.864,0.216 0.444,0 0.816,-0.204 0.384,-0.216 0.636,-0.684 l 1.452,0.792 q -0.36,0.78 -1.116,1.212 -0.756,0.42 -1.776,0.42 z m 7.09429,0 q -1.104,0 -1.944,-0.432 -0.828,-0.432 -1.284,-1.176 -0.456,-0.756 -0.456,-1.716 0,-0.972 0.444,-1.716 0.456,-0.756 1.236,-1.176 0.78,-0.432 1.764,-0.432 0.948,0 1.704,0.408 0.768,0.396 1.212,1.152 0.444,0.744 0.444,1.788 0,0.108 -0.012,0.252 -0.012,0.132 -0.024,0.252 h -5.244 v -1.092 h 4.26 l -0.72,0.324 q 0,-0.504 -0.204,-0.876 -0.204,-0.372 -0.564,-0.576 -0.36,-0.216 -0.84,-0.216 -0.48,0 -0.852,0.216 -0.36,0.204 -0.564,0.588 -0.204,0.372 -0.204,0.888 v 0.288 q 0,0.528 0.228,0.936 0.24,0.396 0.66,0.612 0.432,0.204 1.008,0.204 0.516,0 0.9,-0.156 0.396,-0.156 0.72,-0.468 l 0.996,1.08 q -0.444,0.504 -1.116,0.78 -0.672,0.264 -1.548,0.264 z m 9.63601,-0.096 v -6.816 h -2.688 v -1.584 h 7.32 v 1.584 h -2.688 v 6.816 z m 5.544,0 v -6.456 h 1.872 v 6.456 z m 0.936,-7.356 q -0.516,0 -0.84,-0.3 -0.324,-0.3 -0.324,-0.744 0,-0.44399997 0.324,-0.74399997 0.324,-0.3 0.84,-0.3 0.516,0 0.84,0.288 0.324,0.276 0.324,0.71999997 0,0.468 -0.324,0.78 -0.312,0.3 -0.84,0.3 z m 2.67601,7.356 v -6.456 h 1.788 v 1.764 l -0.336,-0.516 q 0.336,-0.66 0.948,-0.996 0.624,-0.348 1.416,-0.348 0.888,0 1.548,0.456 0.672,0.444 0.888,1.368 l -0.66,-0.18 q 0.324,-0.756 1.032,-1.2 0.72,-0.444 1.644,-0.444 0.768,0 1.356,0.312 0.6,0.3 0.936,0.936 0.348,0.624 0.348,1.608 v 3.696 h -1.872 v -3.408 q 0,-0.78 -0.324,-1.152 -0.324,-0.372 -0.912,-0.372 -0.408,0 -0.732,0.192 -0.324,0.18 -0.504,0.552 -0.18,0.372 -0.18,0.948 v 3.24 h -1.872 v -3.408 q 0,-0.78 -0.324,-1.152 -0.312,-0.372 -0.9,-0.372 -0.408,0 -0.732,0.192 -0.324,0.18 -0.504,0.552 -0.18,0.372 -0.18,0.948 v 3.24 z m 15.839628,0.096 q -1.104,0 -1.944,-0.432 -0.828,-0.432 -1.284,-1.176 -0.456,-0.756 -0.456,-1.716 0,-0.972 0.444,-1.716 0.456,-0.756 1.236,-1.176 0.78,-0.432 1.764,-0.432 0.948,0 1.704,0.408 0.768,0.396 1.212,1.152 0.444,0.744 0.444,1.788 0,0.108 -0.012,0.252 -0.012,0.132 -0.024,0.252 h -5.244 v -1.092 h 4.26 l -0.72,0.324 q 0,-0.504 -0.204,-0.876 -0.204,-0.372 -0.564,-0.576 -0.36,-0.216 -0.84,-0.216 -0.48,0 -0.852,0.216 -0.36,0.204 -0.564,0.588 -0.204,0.372 -0.204,0.888 v 0.288 q 0,0.528 0.228,0.936 0.24,0.396 0.66,0.612 0.432,0.204 1.008,0.204 0.516,0 0.9,-0.156 0.396,-0.156 0.72,-0.468 l 0.996,1.08 q -0.444,0.504 -1.116,0.78 -0.672,0.264 -1.548,0.264 z"
     id="text16-4"
     style="font-size:12px;line-height:0;font-family:Montserrat;-inkscape-font-specification:'Montserrat, @wght=700';font-variation-settings:'wght' 700;fill:#3d5562;stroke:#3d5562;stroke-width:3.05386;stroke-linecap:round;stroke-opacity:0"
     transform="rotate(-90.416793)"
     aria-label="Practice Time" />
</svg>
