<?xml version="1.0" encoding="UTF-8" standalone="no"?>
<svg
   version="1.1"
   width="256px"
   height="256px"
   id="svg14"
   sodipodi:docname="untransformed-decision-bounary.svg"
   inkscape:version="1.4.2 (f4327f4, 2025-05-13)"
   xmlns:inkscape="http://www.inkscape.org/namespaces/inkscape"
   xmlns:sodipodi="http://sodipodi.sourceforge.net/DTD/sodipodi-0.dtd"
   xmlns="http://www.w3.org/2000/svg"
   xmlns:svg="http://www.w3.org/2000/svg">
  <sodipodi:namedview
     id="namedview14"
     pagecolor="#ffffff"
     bordercolor="#000000"
     borderopacity="0.25"
     inkscape:showpageshadow="2"
     inkscape:pageopacity="0.0"
     inkscape:pagecheckerboard="0"
     inkscape:deskcolor="#d1d1d1"
     inkscape:zoom="2.8284271"
     inkscape:cx="208.41972"
     inkscape:cy="114.02097"
     inkscape:window-width="2560"
     inkscape:window-height="1417"
     inkscape:window-x="-8"
     inkscape:window-y="-8"
     inkscape:window-maximized="1"
     inkscape:current-layer="svg14" />
  <defs
     id="defs1">
    <clipPath
       id="GsBqGVMmpDDc">
      <path
         fill="none"
         stroke="none"
         d="M 0,0 H 1524 V 893 H 0 Z"
         id="path1" />
    </clipPath>
    <clipPath
       clipPathUnits="userSpaceOnUse"
       id="clipPath14">
      <rect
         style="font-variation-settings:'wght' 700;fill:#3d5562;stroke:#3d5562;stroke-width:3.13924;stroke-linecap:round"
         id="rect15"
         width="823.82349"
         height="824.86078"
         x="326.5"
         y="34.569618" />
    </clipPath>
  </defs>
  <g
     clip-path="url(#clipPath14)"
     id="g14"
     transform="matrix(0.28686521,0,0,0.28759954,-73.987792,8.8991381)">
    <g
       id="g13">
      <rect
         fill="#ffffff"
         stroke="none"
         x="0"
         y="0"
         width="1524"
         height="893"
         fill-opacity="1"
         id="rect1" />
      <path
         fill="none"
         stroke="#c0c0c0"
         paint-order="fill stroke markers"
         d="m 16.5,0.5 v 893 m 0,-893 v 893 m 51,-893 v 893 m 52,-893 v 893 m 52,-893 v 893 m 51,-893 v 893 m 52,-893 v 893 m 52,-893 v 893 m 51,-893 v 893 m 52,-893 v 893 m 52,-893 v 893 m 51,-893 v 893 m 52,-893 v 893 m 52,-893 v 893 m 51,-893 v 893 m 104,-893 v 893 m 51,-893 v 893 m 52,-893 v 893 m 52,-893 v 893 m 51,-893 v 893 m 52,-893 v 893 m 51,-893 v 893 m 52,-893 v 893 m 52,-893 v 893 m 51,-893 v 893 m 52,-893 v 893 m 52,-893 v 893 m 51,-893 v 893 m 52,-893 v 893 m 52,-893 v 893"
         stroke-opacity="1"
         stroke-linecap="round"
         stroke-linejoin="round"
         stroke-miterlimit="10"
         id="path2" />
      <path
         fill="none"
         stroke="#c0c0c0"
         paint-order="fill stroke markers"
         d="m 5.5,0.5 v 893 m 21,-893 v 893 m 10,-893 v 893 m 11,-893 v 893 m 10,-893 v 893 m 21,-893 v 893 m 10,-893 v 893 m 10,-893 v 893 m 11,-893 v 893 m 20,-893 v 893 m 11,-893 v 893 m 10,-893 v 893 m 10,-893 v 893 m 21,-893 v 893 m 10,-893 v 893 m 11,-893 v 893 m 10,-893 v 893 m 21,-893 v 893 m 10,-893 v 893 m 10,-893 v 893 m 11,-893 v 893 m 20,-893 v 893 m 11,-893 v 893 m 10,-893 v 893 m 10,-893 v 893 m 21,-893 v 893 m 10,-893 v 893 m 11,-893 v 893 m 10,-893 v 893 m 21,-893 v 893 m 10,-893 v 893 m 10,-893 v 893 m 11,-893 v 893 m 20,-893 v 893 m 11,-893 v 893 m 10,-893 v 893 m 10,-893 v 893 m 21,-893 v 893 m 10,-893 v 893 m 11,-893 v 893 m 10,-893 v 893 m 21,-893 v 893 m 10,-893 v 893 m 10,-893 v 893 m 11,-893 v 893 m 20,-893 v 893 m 11,-893 v 893 m 10,-893 v 893 m 10,-893 v 893 m 21,-893 v 893 m 10,-893 v 893 m 11,-893 v 893 m 10,-893 v 893 m 21,-893 v 893 m 10,-893 v 893 m 10,-893 v 893 m 11,-893 v 893 m 20,-893 v 893 m 11,-893 v 893 m 10,-893 v 893 m 10,-893 v 893 m 21,-893 v 893 m 10,-893 v 893 m 11,-893 v 893 m 10,-893 v 893 m 21,-893 v 893 m 10,-893 v 893 m 10,-893 v 893 m 11,-893 v 893 m 20,-893 v 893 m 11,-893 v 893 m 10,-893 v 893 m 10,-893 v 893 m 21,-893 v 893 m 10,-893 v 893 m 11,-893 v 893 m 10,-893 v 893 m 20,-893 v 893 m 11,-893 v 893 m 10,-893 v 893 m 10,-893 v 893 m 21,-893 v 893 m 10,-893 v 893 m 11,-893 v 893 m 10,-893 v 893 m 21,-893 v 893 m 10,-893 v 893 m 10,-893 v 893 m 11,-893 v 893 m 20,-893 v 893 m 11,-893 v 893 m 10,-893 v 893 m 10,-893 v 893 m 21,-893 v 893 m 10,-893 v 893 m 11,-893 v 893 m 10,-893 v 893 m 21,-893 v 893 m 10,-893 v 893 m 10,-893 v 893 m 11,-893 v 893 m 20,-893 v 893 m 11,-893 v 893 m 10,-893 v 893 m 10,-893 v 893 m 21,-893 v 893 m 10,-893 v 893 m 11,-893 v 893 m 10,-893 v 893 m 21,-893 v 893 m 10,-893 v 893 m 10,-893 v 893 m 11,-893 v 893 m 20,-893 v 893 m 11,-893 v 893 m 10,-893 v 893 m 10,-893 v 893"
         stroke-opacity="0.235294"
         stroke-linecap="round"
         stroke-linejoin="round"
         stroke-miterlimit="10"
         id="path3" />
      <path
         fill="none"
         stroke="#c0c0c0"
         paint-order="fill stroke markers"
         d="m 0.5,33.5 h 1524 m -1524,0 h 1524 m -1524,52 h 1524 m -1524,52 h 1524 m -1524,51 h 1524 m -1524,52 h 1524 m -1524,52 h 1524 m -1524,51 h 1524 m -1524,52 h 1524 m -1524,103 h 1524 m -1524,52 h 1524 m -1524,52 h 1524 m -1524,51 h 1524 m -1524,52 h 1524 m -1524,52 h 1524 m -1524,51 h 1524 m -1524,52 h 1524"
         stroke-opacity="1"
         stroke-linecap="round"
         stroke-linejoin="round"
         stroke-miterlimit="10"
         id="path4" />
      <path
         fill="none"
         stroke="#c0c0c0"
         paint-order="fill stroke markers"
         d="m 0.5,2.5 h 1524 m -1524,0 h 1524 m -1524,11 h 1524 m -1524,10 h 1524 m -1524,21 h 1524 m -1524,10 h 1524 m -1524,10 h 1524 m -1524,11 h 1524 m -1524,20 h 1524 m -1524,11 h 1524 m -1524,10 h 1524 m -1524,10 h 1524 m -1524,21 h 1524 m -1524,10 h 1524 m -1524,11 h 1524 m -1524,10 h 1524 m -1524,21 h 1524 m -1524,10 h 1524 m -1524,10 h 1524 m -1524,11 h 1524 m -1524,20 h 1524 m -1524,11 h 1524 m -1524,10 h 1524 m -1524,10 h 1524 m -1524,21 h 1524 m -1524,10 h 1524 m -1524,11 h 1524 m -1524,10 h 1524 m -1524,21 h 1524 m -1524,10 h 1524 m -1524,10 h 1524 m -1524,11 h 1524 m -1524,20 h 1524 m -1524,11 h 1524 m -1524,10 h 1524 m -1524,10 h 1524 m -1524,21 h 1524 m -1524,10 h 1524 m -1524,11 h 1524 m -1524,10 h 1524 m -1524,21 h 1524 m -1524,10 h 1524 m -1524,10 h 1524 m -1524,11 h 1524 m -1524,20 h 1524 m -1524,11 h 1524 m -1524,10 h 1524 m -1524,10 h 1524 m -1524,21 h 1524 m -1524,10 h 1524 m -1524,11 h 1524 m -1524,10 h 1524 m -1524,21 h 1524 m -1524,10 h 1524 m -1524,10 h 1524 m -1524,11 h 1524 m -1524,20 h 1524 m -1524,11 h 1524 m -1524,10 h 1524 m -1524,10 h 1524 m -1524,21 h 1524 m -1524,10 h 1524 m -1524,11 h 1524 m -1524,10 h 1524 m -1524,21 h 1524 m -1524,10 h 1524 m -1524,10 h 1524 m -1524,11 h 1524 m -1524,20 h 1524 m -1524,11 h 1524 m -1524,10 h 1524"
         stroke-opacity="0.235294"
         stroke-linecap="round"
         stroke-linejoin="round"
         stroke-miterlimit="10"
         id="path5" />
      <path
         fill="none"
         stroke="#252525"
         paint-order="fill stroke markers"
         d="M 739,3 V 893"
         stroke-opacity="1"
         stroke-miterlimit="10"
         stroke-width="2"
         id="path6" />
      <path
         fill="none"
         stroke="#252525"
         paint-order="fill stroke markers"
         d="m 739,2 -5,5"
         stroke-opacity="1"
         stroke-miterlimit="10"
         stroke-width="2"
         id="path7" />
      <path
         fill="none"
         stroke="#252525"
         paint-order="fill stroke markers"
         d="m 739,2 5,5"
         stroke-opacity="1"
         stroke-miterlimit="10"
         stroke-width="2"
         id="path8" />
      <path
         fill="none"
         stroke="#252525"
         paint-order="fill stroke markers"
         d="M 0,447 H 1521"
         stroke-opacity="1"
         stroke-miterlimit="10"
         stroke-width="2"
         id="path9" />
      <path
         fill="none"
         stroke="#252525"
         paint-order="fill stroke markers"
         d="m 1522,447 -5,-5"
         stroke-opacity="1"
         stroke-miterlimit="10"
         stroke-width="2"
         id="path10" />
      <path
         fill="none"
         stroke="#252525"
         paint-order="fill stroke markers"
         d="m 1522,447 -5,5"
         stroke-opacity="1"
         stroke-miterlimit="10"
         stroke-width="2"
         id="path11" />
      <path
         fill="none"
         stroke="#0000ff"
         paint-order="fill stroke markers"
         d="M 1190.178,898 287.17801,-5"
         stroke-opacity="1"
         stroke-linejoin="round"
         stroke-miterlimit="10"
         stroke-width="2.5"
         stroke-dasharray="6.5, 4"
         id="path12" />
      <text
         fill="#0000ff"
         stroke="none"
         font-family="geogebra-sans-serif, sans-serif"
         font-size="16px"
         font-style="normal"
         font-weight="normal"
         text-decoration="normal"
         x="311"
         y="24"
         text-anchor="start"
         dominant-baseline="alphabetic"
         fill-opacity="1"
         id="text12">a</text>
      <path
         fill="#0000ff"
         stroke="none"
         paint-order="stroke fill markers"
         d="M 292.17801,0 1185.178,893 H 1524 V 0 Z"
         fill-opacity="0.247059"
         id="path13" />
      <text
         fill="#0000ff"
         stroke="none"
         font-family="geogebra-sans-serif, sans-serif"
         font-size="16px"
         font-style="normal"
         font-weight="normal"
         text-decoration="normal"
         x="311"
         y="24"
         text-anchor="start"
         dominant-baseline="alphabetic"
         fill-opacity="1"
         id="text13">a</text>
    </g>
  </g>
  <path
     style="font-size:12px;line-height:0;font-family:Montserrat;-inkscape-font-specification:'Montserrat, @wght=700';font-variation-settings:'wght' 700;fill:#3d5562;stroke:#3d5562;stroke-width:3.20987;stroke-linecap:round;stroke-opacity:0"
     d="m 105.26438,14.249346 -0.0395,-8.8290409 6.67226,-0.029731 0.005,1.6396795 -4.64157,0.020577 0.0247,5.5496824 4.80551,-0.02124 0.005,1.63968 z m 1.86292,-3.691348 -0.005,-1.5892275 4.25056,-0.019042 0.005,1.5892275 z m 6.46164,3.654248 -0.0303,-6.78575 1.87932,-0.00832 0.005,1.8793261 -0.35568,-0.5660062 q 0.3627,-0.6827285 1.04217,-1.0515384 0.6795,-0.3688101 1.54977,-0.3726871 0.80724,-0.00352 1.43934,0.3215283 0.64465,0.3124561 1.01342,0.9793111 0.3687,0.6542409 0.3733,1.6885002 l 0.0167,3.88478 -1.96764,0.0086 -0.0168,-3.582073 q -0.003,-0.8198381 -0.37116,-1.2092089 -0.35492,-0.3894253 -1.01077,-0.3865051 -0.46672,0.00208 -0.84418,0.205585 -0.36493,0.190807 -0.57757,0.5953936 -0.19988,0.4045134 -0.19715,1.0351594 l 0.0147,3.355035 z m 8.22235,2.511214 q -0.45408,0.0019 -0.87076,-0.09704 -0.41661,-0.08645 -0.70754,-0.274335 l 0.5234,-1.427622 q 0.3416,0.238136 0.83352,0.235929 0.36575,-0.0018 0.57904,-0.254843 0.22606,-0.240659 0.22391,-0.732562 l -0.0303,-6.7857477 1.96764,-0.00898 0.0303,6.7731347 q 0.004,1.173003 -0.66017,1.869694 -0.66539,0.696687 -1.88884,0.702142 z M 123.3421,6.4369065 q -0.54234,0.00242 -0.88431,-0.3113858 -0.34196,-0.313807 -0.34406,-0.7804838 -0.003,-0.466677 0.33708,-0.7835205 0.33915,-0.3168411 0.88147,-0.3192535 0.54238,-0.00242 0.88428,0.2987738 0.34184,0.2885769 0.34392,0.7552559 0.003,0.4919051 -0.33692,0.8213581 -0.32651,0.3167821 -0.88147,0.3192558 z m 6.06387,7.8057495 q -1.08473,0.0049 -1.93181,-0.445462 -0.83449,-0.450356 -1.32988,-1.230165 -0.48283,-0.792476 -0.48735,-1.80151 -0.004,-1.0216455 0.47127,-1.8057832 0.48838,-0.7968065 1.31888,-1.2419682 0.84304,-0.4578328 1.92774,-0.4626642 1.0721,-0.00481 1.91918,0.4455185 0.84701,0.4376856 1.3298,1.2175501 0.48277,0.7798667 0.48742,1.814126 0.004,1.009032 -0.47127,1.805781 -0.47581,0.784137 -1.31885,1.241968 -0.84304,0.457833 -1.91513,0.462609 z m -0.005,-1.614453 q 0.49193,-0.0022 0.88189,-0.230969 0.39001,-0.228786 0.61517,-0.646011 0.22508,-0.429851 0.22246,-1.010043 -0.003,-0.592809 -0.23156,-1.0080228 -0.22896,-0.4152137 -0.62092,-0.6405059 -0.39201,-0.2252856 -0.88392,-0.2231051 -0.49189,0.00219 -0.88191,0.2309686 -0.38999,0.228786 -0.62775,0.6460687 -0.2251,0.4172385 -0.22246,1.0100445 0.003,0.580195 0.23157,1.008025 0.24145,0.415157 0.63348,0.640445 0.39204,0.225285 0.88392,0.223105 z m 5.71917,4.035952 q -0.52968,0.0024 -1.04753,-0.159283 -0.51787,-0.16167 -0.84709,-0.450301 l 0.7127,-1.403237 q 0.22798,0.200791 0.51851,0.313021 0.30326,0.112172 0.59333,0.110855 0.41625,-0.0019 0.65496,-0.204732 0.25144,-0.190305 0.45121,-0.645283 l 0.34946,-0.834029 0.1505,-0.215086 2.40819,-5.863242 1.89196,-0.00832 -3.03284,7.215634 q -0.32431,0.821301 -0.75106,1.289891 -0.41413,0.468534 -0.93042,0.660031 -0.5037,0.191445 -1.12169,0.194203 z m 1.15018,-2.288111 -3.05852,-7.0371259 2.03071,-0.00918 2.37128,5.6653539 z m 5.52329,-0.289492 -0.0303,-6.7857497 1.87931,-0.00832 0.005,1.8541003 -0.35557,-0.5407805 q 0.35003,-0.6952835 0.9917,-1.0513131 0.65427,-0.3686962 1.48672,-0.3724112 0.93337,-0.00417 1.62918,0.4720404 0.70842,0.4635289 0.93976,1.4337134 l -0.69448,-0.1860977 q 0.33698,-0.7961321 1.07908,-1.2661279 0.75468,-0.4700482 1.72587,-0.4743763 0.80726,-0.00352 1.42673,0.3215808 0.63206,0.3125153 0.98822,0.9794229 0.36868,0.654243 0.37331,1.6885026 l 0.0167,3.884778 -1.96764,0.0086 -0.0167,-3.58207 q -0.003,-0.8198362 -0.34592,-1.2093209 -0.34233,-0.3894799 -0.96035,-0.3867261 -0.42881,0.00191 -0.76847,0.2052339 -0.33968,0.190721 -0.52717,0.5825544 -0.18747,0.3918447 -0.18474,0.9972627 l 0.0147,3.405488 -1.96764,0.0086 -0.0167,-3.582069 q -0.003,-0.8198383 -0.34594,-1.2093207 -0.32967,-0.3895413 -0.94772,-0.3867832 -0.42885,0.00191 -0.76846,0.205234 -0.33973,0.190721 -0.52719,0.5825564 -0.18749,0.3918425 -0.18475,0.9972625 l 0.0147,3.405489 z m 16.64912,0.0267 q -1.16031,0.0052 -2.04524,-0.444953 -0.87231,-0.450186 -1.3551,-1.230052 -0.48284,-0.792476 -0.48732,-1.80151 -0.004,-1.0216479 0.45866,-1.8057265 0.47574,-0.7967518 1.29359,-1.2418565 0.81782,-0.4577191 1.85208,-0.4623293 0.99643,-0.00437 1.79296,0.4208555 0.80908,0.4126306 1.27929,1.2051658 0.47015,0.7799192 0.47506,1.877244 4.9e-4,0.113508 -0.0109,0.264925 -0.0109,0.138794 -0.0238,0.264982 l -5.51185,0.02454 -0.004,-1.147775 4.47759,-0.01993 -0.75525,0.343924 q -0.003,-0.529743 -0.2187,-0.919788 -0.21629,-0.3900449 -0.59553,-0.6027776 -0.37937,-0.2253338 -0.88391,-0.2231053 -0.50451,0.00219 -0.8945,0.2310168 -0.37745,0.2161153 -0.59006,0.6206722 -0.21255,0.3919583 -0.21018,0.9343149 l 10e-4,0.302708 q 0.003,0.554966 0.24406,0.982737 0.25411,0.415102 0.69654,0.640169 0.45506,0.212394 1.06045,0.2097 0.54236,-0.0024 0.94526,-0.168193 0.41549,-0.165829 0.75459,-0.495274 l 1.05192,1.130495 q -0.46431,0.531824 -1.16935,0.825069 -0.70509,0.280633 -1.62583,0.284736 z m 4.59064,-0.121366 -0.0303,-6.7857507 1.87931,-0.00832 0.005,1.8793261 -0.35569,-0.5660061 q 0.36275,-0.6827287 1.04221,-1.0515386 0.67948,-0.3688101 1.54978,-0.3726915 0.8072,-0.00352 1.43932,0.3215283 0.64466,0.3124561 1.0134,0.9793111 0.3687,0.6542411 0.37333,1.6885004 l 0.0167,3.88478 -1.96764,0.0086 -0.0167,-3.58207 q -0.003,-0.8198383 -0.37117,-1.2092089 -0.35494,-0.3894253 -1.01077,-0.3865049 -0.46669,0.00208 -0.84415,0.205585 -0.36497,0.1908091 -0.57755,0.5953937 -0.19989,0.4045131 -0.19716,1.0351591 l 0.0147,3.355035 z m 11.49082,0.04969 q -1.19812,0.0052 -1.86933,-0.597092 -0.67123,-0.615055 -0.67662,-1.825893 l -0.0265,-5.953301 1.96759,-0.00898 0.0265,5.92807 q 0.003,0.42884 0.2299,0.667475 0.22795,0.22603 0.61905,0.224278 0.46665,-0.0021 0.79347,-0.255798 l 0.53593,1.385059 q -0.30174,0.215765 -0.7301,0.331198 -0.41578,0.102734 -0.86983,0.104771 z m -3.606,-5.3571383 -0.005,-1.5135504 4.70459,-0.020787 0.005,1.5135505 z"
     id="text15-4"
     aria-label="Enjoyment&#10;" />
  <path
     d="m 12.844266,178.64859 -8.5195258,0.0819 -0.035437,-3.68774 q -0.010994,-1.14404 0.3583467,-1.97528 0.3571697,-0.83113 1.0465754,-1.2881 0.6894054,-0.45699 1.6508947,-0.46623 0.9493188,-0.009 1.6473789,0.43453 0.6980601,0.44365 1.0833061,1.26764 0.373076,0.8241 0.384069,1.96815 l 0.02491,2.59238 -0.8968854,-0.86777 3.2374194,-0.0311 z m -3.0372927,-1.94265 -0.9287271,0.8853 -0.023859,-2.48284 q -0.00877,-0.9128 -0.4025628,-1.35937 -0.3937914,-0.44658 -1.0875243,-0.43992 -0.7059035,0.007 -1.0910402,0.46085 -0.3851369,0.45406 -0.3763653,1.36686 l 0.023859,2.48284 -0.9455686,-0.86729 z m 2.9541677,-6.70769 -6.5478639,0.0629 -0.017426,-1.81343 1.8499542,-0.0178 -0.5330571,0.26073 q -0.6965397,-0.28544 -1.0556901,-0.92709 -0.371321,-0.64154 -0.3802095,-1.56652 l 1.7525881,-0.0168 q -0.011002,0.12184 -0.010067,0.21919 -0.011236,0.0975 -0.010184,0.20702 0.00748,0.77893 0.4624809,1.26143 0.4427084,0.47046 1.3798563,0.46145 l 3.0913731,-0.0297 z m -0.08444,-8.78673 -1.277928,0.0123 -0.278758,0.12441 -2.2881009,0.022 q -0.6085376,0.006 -0.9456929,0.38643 -0.3372726,0.36839 -0.3299045,1.13515 0.00503,0.52334 0.1803317,1.03287 0.1630148,0.49748 0.4463338,0.84775 l -1.3200625,0.69431 q -0.3824392,-0.53189 -0.5965932,-1.2845 -0.2141538,-0.75259 -0.2216389,-1.53152 -0.014385,-1.497 0.6835654,-2.33139 0.6979506,-0.8344 2.1949531,-0.84878 l 3.7364199,-0.0359 z m 0.116547,1.99507 q 0.0074,0.76677 -0.242954,1.3169 -0.262494,0.55026 -0.710005,0.84669 -0.44751,0.29642 -1.007365,0.3018 -0.584196,0.006 -1.025033,-0.2701 -0.4409539,-0.28789 -0.6903336,-0.90626 -0.2615504,-0.61825 -0.2711407,-1.61625 l -0.016724,-1.74042 1.1075384,-0.0106 0.014736,1.53353 q 0.00643,0.66939 0.2279619,0.92287 0.221413,0.24131 0.550023,0.23815 0.365122,-0.004 0.581506,-0.28554 0.204096,-0.29409 0.199301,-0.79309 -0.0046,-0.47467 -0.227261,-0.84986 -0.234869,-0.37506 -0.674654,-0.54125 l 0.873487,-0.30051 q 0.634867,0.20082 0.96874,0.74535 0.333874,0.54452 0.342177,1.40864 z m -0.08362,-8.70171 q 0.01018,1.05885 -0.407849,1.89056 -0.430194,0.83182 -1.19239,1.31385 -0.762313,0.46985 -1.7359727,0.4792 -0.9858309,0.009 -1.7448618,-0.44576 -0.7713185,-0.46728 -1.2052477,-1.2908 -0.4460998,-0.82341 -0.4562748,-1.88226 -0.00994,-1.03451 0.4208378,-1.80548 0.4186082,-0.77085 1.2183691,-1.1437 l 0.8052503,1.46506 q -0.4600326,0.26003 -0.6753635,0.6516 -0.215448,0.3794 -0.2111206,0.82972 0.00468,0.48683 0.2274941,0.87418 0.222816,0.38736 0.6266731,0.61476 0.4037399,0.21521 0.9757653,0.20971 0.5720253,-0.006 0.9715544,-0.22843 0.399413,-0.23511 0.614744,-0.62668 0.215331,-0.39157 0.210653,-0.87839 -0.0043,-0.45033 -0.214856,-0.82563 -0.222816,-0.38736 -0.699931,-0.63838 l 0.789118,-1.48038 q 0.794607,0.35753 1.240122,1.12007 0.433345,0.76266 0.443286,1.79718 z m -0.0654,-6.80577 q 0.01111,1.15622 -0.566887,1.8069 -0.590167,0.65078 -1.758559,0.662 l -5.7445956,0.0552 -0.018245,-1.89865 5.7202536,-0.055 q 0.413805,-0.004 0.642944,-0.22527 0.216969,-0.22119 0.213343,-0.59848 -0.0043,-0.45031 -0.250783,-0.76442 l 1.33387,-0.52403 q 0.20971,0.29011 0.323223,0.70287 0.101226,0.4007 0.105436,0.83883 z m -5.1515244,3.50632 -1.4604907,0.014 -0.043624,-4.5397 1.4604902,-0.014 z m 5.0290134,-6.12208 -6.547864,0.0629 -0.018245,-1.89865 6.547864,-0.0629 z m -7.4697924,-0.87762 q 0.00503,0.52334 -0.2960821,0.85486 -0.3011109,0.33155 -0.7514287,0.33587 -0.4503178,0.004 -0.7577444,-0.32136 -0.3074265,-0.32568 -0.3124555,-0.84902 -0.00503,-0.52335 0.2839112,-0.85477 0.2767696,-0.33129 0.7270874,-0.33562 0.4746592,-0.005 0.7942565,0.321 0.3073096,0.31352 0.3124556,0.84904 z m 7.5015474,-5.95111 q 0.01018,1.05885 -0.407848,1.89055 -0.430195,0.83182 -1.19239,1.31386 -0.762314,0.46985 -1.7359735,0.4792 -0.9858309,0.009 -1.7448618,-0.44575 -0.7713186,-0.4673 -1.2052478,-1.29082 -0.4460997,-0.82339 -0.4562747,-1.88225 -0.00994,-1.03451 0.4208377,-1.80549 0.4186082,-0.77085 1.2183693,-1.14369 l 0.8052503,1.46507 q -0.4600326,0.26002 -0.6753636,0.65159 -0.2154479,0.3794 -0.2111206,0.82972 0.00468,0.48683 0.2274942,0.87419 0.222816,0.38735 0.6266729,0.61474 0.4037401,0.21522 0.9757654,0.20972 0.5720253,-0.005 0.9715552,-0.22844 0.399412,-0.2351 0.614743,-0.62667 0.215331,-0.39156 0.210653,-0.87839 -0.0043,-0.45032 -0.214855,-0.82563 -0.222816,-0.38735 -0.699932,-0.63838 l 0.789118,-1.48038 q 0.794607,0.35752 1.240123,1.12006 0.433344,0.76268 0.443285,1.79719 z m -0.06914,-7.19524 q 0.01076,1.11971 -0.419201,1.97587 -0.430077,0.844 -1.180219,1.31374 -0.762313,0.46985 -1.7359729,0.47921 -0.9858309,0.009 -1.7447448,-0.43359 -0.7712016,-0.45512 -1.2047799,-1.24213 -0.445749,-0.78689 -0.4553392,-1.78488 -0.00924,-0.96149 0.3971981,-1.73223 0.3941497,-0.78278 1.1565796,-1.24047 0.7502594,-0.45758 1.8091147,-0.46775 0.1095371,-10e-4 0.2557038,0.01 0.1339965,0.011 0.2558192,0.0218 l 0.051109,5.31862 -1.1075389,0.0106 -0.041519,-4.32063 0.3356276,0.7271 q -0.5111716,0.005 -0.8864768,0.21543 -0.3753049,0.21054 -0.5786991,0.57765 -0.2155649,0.36722 -0.2108867,0.85406 0.00468,0.48683 0.2273772,0.86201 0.2104114,0.36313 0.6018637,0.5663 0.3792815,0.20327 0.9026237,0.19824 l 0.2920981,-0.003 q 0.535513,-0.005 0.9470966,-0.24037 0.399296,-0.24727 0.614276,-0.67535 0.202692,-0.44014 0.197078,-1.02433 -0.005,-0.52334 -0.166991,-0.91129 -0.162079,-0.40011 -0.481677,-0.72569 l 1.085661,-1.02069 q 0.515499,0.4454 0.801975,1.12427 0.274306,0.67899 0.282844,1.56745 z m -0.191281,-9.77219 -6.9129862,0.0664 0.026198,2.72624 -1.6065392,0.0154 -0.071342,-7.42416 1.6065392,-0.0154 0.026198,2.72626 6.9129862,-0.0664 z m -0.05403,-5.6229 -6.5478634,0.0629 -0.018245,-1.89863 6.5478644,-0.0629 z m -7.4697921,-0.87761 q 0.00503,0.52334 -0.2960821,0.85487 -0.301111,0.33154 -0.7514288,0.33587 -0.4503178,0.004 -0.7577444,-0.32137 -0.3074265,-0.32568 -0.3124555,-0.84902 -0.00503,-0.52334 0.2839112,-0.85477 0.2767696,-0.33129 0.7270874,-0.33562 0.4746593,-0.005 0.7942565,0.32101 0.3073097,0.31352 0.3124557,0.84903 z m 7.4345891,-2.78579 -6.5478637,0.0629 -0.017426,-1.81344 1.7891004,-0.0172 -0.5200675,0.34582 q -0.6726661,-0.33436 -1.0194117,-0.95179 -0.3590334,-0.62948 -0.3667523,-1.43275 -0.00865,-0.90064 0.4474014,-1.57447 0.4437683,-0.68589 1.378811,-0.91398 l -0.1761288,0.67114 q -0.769915,-0.32123 -1.2271332,-1.03498 -0.4573349,-0.72591 -0.4663404,-1.66306 -0.00748,-0.77893 0.3032236,-1.37834 0.2984211,-0.61146 0.9401963,-0.95845 0.6294874,-0.35903 1.6274889,-0.36862 l 3.748591,-0.036 0.01825,1.89864 -3.4564929,0.0332 q -0.7910989,0.008 -1.1652346,0.33983 -0.3741355,0.33224 -0.3684048,0.9286 0.00398,0.41381 0.2018663,0.74055 0.185719,0.32685 0.5647667,0.50579 0.3790474,0.17893 0.9632436,0.17332 l 3.2861027,-0.0316 0.01825,1.89864 -3.4564933,0.0332 q -0.7910989,0.008 -1.1652344,0.33984 -0.3742526,0.32006 -0.3685218,0.91643 0.00398,0.41381 0.2018662,0.74054 0.1857191,0.32686 0.5647667,0.50579 0.3790475,0.17894 0.9632437,0.17333 l 3.2861019,-0.0316 z m -0.05701,-16.065938 q 0.01076,1.1197 -0.4192,1.97587 -0.430077,0.84399 -1.18022,1.31373 -0.7623128,0.46985 -1.7359729,0.47921 -0.9858309,0.009 -1.7447448,-0.43359 -0.7712016,-0.45512 -1.2047799,-1.24213 -0.445749,-0.78689 -0.4553391,-1.78488 -0.00924,-0.9615 0.397198,-1.73223 0.3941497,-0.78278 1.1565797,-1.24048 0.7502594,-0.45756 1.8091147,-0.46773 0.1095372,-0.001 0.2557039,0.01 0.1339964,0.011 0.2558192,0.0218 l 0.051109,5.31862 -1.1075388,0.0106 -0.041519,-4.32061 0.3356275,0.72708 q -0.5111716,0.005 -0.8864767,0.21545 -0.375305,0.21052 -0.5786993,0.57763 -0.2155647,0.36724 -0.2108866,0.85406 0.00468,0.48683 0.2273771,0.86201 0.2104116,0.36315 0.6018637,0.5663 0.3792815,0.20327 0.9026238,0.19825 l 0.292098,-0.003 q 0.5355131,-0.005 0.9470967,-0.24037 0.3992958,-0.24727 0.6142758,-0.67535 0.202692,-0.44013 0.197079,-1.02433 -0.005,-0.52334 -0.166992,-0.91128 -0.162079,-0.40012 -0.4816764,-0.7257 l 1.0856604,-1.02069 q 0.515499,0.44541 0.801976,1.12427 0.274306,0.67899 0.282843,1.56747 z"
     id="text1"
     style="font-size:8.91908px;line-height:0;font-family:Montserrat;-inkscape-font-specification:'Montserrat, @wght=700';font-variation-settings:'wght' 700;fill:#3d5562;stroke:#3d5562;stroke-width:3.09745;stroke-linecap:round;stroke-opacity:0"
     aria-label="Practice Time" />
</svg>
