<?xml version="1.0" encoding="UTF-8" standalone="no"?>
<svg
   version="1.1"
   width="256"
   height="256"
   id="svg14"
   sodipodi:docname="weighted-second-neuron.svg"
   inkscape:version="1.4.2 (f4327f4, 2025-05-13)"
   xmlns:inkscape="http://www.inkscape.org/namespaces/inkscape"
   xmlns:sodipodi="http://sodipodi.sourceforge.net/DTD/sodipodi-0.dtd"
   xmlns="http://www.w3.org/2000/svg"
   xmlns:svg="http://www.w3.org/2000/svg">
  <sodipodi:namedview
     id="namedview14"
     pagecolor="#ffffff"
     bordercolor="#000000"
     borderopacity="0.25"
     inkscape:showpageshadow="2"
     inkscape:pageopacity="0.0"
     inkscape:pagecheckerboard="0"
     inkscape:deskcolor="#d1d1d1"
     inkscape:zoom="2.6100967"
     inkscape:cx="73.177366"
     inkscape:cy="21.646708"
     inkscape:window-width="2560"
     inkscape:window-height="1417"
     inkscape:window-x="-8"
     inkscape:window-y="-8"
     inkscape:window-maximized="1"
     inkscape:current-layer="svg14" />
  <defs
     id="defs1">
    <clipPath
       id="gXKvPuFxMoFS">
      <path
         fill="none"
         stroke="none"
         d="M 0,0 H 1524 V 931 H 0 Z"
         id="path1" />
    </clipPath>
    <clipPath
       clipPathUnits="userSpaceOnUse"
       id="clipPath1">
      <rect
         style="font-variation-settings:'wght' 700;fill:#3d5562;stroke:#3d5562;stroke-width:3.05587;stroke-linecap:round;stroke-opacity:0;-inkscape-stroke:none"
         id="rect2"
         width="493.72635"
         height="493.91956"
         x="247.09433"
         y="129.89145" />
    </clipPath>
  </defs>
  <g
     transform="matrix(0.51850586,0,0,0.51850586,-128.11986,-67.449656)"
     clip-path="url(#clipPath1)"
     id="g14">
    <g
       id="g13">
      <rect
         fill="#ffffff"
         stroke="none"
         x="0"
         y="0"
         width="1524"
         height="931"
         fill-opacity="1"
         id="rect1" />
      <path
         fill="none"
         stroke="#c0c0c0"
         paint-order="fill stroke markers"
         d="m 1.5,0.5 v 931 m 0,-931 v 931 m 61,-931 v 931 m 62,-931 v 931 m 62,-931 v 931 m 61,-931 v 931 m 62,-931 v 931 m 62,-931 v 931 m 61,-931 v 931 m 123,-931 v 931 m 62,-931 v 931 m 62,-931 v 931 m 61,-931 v 931 m 62,-931 v 931 m 61,-931 v 931 m 62,-931 v 931 m 62,-931 v 931 m 61,-931 v 931 m 62,-931 v 931 m 62,-931 v 931 m 61,-931 v 931 m 62,-931 v 931 m 61,-931 v 931 m 62,-931 v 931 m 62,-931 v 931"
         stroke-opacity="1"
         stroke-linecap="round"
         stroke-linejoin="round"
         stroke-miterlimit="10"
         id="path2" />
      <path
         fill="none"
         stroke="#c0c0c0"
         paint-order="fill stroke markers"
         d="m 13.5,0.5 v 931 m 13,-931 v 931 m 12,-931 v 931 m 12,-931 v 931 m 25,-931 v 931 m 12,-931 v 931 m 12,-931 v 931 m 13,-931 v 931 m 24,-931 v 931 m 13,-931 v 931 m 12,-931 v 931 m 12,-931 v 931 m 25,-931 v 931 m 12,-931 v 931 m 13,-931 v 931 m 12,-931 v 931 m 25,-931 v 931 m 12,-931 v 931 m 12,-931 v 931 m 13,-931 v 931 m 24,-931 v 931 m 13,-931 v 931 m 12,-931 v 931 m 12,-931 v 931 m 25,-931 v 931 m 12,-931 v 931 m 13,-931 v 931 m 12,-931 v 931 m 25,-931 v 931 m 12,-931 v 931 m 12,-931 v 931 m 12,-931 v 931 m 25,-931 v 931 m 12,-931 v 931 m 13,-931 v 931 m 12,-931 v 931 m 25,-931 v 931 m 12,-931 v 931 m 12,-931 v 931 m 13,-931 v 931 m 24,-931 v 931 m 13,-931 v 931 m 12,-931 v 931 m 12,-931 v 931 m 25,-931 v 931 m 12,-931 v 931 m 13,-931 v 931 m 12,-931 v 931 m 25,-931 v 931 m 12,-931 v 931 m 12,-931 v 931 m 13,-931 v 931 m 24,-931 v 931 m 13,-931 v 931 m 12,-931 v 931 m 12,-931 v 931 m 25,-931 v 931 m 12,-931 v 931 m 12,-931 v 931 m 13,-931 v 931 m 24,-931 v 931 m 13,-931 v 931 m 12,-931 v 931 m 12,-931 v 931 m 25,-931 v 931 m 12,-931 v 931 m 13,-931 v 931 m 12,-931 v 931 m 25,-931 v 931 m 12,-931 v 931 m 12,-931 v 931 m 13,-931 v 931 m 24,-931 v 931 m 13,-931 v 931 m 12,-931 v 931 m 12,-931 v 931 m 25,-931 v 931 m 12,-931 v 931 m 13,-931 v 931 m 12,-931 v 931 m 24,-931 v 931 m 13,-931 v 931 m 12,-931 v 931 m 12,-931 v 931 m 25,-931 v 931 m 12,-931 v 931 m 13,-931 v 931 m 12,-931 v 931 m 25,-931 v 931 m 12,-931 v 931 m 12,-931 v 931 m 13,-931 v 931 m 24,-931 v 931 m 13,-931 v 931 m 12,-931 v 931 m 12,-931 v 931 m 25,-931 v 931 m 12,-931 v 931 m 13,-931 v 931"
         stroke-opacity="0.235294"
         stroke-linecap="round"
         stroke-linejoin="round"
         stroke-miterlimit="10"
         id="path3" />
      <path
         fill="none"
         stroke="#c0c0c0"
         paint-order="fill stroke markers"
         d="m 0.5,7.5 h 1524 m -1524,0 h 1524 m -1524,61 h 1524 m -1524,62 h 1524 m -1524,62 h 1524 m -1524,61 h 1524 m -1524,62 h 1524 m -1524,123 h 1524 m -1524,62 h 1524 m -1524,61 h 1524 m -1524,62 h 1524 m -1524,61 h 1524 m -1524,62 h 1524 m -1524,62 h 1524 m -1524,61 h 1524"
         stroke-opacity="1"
         stroke-linecap="round"
         stroke-linejoin="round"
         stroke-miterlimit="10"
         id="path4" />
      <path
         fill="none"
         stroke="#c0c0c0"
         paint-order="fill stroke markers"
         d="m 0.5,7.5 h 1524 m -1524,12 h 1524 m -1524,12 h 1524 m -1524,13 h 1524 m -1524,12 h 1524 m -1524,25 h 1524 m -1524,12 h 1524 m -1524,12 h 1524 m -1524,13 h 1524 m -1524,24 h 1524 m -1524,13 h 1524 m -1524,12 h 1524 m -1524,12 h 1524 m -1524,25 h 1524 m -1524,12 h 1524 m -1524,13 h 1524 m -1524,12 h 1524 m -1524,25 h 1524 m -1524,12 h 1524 m -1524,12 h 1524 m -1524,12 h 1524 m -1524,25 h 1524 m -1524,12 h 1524 m -1524,13 h 1524 m -1524,12 h 1524 m -1524,25 h 1524 m -1524,12 h 1524 m -1524,12 h 1524 m -1524,13 h 1524 m -1524,24 h 1524 m -1524,13 h 1524 m -1524,12 h 1524 m -1524,12 h 1524 m -1524,25 h 1524 m -1524,12 h 1524 m -1524,13 h 1524 m -1524,12 h 1524 m -1524,25 h 1524 m -1524,12 h 1524 m -1524,12 h 1524 m -1524,13 h 1524 m -1524,24 h 1524 m -1524,13 h 1524 m -1524,12 h 1524 m -1524,12 h 1524 m -1524,25 h 1524 m -1524,12 h 1524 m -1524,12 h 1524 m -1524,13 h 1524 m -1524,24 h 1524 m -1524,13 h 1524 m -1524,12 h 1524 m -1524,12 h 1524 m -1524,25 h 1524 m -1524,12 h 1524 m -1524,13 h 1524 m -1524,12 h 1524 m -1524,25 h 1524 m -1524,12 h 1524 m -1524,12 h 1524 m -1524,13 h 1524"
         stroke-opacity="0.235294"
         stroke-linecap="round"
         stroke-linejoin="round"
         stroke-miterlimit="10"
         id="path5" />
      <path
         fill="none"
         stroke="#252525"
         paint-order="fill stroke markers"
         d="m 494.5,2.5 v 929"
         stroke-opacity="1"
         stroke-miterlimit="10"
         id="path6" />
      <path
         fill="none"
         stroke="#252525"
         paint-order="fill stroke markers"
         d="m 494.5,1.5 -4,4"
         stroke-opacity="1"
         stroke-miterlimit="10"
         id="path7" />
      <path
         fill="none"
         stroke="#252525"
         paint-order="fill stroke markers"
         d="m 494.5,1.5 4,4"
         stroke-opacity="1"
         stroke-miterlimit="10"
         id="path8" />
      <path
         fill="none"
         stroke="#252525"
         paint-order="fill stroke markers"
         d="m 0.5,376.5 h 1522"
         stroke-opacity="1"
         stroke-miterlimit="10"
         id="path9" />
      <path
         fill="none"
         stroke="#252525"
         paint-order="fill stroke markers"
         d="m 1523.5,376.5 -4,-4"
         stroke-opacity="1"
         stroke-miterlimit="10"
         id="path10" />
      <path
         fill="none"
         stroke="#252525"
         paint-order="fill stroke markers"
         d="m 1523.5,376.5 -4,4"
         stroke-opacity="1"
         stroke-miterlimit="10"
         id="path11" />
      <path
         fill="none"
         stroke="#006758"
         paint-order="fill stroke markers"
         d="m 1,1117.8042 v 4.0072 -4.0072 l 1,-3.999 v 0 l 1,-3.9909 v 0 l 1,-3.9828 v 0 l 1,-3.9747 v 0 l 1,-3.9666 v 0 l 1,-3.9585 v 0 l 1,-3.9503 v 0 l 1,-3.9423 v 0 l 1,-3.9341 v 0 l 1,-3.926 v 0 l 1,-3.9179 v 0 l 1,-3.9097 v 0 l 1,-3.9017 v 0 l 1,-3.8935 v 0 l 1,-3.8855 v 0 l 1,-3.8773 v 0 l 1,-3.8692 v 0 l 1,-3.861 v 0 l 1,-3.853 v 0 l 1,-3.8449 v 0 l 1,-3.8367 v 0 l 1,-3.8286 v 0 l 1,-3.8205 v 0 l 1,-3.8124 v 0 l 1,-3.8043 v 0 l 1,-3.7961 v 0 l 1,-3.7881 v 0 l 1,-3.7799 v 0 l 1,-3.7718 v 0 l 1,-3.7637 v 0 l 1,-3.75562 v 0 l 1,-3.74747 v 0 l 1,-3.73936 v 0 l 1,-3.73124 v 0 l 1,-3.72313 v 0 l 1,-3.71501 v 0 l 1,-3.70689 v 0 l 1,-3.69878 v 0 l 1,-3.69067 v 0 l 1,-3.68255 v 0 l 1,-3.67443 v 0 l 1,-3.66632 v 0 l 1,-3.65821 v 0 l 1,-3.65009 v 0 l 1,-3.64197 v 0 l 1,-3.63386 v 0 l 1,-3.62574 v 0 l 1,-3.61763 v 0 l 1,-3.60952 v 0 l 1,-3.6014 v 0 l 1,-3.59328 v 0 l 1,-3.58517 v 0 l 1,-3.57706 v 0 l 1,-3.56894 v 0 l 1,-3.56082 v 0 l 1,-3.55271 v 0 l 1,-3.54459 v 0 l 1,-3.53648 v 0 l 1,-3.52837 v 0 l 1,-3.52025 v 0 l 1,-3.51213 v 0 l 1,-3.50402 v 0 l 1,-3.4959 v 0 l 1,-3.48779 v 0 l 1,-3.47968 v 0 l 1,-3.47155 v 0 l 1,-3.46345 v 0 l 1,-3.45533 v 0 l 1,-3.44721 v 0 l 1,-3.4391 v 0 l 1,-3.43098 v 0 l 1,-3.42287 v 0 l 1,-3.41476 v 0 l 1,-3.40663 v 0 l 1,-3.39853 v 0 l 1,-3.39041 v 0 l 1,-3.38229 v 0 l 1,-3.37418 v 0 l 1,-3.36606 v 0 l 1,-3.35795 v 0 l 1,-3.34983 v 0 l 1,-3.34172 v 0 l 1,-3.3336 v 0 l 1,-3.32549 v 0 l 1,-3.31737 v 0 l 1,-3.30926 v 0 l 1,-3.30115 v 0 l 1,-3.29302 v 0 l 1,-3.28492 v 0 l 1,-3.27679 v 0 l 1,-3.26869 v 0 l 1,-3.26056 v 0 l 1,-3.25246 v 0 l 1,-3.24434 v 0 l 1,-3.23622 v 0 l 1,-3.22811 v 0 l 1,-3.21999 v 0 l 1,-3.21188 v 0 l 1,-3.20376 v 0 l 1,-3.19565 v 0 l 1,-3.18753 v 0 l 1,-3.17941 v 0 l 1,-3.17131 v 0 l 1,-3.16318 v 0 l 1,-3.15508 v 0 l 1,-3.14695 v 0 l 1,-3.13885 v 0 l 1,-3.13072 v 0 l 1,-3.12261 v 0 l 1,-3.1145 v 0 l 1,-3.10638 v 0 l 1,-3.09827 v 0 l 1,-3.09015 v 0 l 1,-3.08204 v 0 l 1,-3.07392 v 0 l 1,-3.06581 v 0 l 1,-3.05769 v 0 l 1,-3.04958 v 0 l 1,-3.04146 v 0 l 1,-3.03334 v 0 l 1,-3.02524 v 0 l 1,-3.01711 v 0 l 1,-3.009 v 0 l 1,-3.00089 v 0 l 1,-2.99277 v 0 l 1,-2.98466 v 0 l 1,-2.97654 v 0 l 1,-2.96842 v 0 l 1,-2.96032 v 0 l 1,-2.95219 v 0 l 1,-2.94408 v 0 l 1,-2.93597 v 0 l 1,-2.92785 v 0 l 1,-2.91974 v 0 l 1,-2.91162 v 0 l 1,-2.9035 v 0 l 1,-2.89539 v 0 l 1,-2.88728 v 0 l 1,-2.87916 v 0 l 1,-2.87105 v 0 l 1,-2.86293 v 0 l 1,-2.85481 v 0 l 1,-2.8467 v 0 l 1,-2.83859 v 0 l 1,-2.83047 v 0 l 1,-2.82235 v 0 l 1,-2.81424 v 0 l 1,-2.80613 v 0 l 1,-2.79801 v 0 l 1,-2.78989 v 0 l 1,-2.78178 v 0 l 1,-2.77367 v 0 l 1,-2.76555 v 0 l 1,-2.75743 v 0 l 1,-2.74932 v 0 l 1,-2.74121 v 0 l 1,-2.73309 v 0 l 1,-2.72497 v 0 l 1,-2.71686 v 0 l 1,-2.70875 v 0 l 1,-2.70063 v 0 l 1,-2.69251 v 0 l 1,-2.6844 v 0 l 1,-2.67629 v 0 l 1,-2.66817 v 0 l 1,-2.66005 v 0 l 1,-2.65194 v 0 l 1,-2.64383 v 0 l 1,-2.63571 v 0 l 1,-2.62759 v 0 l 1,-2.61948 v 0 l 1,-2.61136 v 0 l 1,-2.60325 v 0 l 1,-2.59514 v 0 l 1,-2.58702 v 0 l 1,-2.5789 v 0 l 1,-2.57079 v 0 l 1,-2.56267 v 0 l 1,-2.55456 v 0 l 1,-2.54645 v 0 l 1,-2.53832 v 0 l 1,-2.53022 v 0 l 1,-2.5221 v 0 l 1,-2.51398 v 0 l 1,-2.50587 v 0 l 1,-2.49775 v 0 l 1,-2.48964 v 0 l 1,-2.48153 v 0 l 1,-2.4734 v 0 l 1,-2.4653 v 0 l 1,-2.45718 v 0 l 1,-2.44906 v 0 l 1,-2.44095 v 0 l 1,-2.43283 v 0 l 1,-2.42472 v 0 l 1,-2.4166 v 0 l 1,-2.40849 v 0 l 1,-2.40037 v 0 l 1,-2.39226 v 0 l 1,-2.38415 v 0 l 1,-2.37602 v 0 l 1,-2.36792 v 0 l 1,-2.35979 v 0 l 1,-2.35169 v 0 l 1,-2.34356 v 0 l 1,-2.33546 v 0 l 1,-2.32734 v 0 l 1,-2.31922 v 0 l 1,-2.31111 v 0 l 1,-2.30299 v 0 l 1,-2.29488 v 0 l 1,-2.28676 v 0 l 1,-2.27865 v 0 l 1,-2.27053 v 0 l 1,-2.26242 v 0 l 1,-2.2543 v 0 l 1,-2.24619 v 0 l 1,-2.23807 v 0 l 1,-2.22996 v 0 l 1,-2.22184 v 0 l 1,-2.21372 v 0 l 1,-2.20562 v 0 l 1,-2.19749 v 0 l 1,-2.18939 v 0 l 1,-2.18126 v 0 l 1,-2.17315 v 0 l 1,-2.16504 v 0 l 1,-2.15692 v 0 l 1,-2.14881 v 0 l 1,-2.14069 v 0 l 1,-2.13258 v 0 l 1,-2.12446 v 0 l 1,-2.11635 v 0 l 1,-2.10823 v 0 l 1,-2.10012 v 0 l 1,-2.092 v 0 l 1,-2.08388 v 0 l 1,-2.07577 v 0 l 1,-2.06766 v 0 l 1,-2.05954 v 0 l 1,-2.05143 v 0 l 1,-2.04331 v 0 l 1,-2.0352 v 0 l 1,-2.02708 v 0 l 1,-2.01896 v 0 l 1,-2.01085 v 0 l 1,-2.00274 v 0 l 1,-1.99462 v 0 l 1,-1.98651 v 0 l 1,-1.97839 v 0 l 1,-1.97027 v 0 l 1,-1.96217 v 0 l 1,-1.95404 v 0 l 1,-1.94593 v 0 l 1,-1.93782 v 0 l 1,-1.9297 v 0 l 1,-1.92158 v 0 l 1,-1.91347 v 0 l 1,-1.90536 v 0 l 1,-1.89724 v 0 l 1,-1.88913 v 0 l 1,-1.88101 v 0 l 1,-1.87289 v 0 l 1,-1.86478 v 0 l 1,-1.85667 v 0 l 1,-1.84855 v 0 l 1,-1.84043 v 0 l 1,-1.83232 v 0 l 1,-1.82421 v 0 l 1,-1.81609 v 0 l 1,-1.80797 v 0 l 1,-1.79986 v 0 l 1,-1.79175 v 0 l 1,-1.78363 v 0 l 1,-1.77551 v 0 l 1,-1.7674 v 0 l 1,-1.75929 v 0 l 1,-1.75117 v 0 l 1,-1.74305 v 0 l 1,-1.73494 v 0 l 1,-1.72682 v 0 l 1,-1.71871 v 0 l 1,-1.7106 v 0 l 1,-1.70248 v 0 l 1,-1.69436 v 0 l 1,-1.68625 v 0 l 1,-1.67814 v 0 l 1,-1.67002 v 0 l 1,-1.6619 v 0 l 1,-1.65379 v 0 l 1,-1.64567 v 0 l 1,-1.63756 v 0 l 1,-1.62945 v 0 l 1,-1.62133 v 0 l 1,-1.61321 v 0 l 1,-1.6051 v 0 l 1,-1.59698 v 0 l 1,-1.58887 v 0 l 1,-1.58075 v 0 l 1,-1.57264 v 0 l 1,-1.56453 v 0 l 1,-1.55641 v 0 l 1,-1.54829 v 0 l 1,-1.54018 v 0 l 1,-1.53206 v 0 l 1,-1.52395 v 0 l 1,-1.51583 v 0 l 1,-1.50772 v 0 l 1,-1.49961 v 0 l 1,-1.49148 v 0 l 1,-1.48338 v 0 l 1,-1.47525 v 0 l 1,-1.46715 v 0 l 1,-1.45903 v 0 l 1,-1.45091 v 0 l 1,-1.4428 v 0 l 1,-1.43468 v 0 l 1,-1.42657 v 0 l 1,-1.41845 v 0 l 1,-1.41034 v 0 l 1,-1.40222 v 0 l 1,-1.39411 v 0 l 1,-1.38599 v 0 l 1,-1.37788 v 0 l 1,-1.36976 v 0 l 1,-1.36165 v 0 l 1,-1.35353 v 0 l 1,-1.34542 v 0 l 1,-1.3373 v 0 l 1,-1.32919 v 0 l 1,-1.32107 v 0 l 1,-1.31296 v 0 l 1,-1.30484 v 0 l 1,-1.29673 v 0 l 1,-1.28861 v 0 l 1,-1.2805 v 0 l 1,-1.27238 v 0 l 1,-1.26427 v 0 l 1,-1.25615 v 0 l 1,-1.24804 v 0 l 1,-1.23992 v 0 l 1,-1.23181 v 0 l 1,-1.22369 v 0 l 1,-1.21558 v 0 l 1,-1.20746 v 0 l 1,-1.19934 v 0 l 1,-1.19124 v 0 l 1,-1.18311 v 0 l 1,-1.175 v 0 l 1,-1.16689 v 0 l 1,-1.15877 v 0 l 1,-1.15066 v 0 l 1,-1.14254 v 0 l 1,-1.13443 v 0 l 1,-1.12631 v 0 l 1,-1.11819 v 0 l 1,-1.11009 v 0 l 1,-1.10196 v 0 l 1,-1.09385 v 0 l 1,-1.08574 v 0 l 1,-1.07762 v 0 l 1,-1.06951 v 0 l 1,-1.06139 v 0 l 1,-1.05327 v 0 l 1,-1.04516 v 0 l 1,-1.03705 v 0 l 1,-1.02893 v 0 l 1,-1.02082 v 0 l 1,-1.0127 v 0 l 1,-1.00458 v 0 l 1,-0.99647 v 0 l 1,-0.98836 v 0 l 1,-0.98024 v 0 l 1,-0.97213 v 0 l 1,-0.96401 v 0 l 1,-0.95589 v 0 l 1,-0.94778 v 0 l 1,-0.93967 v 0 l 1,-0.93155 v 0 l 1,-0.92343 v 0 l 1,-0.91532 v 0 l 1,-0.90721 v 0 l 1,-0.89909 v 0 l 1,-0.89097 v 0 l 1,-0.88286 v 0 l 1,-0.87475 v 0 l 1,-0.86663 v 0 l 1,-0.85851 v 0 l 1,-0.8504 v 0 l 1,-0.84229 v 0 l 1,-0.83417 v 0 l 1,-0.82605 v 0 l 1,-0.81794 v 0 l 1,-0.80983 v 0 l 1,-0.80171 v 0 l 1,-0.79359 v 0 l 1,-0.78548 v 0 l 1,-0.77737 v 0 l 1,-0.76925 v 0 l 1,-0.76113 v 0 l 1,-0.75302 v 0 l 1,-0.7449 v 0 l 1,-0.73679 v 0 l 1,-0.72868 v 0 l 1,-0.72056 v 0 l 1,-0.71244 v 0 l 1,-0.70433 v 0 l 1,-0.69621 v 0 l 1,-0.6881 v 0 l 1,-0.67999 v 0 l 1,-0.67187 v 0 l 1,-0.66375 v 0 l 1,-0.65564 v 0 l 1,-0.64752 v 0 l 1,-0.63941 v 0 l 1,-0.63129 v 0 l 1,-0.62318 v 0 l 1,-0.61507 v 0 l 1,-0.60695 v 0 l 1,-0.59883 v 0 l 1,-0.59072 v 0 l 1,-0.5826 v 0 l 1,-0.57449 v 0 l 1,-0.56637 v 0 l 1,-0.55826 v 0 l 1,-0.55014 v 0 l 1,-0.54203 v 0 l 1,-0.53392 v 0 l 1,-0.52579 v 0 l 1,-0.51769 v 0 l 1,-0.50957 v 0 l 1,-0.50145 v 0 l 1,-0.49334 v 0 l 1,-0.48522 v 0 l 1,-0.47711 v 0 l 1,-0.46899 v 0 l 1,-0.46088 v 0 l 1,-0.45276 v 0 l 1,-0.44465 v 0 l 1,-0.43653 v 0 l 1,-0.42842 v 0 l 1,-0.4203 v 0 l 1,-0.41219 v 0 l 1,-0.40407 v 0 l 1,-0.39596 v 0 l 1,-0.38784 v 0 l 1,-0.37973 v 0 l 1,-0.37161 v 0 l 1,-0.3635 v 0 l 1,-0.35538 v 0 l 1,-0.34727 v 0 l 1,-0.33915 v 0 l 1,-0.33104 v 0 l 1,-0.32292 v 0 l 1,-0.31481 v 0 l 1,-0.30669 v 0 l 1,-0.29858 v 0 l 1,-0.29046 v 0 l 1,-0.28234 v 0 l 1,-0.27424 v 0 l 1,-0.26611 v 0 l 1,-0.258 v 0 l 1,-0.24989 v 0 l 1,-0.24177 v 0 l 1,-0.23366 v 0 l 1,-0.22554 v 0 l 1,-0.21743 v 0 l 1,-0.20931 v 0 l 1,-0.2012 v 0 l 1,-0.19308 v 0 l 1,-0.18496 v 0 l 1,-0.17685 v 0 l 1,-0.16874 v 0 l 1,-0.16062 v 0 l 1,-0.15251 v 0 l 1,-0.14439 v 0 l 1,-0.13628 v 0 l 1,-0.12816 v 0 l 1,-0.12004 v 0 l 1,-0.11193 v 0 l 1,-0.10382 v 0 l 1,-0.0957 v 0 l 1,-0.0876 v 0 l 1,-0.0795 v 0 l 1,-0.0713 v 0 l 1,-0.0632 v 0 l 1,-0.0551 v 0 l 1,-0.047 v 0 l 1,-0.0389 v 0 l 1,-0.0308 v 0 l 1,-0.0227 v 0 l 1,-0.0145 v 0 l 1,-0.006 v 0.002 l 1,-0.002 v 0.002 l 1,0.01 v 0 l 1,0.0179 v 0 l 1,0.026 v 0 l 1,0.0341 v 0 l 1,0.0423 v 0 l 1,0.0504 v 0 l 1,0.0585 v 0 l 1,0.0666 v 0 l 1,0.0747 v 0 l 1,0.0828 v 0 l 1,0.0909 v 0 l 1,0.0991 v 0 l 1,0.10718 v 0 l 1,0.11529 v 0 l 1,0.1234 v 0 l 1,0.13152 v 0 l 1,0.13964 v 0 l 1,0.14775 v 0 l 1,0.15586 v 0 l 1,0.16398 v 0 l 1,0.1721 v 0 l 1,0.18021 v 0 l 1,0.18833 v 0 l 1,0.19644 v 0 l 1,0.20455 v 0 l 1,0.21267 v 0 l 1,0.22079 v 0 l 1,0.2289 v 0 l 1,0.23702 v 0 l 1,0.24513 v 0 l 1,0.25324 v 0 l 1,0.26136 v 0 l 1,0.26948 v 0 l 1,0.27759 v 0 l 1,0.28571 v 0 l 1,0.29382 v 0 l 1,0.30193 v 0 l 1,0.31006 v 0 l 1,0.31816 v 0 l 1,0.32628 v 0 l 1,0.3344 v 0 l 1,0.34251 v 0 l 1,0.35063 v 0 l 1,0.35874 v 0 l 1,0.36686 v 0 l 1,0.37497 v 0 l 1,0.38308 v 0 l 1,0.39121 v 0 l 1,0.39931 v 0 l 1,0.40743 v 0 l 1,0.41555 v 0 l 1,0.42366 v 0 l 1,0.43178 v 0 l 1,0.43989 v 0 l 1,0.44801 v 0 l 1,0.45612 v 0 l 1,0.46424 v 0 l 1,0.47235 v 0 l 1,0.48047 v 0 l 1,0.48858 v 0 l 1,0.4967 v 0 l 1,0.50481 v 0 l 1,0.51293 v 0 l 1,0.52104 v 0 l 1,0.52916 v 0 l 1,0.53727 v 0 l 1,0.54539 v 0 l 1,0.5535 v 0 l 1,0.56162 v 0 l 1,0.56973 v 0 l 1,0.57785 v 0 l 1,0.58596 v 0 l 1,0.59408 v 0 l 1,0.60219 v 0 l 1,0.61031 v 0 l 1,0.61842 v 0 l 1,0.62654 v 0 l 1,0.63465 v 0 l 1,0.64277 v 0 l 1,0.65088 v 0 l 1,0.659 v 0 l 1,0.66712 v 0 l 1,0.67522 v 0 l 1,0.68335 v 0 l 1,0.69145 v 0 l 1,0.69958 v 0 l 1,0.70769 v 0 l 1,0.7158 v 0 l 1,0.72392 v 0 l 1,0.73203 v 0 l 1,0.74015 v 0 l 1,0.74826 v 0 l 1,0.75638 v 0 l 1,0.7645 v 0 l 1,0.77261 v 0 l 1,0.78072 v 0 l 1,0.78884 v 0 l 1,0.79695 v 0 l 1,0.80507 v 0 l 1,0.81318 v 0 l 1,0.8213 v 0 l 1,0.82942 v 0 l 1,0.83753 v 0 l 1,0.84564 v 0 l 1,0.85376 v 0 l 1,0.86187 v 0 l 1,0.86999 v 0 l 1,0.87811 v 0 l 1,0.88622 v 0 l 1,0.89433 v 0 l 1,0.90245 v 0 l 1,0.91057 v 0 l 1,0.91868 v 0 l 1,0.92679 v 0 l 1,0.93491 v 0 l 1,0.94302 v 0 l 1,0.95114 v 0 l 1,0.95926 v 0 l 1,0.96737 v 0 l 1,0.97548 v 0 l 1,0.9836 v 0 l 1,0.99172 v 0 l 1,0.99983 v 0 l 1,1.00794 v 0 l 1,1.01606 v 0 l 1,1.02418 v 0 l 1,1.03229 v 0 l 1,1.0404 v 0 l 1,1.04852 v 0 l 1,1.05664 v 0 l 1,1.06475 v 0 l 1,1.07286 v 0 l 1,1.08098 v 0 l 1,1.0891 v 0 l 1,1.09721 v 0 l 1,1.10533 v 0 l 1,1.11344 v 0 l 1,1.12155 v 0 l 1,1.12967 v 0 l 1,1.13779 v 0 l 1,1.1459 v 0 l 1,1.15402 v 0 l 1,1.16213 v 0 l 1,1.17024 v 0 l 1,1.17836 v 0 l 1,1.18648 v 0 l 1,1.19459 v 0 l 1,1.20271 v 0 l 1,1.21082 v 0 l 1,1.21893 v 0 l 1,1.22705 v 0 l 1,1.23517 v 0 l 1,1.24328 v 0 l 1,1.2514 v 0 l 1,1.25951 v 0 l 1,1.26763 v 0 l 1,1.27574 v 0 l 1,1.28385 v 0 l 1,1.29197 v 0 l 1,1.30009 v 0 l 1,1.3082 v 0 l 1,1.31632 v 0 l 1,1.32443 v 0 l 1,1.33255 v 0 l 1,1.34066 v 0 l 1,1.34878 v 0 l 1,1.35689 v 0 l 1,1.36501 v 0 l 1,1.37312 v 0 l 1,1.38123 v 0 l 1,1.38936 v 0 l 1,1.39746 v 0 l 1,1.40559 v 0 l 1,1.41369 v 0 l 1,1.42181 v 0 l 1,1.42993 v 0 l 1,1.43804 v 0 l 1,1.44616 v 0 l 1,1.45427 v 0 l 1,1.46239 v 0 l 1,1.4705 v 0 l 1,1.47862 v 0 l 1,1.48673 v 0 l 1,1.49485 v 0 l 1,1.50296 v 0 l 1,1.51108 v 0 l 1,1.51919 v 0 l 1,1.52731 v 0 l 1,1.53543 v 0 l 1,1.54353 v 0 l 1,1.55166 v 0 l 1,1.55976 v 0 l 1,1.56789 v 0 l 1,1.57599 v 0 l 1,1.58412 v 0 l 1,1.59223 v 0 l 1,1.60034 v 0 l 1,1.60846 v 0 l 1,1.61657 v 0 l 1,1.62469 v 0 l 1,1.6328 v 0 l 1,1.64092 v 0 l 1,1.64903 v 0 l 1,1.65715 v 0 l 1,1.66527 v 0 l 1,1.67337 v 0 l 1,1.6815 v 0 l 1,1.68961 v 0 l 1,1.69772 v 0 l 1,1.70584 v 0 l 1,1.71395 v 0 l 1,1.72207 v 0 l 1,1.73019 v 0 l 1,1.73829 v 0 l 1,1.74642 v 0 l 1,1.75453 v 0 l 1,1.76264 v 0 l 1,1.77076 v 0 l 1,1.77887 v 0 l 1,1.78699 v 0 l 1,1.79511 v 0 l 1,1.80322 v 0 l 1,1.81133 v 0 l 1,1.81945 v 0 l 1,1.82756 v 0 l 1,1.83568 v 0 l 1,1.8438 v 0 l 1,1.85191 v 0 l 1,1.86002 v 0 l 1,1.86814 v 0 l 1,1.87626 v 0 l 1,1.88437 v 0 l 1,1.89248 v 0 l 1,1.9006 v 0 l 1,1.90872 v 0 l 1,1.91683 v 0 l 1,1.92494 v 0 l 1,1.93306 v 0 l 1,1.94118 v 0 l 1,1.94929 v 0 l 1,1.9574 v 0 l 1,1.96552 v 0 l 1,1.97364 v 0 l 1,1.98175 v 0 l 1,1.98986 v 0 l 1,1.99798 v 0 l 1,2.0061 v 0 l 1,2.01421 v 0 l 1,2.02232 v 0 l 1,2.03044 v 0 l 1,2.03856 v 0 l 1,2.04667 v 0 l 1,2.05478 v 0 l 1,2.06291 v 0 l 1,2.07101 v 0 l 1,2.07913 v 0 l 1,2.08725 v 0 l 1,2.09536 v 0 l 1,2.10347 v 0 l 1,2.11159 v 0 l 1,2.11971 v 0 l 1,2.12782 v 0 l 1,2.13594 v 0 l 1,2.14405 v 0 l 1,2.15216 v 0 l 1,2.16029 v 0 l 1,2.16839 v 0 l 1,2.17651 v 0 l 1,2.18463 v 0 l 1,2.19274 v 0 l 1,2.20086 v 0 l 1,2.20897 v 0 l 1,2.21708 v 0 l 1,2.22521 v 0 l 1,2.23331 v 0 l 1,2.24143 v 0 l 1,2.24955 v 0 l 1,2.25766 v 0 l 1,2.26578 v 0 l 1,2.27389 v 0 l 1,2.28201 v 0 l 1,2.29012 v 0 l 1,2.29824 v 0 l 1,2.30635 v 0 l 1,2.31447 v 0 l 1,2.32258 v 0 l 1,2.33069 v 0 l 1,2.33882 v 0 l 1,2.34692 v 0 l 1,2.35505 v 0 l 1,2.36315 v 0 l 1,2.37128 v 0 l 1,2.37938 v 0 l 1,2.3875 v 0 l 1,2.39562 v 0 l 1,2.40373 v 0 l 1,2.41185 v 0 l 1,2.41996 v 0 l 1,2.42808 v 0 l 1,2.43619 v 0 l 1,2.44431 v 0 l 1,2.45243 v 0 l 1,2.46053 v 0 l 1,2.46866 v 0 l 1,2.47676 v 0 l 1,2.48489 v 0 l 1,2.49299 v 0 l 1,2.50112 v 0 l 1,2.50923 v 0 l 1,2.51734 v 0 l 1,2.52546 v 0 l 1,2.53357 v 0 l 1,2.54169 v 0 l 1,2.5498 v 0 l 1,2.55792 v 0 l 1,2.56603 v 0 l 1,2.57415 v 0 l 1,2.58226 v 0 l 1,2.59038 v 0 l 1,2.5985 v 0 l 1,2.6066 v 0 l 1,2.61473 v 0 l 1,2.62284 v 0 l 1,2.63095 v 0 l 1,2.63907 v 0 l 1,2.64718 v 0 l 1,2.6553 v 0 l 1,2.66342 v 0 l 1,2.67152 v 0 l 1,2.67965 v 0 l 1,2.68776 v 0 l 1,2.69587 v 0 l 1,2.70399 v 0 l 1,2.7121 v 0 l 1,2.72022 v 0 l 1,2.72834 v 0 l 1,2.73645 v 0 l 1,2.74456 v 0 l 1,2.75268 v 0 l 1,2.76079 v 0 l 1,2.76891 v 0 l 1,2.77703 v 0 l 1,2.78514 v 0 l 1,2.79325 v 0 l 1,2.80137 v 0 l 1,2.80949 v 0 l 1,2.8176 v 0 l 1,2.82571 v 0 l 1,2.83383 v 0 l 1,2.84194 v 0 l 1,2.85006 v 0 l 1,2.85818 v 0 l 1,2.86629 v 0 l 1,2.8744 v 0 l 1,2.88252 v 0 l 1,2.89064 v 0 l 1,2.89875 v 0 l 1,2.90686 v 0 l 1,2.91498 v 0 l 1,2.9231 v 0 l 1,2.93121 v 0 l 1,2.93933 v 0 l 1,2.94744 v 0 l 1,2.95555 v 0 l 1,2.96367 v 0 l 1,2.97179 v 0 l 1,2.9799 v 0 l 1,2.98801 v 0 l 1,2.99613 v 0 l 1,3.00425 v 0 l 1,3.01236 v 0 l 1,3.02048 v 0 l 1,3.02859 v 0 l 1,3.0367 v 0 l 1,3.04482 v 0 l 1,3.05294 v 0 l 1,3.06105 v 0 l 1,3.06917 v 0 l 1,3.07728 v 0 l 1,3.08539 v 0 l 1,3.09351 v 0 l 1,3.10163 v 0 l 1,3.10974 v 0 l 1,3.11786 v 0 l 1,3.12597 v 0 l 1,3.13408 v 0 l 1,3.14221 v 0 l 1,3.15031 v 0 l 1,3.15843 v 0 l 1,3.16655 v 0 l 1,3.17466 v 0 l 1,3.18278 v 0 l 1,3.19089 v 0 l 1,3.19901 v 0 l 1,3.20712 v 0 l 1,3.21524 v 0 l 1,3.22335 v 0 l 1,3.23146 v 0 l 1,3.23959 v 0 l 1,3.24769 v 0 l 1,3.25581 v 0 l 1,3.26393 v 0 l 1,3.27204 v 0 l 1,3.28016 v 0 l 1,3.28827 v 0 l 1,3.29639 v 0 l 1,3.3045 v 0 l 1,3.31262 v 0 l 1,3.32073 v 0 l 1,3.32885 v 0 l 1,3.33696 v 0 l 1,3.34508 v 0 l 1,3.35319 v 0 l 1,3.36131 v 0 l 1,3.36942 v 0 l 1,3.37754 v 0 l 1,3.38565 v 0 l 1,3.39377 v 0 l 1,3.40188 v 0 l 1,3.41 v 0 l 1,3.41811 v 0 l 1,3.42623 v 0 l 1,3.43434 v 0 l 1,3.44246 v 0 l 1,3.45057 v 0 l 1,3.45869 v 0 l 1,3.46681 v 0 l 1,3.47491 v 0 l 1,3.48304 v 0 l 1,3.49115 v 0 l 1,3.49926 v 0 l 1,3.50738 v 0 l 1,3.51549 v 0 l 1,3.52361 v 0 l 1,3.53172 v 0 l 1,3.53984 v 0 l 1,3.54795 v 0 l 1,3.55607 v 0 l 1,3.56419 v 0 l 1,3.5723 v 0 l 1,3.58041 v 0 l 1,3.58853 v 0 l 1,3.59664 v 0 l 1,3.60476 v 0 l 1,3.61287 v 0 l 1,3.62099 v 0 l 1,3.62911 v 0 l 1,3.63722 v 0 l 1,3.64533 v 0 l 1,3.65345 v 0 l 1,3.66156 v 0 l 1,3.66968 v 0 l 1,3.6778 v 0 l 1,3.68591 v 0 l 1,3.69402 v 0 l 1,3.70214 v 0 l 1,3.71025 v 0 l 1,3.71837 v 0 l 1,3.72649 v 0 l 1,3.7346 v 0 l 1,3.74271 v 0 l 1,3.75083 v 0 l 1,3.75895 v 0 l 1,3.767 v 0 l 1,3.7752 v 0 l 1,3.7833 v 0 l 1,3.7914 v 0 l 1,3.7995 v 0 l 1,3.8077 v 0 l 1,3.8157 v 0 l 1,3.8239 v 0 l 1,3.832 v 0 l 1,3.8401 v 0 l 1,3.8482 v 0 l 1,3.8563 v 0 l 1,3.8644 v 0 l 1,3.8726 v 0 l 1,3.8807 v 0 l 1,3.8887 v 0 l 1,3.8969 v 0 l 1,3.9051 v 0 l 1,3.9131 v 0 l 1,3.9212 v 0 l 1,3.9294 v 0 l 1,3.9375 v 0 l 1,3.9456 v 0 l 1,3.9537 v 0 l 1,3.9618 v 0 l 1,3.9699 v 0 l 1,3.9781 v 0 l 1,3.9861 v 0 l 1,3.9943 v 0 l 1,4.0024 v 0 l 1,4.0105 v 0 l 1,4.0187 v 0 l 1,4.0267 v 0 l 1,4.0349 v 0 l 1,4.0429 v 0 l 1,4.0511 v 0 l 1,4.0592 v 0 l 1,4.0673 v 0 l 1,4.0755 v 0 l 1,4.0835 v 0 l 1,4.0917 v 0 l 1,4.0997 v 0 l 1,4.1079 v 0 l 1,4.116 v 0 l 1,4.1242 v 0 l 1,4.1322 v 0 l 1,4.1404 v 0 l 1,4.1484 v 0 l 1,4.1566 v 0 l 1,4.1647 v 0 l 1,4.1728 v 0 l 1,4.1809 v 0 l 1,4.1891 v 0 l 1,4.1971 v 0 l 1,4.2053 v 0 l 1,4.2134 v 0 l 1,4.2215 v 0 l 1,4.2296 v 0 l 1,4.2377 v 0 l 1,4.2459 v 0 l 1,4.254 v 0 l 1,4.262 v 0 l 1,4.2702 v 0 l 1,4.2783 v 0 l 1,4.2865 v 0 l 1,4.2945 v 0 l 1,4.3026 v 0 l 1,4.3108 v 0 l 1,4.3189 v 0 l 1,4.327 v 0 l 1,4.3351 v 0 l 1,4.3432 v 0 l 1,4.3514 v 0 l 1,4.3594 v 0 l 1,4.3676 v 0 l 1,4.3757 v 0 l 1,4.3838 v 0 l 1,4.3919 v 0 l 1,4.4 v 0 l 1,4.4082 v 0 l 1,4.4163 v 0 l 1,4.4243 v 0 l 1,4.4325 v 0 l 1,4.4406 v 0 l 1,4.4488 v 0 l 1,4.4568 v 0 l 1,4.465 v 0 l 1,4.473 v 0 l 1,4.4812 v 0 l 1,4.4893 v 0 l 1,4.4974 v 0 l 1,4.5055 v 0 l 1,4.5137 v 0 l 1,4.5218 v 0 l 1,4.5298 v 0 l 1,4.538 v 0 l 1,4.5461 v 0 l 1,4.5542 v 0 l 1,4.5624 v 0 l 1,4.5704 v 0 l 1,4.5786 v 0 l 1,4.5867 v 0 l 1,4.5948 v 0 l 1,4.6029 v 0 l 1,4.611 v 0 l 1,4.6191 v 0 l 1,4.6273 v 0 l 1,4.6354 v 0 l 1,4.6434 v 0 l 1,4.6516 v 0 l 1,4.6597 v 0 l 1,4.6679 v 0 l 1,4.6759 v 0 l 1,4.6841 v 0 l 1,4.6922 v 0 l 1,4.7002 v 0 l 1,4.7085 v 0 l 1,4.7165 v 0 l 1,4.7246 v 0 l 1,4.7328 v 0 l 1,4.7408 v 0 l 1,4.749 v 0 l 1,4.7571 v 0 l 1,4.7652 v 0 l 1,4.7733 v 0 l 1,4.7815 v 0 l 1,4.7895 v 0 l 1,4.7977 v 0 l 1,4.8058 v 0 l 1,4.8139 v 0 l 1,4.822 v 0 l 1,4.8301 v 0 l 1,4.8383 v 0 l 1,4.8463 v 0 l 1,4.8545 v 0 l 1,4.8626 v 0 l 1,4.8707 v 0 l 1,4.8788 v 0 l 1,4.887 v 0 l 1,4.895 v 0 l 1,4.9032 v 0 l 1,4.9113 v 0 l 1,4.9194 v 0 l 1,4.9275 v 0 l 1,4.9356 v 0 l 1,4.9437 v 0 l 1,4.9519 v 0 l 1,4.96 v 0 l 1,4.968 v 0 l 1,4.9762 v 0 l 1,4.9844 v 0 l 1,4.9924 v 0 l 1,5.0005 v 0 l 1,5.0087 v 0 l 1,5.0168 v 0 l 1,5.0249 v 0 l 1,5.033 v 0 l 1,5.0411 v 0 l 1,5.0492 v 0 l 1,5.0574 v 0 l 1,5.0655 v 0 l 1,5.0735 v 0 l 1,5.0817 v 0 l 1,5.0898 v 0 l 1,5.098 v 0 l 1,5.106 v 0 l 1,5.1142 v 0 l 1,5.1222 v 0 l 1,5.1304 v 0 l 1,5.1385 v 0 l 1,5.1466 v 0 l 1,5.1548 v 0 l 1,5.1628 v 0 l 1,5.171 v 0 l 1,5.1791 v 0 l 1,5.1872 v 0 l 1,5.1953 v 0 l 1,5.2034 v 0 l 1,5.2115 v 0 l 1,5.2197 v 0 l 1,5.2277 v 0 l 1,5.2359 v 0 l 1,5.244 v 0 l 1,5.2521 v 0 l 1,5.2603 v 0 l 1,5.2683 v 0 l 1,5.2765 v 0 l 1,5.2845 v 0 l 1,5.2927 v 0 l 1,5.3008 v 0 l 1,5.3089 v 0 l 1,5.3171 v 0 l 1,5.3251 v 0 l 1,5.3333 v 0 l 1,5.3414 v 0 l 1,5.3495 v 0 l 1,5.3576 v 0 l 1,5.3657 v 0 l 1,5.3738 v 0 l 1,5.382 v 0 l 1,5.3901 v 0 l 1,5.3981 v 0 l 1,5.4063 v 0 l 1,5.4144 v 0 l 1,5.4226 v 0 l 1,5.4306 v 0 l 1,5.4388 v 0 l 1,5.4469 v 0 l 1,5.4549 v 0 l 1,5.4631 v 0 l 1,5.4713 v 0 l 1,5.4793 v 0 l 1,5.4874 v 0 l 1,5.4956 v 0 l 1,5.5037 v 0 l 1,5.5118 v 0 l 1,5.5199 v 0 l 1,5.528 v 0 l 1,5.5362 v 0 l 1,5.5442 v 0 l 1,5.5524 v 0 l 1,5.5605 v 0 l 1,5.5686 v 0 l 1,5.5767 v 0 l 1,5.5848 v 0 l 1,5.5929 v 0 l 1,5.6011 v 0 l 1,5.6092 v 0 l 1,5.6173 v 0 l 1,5.6254 v 0 l 1,5.6335 v 0 l 1,5.6416 v 0 l 1,5.6498 v 0 l 1,5.6578 v 0 l 1,5.666 v 0 l 1,5.6741 v 0 l 1,5.6822 v 0 l 1,5.6904 v 0 l 1,5.6984 v 0 l 1,5.7065 v 0 l 1,5.7147 v 0 l 1,5.7228 v 0 l 1,5.7309 v 0 l 1,5.739 v 0 l 1,5.7471 v 0 l 1,5.7553 v 0 l 1,5.7634 v 0 l 1,5.7714 v 0 l 1,5.7796 v 0 l 1,5.7877 v 0 l 1,5.7958 v 0 l 1,5.804 v 0 l 1,5.812 v 0 l 1,5.8202 v 0 l 1,5.8283 v 0 l 1,5.8364 v 0 l 1,5.8445 v 0 l 1,5.8526 v 0 l 1,5.8608 v 0 l 1,5.8688 v 0 l 1,5.877 v 0 l 1,5.8851 v 0 l 1,5.8932 v 0 l 1,5.9013 v 0 l 1,5.9094 v 0 l 1,5.9176 v 0 l 1,5.9256 v 0 l 1,5.9338 v 0 l 1,5.9419 v 0 l 1,5.95 v 0 l 1,5.9581 v 0 l 1,5.9663 v 0 l 1,5.9743 v 0 l 1,5.9825 v 0 l 1,5.9906 v 0 l 1,5.9986 v 0 l 1,6.0069 v 0 l 1,6.0149 v 0 l 1,6.023 v 0 l 1,6.0312 v 0 l 1,6.0393 v 0 l 1,6.0473 v 0 l 1,6.0555 v 0 l 1,6.0637 v 0 l 1,6.0717 v 0 l 1,6.0798 v 0 l 1,6.088 v 0 l 1,6.0961 v 0 l 1,6.1042 v 0 l 1,6.1123 v 0 l 1,6.1204 v 0 l 1,6.1285 v 0 l 1,6.1367 v 0 l 1,6.1448 v 0 l 1,6.1528 v 0 l 1,6.161 v 0 l 1,6.1692 v 0 l 1,6.1772 v 0 l 1,6.1853 v 0 l 1,6.1935 v 0 l 1,6.2016 v 0 l 1,6.2096 v 0 l 1,6.2178 v 0 l 1,6.226 v 0 l 1,6.234 v 0 l 1,6.2421 v 0 l 1,6.2503 v 0 l 1,6.2584 v 0 l 1,6.2665 v 0 l 1,6.2746 v 0 l 1,6.2827 v 0 l 1,6.2908 v 0 l 1,6.299 v 0 l 1,6.3071 v 0 l 1,6.3151 v 0 l 1,6.3233 v 0 l 1,6.3315 v 0 l 1,6.3395 v 0 l 1,6.3476 v 0 l 1,6.3558 v 0 l 1,6.3639 v 0 l 1,6.372 v 0 l 1,6.3801 v 0 l 1,6.3882 v 0 l 1,6.3963 v 0 l 1,6.4045 v 0 l 1,6.4125 v 0 l 1,6.4207 v 0 l 1,6.4288 v 0 l 1,6.4369 v 0 l 1,6.445 v 0 l 1,6.4532 v 0 l 1,6.4612 v 0 l 1,6.4694 v 0 l 1,6.4775 v 0 l 1,6.4856 v 0 l 1,6.4937 v 0 l 1,6.5018 v 0 l 1,6.51 v 0 l 1,6.518 v 0 l 1,6.5262 v 0 l 1,6.5343 v 0 l 1,6.5424 v 0 l 1,6.5505 v 0 l 1,6.5586 v 0 l 1,6.5668 v 0 l 1,6.5749 v 0 l 1,6.5829 v 0 l 1,6.5911 v 0 l 1,6.5992 v 0 l 1,6.6074 v 0 l 1,6.6154 v 0 l 1,6.6236 v 0 l 1,6.6316 v 0 l 1,6.6398 v 0 l 1,6.6479 v 0 l 1,6.656 v 0 l 1,6.6642 v 0 l 1,6.6722 v 0 l 1,6.6804 v 0 l 1,6.6884 v 0 l 1,6.6966 v 0 l 1,6.7047 v 0 l 1,6.7129 v 0 l 1,6.7209 v 0 l 1,6.729 v 0 l 1,6.7372 v 0 l 1,6.7453 v 0 l 1,6.7534 v 0 l 1,6.7615 v 0 l 1,6.7696 v 0 l 1,6.7778 v 0 l 1,6.7858 v 0 l 1,6.794 v 0 l 1,6.8021 v 0 l 1,6.8102 v 0 l 1,6.8183 v 0 l 1,6.8264 v 0 l 1,6.8346 v 0 l 1,6.8426 v 0 l 1,6.8508 v 0 l 1,6.8589 v 0 l 1,6.867 v 0 l 1,6.8751 v 0 l 1,6.8833 v 0 l 1,6.8913 v 0 l 1,6.8995 v 0 l 1,6.9076 v 0 l 1,6.9157 v 0 l 1,6.9238 v 0 l 1,6.9319 v 0 l 1,6.94 v 0 l 1,6.9482 v 0 l 1,6.9563 v 0 l 1,6.9643 v 0 l 1,6.9725 v 0 l 1,6.9807 v 0 l 1,6.9887 v 0 l 1,6.9968 v 0 l 1,7.005 v 0 l 1,7.0131 v 0 l 1,7.0212 v 0 l 1,7.0293 v 0 l 1,7.0374 v 0 l 1,7.0455 v 0 l 1,7.0537 v 0 l 1,7.0618 v 0 l 1,7.0698 v 0 l 1,7.078 v 0 l 1,7.0862 v 0 l 1,7.0942 v 0 l 1,7.1023 v 0 l 1,7.1105 v 0 l 1,7.1186 v 0 l 1,7.1266 v 0 l 1,7.1348 v 0 l 1,7.143 v 0 l 1,7.151 v 0 l 1,7.1591 v 0 l 1,7.1673 v 0 l 1,7.1754 v 0 l 1,7.1835 v 0 l 1,7.1916 v 0 l 1,7.1997 v 0 l 1,7.2078 v 0 l 1,7.216 v 0 l 1,7.2241 v 0 l 1,7.2321 v 0 l 1,7.2403 v 0 l 1,7.2485 v 0 l 1,7.2565 v 0 l 1,7.2646 v 0 l 1,7.2728 v 0 l 1,7.2809 v 0 l 1,7.289 v 0 l 1,7.2971 v 0 l 1,7.3052 v 0 l 1,7.3133 v 0 l 1,7.3215 v 0 l 1,7.3295 v 0 l 1,7.3377 v 0 l 1,7.3458 v 0 l 1,7.3539 v 0 l 1,7.362 v 0 l 1,7.3702 v 0 l 1,7.3782 v 0 l 1,7.3864 v 0 l 1,7.3945 v 0 l 1,7.4026 v 0 l 1,7.4107 v 0 l 1,7.4188 v 0 l 1,7.427 v 0 l 1,7.435 v 0 l 1,7.4432 v 0 l 1,7.4513 v 0 l 1,7.4594 v 0 l 1,7.4675 v 0 l 1,7.4756 v 0 l 1,7.4838 v 0 l 1,7.4919 v 0 l 1,7.4999 v 0 l 1,7.5081 v 0 l 1,7.5162 v 0 l 1,7.5244 v 0 l 1,7.5324 v 0 l 1,7.5406 v 0 l 1,7.5486 v 0 l 1,7.5568 v 0 l 1,7.5649 v 0 l 1,7.573 v 0 l 1,7.5812 v 0 l 1,7.5892 v 0 l 1,7.5974 v 0 l 1,7.6054 v 0 l 1,7.6136 v 0 l 1,7.6217 v 0 l 1,7.6298 v 0 l 1,7.638 v 0 l 1,7.646 v 0 l 1,7.6542 v 0 l 1,7.6623 v 0 l 1,7.6704 v 0 l 1,7.6785 v 0 l 1,7.6866 v 0 l 1,7.6948 v 0 l 1,7.7028 v 0 l 1,7.711 v 0 l 1,7.7191 v 0 l 1,7.7272 v 0 l 1,7.7353 v 0 l 1,7.7434 v 0 l 1,7.7516 v 0 l 1,7.7596 v 0 l 1,7.7678 v 0 l 1,7.7759 v 0 l 1,7.784 v 0 l 1,7.7921 v 0 l 1,7.8002 v 0 l 1,7.8084 v 0 l 1,7.8165 v 0 l 1,7.8245 v 0 l 1,7.8327 v 0 l 1,7.8409 v 0 l 1,7.8489 v 0 l 1,7.857 v 0 l 1,7.8652 v 0 l 1,7.8733 v 0 l 1,7.8813 v 0 l 1,7.8895 v 0 l 1,7.8977 v 0 l 1,7.9057 v 0 l 1,7.9138 v 0 l 1,7.922 v 0 l 1,7.9301 v 0 l 1,7.9382 v 0 l 1,7.9463 v 0 l 1,7.9544 v 0 l 1,7.9625 v 0 l 1,7.9707 v 0 l 1,7.9788 v 0 l 1,7.9868 v 0 l 1,7.995 v 0 l 1,8.0031 v 0 l 1,8.0113 v 0 l 1,8.0193 v 0 l 1,8.0275 v 0 l 1,8.0355 v 0 l 1,8.0437 v 0 l 1,8.0518 v 0 l 1,8.0599 v 0 l 1,8.0681 v 0 l 1,8.0761 v 0 l 1,8.0843 v 0 l 1,8.0924 v 0 l 1,8.1005 v 0 l 1,8.1086 v 0 l 1,8.1167 v 0 l 1,8.1248 v 0 l 1,8.133 v 0 l 1,8.1411 v 0 l 1,8.1491 v 0 l 1,8.1573 v 0 l 1,8.1654 v 0 l 1,8.1736 v 0 l 1,8.1816 v 0 l 1,8.1898 v 0 l 1,8.1978 v 0 l 1,8.206 v 0 l 1,8.2141 v 0 l 1,8.2223 v 0 l 1,8.2303 v 0 l 1,8.2384 v 0 l 1,8.2466 v 0 l 1,8.2547 v 0 l 1,8.2628 v 0 l 1,8.2709 v 0 l 1,8.279 v 0 l 1,8.2871 v 0 l 1,8.2953 v 0 l 1,8.3034 v 0 l 1,8.3115 v 0 l 1,8.3196 v 0 l 1,8.3277 v 0 l 1,8.3358 v 0 l 1,8.3439 v 0 l 1,8.3521"
         stroke-opacity="0.8"
         stroke-linecap="round"
         stroke-linejoin="round"
         stroke-miterlimit="10"
         stroke-width="2.5"
         id="path12" />
      <text
         fill="#006758"
         stroke="none"
         font-family="geogebra-sans-serif, sans-serif"
         font-size="16px"
         font-style="normal"
         font-weight="normal"
         text-decoration="normal"
         x="53"
         y="920"
         text-anchor="start"
         dominant-baseline="alphabetic"
         fill-opacity="1"
         id="text12">f</text>
      <path
         fill="none"
         stroke="#d32f2f"
         paint-order="fill stroke markers"
         d="m 0,253.68294 h 5.953125 5.953125 5.953125 5.953125 5.953125 5.953125 5.953125 5.953125 5.953125 5.953125 5.953125 5.953125 5.953125 5.953125 5.953125 5.953125 5.95313 5.95312 5.95313 5.95312 5.95313 5.95312 5.95312 5.95313 5.95312 5.95313 5.95313 5.95312 5.95312 5.95313 5.95312 5.95313 5.95313 5.95312 5.95312 5.95313 5.95312 5.95313 5.95313 5.95312 5.95312 5.95313 5.95313 5.95312 5.95312 5.95313 5.95312 5.95313 5.95312 5.95313 5.95312 5.95313 5.95312 5.95313 5.95312 5.95313 5.95312 5.95313 5.95312 5.95313 5.95312 5.95313 5.95312 5.95313 5.95312 5.95313 5.95312 5.95313 5.95312 5.95313 5.95312 5.95313 5.95312 5.95313 5.95312 5.95313 5.95312 5.95313 5.95312 5.95313 5.95312 5.95313 5.95312 5.95313 5.95313 5.95312 5.95312 5.95313 5.95312 5.95313 5.95312 5.95313 5.95312 5.95313 5.95312 5.95313 5.95312 5.95313 5.95312 5.95313 5.95312 5.95313 5.95312 2.97657 0.74414 0.5581 m 0.093,123.22793 h 0.093 1.48828 5.95312 5.95313 5.95312 5.95313 5.95312 5.95313 5.95312 5.95313 5.95312 5.95313 5.95312 5.95313 5.95312 5.95313 5.95312 5.95313 5.95312 5.95313 5.95312 5.95313 5.95312 5.95313 5.95312 5.95313 5.95312 5.95313 5.95312 5.95313 5.95312 5.95313 5.95312 5.95313 5.95312 5.95313 5.95312 5.95313 5.95312 5.95313 5.95312 5.95313 5.95312 5.95313 5.95312 5.95313 5.95312 5.95313 5.95312 5.95313 5.95312 5.95313 5.95312 5.95313 5.95312 5.95313 5.95312 5.95313 5.95312 5.95313 5.95312 5.95313 5.95312 5.95313 5.95312 5.95317 5.9531 5.9532 5.9531 5.9531 5.9531 5.9532 5.9531 5.9531 5.9531 5.9532 5.9531 5.9531 5.9531 5.9532 5.9531 5.9531 5.9531 5.9532 5.9531 5.9531 5.9531 5.9532 5.9531 5.9531 5.9531 5.9532 5.9531 5.9531 5.9531 5.9532 5.9531 5.9531 5.9531 5.9532 5.9531 5.9531 5.9531 5.9532 5.9531 5.9531 5.9531 5.9532 5.9531 5.9531 5.9531 5.9532 5.9531 5.9531 5.9531 5.9532 5.9531 5.9531 5.9531 5.9532 5.9531 5.9531 5.9531 5.9532 5.9531 5.9531 5.9531 5.9532 5.9531 5.9531 5.9531 5.9532 5.9531 5.9531 5.9531 5.9532 5.9531 5.9531 5.9531 5.9532 5.9531 5.9531 5.9531 5.9532 5.9531 5.9531 5.9531 5.9532 5.9531 5.9531 5.9531 5.9532 5.9531 5.9531"
         stroke-opacity="0.8"
         stroke-linecap="round"
         stroke-linejoin="round"
         stroke-miterlimit="10"
         stroke-width="2.5"
         id="path13" />
      <text
         fill="#d32f2f"
         stroke="none"
         font-family="geogebra-sans-serif, sans-serif"
         font-size="16px"
         font-style="normal"
         font-weight="normal"
         text-decoration="normal"
         x="24"
         y="253"
         text-anchor="start"
         dominant-baseline="alphabetic"
         fill-opacity="1"
         id="text13">h</text>
    </g>
  </g>
</svg>
