<?xml version="1.0" encoding="UTF-8" standalone="no"?>
<!-- Created with Inkscape (http://www.inkscape.org/) -->

<svg
   width="256"
   height="256"
   viewBox="0 0 67.73333 67.733335"
   version="1.1"
   id="svg1"
   inkscape:version="1.4.2 (f4327f4, 2025-05-13)"
   sodipodi:docname="weight-network.svg"
   xmlns:inkscape="http://www.inkscape.org/namespaces/inkscape"
   xmlns:sodipodi="http://sodipodi.sourceforge.net/DTD/sodipodi-0.dtd"
   xmlns="http://www.w3.org/2000/svg"
   xmlns:svg="http://www.w3.org/2000/svg">
  <sodipodi:namedview
     id="namedview1"
     pagecolor="#ffffff"
     bordercolor="#000000"
     borderopacity="0.25"
     inkscape:showpageshadow="2"
     inkscape:pageopacity="0.0"
     inkscape:pagecheckerboard="0"
     inkscape:deskcolor="#d1d1d1"
     inkscape:document-units="mm"
     inkscape:zoom="3.0467172"
     inkscape:cx="104.21053"
     inkscape:cy="98.63075"
     inkscape:window-width="2560"
     inkscape:window-height="1417"
     inkscape:window-x="-8"
     inkscape:window-y="-8"
     inkscape:window-maximized="1"
     inkscape:current-layer="layer1" />
  <defs
     id="defs1" />
  <g
     inkscape:label="Layer 1"
     inkscape:groupmode="layer"
     id="layer1">
    <path
       style="font-variation-settings:'wght' 700;fill:#3d5562;fill-opacity:0;stroke:#3d5562;stroke-width:0.808;stroke-linecap:round;stroke-opacity:1"
       id="path2"
       sodipodi:type="arc"
       sodipodi:cx="13.2"
       sodipodi:cy="14.849999"
       sodipodi:rx="10.855264"
       sodipodi:ry="10.855264"
       sodipodi:start="0"
       sodipodi:end="6.2816537"
       sodipodi:open="true"
       sodipodi:arc-type="arc"
       d="M 24.055264,14.849999 A 10.855264,10.855264 0 0 1 13.204156,25.705262 10.855264,10.855264 0 0 1 2.3447393,14.858312 10.855264,10.855264 0 0 1 13.18753,3.9947429 10.855264,10.855264 0 0 1 24.055251,14.833373" />
    <path
       style="font-variation-settings:'wght' 700;fill:#3d5562;fill-opacity:0;stroke:#3d5562;stroke-width:0.808;stroke-linecap:round;stroke-opacity:1"
       id="path2-4"
       sodipodi:type="arc"
       sodipodi:cx="33.866665"
       sodipodi:cy="49.535469"
       sodipodi:rx="10.855264"
       sodipodi:ry="10.855264"
       sodipodi:start="0"
       sodipodi:end="6.2816537"
       sodipodi:open="true"
       sodipodi:arc-type="arc"
       d="M 44.721929,49.535469 A 10.855264,10.855264 0 0 1 33.870821,60.390732 10.855264,10.855264 0 0 1 23.011404,49.543782 10.855264,10.855264 0 0 1 33.854195,38.680213 10.855264,10.855264 0 0 1 44.721916,49.518843" />
    <path
       style="font-variation-settings:'wght' 700;fill:#3d5562;fill-opacity:0;stroke:#3d5562;stroke-width:0.808;stroke-linecap:round;stroke-opacity:1"
       id="path2-5"
       sodipodi:type="arc"
       sodipodi:cx="54.129337"
       sodipodi:cy="14.849999"
       sodipodi:rx="10.855264"
       sodipodi:ry="10.855264"
       sodipodi:start="0"
       sodipodi:end="6.2816537"
       sodipodi:open="true"
       sodipodi:arc-type="arc"
       d="M 64.984601,14.849999 A 10.855264,10.855264 0 0 1 54.133494,25.705262 10.855264,10.855264 0 0 1 43.274077,14.858312 10.855264,10.855264 0 0 1 54.116868,3.9947429 10.855264,10.855264 0 0 1 64.984588,14.833373" />
    <path
       style="font-variation-settings:'wght' 700;fill:#3d5562;fill-opacity:0;stroke:#3d5562;stroke-width:0.808;stroke-linecap:round;stroke-opacity:1"
       d="M 13.2,25.705263 33.866664,38.680204 54.129337,25.705263"
       id="path3" />
    <path
       d="m 14.447144,49.416668 -0.727075,-2.2225 h 0.5334 l 0.631825,1.9685 h -0.2667 l 0.6604,-1.9685 h 0.47625 l 0.635,1.9685 h -0.257175 l 0.6477,-1.9685 h 0.492125 l -0.727075,2.2225 h -0.55245 l -0.561975,-1.7272 h 0.14605 l -0.57785,1.7272 z m 3.797299,0.0254 q -0.2921,0 -0.51435,-0.1143 -0.219075,-0.1143 -0.339725,-0.31115 -0.12065,-0.200025 -0.12065,-0.454025 0,-0.257175 0.117475,-0.454025 0.12065,-0.200025 0.327025,-0.31115 0.206375,-0.1143 0.466725,-0.1143 0.250825,0 0.45085,0.10795 0.2032,0.104775 0.320675,0.3048 0.117475,0.19685 0.117475,0.473075 0,0.02858 -0.0032,0.06668 -0.0032,0.03493 -0.0064,0.06667 h -1.387475 v -0.288925 h 1.127125 l -0.1905,0.08573 q 0,-0.13335 -0.05398,-0.231775 -0.05397,-0.09843 -0.149225,-0.1524 -0.09525,-0.05715 -0.22225,-0.05715 -0.127,0 -0.225425,0.05715 -0.09525,0.05397 -0.149225,0.155575 -0.05397,0.09842 -0.05397,0.23495 v 0.0762 q 0,0.1397 0.06032,0.24765 0.0635,0.104775 0.174625,0.161925 0.1143,0.05397 0.2667,0.05397 0.136525,0 0.238125,-0.04127 0.104775,-0.04127 0.1905,-0.123825 l 0.263525,0.28575 q -0.117475,0.13335 -0.295275,0.206375 -0.1778,0.06985 -0.409575,0.06985 z m 1.155702,-0.0254 v -1.70815 h 0.4953 v 1.70815 z m 0.24765,-1.946275 q -0.136525,0 -0.22225,-0.07937 -0.08573,-0.07938 -0.08573,-0.19685 0,-0.117475 0.08573,-0.19685 0.08573,-0.07937 0.22225,-0.07937 0.136525,0 0.22225,0.0762 0.08573,0.07303 0.08573,0.1905 0,0.123825 -0.08573,0.206375 -0.08255,0.07937 -0.22225,0.07937 z m 1.511302,2.587625 q -0.2413,0 -0.466725,-0.06032 -0.22225,-0.05715 -0.371475,-0.174625 l 0.19685,-0.3556 q 0.10795,0.0889 0.27305,0.1397 0.168275,0.05398 0.3302,0.05398 0.263525,0 0.381,-0.117475 0.12065,-0.117475 0.12065,-0.34925 v -0.257175 l 0.03175,-0.428625 -0.0064,-0.4318 v -0.3683 h 0.4699 v 1.4224 q 0,0.47625 -0.24765,0.701675 -0.24765,0.225425 -0.7112,0.225425 z m -0.0762,-0.7239 q -0.238125,0 -0.4318,-0.1016 -0.1905,-0.104775 -0.307975,-0.288925 -0.1143,-0.187325 -0.1143,-0.434975 0,-0.250825 0.1143,-0.434975 0.117475,-0.187325 0.307975,-0.288925 0.193675,-0.1016 0.4318,-0.1016 0.2159,0 0.381,0.0889 0.1651,0.08572 0.257175,0.269875 0.09208,0.180975 0.09208,0.466725 0,0.282575 -0.09208,0.466725 -0.09208,0.180975 -0.257175,0.269875 -0.1651,0.0889 -0.381,0.0889 z m 0.09843,-0.4064 q 0.130175,0 0.231775,-0.0508 0.1016,-0.05398 0.15875,-0.149225 0.05715,-0.09525 0.05715,-0.219075 0,-0.127 -0.05715,-0.219075 -0.05715,-0.09525 -0.15875,-0.14605 -0.1016,-0.05398 -0.231775,-0.05398 -0.130175,0 -0.231775,0.05398 -0.1016,0.0508 -0.161925,0.14605 -0.05715,0.09208 -0.05715,0.219075 0,0.123825 0.05715,0.219075 0.06033,0.09525 0.161925,0.149225 0.1016,0.0508 0.231775,0.0508 z m 1.397002,0.48895 v -2.35585 h 0.4953 v 1.120775 l -0.111125,-0.142875 q 0.09207,-0.17145 0.263525,-0.263525 0.17145,-0.09208 0.390525,-0.09208 0.2032,0 0.36195,0.08255 0.161925,0.07937 0.254,0.24765 0.09207,0.1651 0.09207,0.42545 v 0.9779 h -0.4953 v -0.9017 q 0,-0.206375 -0.09208,-0.3048 -0.0889,-0.09843 -0.254,-0.09843 -0.117475,0 -0.212725,0.0508 -0.09208,0.04763 -0.14605,0.149225 -0.0508,0.1016 -0.0508,0.26035 v 0.84455 z m 2.892425,0.0254 q -0.301625,0 -0.4699,-0.1524 -0.168275,-0.155575 -0.168275,-0.460375 v -1.4986 h 0.4953 v 1.49225 q 0,0.10795 0.05715,0.168275 0.05715,0.05715 0.155575,0.05715 0.117475,0 0.200025,-0.0635 l 0.13335,0.34925 q -0.0762,0.05398 -0.18415,0.08255 -0.104775,0.0254 -0.219075,0.0254 z m -0.9017,-1.35255 v -0.381 h 1.184275 v 0.381 z"
       id="text3-1"
       style="font-size:3.175px;line-height:0;font-family:Montserrat;-inkscape-font-specification:'Montserrat, @wght=700';font-variation-settings:'wght' 700;fill:#3d5562;stroke:#3d5562;stroke-width:0.808;stroke-linecap:round;stroke-opacity:0"
       transform="rotate(-32.210155)"
       aria-label="Weight" />
    <path
       d="M 32.075512,12.160381 31.348437,9.9378814 h 0.5334 l 0.631825,1.9684996 h -0.2667 l 0.6604,-1.9684996 h 0.47625 l 0.635,1.9684996 h -0.257175 l 0.6477,-1.9684996 h 0.492125 l -0.727075,2.2224996 h -0.55245 l -0.561975,-1.7272 h 0.14605 l -0.57785,1.7272 z m 3.7973,0.0254 q -0.2921,0 -0.51435,-0.1143 -0.219075,-0.1143 -0.339725,-0.31115 -0.12065,-0.200025 -0.12065,-0.454025 0,-0.257175 0.117475,-0.454025 0.12065,-0.200025 0.327025,-0.31115 0.206375,-0.1143 0.466725,-0.1143 0.250825,0 0.45085,0.10795 0.2032,0.104775 0.320675,0.3048 0.117475,0.19685 0.117475,0.473075 0,0.02858 -0.0032,0.06668 -0.0032,0.03492 -0.0064,0.06668 h -1.387475 v -0.288925 h 1.127125 l -0.1905,0.08573 q 0,-0.13335 -0.05398,-0.231775 -0.05398,-0.09842 -0.149225,-0.1524 -0.09525,-0.05715 -0.22225,-0.05715 -0.127,0 -0.225425,0.05715 -0.09525,0.05397 -0.149225,0.155575 -0.05398,0.09843 -0.05398,0.23495 v 0.0762 q 0,0.1397 0.06032,0.24765 0.0635,0.104775 0.174625,0.161925 0.1143,0.05398 0.2667,0.05398 0.136525,0 0.238125,-0.04128 0.104775,-0.04128 0.1905,-0.123825 l 0.263525,0.28575 q -0.117475,0.13335 -0.295275,0.206375 -0.1778,0.06985 -0.409575,0.06985 z m 1.155701,-0.0254 v -1.70815 h 0.4953 v 1.70815 z m 0.24765,-1.946275 q -0.136525,0 -0.22225,-0.07937 -0.08573,-0.07938 -0.08573,-0.1968496 0,-0.117475 0.08573,-0.19685 0.08572,-0.079375 0.22225,-0.079375 0.136525,0 0.22225,0.0762 0.08573,0.073025 0.08573,0.1905 0,0.1238246 -0.08573,0.2063746 -0.08255,0.07937 -0.22225,0.07937 z m 1.511302,2.587625 q -0.2413,0 -0.466725,-0.06033 -0.22225,-0.05715 -0.371475,-0.174625 l 0.19685,-0.3556 q 0.10795,0.0889 0.27305,0.1397 0.168275,0.05398 0.3302,0.05398 0.263525,0 0.381,-0.117475 0.12065,-0.117475 0.12065,-0.34925 v -0.257175 l 0.03175,-0.428625 -0.0063,-0.4318 v -0.3683 h 0.4699 v 1.4224 q 0,0.47625 -0.24765,0.701675 -0.24765,0.225425 -0.7112,0.225425 z m -0.0762,-0.7239 q -0.238125,0 -0.4318,-0.1016 -0.1905,-0.104775 -0.307975,-0.288925 -0.1143,-0.187325 -0.1143,-0.434975 0,-0.250825 0.1143,-0.434975 0.117475,-0.187325 0.307975,-0.288925 0.193675,-0.1016 0.4318,-0.1016 0.2159,0 0.381,0.0889 0.1651,0.08573 0.257175,0.269875 0.09208,0.180975 0.09208,0.466725 0,0.282575 -0.09208,0.466725 -0.09208,0.180975 -0.257175,0.269875 -0.1651,0.0889 -0.381,0.0889 z m 0.09843,-0.4064 q 0.130175,0 0.231775,-0.0508 0.1016,-0.05397 0.15875,-0.149225 0.05715,-0.09525 0.05715,-0.219075 0,-0.127 -0.05715,-0.219075 -0.05715,-0.09525 -0.15875,-0.14605 -0.1016,-0.05398 -0.231775,-0.05398 -0.130175,0 -0.231775,0.05398 -0.1016,0.0508 -0.161925,0.14605 -0.05715,0.09207 -0.05715,0.219075 0,0.123825 0.05715,0.219075 0.06032,0.09525 0.161925,0.149225 0.1016,0.0508 0.231775,0.0508 z m 1.397002,0.48895 V 9.8045314 h 0.4953 v 1.1207746 l -0.111125,-0.142875 q 0.09207,-0.17145 0.263525,-0.263525 0.17145,-0.09207 0.390525,-0.09207 0.2032,0 0.36195,0.08255 0.161925,0.07938 0.254,0.24765 0.09208,0.1651 0.09208,0.42545 v 0.9779 h -0.4953 v -0.9017 q 0,-0.206375 -0.09208,-0.3048 -0.0889,-0.09843 -0.254,-0.09843 -0.117475,0 -0.212725,0.0508 -0.09208,0.04763 -0.14605,0.149225 -0.0508,0.1016 -0.0508,0.26035 v 0.84455 z m 2.892425,0.0254 q -0.301625,0 -0.4699,-0.1524 -0.168275,-0.155575 -0.168275,-0.460375 v -1.4986 h 0.4953 v 1.49225 q 0,0.10795 0.05715,0.168275 0.05715,0.05715 0.155575,0.05715 0.117475,0 0.200025,-0.0635 l 0.13335,0.34925 q -0.0762,0.05397 -0.18415,0.08255 -0.104775,0.0254 -0.219075,0.0254 z m -0.9017,-1.35255 v -0.381 h 1.184275 v 0.381 z"
       id="text3-1-1"
       style="font-size:3.175px;line-height:0;font-family:Montserrat;-inkscape-font-specification:'Montserrat, @wght=700';font-variation-settings:'wght' 700;fill:#3d5562;stroke:#3d5562;stroke-width:0.808;stroke-linecap:round;stroke-opacity:0"
       transform="rotate(34.136427)"
       aria-label="Weight" />
    <path
       style="font-size:3.175px;line-height:0;font-family:Montserrat;-inkscape-font-specification:'Montserrat, @wght=700';font-variation-settings:'wght' 700;baseline-shift:baseline;fill:#3d5562;stroke:#3d5562;stroke-width:0.808;stroke-linecap:round;stroke-opacity:0"
       d="m 8.4589519,15.653275 v -2.2225 h 0.51435 v 2.2225 z m 1.0064723,0 v -1.70815 H 9.9384991 V 14.4182 l -0.0889,-0.142875 q 0.092075,-0.17145 0.2635249,-0.263525 0.17145,-0.09207 0.390525,-0.09207 0.2032,0 0.36195,0.08255 0.161925,0.07938 0.254,0.24765 0.09208,0.1651 0.09208,0.42545 v 0.9779 h -0.4953 v -0.9017 q 0,-0.206375 -0.09207,-0.3048 -0.0889,-0.09843 -0.254,-0.09843 -0.117475,0 -0.212725,0.0508 -0.09207,0.04763 -0.14605,0.149225 -0.0508,0.1016 -0.0508,0.26035 v 0.84455 z m 3.2035748,0.0254 q -0.2159,0 -0.377825,-0.09525 -0.161925,-0.09525 -0.254,-0.288925 -0.0889,-0.19685 -0.0889,-0.4953 0,-0.301625 0.08573,-0.4953 0.08573,-0.193675 0.24765,-0.288925 0.161925,-0.09525 0.38735,-0.09525 0.2413,0 0.4318,0.111125 0.193675,0.10795 0.3048,0.3048 0.1143,0.19685 0.1143,0.46355 0,0.269875 -0.1143,0.466725 -0.111125,0.19685 -0.3048,0.3048 -0.1905,0.10795 -0.4318,0.10795 z m -1.00965,0.59055 v -2.3241 h 0.473075 v 0.34925 l -0.0095,0.508 0.03175,0.504825 v 0.962025 z m 0.923925,-0.99695 q 0.123825,0 0.219075,-0.05715 0.09843,-0.05715 0.155575,-0.161925 0.06033,-0.10795 0.06033,-0.254 0,-0.149225 -0.06033,-0.254 -0.05715,-0.104775 -0.155575,-0.161925 -0.09525,-0.05715 -0.219075,-0.05715 -0.123825,0 -0.22225,0.05715 -0.09843,0.05715 -0.155575,0.161925 -0.05715,0.104775 -0.05715,0.254 0,0.14605 0.05715,0.254 0.05715,0.104775 0.155575,0.161925 0.09842,0.05715 0.22225,0.05715 z m 1.987551,0.4064 q -0.212725,0 -0.381,-0.08255 -0.1651,-0.08255 -0.257175,-0.250825 -0.09208,-0.17145 -0.09208,-0.434975 v -0.9652 h 0.4953 V 14.8373 q 0,0.212725 0.0889,0.314325 0.09207,0.09843 0.257175,0.09843 0.1143,0 0.2032,-0.04763 0.0889,-0.0508 0.1397,-0.1524 0.0508,-0.104775 0.0508,-0.26035 v -0.84455 h 0.4953 v 1.70815 h -0.4699 v -0.4699 l 0.08573,0.136525 q -0.08573,0.1778 -0.254,0.269875 -0.1651,0.0889 -0.36195,0.0889 z m 2.159001,0 q -0.301625,0 -0.4699,-0.1524 Q 16.091651,15.3707 16.091651,15.0659 v -1.4986 h 0.4953 v 1.49225 q 0,0.10795 0.05715,0.168275 0.05715,0.05715 0.155575,0.05715 0.117475,0 0.200025,-0.0635 l 0.13335,0.34925 q -0.0762,0.05398 -0.18415,0.08255 -0.104775,0.0254 -0.219075,0.0254 z m -0.9017,-1.35255 v -0.381 h 1.184275 v 0.381 z"
       id="text3"
       aria-label="Input" />
    <path
       d="m 49.792288,15.653275 v -2.2225 h 0.51435 v 2.2225 z m 1.006472,0 v -1.70815 h 0.473075 V 14.4182 l -0.0889,-0.142875 q 0.09208,-0.17145 0.263525,-0.263525 0.17145,-0.09207 0.390525,-0.09207 0.2032,0 0.36195,0.08255 0.161925,0.07938 0.254,0.24765 0.09208,0.1651 0.09208,0.42545 v 0.9779 h -0.4953 v -0.9017 q 0,-0.206375 -0.09207,-0.3048 -0.0889,-0.09843 -0.254,-0.09843 -0.117475,0 -0.212725,0.0508 -0.09208,0.04763 -0.14605,0.149225 -0.0508,0.1016 -0.0508,0.26035 v 0.84455 z m 3.203575,0.0254 q -0.2159,0 -0.377825,-0.09525 -0.161925,-0.09525 -0.254,-0.288925 -0.0889,-0.19685 -0.0889,-0.4953 0,-0.301625 0.08572,-0.4953 0.08573,-0.193675 0.24765,-0.288925 0.161925,-0.09525 0.38735,-0.09525 0.2413,0 0.4318,0.111125 0.193675,0.10795 0.3048,0.3048 0.1143,0.19685 0.1143,0.46355 0,0.269875 -0.1143,0.466725 -0.111125,0.19685 -0.3048,0.3048 -0.1905,0.10795 -0.4318,0.10795 z m -1.00965,0.59055 v -2.3241 h 0.473075 v 0.34925 l -0.0095,0.508 0.03175,0.504825 v 0.962025 z m 0.923925,-0.99695 q 0.123825,0 0.219075,-0.05715 0.09842,-0.05715 0.155575,-0.161925 0.06032,-0.10795 0.06032,-0.254 0,-0.149225 -0.06032,-0.254 -0.05715,-0.104775 -0.155575,-0.161925 -0.09525,-0.05715 -0.219075,-0.05715 -0.123825,0 -0.22225,0.05715 -0.09843,0.05715 -0.155575,0.161925 -0.05715,0.104775 -0.05715,0.254 0,0.14605 0.05715,0.254 0.05715,0.104775 0.155575,0.161925 0.09842,0.05715 0.22225,0.05715 z m 1.987551,0.4064 q -0.212725,0 -0.381,-0.08255 -0.1651,-0.08255 -0.257175,-0.250825 -0.09208,-0.17145 -0.09208,-0.434975 v -0.9652 h 0.4953 V 14.8373 q 0,0.212725 0.0889,0.314325 0.09208,0.09843 0.257175,0.09843 0.1143,0 0.2032,-0.04763 0.0889,-0.0508 0.1397,-0.1524 0.0508,-0.104775 0.0508,-0.26035 v -0.84455 h 0.4953 v 1.70815 h -0.4699 v -0.4699 l 0.08572,0.136525 q -0.08572,0.1778 -0.254,0.269875 -0.1651,0.0889 -0.36195,0.0889 z m 2.159001,0 q -0.301625,0 -0.4699,-0.1524 Q 57.424987,15.3707 57.424987,15.0659 v -1.4986 h 0.4953 v 1.49225 q 0,0.10795 0.05715,0.168275 0.05715,0.05715 0.155575,0.05715 0.117475,0 0.200025,-0.0635 l 0.13335,0.34925 q -0.0762,0.05398 -0.18415,0.08255 -0.104775,0.0254 -0.219075,0.0254 z m -0.9017,-1.35255 v -0.381 h 1.184275 v 0.381 z"
       id="text3-5"
       style="font-size:3.175px;line-height:0;font-family:Montserrat;-inkscape-font-specification:'Montserrat, @wght=700';font-variation-settings:'wght' 700;fill:#3d5562;stroke:#3d5562;stroke-width:0.808;stroke-linecap:round;stroke-opacity:0"
       aria-label="Input" />
    <path
       d="m 29.175602,50.395896 q -0.263525,0 -0.48895,-0.08573 -0.22225,-0.08572 -0.38735,-0.2413 -0.161925,-0.155575 -0.254,-0.365125 -0.0889,-0.20955 -0.0889,-0.4572 0,-0.24765 0.0889,-0.4572 0.09208,-0.20955 0.257175,-0.365125 0.1651,-0.155575 0.38735,-0.2413 0.22225,-0.08573 0.4826,-0.08573 0.263525,0 0.4826,0.08573 0.22225,0.08572 0.384175,0.2413 0.1651,0.155575 0.257175,0.365125 0.09208,0.206375 0.09208,0.4572 0,0.24765 -0.09208,0.460375 -0.09208,0.20955 -0.257175,0.365125 -0.161925,0.1524 -0.384175,0.238125 -0.219075,0.08573 -0.479425,0.08573 z m -0.0032,-0.43815 q 0.149225,0 0.27305,-0.0508 0.127,-0.0508 0.22225,-0.14605 0.09525,-0.09525 0.14605,-0.225425 0.05397,-0.130175 0.05397,-0.288925 0,-0.15875 -0.05397,-0.288925 -0.0508,-0.130175 -0.14605,-0.225425 -0.09207,-0.09525 -0.219075,-0.14605 -0.127,-0.0508 -0.276225,-0.0508 -0.149225,0 -0.276225,0.0508 -0.123825,0.0508 -0.219075,0.14605 -0.09525,0.09525 -0.149225,0.225425 -0.0508,0.130175 -0.0508,0.288925 0,0.155575 0.0508,0.288925 0.05397,0.130175 0.14605,0.225425 0.09525,0.09525 0.22225,0.14605 0.127,0.0508 0.276225,0.0508 z m 2.289174,0.42545 q -0.212725,0 -0.381,-0.08255 -0.1651,-0.08255 -0.257175,-0.250825 -0.09208,-0.17145 -0.09208,-0.434975 v -0.9652 h 0.4953 v 0.892175 q 0,0.212725 0.0889,0.314325 0.09208,0.09842 0.257175,0.09842 0.1143,0 0.2032,-0.04763 0.0889,-0.0508 0.1397,-0.1524 0.0508,-0.104775 0.0508,-0.26035 v -0.84455 h 0.4953 v 1.70815 h -0.4699 v -0.4699 l 0.08573,0.136525 q -0.08573,0.1778 -0.254,0.269875 -0.1651,0.0889 -0.36195,0.0889 z m 2.159001,0 q -0.301625,0 -0.4699,-0.1524 -0.168275,-0.155575 -0.168275,-0.460375 v -1.4986 h 0.4953 v 1.49225 q 0,0.10795 0.05715,0.168275 0.05715,0.05715 0.155575,0.05715 0.117475,0 0.200025,-0.0635 l 0.13335,0.34925 q -0.0762,0.05397 -0.18415,0.08255 -0.104775,0.0254 -0.219075,0.0254 z m -0.9017,-1.35255 v -0.381 h 1.184275 v 0.381 z m 2.593973,1.35255 q -0.2159,0 -0.377825,-0.09525 -0.161925,-0.09525 -0.254,-0.288925 -0.0889,-0.19685 -0.0889,-0.4953 0,-0.301625 0.08573,-0.4953 0.08572,-0.193675 0.24765,-0.288925 0.161925,-0.09525 0.38735,-0.09525 0.2413,0 0.4318,0.111125 0.193675,0.10795 0.3048,0.3048 0.1143,0.19685 0.1143,0.46355 0,0.269875 -0.1143,0.466725 -0.111125,0.19685 -0.3048,0.3048 -0.1905,0.10795 -0.4318,0.10795 z m -1.00965,0.59055 v -2.3241 H 34.7763 v 0.34925 l -0.0095,0.508 0.03175,0.504825 v 0.962025 z m 0.923925,-0.99695 q 0.123825,0 0.219075,-0.05715 0.09842,-0.05715 0.155575,-0.161925 0.06033,-0.10795 0.06033,-0.254 0,-0.149225 -0.06033,-0.254 -0.05715,-0.104775 -0.155575,-0.161925 -0.09525,-0.05715 -0.219075,-0.05715 -0.123825,0 -0.22225,0.05715 -0.09842,0.05715 -0.155575,0.161925 -0.05715,0.104775 -0.05715,0.254 0,0.14605 0.05715,0.254 0.05715,0.104775 0.155575,0.161925 0.09842,0.05715 0.22225,0.05715 z m 1.987552,0.4064 q -0.212725,0 -0.381,-0.08255 -0.1651,-0.08255 -0.257175,-0.250825 -0.09208,-0.17145 -0.09208,-0.434975 v -0.9652 h 0.4953 v 0.892175 q 0,0.212725 0.0889,0.314325 0.09208,0.09842 0.257175,0.09842 0.1143,0 0.2032,-0.04763 0.0889,-0.0508 0.1397,-0.1524 0.0508,-0.104775 0.0508,-0.26035 v -0.84455 h 0.4953 v 1.70815 h -0.4699 v -0.4699 l 0.08573,0.136525 q -0.08573,0.1778 -0.254,0.269875 -0.1651,0.0889 -0.36195,0.0889 z m 2.159001,0 q -0.301625,0 -0.4699,-0.1524 -0.168275,-0.155575 -0.168275,-0.460375 v -1.4986 h 0.4953 v 1.49225 q 0,0.10795 0.05715,0.168275 0.05715,0.05715 0.155575,0.05715 0.117475,0 0.200025,-0.0635 l 0.13335,0.34925 q -0.0762,0.05397 -0.18415,0.08255 -0.104775,0.0254 -0.219075,0.0254 z m -0.9017,-1.35255 v -0.381 h 1.184275 v 0.381 z"
       id="text4"
       style="font-size:3.175px;line-height:0;font-family:Montserrat;-inkscape-font-specification:'Montserrat, @wght=700';font-variation-settings:'wght' 700;fill:#3d5562;stroke:#3d5562;stroke-width:0.808;stroke-linecap:round;stroke-opacity:0"
       aria-label="Output" />
  </g>
</svg>
