<?xml version="1.0" encoding="UTF-8" standalone="no"?>
<svg
   version="1.1"
   width="256"
   height="256"
   id="svg13"
   sodipodi:docname="x-squared.svg"
   inkscape:version="1.4.2 (f4327f4, 2025-05-13)"
   xmlns:inkscape="http://www.inkscape.org/namespaces/inkscape"
   xmlns:sodipodi="http://sodipodi.sourceforge.net/DTD/sodipodi-0.dtd"
   xmlns="http://www.w3.org/2000/svg"
   xmlns:svg="http://www.w3.org/2000/svg">
  <sodipodi:namedview
     id="namedview13"
     pagecolor="#ffffff"
     bordercolor="#000000"
     borderopacity="0.25"
     inkscape:showpageshadow="2"
     inkscape:pageopacity="0.0"
     inkscape:pagecheckerboard="0"
     inkscape:deskcolor="#d1d1d1"
     inkscape:zoom="2.6573577"
     inkscape:cx="207.72514"
     inkscape:cy="114.96382"
     inkscape:window-width="2560"
     inkscape:window-height="1417"
     inkscape:window-x="-8"
     inkscape:window-y="-8"
     inkscape:window-maximized="1"
     inkscape:current-layer="svg13" />
  <defs
     id="defs1">
    <clipPath
       id="RZPguTfVItXn">
      <path
         fill="none"
         stroke="none"
         d="M 0,0 H 1524 V 931 H 0 Z"
         id="path1" />
    </clipPath>
    <clipPath
       clipPathUnits="userSpaceOnUse"
       id="clipPath13">
      <rect
         style="font-variation-settings:'wght' 700;fill:#3d5562;stroke:#3d5562;stroke-width:3.0441;stroke-linecap:round;stroke-opacity:0"
         id="rect14"
         width="429.99997"
         height="430"
         x="519.5"
         y="316.5" />
    </clipPath>
  </defs>
  <g
     transform="matrix(0.59534887,0,0,0.59534887,-309.28373,-188.42791)"
     clip-path="url(#clipPath13)"
     id="g13">
    <g
       id="g12">
      <rect
         fill="#ffffff"
         stroke="none"
         x="0"
         y="0"
         width="1524"
         height="931"
         fill-opacity="1"
         id="rect1" />
      <path
         fill="none"
         stroke="#c0c0c0"
         paint-order="fill stroke markers"
         d="m 36.5,0.5 v 931 m 0,-931 v 931 m 53,-931 v 931 m 54,-931 v 931 m 54,-931 v 931 m 54,-931 v 931 m 53,-931 v 931 m 54,-931 v 931 m 54,-931 v 931 m 54,-931 v 931 m 53,-931 v 931 m 54,-931 v 931 m 54,-931 v 931 m 54,-931 v 931 m 107,-931 v 931 m 54,-931 v 931 m 54,-931 v 931 m 53,-931 v 931 m 54,-931 v 931 m 54,-931 v 931 m 54,-931 v 931 m 53,-931 v 931 m 54,-931 v 931 m 54,-931 v 931 m 54,-931 v 931 m 53,-931 v 931 m 54,-931 v 931 m 54,-931 v 931"
         stroke-opacity="1"
         stroke-linecap="round"
         stroke-linejoin="round"
         stroke-miterlimit="10"
         id="path2" />
      <path
         fill="none"
         stroke="#c0c0c0"
         paint-order="fill stroke markers"
         d="m 3.5,0.5 v 931 m 11,-931 v 931 m 11,-931 v 931 m 21,-931 v 931 m 11,-931 v 931 m 11,-931 v 931 m 11,-931 v 931 m 21,-931 v 931 m 11,-931 v 931 m 11,-931 v 931 m 10,-931 v 931 m 22,-931 v 931 m 11,-931 v 931 m 10,-931 v 931 m 11,-931 v 931 m 22,-931 v 931 m 10,-931 v 931 m 11,-931 v 931 m 11,-931 v 931 m 21,-931 v 931 m 11,-931 v 931 m 11,-931 v 931 m 11,-931 v 931 m 21,-931 v 931 m 11,-931 v 931 m 11,-931 v 931 m 10,-931 v 931 m 22,-931 v 931 m 11,-931 v 931 m 10,-931 v 931 m 11,-931 v 931 m 22,-931 v 931 m 10,-931 v 931 m 11,-931 v 931 m 11,-931 v 931 m 21,-931 v 931 m 11,-931 v 931 m 11,-931 v 931 m 11,-931 v 931 m 21,-931 v 931 m 11,-931 v 931 m 11,-931 v 931 m 10,-931 v 931 m 22,-931 v 931 m 11,-931 v 931 m 10,-931 v 931 m 11,-931 v 931 m 22,-931 v 931 m 10,-931 v 931 m 11,-931 v 931 m 11,-931 v 931 m 21,-931 v 931 m 11,-931 v 931 m 11,-931 v 931 m 11,-931 v 931 m 21,-931 v 931 m 11,-931 v 931 m 11,-931 v 931 m 10,-931 v 931 m 22,-931 v 931 m 11,-931 v 931 m 10,-931 v 931 m 11,-931 v 931 m 22,-931 v 931 m 10,-931 v 931 m 11,-931 v 931 m 11,-931 v 931 m 21,-931 v 931 m 11,-931 v 931 m 11,-931 v 931 m 11,-931 v 931 m 21,-931 v 931 m 11,-931 v 931 m 11,-931 v 931 m 10,-931 v 931 m 22,-931 v 931 m 11,-931 v 931 m 10,-931 v 931 m 11,-931 v 931 m 22,-931 v 931 m 10,-931 v 931 m 11,-931 v 931 m 11,-931 v 931 m 21,-931 v 931 m 11,-931 v 931 m 11,-931 v 931 m 11,-931 v 931 m 21,-931 v 931 m 11,-931 v 931 m 11,-931 v 931 m 10,-931 v 931 m 22,-931 v 931 m 11,-931 v 931 m 10,-931 v 931 m 11,-931 v 931 m 22,-931 v 931 m 10,-931 v 931 m 11,-931 v 931 m 11,-931 v 931 m 21,-931 v 931 m 11,-931 v 931 m 11,-931 v 931 m 11,-931 v 931 m 21,-931 v 931 m 11,-931 v 931 m 11,-931 v 931 m 10,-931 v 931 m 22,-931 v 931 m 11,-931 v 931 m 10,-931 v 931 m 11,-931 v 931 m 22,-931 v 931 m 10,-931 v 931 m 11,-931 v 931"
         stroke-opacity="0.235294"
         stroke-linecap="round"
         stroke-linejoin="round"
         stroke-miterlimit="10"
         id="path3" />
      <path
         fill="none"
         stroke="#c0c0c0"
         paint-order="fill stroke markers"
         d="m 0.5,47.5 h 1524 m -1524,0 h 1524 m -1524,54 h 1524 m -1524,54 h 1524 m -1524,54 h 1524 m -1524,53 h 1524 m -1524,54 h 1524 m -1524,54 h 1524 m -1524,54 h 1524 m -1524,53 h 1524 m -1524,108 h 1524 m -1524,54 h 1524 m -1524,53 h 1524 m -1524,54 h 1524 m -1524,54 h 1524 m -1524,54 h 1524 m -1524,53 h 1524"
         stroke-opacity="1"
         stroke-linecap="round"
         stroke-linejoin="round"
         stroke-miterlimit="10"
         id="path4" />
      <path
         fill="none"
         stroke="#c0c0c0"
         paint-order="fill stroke markers"
         d="m 0.5,4.5 h 1524 m -1524,11 h 1524 m -1524,11 h 1524 m -1524,11 h 1524 m -1524,21 h 1524 m -1524,11 h 1524 m -1524,11 h 1524 m -1524,10 h 1524 m -1524,22 h 1524 m -1524,11 h 1524 m -1524,10 h 1524 m -1524,11 h 1524 m -1524,22 h 1524 m -1524,10 h 1524 m -1524,11 h 1524 m -1524,11 h 1524 m -1524,21 h 1524 m -1524,11 h 1524 m -1524,11 h 1524 m -1524,11 h 1524 m -1524,21 h 1524 m -1524,11 h 1524 m -1524,11 h 1524 m -1524,10 h 1524 m -1524,22 h 1524 m -1524,11 h 1524 m -1524,10 h 1524 m -1524,11 h 1524 m -1524,22 h 1524 m -1524,10 h 1524 m -1524,11 h 1524 m -1524,11 h 1524 m -1524,21 h 1524 m -1524,11 h 1524 m -1524,11 h 1524 m -1524,11 h 1524 m -1524,21 h 1524 m -1524,11 h 1524 m -1524,11 h 1524 m -1524,10 h 1524 m -1524,22 h 1524 m -1524,11 h 1524 m -1524,10 h 1524 m -1524,11 h 1524 m -1524,22 h 1524 m -1524,10 h 1524 m -1524,11 h 1524 m -1524,11 h 1524 m -1524,21 h 1524 m -1524,11 h 1524 m -1524,11 h 1524 m -1524,11 h 1524 m -1524,21 h 1524 m -1524,11 h 1524 m -1524,11 h 1524 m -1524,10 h 1524 m -1524,22 h 1524 m -1524,11 h 1524 m -1524,10 h 1524 m -1524,11 h 1524 m -1524,22 h 1524 m -1524,10 h 1524 m -1524,11 h 1524 m -1524,11 h 1524 m -1524,21 h 1524 m -1524,11 h 1524 m -1524,11 h 1524 m -1524,11 h 1524 m -1524,21 h 1524 m -1524,11 h 1524"
         stroke-opacity="0.235294"
         stroke-linecap="round"
         stroke-linejoin="round"
         stroke-miterlimit="10"
         id="path5" />
      <path
         fill="none"
         stroke="#252525"
         paint-order="fill stroke markers"
         d="m 734.5,2.5 v 929"
         stroke-opacity="1"
         stroke-miterlimit="10"
         id="path6" />
      <path
         fill="none"
         stroke="#252525"
         paint-order="fill stroke markers"
         d="m 734.5,1.5 -4,4"
         stroke-opacity="1"
         stroke-miterlimit="10"
         id="path7" />
      <path
         fill="none"
         stroke="#252525"
         paint-order="fill stroke markers"
         d="m 734.5,1.5 4,4"
         stroke-opacity="1"
         stroke-miterlimit="10"
         id="path8" />
      <path
         fill="none"
         stroke="#252525"
         paint-order="fill stroke markers"
         d="m 0.5,531.5 h 1522"
         stroke-opacity="1"
         stroke-miterlimit="10"
         id="path9" />
      <path
         fill="none"
         stroke="#252525"
         paint-order="fill stroke markers"
         d="m 1523.5,531.5 -4,-4"
         stroke-opacity="1"
         stroke-miterlimit="10"
         id="path10" />
      <path
         fill="none"
         stroke="#252525"
         paint-order="fill stroke markers"
         d="m 1523.5,531.5 -4,4"
         stroke-opacity="1"
         stroke-miterlimit="10"
         id="path11" />
      <path
         fill="none"
         stroke="#006758"
         paint-order="fill stroke markers"
         d="M 564.31254,-10 565,-5.6406833 v 0 l 1,6.30401695 v 0 l 1,6.26680765 v 0 l 1,6.2295987 v 0 l 1,6.192389 v 0 l 1,6.155179 v 0 l 1,6.117971 v 0 l 1,6.080761 v 0 l 1,6.043552 v 0 l 1,6.006342 v 0 l 1,5.969133 v 0 l 1,5.931924 v 0 l 1,5.894715 v 0 l 1,5.857505 v 0 l 1,5.820296 v 0 l 1,5.783087 v 0 l 1,5.745877 v 0 l 1,5.708668 v 0 l 1,5.671461 v 0 l 1,5.63425 v 0 l 1,5.59704 v 0 l 1,5.55983 v 0 l 1,5.52262 v 0 l 1,5.48541 v 0 l 1,5.44821 v 0 l 1,5.41099 v 0 l 1,5.37378 v 0 l 1,5.33658 v 0 l 1,5.29936 v 0 l 1,5.26216 v 0 l 1,5.22495 v 0 l 1,5.18774 v 0 l 1,5.15052 v 0 l 1,5.11332 v 0 l 1,5.07611 v 0 l 1,5.0389 v 0 l 1,5.0017 v 0 l 1,4.96448 v 0 l 1,4.92727 v 0 l 1,4.89006 v 0 l 1,4.85286 v 0 l 1,4.81564 v 0 l 1,4.77844 v 0 l 1,4.74122 v 0 l 1,4.70402 v 0 l 1,4.66681 v 0 l 1,4.6296 v 0 l 1,4.59239 v 0 l 1,4.55518 v 0 l 1,4.51797 v 0 l 1,4.48076 v 0 l 1,4.44355 v 0 l 1,4.40634 v 0 l 1,4.36913 v 0 l 1,4.33193 v 0 l 1,4.29471 v 0 l 1,4.25751 v 0 l 1,4.22029 v 0 l 1,4.18309 v 0 l 1,4.14588 v 0 l 1,4.10867 v 0 l 1,4.07146 v 0 l 1,4.03424 v 0 l 1,3.99704 v 0 l 1,3.95984 v 0 l 1,3.92262 v 0 l 1,3.88541 v 0 l 1,3.8482 v 0 l 1,3.811 v 0 l 1,3.77378 v 0 l 1,3.73658 v 0 l 1,3.69936 v 0 l 1,3.66216 v 0 l 1,3.62494 v 0 l 1,3.58774 v 0 l 1,3.55053 v 0 l 1,3.51332 v 0 l 1,3.47611 v 0 l 1,3.4389 v 0 l 1,3.40169 v 0 l 1,3.36448 v 0 l 1,3.32728 v 0 l 1,3.29006 v 0 l 1,3.25285 v 0 l 1,3.21565 v 0 l 1,3.17844 v 0 l 1,3.14122 v 0 l 1,3.10402 v 0 l 1,3.06681 v 0 l 1,3.02959 v 0 l 1,2.99239 v 0 l 1,2.95518 v 0 l 1,2.91797 v 0 l 1,2.88076 v 0 l 1,2.84356 v 0 l 1,2.80634 v 0 l 1,2.76913 v 0 l 1,2.73193 v 0 l 1,2.69471 v 0 l 1,2.65751 v 0 l 1,2.62029 v 0 l 1,2.58309 v 0 l 1,2.54588 v 0 l 1,2.50866 v 0 l 1,2.47146 v 0 l 1,2.43425 v 0 l 1,2.39704 v 0 l 1,2.35983 v 0 l 1,2.32262 v 0 l 1,2.28542 v 0 l 1,2.2482 v 0 l 1,2.21099 v 0 l 1,2.17379 v 0 l 1,2.13657 v 0 l 1,2.09937 v 0 l 1,2.06216 v 0 l 1,2.02494 v 0 l 1,1.98774 v 0 l 1,1.95053 v 0 l 1,1.91332 v 0 l 1,1.87611 v 0 l 1,1.8389 v 0 l 1,1.80169 v 0 l 1,1.76448 v 0 l 1,1.72727 v 0 l 1,1.69007 v 0 l 1,1.65285 v 0 l 1,1.61565 v 0 l 1,1.57843 v 0 l 1,1.54123 v 0 l 1,1.50402 v 0 l 1,1.4668 v 0 l 1,1.4296 v 0 l 1,1.39239 v 0 l 1,1.35518 v 0 l 1,1.31797 v 0 l 1,1.28076 v 0 l 1,1.24355 v 0 l 1,1.20635 v 0 l 1,1.16913 v 0 l 1,1.13192 v 0 l 1,1.09472 v 0 l 1,1.0575 v 0 l 1,1.0203 v 0 l 1,0.98309 v 0 l 1,0.94587 v 0 l 1,0.90867 v 0 l 1,0.87146 v 0 l 1,0.83425 v 0 l 1,0.79704 v 0 l 1,0.75983 v 0 l 1,0.72262 v 0 l 1,0.68541 v 0 l 1,0.64821 v 0 l 1,0.61099 v 0 l 1,0.57379 v 0 l 1,0.53657 v 0 l 1,0.49937 v 0 l 1,0.46215 v 0 l 1,0.42495 v 0 l 1,0.38774 v 0 l 1,0.35053 v 0 l 1,0.31332 v 0 l 1,0.27611 v 0 l 1,0.2389 v 0 l 1,0.20169 v 0 l 1,0.16448 v 0 l 1,0.12727 v 0 l 1,0.0901 v 0 l 1,0.0528 v 0 l 1,0.0158 v -1.2e-4 l 1,-0.0216 v 0 l 1,-0.0588 v 0 l 1,-0.096 v 0 l 1,-0.13319 v 0 l 1,-0.1704 v 0 l 1,-0.20761 v 0 l 1,-0.24482 v 0 l 1,-0.28203 v 0 l 1,-0.31924 v 0 l 1,-0.35645 v 0 l 1,-0.39366 v 0 l 1,-0.43086 v 0 l 1,-0.46808 v 0 l 1,-0.50529 v 0 l 1,-0.54249 v 0 l 1,-0.5797 v 0 l 1,-0.61692 v 0 l 1,-0.65412 v 0 l 1,-0.69133 v 0 l 1,-0.72854 v 0 l 1,-0.76575 v 0 l 1,-0.80296 v 0 l 1,-0.84017 v 0 l 1,-0.87738 v 0 l 1,-0.91459 v 0 l 1,-0.9518 v 0 l 1,-0.989 v 0 l 1,-1.02622 v 0 l 1,-1.06342 v 0 l 1,-1.10064 v 0 l 1,-1.13784 v 0 l 1,-1.17505 v 0 l 1,-1.21227 v 0 l 1,-1.24947 v 0 l 1,-1.28668 v 0 l 1,-1.32389 v 0 l 1,-1.3611 v 0 l 1,-1.39831 v 0 l 1,-1.43551 v 0 l 1,-1.47273 v 0 l 1,-1.50994 v 0 l 1,-1.54714 v 0 l 1,-1.58436 v 0 l 1,-1.62156 v 0 l 1,-1.65878 v 0 l 1,-1.69598 v 0 l 1,-1.73319 v 0 l 1,-1.7704 v 0 l 1,-1.80762 v 0 l 1,-1.84482 v 0 l 1,-1.88202 v 0 l 1,-1.91924 v 0 l 1,-1.95645 v 0 l 1,-1.99366 v 0 l 1,-2.03087 v 0 l 1,-2.06807 v 0 l 1,-2.10529 v 0 l 1,-2.14249 v 0 l 1,-2.17971 v 0 l 1,-2.21691 v 0 l 1,-2.25412 v 0 l 1,-2.29133 v 0 l 1,-2.32855 v 0 l 1,-2.36575 v 0 l 1,-2.40296 v 0 l 1,-2.44017 v 0 l 1,-2.47737 v 0 l 1,-2.51459 v 0 l 1,-2.5518 v 0 l 1,-2.589 v 0 l 1,-2.62622 v 0 l 1,-2.66343 v 0 l 1,-2.70063 v 0 l 1,-2.73784 v 0 l 1,-2.77506 v 0 l 1,-2.81226 v 0 l 1,-2.84947 v 0 l 1,-2.88668 v 0 l 1,-2.92389 v 0 l 1,-2.9611 v 0 l 1,-2.99831 v 0 l 1,-3.03552 v 0 l 1,-3.07272 v 0 l 1,-3.10994 v 0 l 1,-3.14715 v 0 l 1,-3.18435 v 0 l 1,-3.22157 v 0 l 1,-3.25877 v 0 l 1,-3.29598 v 0 l 1,-3.3332 v 0 l 1,-3.3704 v 0 l 1,-3.40761 v 0 l 1,-3.44482 v 0 l 1,-3.48203 v 0 l 1,-3.51924 v 0 l 1,-3.55644 v 0 l 1,-3.59366 v 0 l 1,-3.63087 v 0 l 1,-3.66808 v 0 l 1,-3.70528 v 0 l 1,-3.7425 v 0 l 1,-3.7797 v 0 l 1,-3.81691 v 0 l 1,-3.85413 v 0 l 1,-3.89133 v 0 l 1,-3.92854 v 0 l 1,-3.96575 v 0 l 1,-4.00296 v 0 l 1,-4.04017 v 0 l 1,-4.07738 v 0 l 1,-4.11458 v 0 l 1,-4.1518 v 0 l 1,-4.18901 v 0 l 1,-4.22621 v 0 l 1,-4.26343 v 0 l 1,-4.30063 v 0 l 1,-4.33785 v 0 l 1,-4.37505 v 0 l 1,-4.41226 v 0 l 1,-4.44947 v 0 l 1,-4.48668 v 0 l 1,-4.52389 v 0 l 1,-4.5611 v 0 l 1,-4.59831 v 0 l 1,-4.63552 v 0 l 1,-4.67273 v 0 l 1,-4.70993 v 0 l 1,-4.74715 v 0 l 1,-4.78435 v 0 l 1,-4.82157 v 0 l 1,-4.85877 v 0 l 1,-4.89599 v 0 l 1,-4.93319 v 0 l 1,-4.9704 v 0 l 1,-5.00761 v 0 l 1,-5.04482 v 0 l 1,-5.08203 v 0 l 1,-5.11924 v 0 l 1,-5.15645 v 0 l 1,-5.19366 v 0 l 1,-5.23086 v 0 l 1,-5.26808 v 0 l 1,-5.30528 v 0 l 1,-5.3425 v 0 l 1,-5.3797 v 0 l 1,-5.41692 v 0 l 1,-5.45412 v 0 l 1,-5.49133 v 0 l 1,-5.52854 v 0 l 1,-5.56575 v 0 l 1,-5.60296 v 0 l 1,-5.64017 v 0 l 1,-5.677379 v 0 l 1,-5.714588 v 0 l 1,-5.751797 v 0 l 1,-5.789006 v 0 l 1,-5.826216 v 0 l 1,-5.863425 v 0 l 1,-5.900634 v 0 l 1,-5.937844 v 0 l 1,-5.975052 v 0 l 1,-6.012263 v 0 l 1,-6.049471 v 0 l 1,-6.086681 v 0 l 1,-6.12389 v 0 l 1,-6.161099 v 0 l 1,-6.198309 v 0 l 1,-6.2355179 v 0 l 1,-6.27272728 v 0 l 1,-6.30993662 v 0 L 905.52826,-10"
         stroke-opacity="0.8"
         stroke-linecap="round"
         stroke-linejoin="round"
         stroke-miterlimit="10"
         stroke-width="2.5"
         id="path12" />
      <text
         fill="#006758"
         stroke="none"
         font-family="geogebra-sans-serif, sans-serif"
         font-size="16px"
         font-style="normal"
         font-weight="normal"
         text-decoration="normal"
         x="567"
         y="24"
         text-anchor="start"
         dominant-baseline="alphabetic"
         fill-opacity="1"
         id="text12">f</text>
    </g>
  </g>
</svg>
